M48
;GenerationSoftware,Autodesk,EAGLE,9.6.2*%
;CreationDate,2023-05-10T21:43:12Z*%
FMAT,2
ICI,OFF
METRIC,TZ,000.000
T4C0.305
T3C0.800
T2C1.016
T1C3.302
%
G90
M71
T1
X37846Y63754
X30480Y183642
X58166Y123698
X37846Y123698
X30480Y33782
X10160Y33782
X10160Y183642
X58166Y213614
X58166Y33782
X37846Y33782
X85852Y123698
X65532Y123698
X85852Y33782
X65532Y33782
X30480Y213614
X58166Y183642
X30480Y63754
X10160Y63754
X30480Y153670
X10160Y153670
X58166Y63754
X65532Y213614
X37846Y183642
X85852Y63754
X65532Y63754
X10160Y213614
X58166Y153670
X30480Y93726
X10160Y93726
X37846Y153670
X37846Y213614
X58166Y93726
X37846Y93726
X85852Y183642
X85852Y153670
X85852Y93726
X65532Y93726
X65532Y153670
X65532Y183642
X30480Y123698
X10160Y123698
X85852Y213614
T2
X84582Y205740
X56896Y110744
X56896Y113284
X56896Y115824
X84582Y108204
X84582Y110744
X84582Y113284
X84582Y115824
X29210Y138176
X29210Y140716
X29210Y143256
X29210Y145796
X56896Y138176
X56896Y140716
X56896Y143256
X56896Y145796
X84582Y138176
X84582Y140716
X84582Y143256
X84582Y145796
X29210Y168148
X29210Y173228
X29210Y175768
X56896Y168148
X56896Y170688
X56896Y173228
X56896Y175768
X84582Y168148
X84582Y170688
X84582Y173228
X84582Y175768
X29210Y198120
X29210Y200660
X29210Y203200
X29210Y205740
X56896Y198120
X56896Y200660
X56896Y203200
X56896Y205740
X84582Y198120
X84582Y200660
X84582Y203200
X29210Y170688
X29210Y18288
X29210Y20828
X29210Y23368
X29210Y25908
X56896Y18288
X56896Y20828
X56896Y23368
X56896Y25908
X84582Y18288
X84582Y20828
X84582Y23368
X84582Y25908
X29210Y48260
X29210Y50800
X29210Y53340
X29210Y55880
X56896Y48260
X56896Y50800
X56896Y53340
X56896Y55880
X84582Y48260
X84582Y50800
X84582Y53340
X84582Y55880
X29210Y78232
X29210Y80772
X29210Y83312
X29210Y85852
X56896Y78232
X56896Y80772
X56896Y83312
X56896Y85852
X84582Y78232
X84582Y80772
X84582Y83312
X84582Y85852
X29210Y108204
X29210Y110744
X29210Y113284
X29210Y115824
X56896Y108204
T3
X11945Y10570
X28695Y10570
X39631Y10570
X56381Y10570
X67317Y10570
X84067Y10570
X11945Y40542
X28695Y40542
X39631Y40542
X56381Y40542
X84067Y40542
X11945Y70514
X28695Y70514
X39631Y70514
X56381Y70514
X67317Y70514
X84067Y70514
X11945Y100486
X28695Y100486
X39631Y100486
X56381Y100486
X67317Y100486
X84067Y100486
X11945Y130458
X28695Y130458
X39631Y130458
X56381Y130458
X67317Y130458
X84067Y130458
X11945Y160430
X28695Y160430
X39631Y160430
X56381Y160430
X67317Y160430
X84067Y160430
X11945Y190402
X28695Y190402
X39631Y190402
X56381Y190402
X67317Y190402
X84067Y190402
X67317Y40542
T4
X18059Y41046
X20676Y46482
X27788Y47193
X19837Y50698
X23495Y47117
X17145Y51435
X20320Y54610
X20320Y47549
X25908Y41910
X12700Y48260
X15265Y47168
X20498Y39802
X18810Y53555
X21793Y40818
X19558Y50038
X21590Y47015
X28296Y46660
X27305Y42291
X13335Y41910
X23495Y41402
X23724Y51435
X20320Y49149
X28829Y41783
X26924Y47244
X42926Y40640
X49022Y49022
X54356Y52070
X47752Y55397
X54356Y54610
X53086Y40640
X41656Y52070
X50419Y42291
X53086Y47117
X50292Y46965
X44323Y46990
X41859Y47269
X54991Y41275
X49124Y40005
X48260Y50800
X38989Y56388
X39116Y50800
X39116Y48260
X54356Y38100
X42926Y38100
X52451Y56134
X43459Y55905
X52578Y42367
X44425Y42291
X45745Y41046
X48362Y46482
X55474Y47193
X47523Y50698
X51181Y47117
X44831Y51435
X48006Y54610
X48006Y47549
X53594Y41910
X40386Y48260
X42951Y47168
X48184Y39802
X46496Y53555
X49479Y40818
X47244Y50038
X49276Y47015
X55982Y46660
X54991Y42291
X41021Y41910
X51181Y41402
X51410Y51435
X48006Y49149
X56515Y41783
X54610Y47244
X70612Y40640
X76708Y49022
X82042Y52070
X75438Y55397
X82042Y54610
X80772Y40640
X69342Y52070
X78105Y42291
X80772Y47117
X77978Y46965
X72009Y46990
X69545Y47269
X82677Y41275
X76810Y40005
X75946Y50800
X66675Y56388
X66802Y50800
X66802Y48260
X82042Y38100
X70612Y38100
X80137Y56134
X71145Y55905
X80264Y42367
X72111Y42291
X73431Y41046
X76048Y46482
X83160Y47193
X75209Y50698
X78867Y47117
X72517Y51435
X75692Y54610
X75692Y47549
X81280Y41910
X68072Y48260
X70637Y47168
X75870Y39802
X74182Y53555
X77165Y40818
X74930Y50038
X76962Y47015
X83668Y46660
X82677Y42291
X68707Y41910
X78867Y41402
X79096Y51435
X75692Y49149
X84201Y41783
X82296Y47244
X15240Y70612
X21336Y78994
X26670Y82042
X20066Y85369
X26670Y84582
X25400Y70612
X13970Y82042
X22733Y72263
X25400Y77089
X22606Y76937
X16637Y76962
X14173Y77241
X27305Y71247
X21438Y69977
X20574Y80772
X11303Y86360
X11430Y80772
X11430Y78232
X26670Y68072
X15240Y68072
X24765Y86106
X15773Y85877
X24892Y72339
X16739Y72263
X18059Y71018
X20676Y76454
X27788Y77165
X19837Y80670
X23495Y77089
X17145Y81407
X20320Y84582
X20320Y77521
X25908Y71882
X12700Y78232
X15265Y77140
X20498Y69774
X18810Y83527
X21793Y70790
X19558Y80010
X21590Y76987
X28296Y76632
X27305Y72263
X13335Y71882
X23495Y71374
X23724Y81407
X20320Y79121
X28829Y71755
X26924Y77216
X42926Y70612
X49022Y78994
X54356Y82042
X47752Y85369
X54356Y84582
X53086Y70612
X41656Y82042
X50419Y72263
X53086Y77089
X50292Y76937
X44323Y76962
X41859Y77241
X54991Y71247
X49124Y69977
X48260Y80772
X38989Y86360
X39116Y80772
X39116Y78232
X54356Y68072
X42926Y68072
X52451Y86106
X43459Y85877
X52578Y72339
X44425Y72263
X45745Y71018
X48362Y76454
X55474Y77165
X47523Y80670
X51181Y77089
X44831Y81407
X48006Y84582
X48006Y77521
X53594Y71882
X40386Y78232
X42951Y77140
X48184Y69774
X46496Y83527
X49479Y70790
X47244Y80010
X49276Y76987
X55982Y76632
X54991Y72263
X41021Y71882
X51181Y71374
X51410Y81407
X48006Y79121
X56515Y71755
X54610Y77216
X70612Y70612
X76708Y78994
X82042Y82042
X75438Y85369
X82042Y84582
X80772Y70612
X69342Y82042
X78105Y72263
X80772Y77089
X77978Y76937
X72009Y76962
X69545Y77241
X82677Y71247
X76810Y69977
X75946Y80772
X66675Y86360
X66802Y80772
X66802Y78232
X82042Y68072
X70612Y68072
X80137Y86106
X71145Y85877
X80264Y72339
X72111Y72263
X73431Y71018
X76048Y76454
X83160Y77165
X75209Y80670
X78867Y77089
X72517Y81407
X75692Y84582
X75692Y77521
X81280Y71882
X68072Y78232
X70637Y77140
X75870Y69774
X74182Y83527
X77165Y70790
X74930Y80010
X76962Y76987
X83668Y76632
X82677Y72263
X68707Y71882
X78867Y71374
X79096Y81407
X75692Y79121
X84201Y71755
X82296Y77216
X15240Y100584
X21336Y108966
X26670Y112014
X20066Y115341
X26670Y114554
X25400Y100584
X13970Y112014
X22733Y102235
X25400Y107061
X22606Y106909
X16637Y106934
X14173Y107213
X27305Y101219
X21438Y99949
X20574Y110744
X11303Y116332
X11430Y110744
X11430Y108204
X26670Y98044
X15240Y98044
X24765Y116078
X15773Y115849
X24892Y102311
X16739Y102235
X18059Y100990
X20676Y106426
X27788Y107137
X19837Y110642
X23495Y107061
X17145Y111379
X20320Y114554
X20320Y107493
X25908Y101854
X12700Y108204
X15265Y107112
X20498Y99746
X18810Y113499
X21793Y100762
X19558Y109982
X21590Y106959
X28296Y106604
X27305Y102235
X13335Y101854
X23495Y101346
X23724Y111379
X20320Y109093
X28829Y101727
X26924Y107188
X42926Y100584
X49022Y108966
X54356Y112014
X47752Y115341
X54356Y114554
X53086Y100584
X41656Y112014
X50419Y102235
X53086Y107061
X50292Y106909
X44323Y106934
X41859Y107213
X54991Y101219
X49124Y99949
X48260Y110744
X38989Y116332
X39116Y110744
X39116Y108204
X54356Y98044
X42926Y98044
X52451Y116078
X43459Y115849
X52578Y102311
X44425Y102235
X45745Y100990
X48362Y106426
X55474Y107137
X47523Y110642
X51181Y107061
X44831Y111379
X48006Y114554
X48006Y107493
X53594Y101854
X40386Y108204
X42951Y107112
X48184Y99746
X46496Y113499
X49479Y100762
X47244Y109982
X49276Y106959
X55982Y106604
X54991Y102235
X41021Y101854
X51181Y101346
X51410Y111379
X48006Y109093
X56515Y101727
X54610Y107188
X70612Y100584
X76708Y108966
X82042Y112014
X75438Y115341
X82042Y114554
X80772Y100584
X69342Y112014
X78105Y102235
X80772Y107061
X77978Y106909
X72009Y106934
X69545Y107213
X82677Y101219
X76810Y99949
X75946Y110744
X66675Y116332
X66802Y110744
X66802Y108204
X82042Y98044
X70612Y98044
X80137Y116078
X71145Y115849
X80264Y102311
X72111Y102235
X73431Y100990
X76048Y106426
X83160Y107137
X75209Y110642
X78867Y107061
X72517Y111379
X75692Y114554
X75692Y107493
X81280Y101854
X68072Y108204
X70637Y107112
X75870Y99746
X74182Y113499
X77165Y100762
X74930Y109982
X76962Y106959
X83668Y106604
X82677Y102235
X68707Y101854
X78867Y101346
X79096Y111379
X75692Y109093
X84201Y101727
X82296Y107188
X15240Y130556
X21336Y138938
X26670Y141986
X20066Y145313
X26670Y144526
X25400Y130556
X13970Y141986
X22733Y132207
X25400Y137033
X22606Y136881
X16637Y136906
X14173Y137185
X20066Y55397
X21438Y129921
X20574Y140716
X11303Y146304
X11430Y140716
X11430Y138176
X26670Y128016
X15240Y128016
X24765Y146050
X15773Y145821
X24892Y132283
X16739Y132207
X18059Y130962
X20676Y136398
X27788Y137109
X19837Y140614
X23495Y137033
X17145Y141351
X20320Y144526
X20320Y137465
X25908Y131826
X12700Y138176
X15265Y137084
X20498Y129718
X18810Y143471
X21793Y130734
X19558Y139954
X21590Y136931
X28296Y136576
X27305Y132207
X13335Y131826
X23495Y131318
X23724Y141351
X20320Y139065
X28829Y131699
X26924Y137160
X42926Y130556
X49022Y138938
X54356Y141986
X47752Y145313
X54356Y144526
X53086Y130556
X41656Y141986
X50419Y132207
X53086Y137033
X50292Y136881
X44323Y136906
X41859Y137185
X54991Y131191
X49124Y129921
X48260Y140716
X38989Y146304
X39116Y140716
X39116Y138176
X54356Y128016
X42926Y128016
X52451Y146050
X43459Y145821
X52578Y132283
X44425Y132207
X45745Y130962
X48362Y136398
X55474Y137109
X47523Y140614
X51181Y137033
X44831Y141351
X48006Y144526
X48006Y137465
X53594Y131826
X40386Y138176
X42951Y137084
X48184Y129718
X46496Y143471
X49479Y130734
X47244Y139954
X49276Y136931
X55982Y136576
X54991Y132207
X41021Y131826
X51181Y131318
X51410Y141351
X48006Y139065
X56515Y131699
X54610Y137160
X70612Y130556
X76708Y138938
X82042Y141986
X75438Y145313
X82042Y144526
X80772Y130556
X69342Y141986
X78105Y132207
X80772Y137033
X77978Y136881
X72009Y136906
X69545Y137185
X82677Y131191
X76810Y129921
X75946Y140716
X66675Y146304
X66802Y140716
X66802Y138176
X82042Y128016
X70612Y128016
X80137Y146050
X71145Y145821
X80264Y132283
X72111Y132207
X73431Y130962
X76048Y136398
X83160Y137109
X75209Y140614
X78867Y137033
X72517Y141351
X75692Y144526
X75692Y137465
X81280Y131826
X68072Y138176
X70637Y137084
X75870Y129718
X74182Y143471
X77165Y130734
X74930Y139954
X76962Y136931
X83668Y136576
X82677Y132207
X68707Y131826
X78867Y131318
X79096Y141351
X75692Y139065
X84201Y131699
X82296Y137160
X15240Y160528
X21336Y168910
X26670Y171958
X20066Y175285
X26670Y174498
X25400Y160528
X13970Y171958
X22733Y162179
X25400Y167005
X22606Y166853
X16637Y166878
X14173Y167157
X27305Y161163
X21438Y159893
X20574Y170688
X11303Y176276
X11430Y170688
X11430Y168148
X26670Y157988
X15240Y157988
X24765Y176022
X15773Y175793
X24892Y162255
X16739Y162179
X18059Y160934
X20676Y166370
X27788Y167081
X19837Y170586
X23495Y167005
X17145Y171323
X20320Y174498
X20320Y167437
X25908Y161798
X12700Y168148
X15265Y167056
X20498Y159690
X18810Y173443
X21793Y160706
X19558Y169926
X21590Y166903
X28296Y166548
X27305Y162179
X13335Y161798
X23495Y161290
X23724Y171323
X20320Y169037
X28829Y161671
X26924Y167132
X42926Y160528
X49022Y168910
X54356Y171958
X47752Y175285
X54356Y174498
X53086Y160528
X41656Y171958
X50419Y162179
X53086Y167005
X50292Y166853
X44323Y166878
X41859Y167157
X54991Y161163
X49124Y159893
X48260Y170688
X38989Y176276
X39116Y170688
X39116Y168148
X54356Y157988
X42926Y157988
X52451Y176022
X43459Y175793
X52578Y162255
X44425Y162179
X45745Y160934
X48362Y166370
X55474Y167081
X47523Y170586
X51181Y167005
X44831Y171323
X48006Y174498
X48006Y167437
X53594Y161798
X40386Y168148
X42951Y167056
X48184Y159690
X46496Y173443
X49479Y160706
X47244Y169926
X49276Y166903
X55982Y166548
X54991Y162179
X41021Y161798
X51181Y161290
X51410Y171323
X48006Y169037
X56515Y161671
X54610Y167132
X70612Y160528
X76708Y168910
X82042Y171958
X75438Y175285
X82042Y174498
X80772Y160528
X69342Y171958
X78105Y162179
X80772Y167005
X77978Y166853
X72009Y166878
X69545Y167157
X82677Y161163
X76810Y159893
X75946Y170688
X66675Y176276
X66802Y170688
X66802Y168148
X82042Y157988
X70612Y157988
X80137Y176022
X71145Y175793
X80264Y162255
X72111Y162179
X73431Y160934
X76048Y166370
X83160Y167081
X75209Y170586
X78867Y167005
X72517Y171323
X75692Y174498
X75692Y167437
X81280Y161798
X68072Y168148
X70637Y167056
X75870Y159690
X74182Y173443
X77165Y160706
X74930Y169926
X76962Y166903
X83668Y166548
X82677Y162179
X68707Y161798
X78867Y161290
X79096Y171323
X75692Y169037
X84201Y161671
X82296Y167132
X15240Y190500
X21336Y198882
X26670Y201930
X20066Y205257
X26670Y204470
X25400Y190500
X13970Y201930
X22733Y192151
X25400Y196977
X22606Y196825
X16637Y196850
X14173Y197129
X27305Y191135
X21438Y189865
X20574Y200660
X11303Y206248
X11430Y200660
X15240Y10668
X26670Y187960
X15240Y187960
X24765Y205994
X15773Y205765
X24892Y192227
X16739Y192151
X18059Y190906
X20676Y196342
X27788Y197053
X19837Y200558
X23495Y196977
X17145Y201295
X20320Y204470
X20320Y197409
X25908Y191770
X12700Y198120
X15265Y197028
X20498Y189662
X18810Y203415
X21793Y190678
X19558Y199898
X21590Y196875
X28296Y196520
X27305Y192151
X13335Y191770
X23495Y191262
X23724Y201295
X20320Y199009
X28829Y191643
X26924Y197104
X42926Y190500
X49022Y198882
X54356Y201930
X47752Y205257
X54356Y204470
X53086Y190500
X41656Y201930
X50419Y192151
X53086Y196977
X50292Y196825
X44323Y196850
X41859Y197129
X54991Y191135
X49124Y189865
X48260Y200660
X38989Y206248
X39116Y200660
X39116Y198120
X54356Y187960
X42926Y187960
X52451Y205994
X43459Y205765
X52578Y192227
X44425Y192151
X45745Y190906
X48362Y196342
X55474Y197053
X47523Y200558
X51181Y196977
X44831Y201295
X48006Y204470
X48006Y197409
X53594Y191770
X40386Y198120
X42951Y197028
X48184Y189662
X46496Y203415
X49479Y190678
X47244Y199898
X49276Y196875
X55982Y196520
X54991Y192151
X41021Y191770
X51181Y191262
X51410Y201295
X48006Y199009
X56515Y191643
X54610Y197104
X70612Y190500
X76708Y198882
X82042Y201930
X75438Y205257
X82042Y204470
X80772Y190500
X69342Y201930
X78105Y192151
X80772Y196977
X77978Y196825
X72009Y196850
X69545Y197129
X82677Y191135
X76810Y189865
X75946Y200660
X66675Y206248
X66802Y200660
X66802Y198120
X82042Y187960
X70612Y187960
X80137Y205994
X71145Y205765
X80264Y192227
X72111Y192151
X73431Y190906
X76048Y196342
X83160Y197053
X75209Y200558
X78867Y196977
X72517Y201295
X75692Y204470
X75692Y197409
X81280Y191770
X68072Y198120
X70637Y197028
X75870Y189662
X74182Y203415
X77165Y190678
X74930Y199898
X76962Y196875
X83668Y196520
X82677Y192151
X68707Y191770
X78867Y191262
X79096Y201295
X75692Y199009
X84201Y191643
X82296Y197104
X21336Y19050
X26670Y22098
X20066Y25425
X26670Y24638
X25400Y10668
X13970Y22098
X22733Y12319
X25400Y17145
X22606Y16993
X16637Y17018
X14173Y17297
X27305Y11303
X21438Y10033
X20574Y20828
X11303Y26416
X11430Y20828
X11430Y18288
X26670Y8128
X15240Y8128
X24765Y26162
X27305Y131191
X15773Y25933
X24892Y12395
X16739Y12319
X18059Y11074
X20676Y16510
X27788Y17221
X19837Y20726
X23495Y17145
X17145Y21463
X20320Y24638
X20320Y17577
X25908Y11938
X12700Y18288
X15265Y17196
X20498Y9830
X18810Y23583
X21793Y10846
X19558Y20066
X21590Y17043
X28296Y16688
X27305Y12319
X13335Y11938
X23495Y11430
X23724Y21463
X20320Y19177
X28829Y11811
X26924Y17272
X42926Y10668
X49022Y19050
X54356Y22098
X47752Y25425
X54356Y24638
X53086Y10668
X41656Y22098
X50419Y12319
X53086Y17145
X50292Y16993
X44323Y17018
X41859Y17297
X54991Y11303
X49124Y10033
X48260Y20828
X38989Y26416
X39116Y20828
X39116Y18288
X54356Y8128
X42926Y8128
X52451Y26162
X43459Y25933
X52578Y12395
X44425Y12319
X45745Y11074
X48362Y16510
X55474Y17221
X47523Y20726
X51181Y17145
X44831Y21463
X48006Y24638
X48006Y17577
X53594Y11938
X40386Y18288
X42951Y17196
X48184Y9830
X46496Y23583
X49479Y10846
X47244Y20066
X49276Y17043
X55982Y16688
X54991Y12319
X41021Y11938
X51181Y11430
X51410Y21463
X48006Y19177
X56515Y11811
X54610Y17272
X70612Y10668
X76708Y19050
X82042Y22098
X75438Y25425
X82042Y24638
X80772Y10668
X69342Y22098
X78105Y12319
X80772Y17145
X77978Y16993
X72009Y17018
X69545Y17297
X82677Y11303
X76810Y10033
X75946Y20828
X66675Y26416
X66802Y20828
X66802Y18288
X82042Y8128
X70612Y8128
X80137Y26162
X71145Y25933
X80264Y12395
X72111Y12319
X73431Y11074
X76048Y16510
X83160Y17221
X75209Y20726
X78867Y17145
X72517Y21463
X75692Y24638
X75692Y17577
X81280Y11938
X68072Y18288
X70637Y17196
X75870Y9830
X74182Y23583
X77165Y10846
X74930Y20066
X76962Y17043
X83668Y16688
X82677Y12319
X68707Y11938
X78867Y11430
X79096Y21463
X75692Y19177
X84201Y11811
X82296Y17272
X15240Y40640
X21336Y49022
X26670Y52070
X26670Y54610
X25400Y40640
X13970Y52070
X22733Y42291
X25400Y47117
X22606Y46965
X16637Y46990
X14173Y47269
X27305Y41275
X21438Y40005
X20574Y50800
X11303Y56388
X11430Y50800
X11430Y48260
X26670Y38100
X15240Y38100
X24765Y56134
X15773Y55905
X24892Y42367
X16739Y42291
X11430Y198120
M30