solid OLED_Soldering_Jig
facet normal 0.0 0.0 1.0
  outer loop
    vertex 26.93167249999997 44.32130293180776 3.999999999999997
    vertex 16.771672499999998 50.60052825750667 3.999999999999997
    vertex 16.771672499999998 44.32130293180776 3.999999999999997
  endloop
endfacet
facet normal 0.0 0.0 1.0
  outer loop
    vertex 16.771672499999998 50.60052825750667 3.999999999999997
    vertex 26.93167249999997 44.32130293180776 3.999999999999997
    vertex 26.93167249999997 50.60052825750667 3.999999999999997
  endloop
endfacet
facet normal 0.0 -1.0 0.0
  outer loop
    vertex 26.93167249999997 50.60052825750667 8.999999999999998
    vertex 16.771672499999998 50.60052825750667 3.999999999999997
    vertex 26.93167249999997 50.60052825750667 3.999999999999997
  endloop
endfacet
facet normal 0.0 -1.0 0.0
  outer loop
    vertex 16.771672499999998 50.60052825750667 3.999999999999997
    vertex 26.93167249999997 50.60052825750667 8.999999999999998
    vertex 16.771672499999998 50.60052825750667 8.999999999999998
  endloop
endfacet
facet normal -1.0 1.6309192918622802e-32 -5.639932965095796e-16
  outer loop
    vertex 26.93167249999997 64.64130293180772 14.0
    vertex 26.93167249999997 62.22621628081144 8.999999999999998
    vertex 26.93167249999997 62.22621628081144 13.999999999999996
  endloop
endfacet
facet normal -1.0 1.6309192918622802e-32 -5.639932965095796e-16
  outer loop
    vertex 26.93167249999997 62.22621628081144 8.999999999999998
    vertex 26.931672499999976 59.1062058395836 3.9999999999999996
    vertex 26.93167249999997 59.1062058395836 9.0
  endloop
endfacet
facet normal -1.0 1.6309192918622802e-32 -5.639932965095796e-16
  outer loop
    vertex 26.931672499999976 59.1062058395836 3.9999999999999996
    vertex 26.93167249999997 62.22621628081144 8.999999999999998
    vertex 26.931672499999976 64.64130293180772 3.9999999999999996
  endloop
endfacet
facet normal -1.0 1.6309192918622802e-32 -5.639932965095796e-16
  outer loop
    vertex 26.931672499999976 64.64130293180772 3.9999999999999996
    vertex 26.93167249999997 62.22621628081144 8.999999999999998
    vertex 26.93167249999997 64.64130293180772 14.0
  endloop
endfacet
facet normal 1.0 -0.0 -0.0
  outer loop
    vertex 16.771672499999998 50.60052825750667 3.999999999999997
    vertex 16.771672499999998 44.32130293180776 13.999999999999996
    vertex 16.771672499999998 44.32130293180776 3.999999999999997
  endloop
endfacet
facet normal 1.0 -0.0 -0.0
  outer loop
    vertex 16.771672499999998 44.32130293180776 13.999999999999996
    vertex 16.771672499999998 50.60052825750667 3.999999999999997
    vertex 16.771672499999998 50.60052825750667 13.999999999999996
  endloop
endfacet
facet normal 1.0 -0.0 -0.0
  outer loop
    vertex 16.771672499999998 50.60052825750667 13.999999999999996
    vertex 16.771672499999998 50.60052825750667 3.999999999999997
    vertex 16.771672499999998 50.60052825750667 8.999999999999998
  endloop
endfacet
facet normal -6.598963444248312e-32 1.0 2.3775271446838523e-16
  outer loop
    vertex 16.771672499999998 59.1062058395836 8.999999999999998
    vertex 26.931672499999976 59.1062058395836 3.9999999999999996
    vertex 16.7716725 59.1062058395836 3.999999999999997
  endloop
endfacet
facet normal -6.598963444248312e-32 1.0 2.3775271446838523e-16
  outer loop
    vertex 26.931672499999976 59.1062058395836 3.9999999999999996
    vertex 16.771672499999998 59.1062058395836 8.999999999999998
    vertex 26.93167249999997 59.1062058395836 9.0
  endloop
endfacet
facet normal -1.0 0.0 0.0
  outer loop
    vertex 26.93167249999997 50.60052825750667 13.999999999999996
    vertex 26.93167249999997 44.32130293180776 3.999999999999997
    vertex 26.93167249999997 44.32130293180776 13.999999999999996
  endloop
endfacet
facet normal -1.0 0.0 0.0
  outer loop
    vertex 26.93167249999997 44.32130293180776 3.999999999999997
    vertex 26.93167249999997 50.60052825750667 13.999999999999996
    vertex 26.93167249999997 50.60052825750667 3.999999999999997
  endloop
endfacet
facet normal -1.0 0.0 0.0
  outer loop
    vertex 26.93167249999997 50.60052825750667 3.999999999999997
    vertex 26.93167249999997 50.60052825750667 13.999999999999996
    vertex 26.93167249999997 50.60052825750667 8.999999999999998
  endloop
endfacet
facet normal 1.0 7.067316931403213e-32 5.639932965095794e-16
  outer loop
    vertex 16.7716725 64.64130293180772 3.999999999999997
    vertex 16.771672499999998 59.1062058395836 8.999999999999998
    vertex 16.7716725 59.1062058395836 3.999999999999997
  endloop
endfacet
facet normal 1.0 7.067316931403213e-32 5.639932965095794e-16
  outer loop
    vertex 16.771672499999998 59.1062058395836 8.999999999999998
    vertex 16.7716725 64.64130293180772 3.999999999999997
    vertex 16.771672499999998 62.22621628081144 8.999999999999998
  endloop
endfacet
facet normal 1.0 7.067316931403213e-32 5.639932965095794e-16
  outer loop
    vertex 16.771672499999998 62.22621628081144 8.999999999999998
    vertex 16.7716725 64.64130293180772 3.999999999999997
    vertex 16.771672499999998 62.22621628081144 13.999999999999996
  endloop
endfacet
facet normal 1.0 7.067316931403213e-32 5.639932965095794e-16
  outer loop
    vertex 16.771672499999998 62.22621628081144 13.999999999999996
    vertex 16.7716725 64.64130293180772 3.999999999999997
    vertex 16.771672499999998 64.64130293180772 13.999999999999996
  endloop
endfacet
facet normal -3.5194471702657553e-31 -1.0 -2.3775271446838523e-16
  outer loop
    vertex 18.6766725 64.64130293180772 13.999999999999995
    vertex 16.7716725 64.64130293180772 3.999999999999997
    vertex 18.676672500000002 64.64130293180772 3.9999999999999942
  endloop
endfacet
facet normal -3.5194471702657553e-31 -1.0 -2.3775271446838523e-16
  outer loop
    vertex 16.7716725 64.64130293180772 3.999999999999997
    vertex 18.6766725 64.64130293180772 13.999999999999995
    vertex 16.771672499999998 64.64130293180772 13.999999999999996
  endloop
endfacet
facet normal -3.552713678800516e-15 -1.0 -2.377527144683871e-16
  outer loop
    vertex 21.85167249999999 64.6413029318077 3.9999999999999996
    vertex 18.6766725 64.64130293180772 13.999999999999995
    vertex 18.676672500000002 64.64130293180772 3.9999999999999942
  endloop
endfacet
facet normal -3.552713678800516e-15 -1.0 -2.377527144683871e-16
  outer loop
    vertex 18.6766725 64.64130293180772 13.999999999999995
    vertex 21.85167249999999 64.6413029318077 3.9999999999999996
    vertex 21.85167249999998 64.6413029318077 14.0
  endloop
endfacet
facet normal 3.552713678800486e-15 -1.0 -2.3775271446838335e-16
  outer loop
    vertex 25.026672500000004 64.64130293180772 4.000000000000005
    vertex 21.85167249999998 64.6413029318077 14.0
    vertex 21.85167249999999 64.6413029318077 3.9999999999999996
  endloop
endfacet
facet normal 3.552713678800486e-15 -1.0 -2.3775271446838335e-16
  outer loop
    vertex 21.85167249999998 64.6413029318077 14.0
    vertex 25.026672500000004 64.64130293180772 4.000000000000005
    vertex 25.026672499999997 64.64130293180772 14.000000000000005
  endloop
endfacet
facet normal -0.0 -1.0 -0.0
  outer loop
    vertex 36.42964 19.023483999999996 14.0
    vertex 6.682289999999999 19.023483999999996 0.0
    vertex 36.42964 19.023483999999996 0.0
  endloop
endfacet
facet normal -0.0 -1.0 -0.0
  outer loop
    vertex 6.682289999999999 19.023483999999996 0.0
    vertex 36.42964 19.023483999999996 14.0
    vertex 6.682289999999999 19.023483999999996 14.0
  endloop
endfacet
facet normal -0.0 -0.0 1.0
  outer loop
    vertex 32.01167249999996 62.22621628081144 14.0
    vertex 26.93167249999997 64.64130293180772 14.0
    vertex 26.93167249999997 62.22621628081144 13.999999999999996
  endloop
endfacet
facet normal -0.0 -0.0 1.0
  outer loop
    vertex 11.691672500000012 50.60052825750667 13.999999999999995
    vertex 12.211672500000002 49.18330293180776 14.001593999999997
    vertex 16.771672499999998 50.60052825750667 13.999999999999996
  endloop
endfacet
facet normal -0.0 -0.0 1.0
  outer loop
    vertex 12.211672500000002 49.18330293180776 14.001593999999997
    vertex 11.691672500000012 50.60052825750667 13.999999999999995
    vertex 12.211672500000002 46.883302931807755 14.001593999999997
  endloop
endfacet
facet normal -0.0 -0.0 1.0
  outer loop
    vertex 16.771672499999998 50.60052825750667 13.999999999999996
    vertex 12.211672500000002 49.18330293180776 14.001593999999997
    vertex 14.511672500000005 49.18330293180776 14.001593999999997
  endloop
endfacet
facet normal -0.0 -0.0 1.0
  outer loop
    vertex 16.771672499999998 50.60052825750667 13.999999999999996
    vertex 14.511672500000005 49.18330293180776 14.001593999999997
    vertex 16.771672499999998 44.32130293180776 13.999999999999996
  endloop
endfacet
facet normal -0.0 -0.0 1.0
  outer loop
    vertex 6.682289999999999 19.023483999999996 14.0
    vertex 12.211672500000002 46.883302931807755 14.001593999999997
    vertex 6.682289999999999 74.626081 14.0
  endloop
endfacet
facet normal -0.0 -0.0 1.0
  outer loop
    vertex 12.211672500000002 46.883302931807755 14.001593999999997
    vertex 6.682289999999999 19.023483999999996 14.0
    vertex 36.42964 19.023483999999996 14.0
  endloop
endfacet
facet normal -0.0 -0.0 1.0
  outer loop
    vertex 6.682289999999999 74.626081 14.0
    vertex 12.211672500000002 46.883302931807755 14.001593999999997
    vertex 11.691672500000012 50.60052825750667 13.999999999999995
  endloop
endfacet
facet normal -0.0 -0.0 1.0
  outer loop
    vertex 12.211672500000002 46.883302931807755 14.001593999999997
    vertex 36.42964 19.023483999999996 14.0
    vertex 14.511672500000005 46.883302931807755 14.001593999999997
  endloop
endfacet
facet normal -0.0 -0.0 1.0
  outer loop
    vertex 14.511672500000005 46.883302931807755 14.001593999999997
    vertex 36.42964 19.023483999999996 14.0
    vertex 16.771672499999998 44.32130293180776 13.999999999999996
  endloop
endfacet
facet normal -0.0 -0.0 1.0
  outer loop
    vertex 14.511672500000005 46.883302931807755 14.001593999999997
    vertex 16.771672499999998 44.32130293180776 13.999999999999996
    vertex 14.511672500000005 49.18330293180776 14.001593999999997
  endloop
endfacet
facet normal -0.0 -0.0 1.0
  outer loop
    vertex 16.771672499999998 44.32130293180776 13.999999999999996
    vertex 36.42964 19.023483999999996 14.0
    vertex 26.93167249999997 44.32130293180776 13.999999999999996
  endloop
endfacet
facet normal -0.0 -0.0 1.0
  outer loop
    vertex 26.93167249999997 44.32130293180776 13.999999999999996
    vertex 36.42964 19.023483999999996 14.0
    vertex 26.93167249999997 50.60052825750667 13.999999999999996
  endloop
endfacet
facet normal -0.0 -0.0 1.0
  outer loop
    vertex 26.93167249999997 50.60052825750667 13.999999999999996
    vertex 36.42964 19.023483999999996 14.0
    vertex 28.96167249999998 46.883302931807755 14.009248999999997
  endloop
endfacet
facet normal -0.0 -0.0 1.0
  outer loop
    vertex 28.96167249999998 46.883302931807755 14.009248999999997
    vertex 36.42964 19.023483999999996 14.0
    vertex 31.26167249999998 46.883302931807755 14.009248999999997
  endloop
endfacet
facet normal -0.0 -0.0 1.0
  outer loop
    vertex 31.26167249999998 46.883302931807755 14.009248999999997
    vertex 36.42964 19.023483999999996 14.0
    vertex 31.26167249999998 49.18330293180776 14.009248999999997
  endloop
endfacet
facet normal -0.0 -0.0 1.0
  outer loop
    vertex 31.26167249999998 49.18330293180776 14.009248999999997
    vertex 36.42964 19.023483999999996 14.0
    vertex 32.01167249999996 50.60052825750667 14.0
  endloop
endfacet
facet normal -0.0 -0.0 1.0
  outer loop
    vertex 32.01167249999996 50.60052825750667 14.0
    vertex 36.42964 19.023483999999996 14.0
    vertex 32.01167249999996 62.22621628081144 14.0
  endloop
endfacet
facet normal -0.0 -0.0 1.0
  outer loop
    vertex 6.682289999999999 74.626081 14.0
    vertex 11.691672500000012 62.22621628081144 13.999999999999995
    vertex 36.42964 74.626081 14.0
  endloop
endfacet
facet normal -0.0 -0.0 1.0
  outer loop
    vertex 11.691672500000012 62.22621628081144 13.999999999999995
    vertex 6.682289999999999 74.626081 14.0
    vertex 11.691672500000012 50.60052825750667 13.999999999999995
  endloop
endfacet
facet normal -0.0 -0.0 1.0
  outer loop
    vertex 36.42964 74.626081 14.0
    vertex 11.691672500000012 62.22621628081144 13.999999999999995
    vertex 16.771672499999998 64.64130293180772 13.999999999999996
  endloop
endfacet
facet normal -0.0 -0.0 1.0
  outer loop
    vertex 16.771672499999998 64.64130293180772 13.999999999999996
    vertex 11.691672500000012 62.22621628081144 13.999999999999995
    vertex 16.771672499999998 62.22621628081144 13.999999999999996
  endloop
endfacet
facet normal -0.0 -0.0 1.0
  outer loop
    vertex 36.42964 74.626081 14.0
    vertex 16.771672499999998 64.64130293180772 13.999999999999996
    vertex 18.6766725 64.64130293180772 13.999999999999995
  endloop
endfacet
facet normal -0.0 -0.0 1.0
  outer loop
    vertex 36.42964 74.626081 14.0
    vertex 18.6766725 64.64130293180772 13.999999999999995
    vertex 21.85167249999998 64.6413029318077 14.0
  endloop
endfacet
facet normal -0.0 -0.0 1.0
  outer loop
    vertex 36.42964 74.626081 14.0
    vertex 21.85167249999998 64.6413029318077 14.0
    vertex 25.026672499999997 64.64130293180772 14.000000000000005
  endloop
endfacet
facet normal -0.0 -0.0 1.0
  outer loop
    vertex 36.42964 74.626081 14.0
    vertex 25.026672499999997 64.64130293180772 14.000000000000005
    vertex 26.93167249999997 64.64130293180772 14.0
  endloop
endfacet
facet normal -0.0 -0.0 1.0
  outer loop
    vertex 36.42964 74.626081 14.0
    vertex 26.93167249999997 64.64130293180772 14.0
    vertex 32.01167249999996 62.22621628081144 14.0
  endloop
endfacet
facet normal -0.0 -0.0 1.0
  outer loop
    vertex 36.42964 74.626081 14.0
    vertex 32.01167249999996 62.22621628081144 14.0
    vertex 36.42964 19.023483999999996 14.0
  endloop
endfacet
facet normal -0.0 -0.0 1.0
  outer loop
    vertex 26.93167249999997 50.60052825750667 13.999999999999996
    vertex 28.96167249999998 49.18330293180776 14.009248999999997
    vertex 32.01167249999996 50.60052825750667 14.0
  endloop
endfacet
facet normal -0.0 -0.0 1.0
  outer loop
    vertex 28.96167249999998 49.18330293180776 14.009248999999997
    vertex 26.93167249999997 50.60052825750667 13.999999999999996
    vertex 28.96167249999998 46.883302931807755 14.009248999999997
  endloop
endfacet
facet normal -0.0 -0.0 1.0
  outer loop
    vertex 32.01167249999996 50.60052825750667 14.0
    vertex 28.96167249999998 49.18330293180776 14.009248999999997
    vertex 31.26167249999998 49.18330293180776 14.009248999999997
  endloop
endfacet
facet normal -1.0 0.0 0.0
  outer loop
    vertex 6.682289999999999 74.626081 14.0
    vertex 6.682289999999999 19.023483999999996 0.0
    vertex 6.682289999999999 19.023483999999996 14.0
  endloop
endfacet
facet normal -1.0 0.0 0.0
  outer loop
    vertex 6.682289999999999 19.023483999999996 0.0
    vertex 6.682289999999999 74.626081 14.0
    vertex 6.682289999999999 74.626081 0.0
  endloop
endfacet
facet normal 0.0 1.0 0.0
  outer loop
    vertex 28.96167249999998 46.883302931807755 14.009248999999997
    vertex 31.26167249999998 46.883302931807755 2.46747067222941e-15
    vertex 28.96167249999998 46.883302931807755 2.46747067222941e-15
  endloop
endfacet
facet normal 0.0 1.0 0.0
  outer loop
    vertex 31.26167249999998 46.883302931807755 2.46747067222941e-15
    vertex 28.96167249999998 46.883302931807755 14.009248999999997
    vertex 31.26167249999998 46.883302931807755 14.009248999999997
  endloop
endfacet
facet normal -7.038894340531614e-31 -1.0 -2.3775271446838523e-16
  outer loop
    vertex 26.93167249999997 64.64130293180772 14.0
    vertex 25.026672500000004 64.64130293180772 4.000000000000005
    vertex 26.931672499999976 64.64130293180772 3.9999999999999996
  endloop
endfacet
facet normal -7.038894340531614e-31 -1.0 -2.3775271446838523e-16
  outer loop
    vertex 25.026672500000004 64.64130293180772 4.000000000000005
    vertex 26.93167249999997 64.64130293180772 14.0
    vertex 25.026672499999997 64.64130293180772 14.000000000000005
  endloop
endfacet
facet normal -0.0 1.0 -0.0
  outer loop
    vertex 16.771672499999998 44.32130293180776 13.999999999999996
    vertex 26.93167249999997 44.32130293180776 3.999999999999997
    vertex 16.771672499999998 44.32130293180776 3.999999999999997
  endloop
endfacet
facet normal -0.0 1.0 -0.0
  outer loop
    vertex 26.93167249999997 44.32130293180776 3.999999999999997
    vertex 16.771672499999998 44.32130293180776 13.999999999999996
    vertex 26.93167249999997 44.32130293180776 13.999999999999996
  endloop
endfacet
facet normal -1.0 0.0 0.0
  outer loop
    vertex 31.26167249999998 49.18330293180776 14.009248999999997
    vertex 31.26167249999998 46.883302931807755 2.46747067222941e-15
    vertex 31.26167249999998 46.883302931807755 14.009248999999997
  endloop
endfacet
facet normal -1.0 0.0 0.0
  outer loop
    vertex 31.26167249999998 46.883302931807755 2.46747067222941e-15
    vertex 31.26167249999998 49.18330293180776 14.009248999999997
    vertex 31.26167249999998 49.18330293180776 2.46747067222941e-15
  endloop
endfacet
facet normal -0.0 -1.0 -0.0
  outer loop
    vertex 31.26167249999998 49.18330293180776 14.009248999999997
    vertex 28.96167249999998 49.18330293180776 2.46747067222941e-15
    vertex 31.26167249999998 49.18330293180776 2.46747067222941e-15
  endloop
endfacet
facet normal -0.0 -1.0 -0.0
  outer loop
    vertex 28.96167249999998 49.18330293180776 2.46747067222941e-15
    vertex 31.26167249999998 49.18330293180776 14.009248999999997
    vertex 28.96167249999998 49.18330293180776 14.009248999999997
  endloop
endfacet
facet normal 1.0 0.0 0.0
  outer loop
    vertex 28.96167249999998 49.18330293180776 2.46747067222941e-15
    vertex 28.96167249999998 46.883302931807755 14.009248999999997
    vertex 28.96167249999998 46.883302931807755 2.46747067222941e-15
  endloop
endfacet
facet normal 1.0 0.0 0.0
  outer loop
    vertex 28.96167249999998 46.883302931807755 14.009248999999997
    vertex 28.96167249999998 49.18330293180776 2.46747067222941e-15
    vertex 28.96167249999998 49.18330293180776 14.009248999999997
  endloop
endfacet
facet normal -5.224578939412518e-16 -2.3775271446838523e-16 1.0
  outer loop
    vertex 26.931672499999976 59.1062058395836 3.9999999999999996
    vertex 16.7716725 64.64130293180772 3.999999999999997
    vertex 16.7716725 59.1062058395836 3.999999999999997
  endloop
endfacet
facet normal -5.224578939412518e-16 -2.3775271446838523e-16 1.0
  outer loop
    vertex 16.7716725 64.64130293180772 3.999999999999997
    vertex 26.931672499999976 59.1062058395836 3.9999999999999996
    vertex 18.676672500000002 64.64130293180772 3.9999999999999942
  endloop
endfacet
facet normal -5.224578939412518e-16 -2.3775271446838523e-16 1.0
  outer loop
    vertex 18.676672500000002 64.64130293180772 3.9999999999999942
    vertex 26.931672499999976 59.1062058395836 3.9999999999999996
    vertex 21.85167249999999 64.6413029318077 3.9999999999999996
  endloop
endfacet
facet normal -5.224578939412518e-16 -2.3775271446838523e-16 1.0
  outer loop
    vertex 21.85167249999999 64.6413029318077 3.9999999999999996
    vertex 26.931672499999976 59.1062058395836 3.9999999999999996
    vertex 25.026672500000004 64.64130293180772 4.000000000000005
  endloop
endfacet
facet normal -5.224578939412518e-16 -2.3775271446838523e-16 1.0
  outer loop
    vertex 25.026672500000004 64.64130293180772 4.000000000000005
    vertex 26.931672499999976 59.1062058395836 3.9999999999999996
    vertex 26.931672499999976 64.64130293180772 3.9999999999999996
  endloop
endfacet
facet normal 0.0 1.0 0.0
  outer loop
    vertex 6.682289999999999 74.626081 14.0
    vertex 36.42964 74.626081 0.0
    vertex 6.682289999999999 74.626081 0.0
  endloop
endfacet
facet normal 0.0 1.0 0.0
  outer loop
    vertex 36.42964 74.626081 0.0
    vertex 6.682289999999999 74.626081 14.0
    vertex 36.42964 74.626081 14.0
  endloop
endfacet
facet normal 1.0 0.0 0.0
  outer loop
    vertex 36.42964 74.626081 0.0
    vertex 36.42964 19.023483999999996 14.0
    vertex 36.42964 19.023483999999996 0.0
  endloop
endfacet
facet normal 1.0 0.0 0.0
  outer loop
    vertex 36.42964 19.023483999999996 14.0
    vertex 36.42964 74.626081 0.0
    vertex 36.42964 74.626081 14.0
  endloop
endfacet
facet normal 0.0 0.0 -1.0
  outer loop
    vertex 6.682289999999999 74.626081 0.0
    vertex 12.211672500000002 49.18330293180776 2.7318425299682757e-15
    vertex 6.682289999999999 19.023483999999996 0.0
  endloop
endfacet
facet normal 0.0 0.0 -1.0
  outer loop
    vertex 12.211672500000002 49.18330293180776 2.7318425299682757e-15
    vertex 6.682289999999999 74.626081 0.0
    vertex 36.42964 74.626081 0.0
  endloop
endfacet
facet normal 0.0 0.0 -1.0
  outer loop
    vertex 12.211672500000002 49.18330293180776 2.7318425299682757e-15
    vertex 36.42964 74.626081 0.0
    vertex 14.511672500000005 49.18330293180776 2.7318425299682757e-15
  endloop
endfacet
facet normal 0.0 0.0 -1.0
  outer loop
    vertex 14.511672500000005 49.18330293180776 2.7318425299682757e-15
    vertex 36.42964 74.626081 0.0
    vertex 14.511672500000005 46.883302931807755 2.7318425299682757e-15
  endloop
endfacet
facet normal 0.0 0.0 -1.0
  outer loop
    vertex 14.511672500000005 46.883302931807755 2.7318425299682757e-15
    vertex 36.42964 74.626081 0.0
    vertex 28.96167249999998 49.18330293180776 2.46747067222941e-15
  endloop
endfacet
facet normal 0.0 0.0 -1.0
  outer loop
    vertex 28.96167249999998 49.18330293180776 2.46747067222941e-15
    vertex 36.42964 74.626081 0.0
    vertex 31.26167249999998 49.18330293180776 2.46747067222941e-15
  endloop
endfacet
facet normal 0.0 0.0 -1.0
  outer loop
    vertex 31.26167249999998 49.18330293180776 2.46747067222941e-15
    vertex 36.42964 74.626081 0.0
    vertex 31.26167249999998 46.883302931807755 2.46747067222941e-15
  endloop
endfacet
facet normal 0.0 0.0 -1.0
  outer loop
    vertex 6.682289999999999 19.023483999999996 0.0
    vertex 12.211672500000002 46.883302931807755 2.7318425299682757e-15
    vertex 36.42964 19.023483999999996 0.0
  endloop
endfacet
facet normal 0.0 0.0 -1.0
  outer loop
    vertex 12.211672500000002 46.883302931807755 2.7318425299682757e-15
    vertex 6.682289999999999 19.023483999999996 0.0
    vertex 12.211672500000002 49.18330293180776 2.7318425299682757e-15
  endloop
endfacet
facet normal 0.0 0.0 -1.0
  outer loop
    vertex 36.42964 19.023483999999996 0.0
    vertex 12.211672500000002 46.883302931807755 2.7318425299682757e-15
    vertex 14.511672500000005 46.883302931807755 2.7318425299682757e-15
  endloop
endfacet
facet normal 0.0 0.0 -1.0
  outer loop
    vertex 36.42964 19.023483999999996 0.0
    vertex 14.511672500000005 46.883302931807755 2.7318425299682757e-15
    vertex 28.96167249999998 46.883302931807755 2.46747067222941e-15
  endloop
endfacet
facet normal 0.0 0.0 -1.0
  outer loop
    vertex 28.96167249999998 46.883302931807755 2.46747067222941e-15
    vertex 14.511672500000005 46.883302931807755 2.7318425299682757e-15
    vertex 28.96167249999998 49.18330293180776 2.46747067222941e-15
  endloop
endfacet
facet normal 0.0 0.0 -1.0
  outer loop
    vertex 36.42964 19.023483999999996 0.0
    vertex 28.96167249999998 46.883302931807755 2.46747067222941e-15
    vertex 31.26167249999998 46.883302931807755 2.46747067222941e-15
  endloop
endfacet
facet normal 0.0 0.0 -1.0
  outer loop
    vertex 36.42964 19.023483999999996 0.0
    vertex 31.26167249999998 46.883302931807755 2.46747067222941e-15
    vertex 36.42964 74.626081 0.0
  endloop
endfacet
facet normal -1.0 0.0 0.0
  outer loop
    vertex 14.511672500000005 49.18330293180776 14.001593999999997
    vertex 14.511672500000005 46.883302931807755 2.7318425299682757e-15
    vertex 14.511672500000005 46.883302931807755 14.001593999999997
  endloop
endfacet
facet normal -1.0 0.0 0.0
  outer loop
    vertex 14.511672500000005 46.883302931807755 2.7318425299682757e-15
    vertex 14.511672500000005 49.18330293180776 14.001593999999997
    vertex 14.511672500000005 49.18330293180776 2.7318425299682757e-15
  endloop
endfacet
facet normal 0.0 1.0 0.0
  outer loop
    vertex 12.211672500000002 46.883302931807755 14.001593999999997
    vertex 14.511672500000005 46.883302931807755 2.7318425299682757e-15
    vertex 12.211672500000002 46.883302931807755 2.7318425299682757e-15
  endloop
endfacet
facet normal 0.0 1.0 0.0
  outer loop
    vertex 14.511672500000005 46.883302931807755 2.7318425299682757e-15
    vertex 12.211672500000002 46.883302931807755 14.001593999999997
    vertex 14.511672500000005 46.883302931807755 14.001593999999997
  endloop
endfacet
facet normal -0.0 -1.0 -0.0
  outer loop
    vertex 14.511672500000005 49.18330293180776 14.001593999999997
    vertex 12.211672500000002 49.18330293180776 2.7318425299682757e-15
    vertex 14.511672500000005 49.18330293180776 2.7318425299682757e-15
  endloop
endfacet
facet normal -0.0 -1.0 -0.0
  outer loop
    vertex 12.211672500000002 49.18330293180776 2.7318425299682757e-15
    vertex 14.511672500000005 49.18330293180776 14.001593999999997
    vertex 12.211672500000002 49.18330293180776 14.001593999999997
  endloop
endfacet
facet normal 1.0 0.0 0.0
  outer loop
    vertex 12.211672500000002 49.18330293180776 2.7318425299682757e-15
    vertex 12.211672500000002 46.883302931807755 14.001593999999997
    vertex 12.211672500000002 46.883302931807755 2.7318425299682757e-15
  endloop
endfacet
facet normal 1.0 0.0 0.0
  outer loop
    vertex 12.211672500000002 46.883302931807755 14.001593999999997
    vertex 12.211672500000002 49.18330293180776 2.7318425299682757e-15
    vertex 12.211672500000002 49.18330293180776 14.001593999999997
  endloop
endfacet
facet normal -2.2709107321878256e-16 -2.1548876547846615e-17 1.0
  outer loop
    vertex 26.93167249999997 50.60052825750667 8.999999999999998
    vertex 16.771672499999998 59.1062058395836 8.999999999999998
    vertex 16.771672499999998 50.60052825750667 8.999999999999998
  endloop
endfacet
facet normal -2.2709107321878256e-16 -2.1548876547846615e-17 1.0
  outer loop
    vertex 16.771672499999998 59.1062058395836 8.999999999999998
    vertex 26.93167249999997 50.60052825750667 8.999999999999998
    vertex 26.93167249999997 59.1062058395836 9.0
  endloop
endfacet
facet normal -2.2709107321878256e-16 -2.1548876547846615e-17 1.0
  outer loop
    vertex 26.93167249999997 59.1062058395836 9.0
    vertex 26.93167249999997 50.60052825750667 8.999999999999998
    vertex 32.01167249999996 50.60052825750667 9.0
  endloop
endfacet
facet normal -2.2709107321878256e-16 -2.1548876547846615e-17 1.0
  outer loop
    vertex 26.93167249999997 59.1062058395836 9.0
    vertex 32.01167249999996 50.60052825750667 9.0
    vertex 26.93167249999997 62.22621628081144 8.999999999999998
  endloop
endfacet
facet normal -2.2709107321878256e-16 -2.1548876547846615e-17 1.0
  outer loop
    vertex 26.93167249999997 62.22621628081144 8.999999999999998
    vertex 32.01167249999996 50.60052825750667 9.0
    vertex 32.01167249999996 62.22621628081144 9.0
  endloop
endfacet
facet normal -2.2709107321878256e-16 -2.1548876547846615e-17 1.0
  outer loop
    vertex 16.771672499999998 50.60052825750667 8.999999999999998
    vertex 11.691672500000013 62.22621628081144 8.999999999999995
    vertex 11.691672500000013 50.60052825750667 8.999999999999995
  endloop
endfacet
facet normal -2.2709107321878256e-16 -2.1548876547846615e-17 1.0
  outer loop
    vertex 11.691672500000013 62.22621628081144 8.999999999999995
    vertex 16.771672499999998 50.60052825750667 8.999999999999998
    vertex 16.771672499999998 62.22621628081144 8.999999999999998
  endloop
endfacet
facet normal -2.2709107321878256e-16 -2.1548876547846615e-17 1.0
  outer loop
    vertex 16.771672499999998 62.22621628081144 8.999999999999998
    vertex 16.771672499999998 50.60052825750667 8.999999999999998
    vertex 16.771672499999998 59.1062058395836 8.999999999999998
  endloop
endfacet
facet normal -1.0 0.0 -2.2709107321878256e-16
  outer loop
    vertex 32.01167249999996 62.22621628081144 14.0
    vertex 32.01167249999996 50.60052825750667 9.0
    vertex 32.01167249999996 50.60052825750667 14.0
  endloop
endfacet
facet normal -1.0 0.0 -2.2709107321878256e-16
  outer loop
    vertex 32.01167249999996 50.60052825750667 9.0
    vertex 32.01167249999996 62.22621628081144 14.0
    vertex 32.01167249999996 62.22621628081144 9.0
  endloop
endfacet
facet normal -1.1962029449112214e-32 1.0 2.1548876547846615e-17
  outer loop
    vertex 26.93167249999997 50.60052825750667 13.999999999999996
    vertex 32.01167249999996 50.60052825750667 9.0
    vertex 26.93167249999997 50.60052825750667 8.999999999999998
  endloop
endfacet
facet normal -1.1962029449112214e-32 1.0 2.1548876547846615e-17
  outer loop
    vertex 32.01167249999996 50.60052825750667 9.0
    vertex 26.93167249999997 50.60052825750667 13.999999999999996
    vertex 32.01167249999996 50.60052825750667 14.0
  endloop
endfacet
facet normal 1.1962029449112214e-32 -1.0 -2.1548876547846615e-17
  outer loop
    vertex 32.01167249999996 62.22621628081144 9.0
    vertex 26.93167249999997 62.22621628081144 13.999999999999996
    vertex 26.93167249999997 62.22621628081144 8.999999999999998
  endloop
endfacet
facet normal 1.1962029449112214e-32 -1.0 -2.1548876547846615e-17
  outer loop
    vertex 26.93167249999997 62.22621628081144 13.999999999999996
    vertex 32.01167249999996 62.22621628081144 9.0
    vertex 32.01167249999996 62.22621628081144 14.0
  endloop
endfacet
facet normal 1.1962029449112221e-32 -1.0 -2.1548876547846615e-17
  outer loop
    vertex 16.771672499999998 62.22621628081144 8.999999999999998
    vertex 11.691672500000012 62.22621628081144 13.999999999999995
    vertex 11.691672500000013 62.22621628081144 8.999999999999995
  endloop
endfacet
facet normal 1.1962029449112221e-32 -1.0 -2.1548876547846615e-17
  outer loop
    vertex 11.691672500000012 62.22621628081144 13.999999999999995
    vertex 16.771672499999998 62.22621628081144 8.999999999999998
    vertex 16.771672499999998 62.22621628081144 13.999999999999996
  endloop
endfacet
facet normal 1.0 0.0 2.2709107321878256e-16
  outer loop
    vertex 11.691672500000013 62.22621628081144 8.999999999999995
    vertex 11.691672500000012 50.60052825750667 13.999999999999995
    vertex 11.691672500000013 50.60052825750667 8.999999999999995
  endloop
endfacet
facet normal 1.0 0.0 2.2709107321878256e-16
  outer loop
    vertex 11.691672500000012 50.60052825750667 13.999999999999995
    vertex 11.691672500000013 62.22621628081144 8.999999999999995
    vertex 11.691672500000012 62.22621628081144 13.999999999999995
  endloop
endfacet
facet normal -1.1962029449112221e-32 1.0 2.1548876547846615e-17
  outer loop
    vertex 11.691672500000012 50.60052825750667 13.999999999999995
    vertex 16.771672499999998 50.60052825750667 8.999999999999998
    vertex 11.691672500000013 50.60052825750667 8.999999999999995
  endloop
endfacet
facet normal -1.1962029449112221e-32 1.0 2.1548876547846615e-17
  outer loop
    vertex 16.771672499999998 50.60052825750667 8.999999999999998
    vertex 11.691672500000012 50.60052825750667 13.999999999999995
    vertex 16.771672499999998 50.60052825750667 13.999999999999996
  endloop
endfacet
endsolid OLED_Soldering_Jig
