G75*
%MOIN*%
%OFA0B0*%
%FSLAX25Y25*%
%IPPOS*%
%LPD*%
%AMOC8*
5,1,8,0,0,1.08239X$1,22.5*
%
%ADD10C,0.00800*%
%ADD11C,0.00000*%
D10*
X0001400Y0064537D02*
X0001400Y0079537D01*
X0433600Y0079537D01*
X0433600Y0064537D01*
X0001400Y0064537D01*
X0015400Y0080337D02*
X0095400Y0080337D01*
X0095400Y0160337D01*
X0087900Y0160337D01*
X0087900Y0175337D01*
X0108900Y0175337D01*
X0108900Y0195337D01*
X0071160Y0195337D01*
X0071160Y0178977D01*
X0071148Y0178959D02*
X0039652Y0178959D01*
X0039652Y0186833D01*
X0063274Y0186833D01*
X0063274Y0195337D01*
X0001400Y0195337D01*
X0001400Y0175337D01*
X0022900Y0175337D01*
X0022900Y0160337D01*
X0015400Y0160337D01*
X0015400Y0080337D01*
X0109700Y0175337D02*
X0131200Y0175337D01*
X0131200Y0160337D01*
X0123700Y0160337D01*
X0123700Y0080337D01*
X0203700Y0080337D01*
X0203700Y0160337D01*
X0196200Y0160337D01*
X0196200Y0175337D01*
X0217200Y0175337D01*
X0217200Y0195337D01*
X0179460Y0195337D01*
X0179460Y0178977D01*
X0179448Y0178959D02*
X0147952Y0178959D01*
X0147952Y0186833D01*
X0171574Y0186833D01*
X0171574Y0195337D01*
X0109700Y0195337D01*
X0109700Y0175337D01*
X0123700Y0211937D02*
X0203700Y0211937D01*
X0203700Y0291937D01*
X0196200Y0291937D01*
X0196200Y0306937D01*
X0217200Y0306937D01*
X0217200Y0326937D01*
X0179460Y0326937D01*
X0179460Y0310577D01*
X0179448Y0310559D02*
X0147952Y0310559D01*
X0147952Y0318433D01*
X0171574Y0318433D01*
X0171574Y0326937D01*
X0109700Y0326937D01*
X0109700Y0306937D01*
X0131200Y0306937D01*
X0131200Y0291937D01*
X0123700Y0291937D01*
X0123700Y0211937D01*
X0095400Y0211937D02*
X0015400Y0211937D01*
X0015400Y0291937D01*
X0022900Y0291937D01*
X0022900Y0306937D01*
X0001400Y0306937D01*
X0001400Y0326937D01*
X0063274Y0326937D01*
X0063274Y0318433D01*
X0039652Y0318433D01*
X0039652Y0310559D01*
X0071148Y0310559D01*
X0071160Y0310577D02*
X0071160Y0326937D01*
X0108900Y0326937D01*
X0108900Y0306937D01*
X0087900Y0306937D01*
X0087900Y0291937D01*
X0095400Y0291937D01*
X0095400Y0211937D01*
X0001400Y0211137D02*
X0001400Y0196137D01*
X0433600Y0196137D01*
X0433600Y0211137D01*
X0001400Y0211137D01*
X0001400Y0327737D02*
X0001400Y0342737D01*
X0433600Y0342737D01*
X0433600Y0327737D01*
X0001400Y0327737D01*
X0015400Y0343537D02*
X0095400Y0343537D01*
X0095400Y0423537D01*
X0087900Y0423537D01*
X0087900Y0438537D01*
X0108900Y0438537D01*
X0108900Y0458537D01*
X0071160Y0458537D01*
X0071160Y0442177D01*
X0071148Y0442159D02*
X0039652Y0442159D01*
X0039652Y0450033D01*
X0063274Y0450033D01*
X0063274Y0458537D01*
X0001400Y0458537D01*
X0001400Y0438537D01*
X0022900Y0438537D01*
X0022900Y0423537D01*
X0015400Y0423537D01*
X0015400Y0343537D01*
X0109700Y0438537D02*
X0131200Y0438537D01*
X0131200Y0423537D01*
X0123700Y0423537D01*
X0123700Y0343537D01*
X0203700Y0343537D01*
X0203700Y0423537D01*
X0196200Y0423537D01*
X0196200Y0438537D01*
X0217200Y0438537D01*
X0217200Y0458537D01*
X0179460Y0458537D01*
X0179460Y0442177D01*
X0179448Y0442159D02*
X0147952Y0442159D01*
X0147952Y0450033D01*
X0171574Y0450033D01*
X0171574Y0458537D01*
X0109700Y0458537D01*
X0109700Y0438537D01*
X0218000Y0438537D02*
X0218000Y0458537D01*
X0279874Y0458537D01*
X0279874Y0450033D01*
X0256252Y0450033D01*
X0256252Y0442159D01*
X0287748Y0442159D01*
X0287760Y0442177D02*
X0287760Y0458537D01*
X0325500Y0458537D01*
X0325500Y0438537D01*
X0304500Y0438537D01*
X0304500Y0423537D01*
X0312000Y0423537D01*
X0312000Y0343537D01*
X0232000Y0343537D01*
X0232000Y0423537D01*
X0239500Y0423537D01*
X0239500Y0438537D01*
X0218000Y0438537D01*
X0326300Y0438537D02*
X0326300Y0458537D01*
X0388174Y0458537D01*
X0388174Y0450033D01*
X0364552Y0450033D01*
X0364552Y0442159D01*
X0396048Y0442159D01*
X0396060Y0442177D02*
X0396060Y0458537D01*
X0433800Y0458537D01*
X0433800Y0438537D01*
X0412800Y0438537D01*
X0412800Y0423537D01*
X0420300Y0423537D01*
X0420300Y0343537D01*
X0340300Y0343537D01*
X0340300Y0423537D01*
X0347800Y0423537D01*
X0347800Y0438537D01*
X0326300Y0438537D01*
X0326300Y0326937D02*
X0388174Y0326937D01*
X0388174Y0318433D01*
X0364552Y0318433D01*
X0364552Y0310559D01*
X0396048Y0310559D01*
X0396060Y0310577D02*
X0396060Y0326937D01*
X0433800Y0326937D01*
X0433800Y0306937D01*
X0412800Y0306937D01*
X0412800Y0291937D01*
X0420300Y0291937D01*
X0420300Y0211937D01*
X0340300Y0211937D01*
X0340300Y0291937D01*
X0347800Y0291937D01*
X0347800Y0306937D01*
X0326300Y0306937D01*
X0326300Y0326937D01*
X0325500Y0326937D02*
X0287760Y0326937D01*
X0287760Y0310577D01*
X0287748Y0310559D02*
X0256252Y0310559D01*
X0256252Y0318433D01*
X0279874Y0318433D01*
X0279874Y0326937D01*
X0218000Y0326937D01*
X0218000Y0306937D01*
X0239500Y0306937D01*
X0239500Y0291937D01*
X0232000Y0291937D01*
X0232000Y0211937D01*
X0312000Y0211937D01*
X0312000Y0291937D01*
X0304500Y0291937D01*
X0304500Y0306937D01*
X0325500Y0306937D01*
X0325500Y0326937D01*
X0325500Y0195337D02*
X0287760Y0195337D01*
X0287760Y0178977D01*
X0287748Y0178959D02*
X0256252Y0178959D01*
X0256252Y0186833D01*
X0279874Y0186833D01*
X0279874Y0195337D01*
X0218000Y0195337D01*
X0218000Y0175337D01*
X0239500Y0175337D01*
X0239500Y0160337D01*
X0232000Y0160337D01*
X0232000Y0080337D01*
X0312000Y0080337D01*
X0312000Y0160337D01*
X0304500Y0160337D01*
X0304500Y0175337D01*
X0325500Y0175337D01*
X0325500Y0195337D01*
X0326300Y0195337D02*
X0388174Y0195337D01*
X0388174Y0186833D01*
X0364552Y0186833D01*
X0364552Y0178959D01*
X0396048Y0178959D01*
X0396060Y0178977D02*
X0396060Y0195337D01*
X0433800Y0195337D01*
X0433800Y0175337D01*
X0412800Y0175337D01*
X0412800Y0160337D01*
X0420300Y0160337D01*
X0420300Y0080337D01*
X0340300Y0080337D01*
X0340300Y0160337D01*
X0347800Y0160337D01*
X0347800Y0175337D01*
X0326300Y0175337D01*
X0326300Y0195337D01*
D11*
X0308000Y0185337D02*
X0308002Y0185498D01*
X0308008Y0185658D01*
X0308018Y0185819D01*
X0308032Y0185979D01*
X0308050Y0186139D01*
X0308071Y0186298D01*
X0308097Y0186457D01*
X0308127Y0186615D01*
X0308160Y0186772D01*
X0308198Y0186929D01*
X0308239Y0187084D01*
X0308284Y0187238D01*
X0308333Y0187391D01*
X0308386Y0187543D01*
X0308442Y0187694D01*
X0308503Y0187843D01*
X0308566Y0187991D01*
X0308634Y0188137D01*
X0308705Y0188281D01*
X0308779Y0188423D01*
X0308857Y0188564D01*
X0308939Y0188702D01*
X0309024Y0188839D01*
X0309112Y0188973D01*
X0309204Y0189105D01*
X0309299Y0189235D01*
X0309397Y0189363D01*
X0309498Y0189488D01*
X0309602Y0189610D01*
X0309709Y0189730D01*
X0309819Y0189847D01*
X0309932Y0189962D01*
X0310048Y0190073D01*
X0310167Y0190182D01*
X0310288Y0190287D01*
X0310412Y0190390D01*
X0310538Y0190490D01*
X0310666Y0190586D01*
X0310797Y0190679D01*
X0310931Y0190769D01*
X0311066Y0190856D01*
X0311204Y0190939D01*
X0311343Y0191019D01*
X0311485Y0191095D01*
X0311628Y0191168D01*
X0311773Y0191237D01*
X0311920Y0191303D01*
X0312068Y0191365D01*
X0312218Y0191423D01*
X0312369Y0191478D01*
X0312522Y0191529D01*
X0312676Y0191576D01*
X0312831Y0191619D01*
X0312987Y0191658D01*
X0313143Y0191694D01*
X0313301Y0191725D01*
X0313459Y0191753D01*
X0313618Y0191777D01*
X0313778Y0191797D01*
X0313938Y0191813D01*
X0314098Y0191825D01*
X0314259Y0191833D01*
X0314420Y0191837D01*
X0314580Y0191837D01*
X0314741Y0191833D01*
X0314902Y0191825D01*
X0315062Y0191813D01*
X0315222Y0191797D01*
X0315382Y0191777D01*
X0315541Y0191753D01*
X0315699Y0191725D01*
X0315857Y0191694D01*
X0316013Y0191658D01*
X0316169Y0191619D01*
X0316324Y0191576D01*
X0316478Y0191529D01*
X0316631Y0191478D01*
X0316782Y0191423D01*
X0316932Y0191365D01*
X0317080Y0191303D01*
X0317227Y0191237D01*
X0317372Y0191168D01*
X0317515Y0191095D01*
X0317657Y0191019D01*
X0317796Y0190939D01*
X0317934Y0190856D01*
X0318069Y0190769D01*
X0318203Y0190679D01*
X0318334Y0190586D01*
X0318462Y0190490D01*
X0318588Y0190390D01*
X0318712Y0190287D01*
X0318833Y0190182D01*
X0318952Y0190073D01*
X0319068Y0189962D01*
X0319181Y0189847D01*
X0319291Y0189730D01*
X0319398Y0189610D01*
X0319502Y0189488D01*
X0319603Y0189363D01*
X0319701Y0189235D01*
X0319796Y0189105D01*
X0319888Y0188973D01*
X0319976Y0188839D01*
X0320061Y0188702D01*
X0320143Y0188564D01*
X0320221Y0188423D01*
X0320295Y0188281D01*
X0320366Y0188137D01*
X0320434Y0187991D01*
X0320497Y0187843D01*
X0320558Y0187694D01*
X0320614Y0187543D01*
X0320667Y0187391D01*
X0320716Y0187238D01*
X0320761Y0187084D01*
X0320802Y0186929D01*
X0320840Y0186772D01*
X0320873Y0186615D01*
X0320903Y0186457D01*
X0320929Y0186298D01*
X0320950Y0186139D01*
X0320968Y0185979D01*
X0320982Y0185819D01*
X0320992Y0185658D01*
X0320998Y0185498D01*
X0321000Y0185337D01*
X0320998Y0185176D01*
X0320992Y0185016D01*
X0320982Y0184855D01*
X0320968Y0184695D01*
X0320950Y0184535D01*
X0320929Y0184376D01*
X0320903Y0184217D01*
X0320873Y0184059D01*
X0320840Y0183902D01*
X0320802Y0183745D01*
X0320761Y0183590D01*
X0320716Y0183436D01*
X0320667Y0183283D01*
X0320614Y0183131D01*
X0320558Y0182980D01*
X0320497Y0182831D01*
X0320434Y0182683D01*
X0320366Y0182537D01*
X0320295Y0182393D01*
X0320221Y0182251D01*
X0320143Y0182110D01*
X0320061Y0181972D01*
X0319976Y0181835D01*
X0319888Y0181701D01*
X0319796Y0181569D01*
X0319701Y0181439D01*
X0319603Y0181311D01*
X0319502Y0181186D01*
X0319398Y0181064D01*
X0319291Y0180944D01*
X0319181Y0180827D01*
X0319068Y0180712D01*
X0318952Y0180601D01*
X0318833Y0180492D01*
X0318712Y0180387D01*
X0318588Y0180284D01*
X0318462Y0180184D01*
X0318334Y0180088D01*
X0318203Y0179995D01*
X0318069Y0179905D01*
X0317934Y0179818D01*
X0317796Y0179735D01*
X0317657Y0179655D01*
X0317515Y0179579D01*
X0317372Y0179506D01*
X0317227Y0179437D01*
X0317080Y0179371D01*
X0316932Y0179309D01*
X0316782Y0179251D01*
X0316631Y0179196D01*
X0316478Y0179145D01*
X0316324Y0179098D01*
X0316169Y0179055D01*
X0316013Y0179016D01*
X0315857Y0178980D01*
X0315699Y0178949D01*
X0315541Y0178921D01*
X0315382Y0178897D01*
X0315222Y0178877D01*
X0315062Y0178861D01*
X0314902Y0178849D01*
X0314741Y0178841D01*
X0314580Y0178837D01*
X0314420Y0178837D01*
X0314259Y0178841D01*
X0314098Y0178849D01*
X0313938Y0178861D01*
X0313778Y0178877D01*
X0313618Y0178897D01*
X0313459Y0178921D01*
X0313301Y0178949D01*
X0313143Y0178980D01*
X0312987Y0179016D01*
X0312831Y0179055D01*
X0312676Y0179098D01*
X0312522Y0179145D01*
X0312369Y0179196D01*
X0312218Y0179251D01*
X0312068Y0179309D01*
X0311920Y0179371D01*
X0311773Y0179437D01*
X0311628Y0179506D01*
X0311485Y0179579D01*
X0311343Y0179655D01*
X0311204Y0179735D01*
X0311066Y0179818D01*
X0310931Y0179905D01*
X0310797Y0179995D01*
X0310666Y0180088D01*
X0310538Y0180184D01*
X0310412Y0180284D01*
X0310288Y0180387D01*
X0310167Y0180492D01*
X0310048Y0180601D01*
X0309932Y0180712D01*
X0309819Y0180827D01*
X0309709Y0180944D01*
X0309602Y0181064D01*
X0309498Y0181186D01*
X0309397Y0181311D01*
X0309299Y0181439D01*
X0309204Y0181569D01*
X0309112Y0181701D01*
X0309024Y0181835D01*
X0308939Y0181972D01*
X0308857Y0182110D01*
X0308779Y0182251D01*
X0308705Y0182393D01*
X0308634Y0182537D01*
X0308566Y0182683D01*
X0308503Y0182831D01*
X0308442Y0182980D01*
X0308386Y0183131D01*
X0308333Y0183283D01*
X0308284Y0183436D01*
X0308239Y0183590D01*
X0308198Y0183745D01*
X0308160Y0183902D01*
X0308127Y0184059D01*
X0308097Y0184217D01*
X0308071Y0184376D01*
X0308050Y0184535D01*
X0308032Y0184695D01*
X0308018Y0184855D01*
X0308008Y0185016D01*
X0308002Y0185176D01*
X0308000Y0185337D01*
X0331300Y0185337D02*
X0331302Y0185498D01*
X0331308Y0185658D01*
X0331318Y0185819D01*
X0331332Y0185979D01*
X0331350Y0186139D01*
X0331371Y0186298D01*
X0331397Y0186457D01*
X0331427Y0186615D01*
X0331460Y0186772D01*
X0331498Y0186929D01*
X0331539Y0187084D01*
X0331584Y0187238D01*
X0331633Y0187391D01*
X0331686Y0187543D01*
X0331742Y0187694D01*
X0331803Y0187843D01*
X0331866Y0187991D01*
X0331934Y0188137D01*
X0332005Y0188281D01*
X0332079Y0188423D01*
X0332157Y0188564D01*
X0332239Y0188702D01*
X0332324Y0188839D01*
X0332412Y0188973D01*
X0332504Y0189105D01*
X0332599Y0189235D01*
X0332697Y0189363D01*
X0332798Y0189488D01*
X0332902Y0189610D01*
X0333009Y0189730D01*
X0333119Y0189847D01*
X0333232Y0189962D01*
X0333348Y0190073D01*
X0333467Y0190182D01*
X0333588Y0190287D01*
X0333712Y0190390D01*
X0333838Y0190490D01*
X0333966Y0190586D01*
X0334097Y0190679D01*
X0334231Y0190769D01*
X0334366Y0190856D01*
X0334504Y0190939D01*
X0334643Y0191019D01*
X0334785Y0191095D01*
X0334928Y0191168D01*
X0335073Y0191237D01*
X0335220Y0191303D01*
X0335368Y0191365D01*
X0335518Y0191423D01*
X0335669Y0191478D01*
X0335822Y0191529D01*
X0335976Y0191576D01*
X0336131Y0191619D01*
X0336287Y0191658D01*
X0336443Y0191694D01*
X0336601Y0191725D01*
X0336759Y0191753D01*
X0336918Y0191777D01*
X0337078Y0191797D01*
X0337238Y0191813D01*
X0337398Y0191825D01*
X0337559Y0191833D01*
X0337720Y0191837D01*
X0337880Y0191837D01*
X0338041Y0191833D01*
X0338202Y0191825D01*
X0338362Y0191813D01*
X0338522Y0191797D01*
X0338682Y0191777D01*
X0338841Y0191753D01*
X0338999Y0191725D01*
X0339157Y0191694D01*
X0339313Y0191658D01*
X0339469Y0191619D01*
X0339624Y0191576D01*
X0339778Y0191529D01*
X0339931Y0191478D01*
X0340082Y0191423D01*
X0340232Y0191365D01*
X0340380Y0191303D01*
X0340527Y0191237D01*
X0340672Y0191168D01*
X0340815Y0191095D01*
X0340957Y0191019D01*
X0341096Y0190939D01*
X0341234Y0190856D01*
X0341369Y0190769D01*
X0341503Y0190679D01*
X0341634Y0190586D01*
X0341762Y0190490D01*
X0341888Y0190390D01*
X0342012Y0190287D01*
X0342133Y0190182D01*
X0342252Y0190073D01*
X0342368Y0189962D01*
X0342481Y0189847D01*
X0342591Y0189730D01*
X0342698Y0189610D01*
X0342802Y0189488D01*
X0342903Y0189363D01*
X0343001Y0189235D01*
X0343096Y0189105D01*
X0343188Y0188973D01*
X0343276Y0188839D01*
X0343361Y0188702D01*
X0343443Y0188564D01*
X0343521Y0188423D01*
X0343595Y0188281D01*
X0343666Y0188137D01*
X0343734Y0187991D01*
X0343797Y0187843D01*
X0343858Y0187694D01*
X0343914Y0187543D01*
X0343967Y0187391D01*
X0344016Y0187238D01*
X0344061Y0187084D01*
X0344102Y0186929D01*
X0344140Y0186772D01*
X0344173Y0186615D01*
X0344203Y0186457D01*
X0344229Y0186298D01*
X0344250Y0186139D01*
X0344268Y0185979D01*
X0344282Y0185819D01*
X0344292Y0185658D01*
X0344298Y0185498D01*
X0344300Y0185337D01*
X0344298Y0185176D01*
X0344292Y0185016D01*
X0344282Y0184855D01*
X0344268Y0184695D01*
X0344250Y0184535D01*
X0344229Y0184376D01*
X0344203Y0184217D01*
X0344173Y0184059D01*
X0344140Y0183902D01*
X0344102Y0183745D01*
X0344061Y0183590D01*
X0344016Y0183436D01*
X0343967Y0183283D01*
X0343914Y0183131D01*
X0343858Y0182980D01*
X0343797Y0182831D01*
X0343734Y0182683D01*
X0343666Y0182537D01*
X0343595Y0182393D01*
X0343521Y0182251D01*
X0343443Y0182110D01*
X0343361Y0181972D01*
X0343276Y0181835D01*
X0343188Y0181701D01*
X0343096Y0181569D01*
X0343001Y0181439D01*
X0342903Y0181311D01*
X0342802Y0181186D01*
X0342698Y0181064D01*
X0342591Y0180944D01*
X0342481Y0180827D01*
X0342368Y0180712D01*
X0342252Y0180601D01*
X0342133Y0180492D01*
X0342012Y0180387D01*
X0341888Y0180284D01*
X0341762Y0180184D01*
X0341634Y0180088D01*
X0341503Y0179995D01*
X0341369Y0179905D01*
X0341234Y0179818D01*
X0341096Y0179735D01*
X0340957Y0179655D01*
X0340815Y0179579D01*
X0340672Y0179506D01*
X0340527Y0179437D01*
X0340380Y0179371D01*
X0340232Y0179309D01*
X0340082Y0179251D01*
X0339931Y0179196D01*
X0339778Y0179145D01*
X0339624Y0179098D01*
X0339469Y0179055D01*
X0339313Y0179016D01*
X0339157Y0178980D01*
X0338999Y0178949D01*
X0338841Y0178921D01*
X0338682Y0178897D01*
X0338522Y0178877D01*
X0338362Y0178861D01*
X0338202Y0178849D01*
X0338041Y0178841D01*
X0337880Y0178837D01*
X0337720Y0178837D01*
X0337559Y0178841D01*
X0337398Y0178849D01*
X0337238Y0178861D01*
X0337078Y0178877D01*
X0336918Y0178897D01*
X0336759Y0178921D01*
X0336601Y0178949D01*
X0336443Y0178980D01*
X0336287Y0179016D01*
X0336131Y0179055D01*
X0335976Y0179098D01*
X0335822Y0179145D01*
X0335669Y0179196D01*
X0335518Y0179251D01*
X0335368Y0179309D01*
X0335220Y0179371D01*
X0335073Y0179437D01*
X0334928Y0179506D01*
X0334785Y0179579D01*
X0334643Y0179655D01*
X0334504Y0179735D01*
X0334366Y0179818D01*
X0334231Y0179905D01*
X0334097Y0179995D01*
X0333966Y0180088D01*
X0333838Y0180184D01*
X0333712Y0180284D01*
X0333588Y0180387D01*
X0333467Y0180492D01*
X0333348Y0180601D01*
X0333232Y0180712D01*
X0333119Y0180827D01*
X0333009Y0180944D01*
X0332902Y0181064D01*
X0332798Y0181186D01*
X0332697Y0181311D01*
X0332599Y0181439D01*
X0332504Y0181569D01*
X0332412Y0181701D01*
X0332324Y0181835D01*
X0332239Y0181972D01*
X0332157Y0182110D01*
X0332079Y0182251D01*
X0332005Y0182393D01*
X0331934Y0182537D01*
X0331866Y0182683D01*
X0331803Y0182831D01*
X0331742Y0182980D01*
X0331686Y0183131D01*
X0331633Y0183283D01*
X0331584Y0183436D01*
X0331539Y0183590D01*
X0331498Y0183745D01*
X0331460Y0183902D01*
X0331427Y0184059D01*
X0331397Y0184217D01*
X0331371Y0184376D01*
X0331350Y0184535D01*
X0331332Y0184695D01*
X0331318Y0184855D01*
X0331308Y0185016D01*
X0331302Y0185176D01*
X0331300Y0185337D01*
X0346205Y0226551D02*
X0346207Y0226630D01*
X0346213Y0226709D01*
X0346223Y0226788D01*
X0346237Y0226866D01*
X0346254Y0226943D01*
X0346276Y0227019D01*
X0346301Y0227094D01*
X0346331Y0227167D01*
X0346363Y0227239D01*
X0346400Y0227310D01*
X0346440Y0227378D01*
X0346483Y0227444D01*
X0346529Y0227508D01*
X0346579Y0227570D01*
X0346632Y0227629D01*
X0346687Y0227685D01*
X0346746Y0227739D01*
X0346807Y0227789D01*
X0346870Y0227837D01*
X0346936Y0227881D01*
X0347004Y0227922D01*
X0347074Y0227959D01*
X0347145Y0227993D01*
X0347219Y0228023D01*
X0347293Y0228049D01*
X0347369Y0228071D01*
X0347446Y0228090D01*
X0347524Y0228105D01*
X0347602Y0228116D01*
X0347681Y0228123D01*
X0347760Y0228126D01*
X0347839Y0228125D01*
X0347918Y0228120D01*
X0347997Y0228111D01*
X0348075Y0228098D01*
X0348152Y0228081D01*
X0348229Y0228061D01*
X0348304Y0228036D01*
X0348378Y0228008D01*
X0348451Y0227976D01*
X0348521Y0227941D01*
X0348590Y0227902D01*
X0348657Y0227859D01*
X0348722Y0227813D01*
X0348784Y0227765D01*
X0348844Y0227713D01*
X0348901Y0227658D01*
X0348955Y0227600D01*
X0349006Y0227540D01*
X0349054Y0227477D01*
X0349099Y0227412D01*
X0349141Y0227344D01*
X0349179Y0227275D01*
X0349213Y0227204D01*
X0349244Y0227131D01*
X0349272Y0227056D01*
X0349295Y0226981D01*
X0349315Y0226904D01*
X0349331Y0226827D01*
X0349343Y0226748D01*
X0349351Y0226670D01*
X0349355Y0226591D01*
X0349355Y0226511D01*
X0349351Y0226432D01*
X0349343Y0226354D01*
X0349331Y0226275D01*
X0349315Y0226198D01*
X0349295Y0226121D01*
X0349272Y0226046D01*
X0349244Y0225971D01*
X0349213Y0225898D01*
X0349179Y0225827D01*
X0349141Y0225758D01*
X0349099Y0225690D01*
X0349054Y0225625D01*
X0349006Y0225562D01*
X0348955Y0225502D01*
X0348901Y0225444D01*
X0348844Y0225389D01*
X0348784Y0225337D01*
X0348722Y0225289D01*
X0348657Y0225243D01*
X0348590Y0225200D01*
X0348521Y0225161D01*
X0348451Y0225126D01*
X0348378Y0225094D01*
X0348304Y0225066D01*
X0348229Y0225041D01*
X0348152Y0225021D01*
X0348075Y0225004D01*
X0347997Y0224991D01*
X0347918Y0224982D01*
X0347839Y0224977D01*
X0347760Y0224976D01*
X0347681Y0224979D01*
X0347602Y0224986D01*
X0347524Y0224997D01*
X0347446Y0225012D01*
X0347369Y0225031D01*
X0347293Y0225053D01*
X0347219Y0225079D01*
X0347145Y0225109D01*
X0347074Y0225143D01*
X0347004Y0225180D01*
X0346936Y0225221D01*
X0346870Y0225265D01*
X0346807Y0225313D01*
X0346746Y0225363D01*
X0346687Y0225417D01*
X0346632Y0225473D01*
X0346579Y0225532D01*
X0346529Y0225594D01*
X0346483Y0225658D01*
X0346440Y0225724D01*
X0346400Y0225792D01*
X0346363Y0225863D01*
X0346331Y0225935D01*
X0346301Y0226008D01*
X0346276Y0226083D01*
X0346254Y0226159D01*
X0346237Y0226236D01*
X0346223Y0226314D01*
X0346213Y0226393D01*
X0346207Y0226472D01*
X0346205Y0226551D01*
X0303850Y0226551D02*
X0303852Y0226630D01*
X0303858Y0226709D01*
X0303868Y0226788D01*
X0303882Y0226866D01*
X0303899Y0226943D01*
X0303921Y0227019D01*
X0303946Y0227094D01*
X0303976Y0227167D01*
X0304008Y0227239D01*
X0304045Y0227310D01*
X0304085Y0227378D01*
X0304128Y0227444D01*
X0304174Y0227508D01*
X0304224Y0227570D01*
X0304277Y0227629D01*
X0304332Y0227685D01*
X0304391Y0227739D01*
X0304452Y0227789D01*
X0304515Y0227837D01*
X0304581Y0227881D01*
X0304649Y0227922D01*
X0304719Y0227959D01*
X0304790Y0227993D01*
X0304864Y0228023D01*
X0304938Y0228049D01*
X0305014Y0228071D01*
X0305091Y0228090D01*
X0305169Y0228105D01*
X0305247Y0228116D01*
X0305326Y0228123D01*
X0305405Y0228126D01*
X0305484Y0228125D01*
X0305563Y0228120D01*
X0305642Y0228111D01*
X0305720Y0228098D01*
X0305797Y0228081D01*
X0305874Y0228061D01*
X0305949Y0228036D01*
X0306023Y0228008D01*
X0306096Y0227976D01*
X0306166Y0227941D01*
X0306235Y0227902D01*
X0306302Y0227859D01*
X0306367Y0227813D01*
X0306429Y0227765D01*
X0306489Y0227713D01*
X0306546Y0227658D01*
X0306600Y0227600D01*
X0306651Y0227540D01*
X0306699Y0227477D01*
X0306744Y0227412D01*
X0306786Y0227344D01*
X0306824Y0227275D01*
X0306858Y0227204D01*
X0306889Y0227131D01*
X0306917Y0227056D01*
X0306940Y0226981D01*
X0306960Y0226904D01*
X0306976Y0226827D01*
X0306988Y0226748D01*
X0306996Y0226670D01*
X0307000Y0226591D01*
X0307000Y0226511D01*
X0306996Y0226432D01*
X0306988Y0226354D01*
X0306976Y0226275D01*
X0306960Y0226198D01*
X0306940Y0226121D01*
X0306917Y0226046D01*
X0306889Y0225971D01*
X0306858Y0225898D01*
X0306824Y0225827D01*
X0306786Y0225758D01*
X0306744Y0225690D01*
X0306699Y0225625D01*
X0306651Y0225562D01*
X0306600Y0225502D01*
X0306546Y0225444D01*
X0306489Y0225389D01*
X0306429Y0225337D01*
X0306367Y0225289D01*
X0306302Y0225243D01*
X0306235Y0225200D01*
X0306166Y0225161D01*
X0306096Y0225126D01*
X0306023Y0225094D01*
X0305949Y0225066D01*
X0305874Y0225041D01*
X0305797Y0225021D01*
X0305720Y0225004D01*
X0305642Y0224991D01*
X0305563Y0224982D01*
X0305484Y0224977D01*
X0305405Y0224976D01*
X0305326Y0224979D01*
X0305247Y0224986D01*
X0305169Y0224997D01*
X0305091Y0225012D01*
X0305014Y0225031D01*
X0304938Y0225053D01*
X0304864Y0225079D01*
X0304790Y0225109D01*
X0304719Y0225143D01*
X0304649Y0225180D01*
X0304581Y0225221D01*
X0304515Y0225265D01*
X0304452Y0225313D01*
X0304391Y0225363D01*
X0304332Y0225417D01*
X0304277Y0225473D01*
X0304224Y0225532D01*
X0304174Y0225594D01*
X0304128Y0225658D01*
X0304085Y0225724D01*
X0304045Y0225792D01*
X0304008Y0225863D01*
X0303976Y0225935D01*
X0303946Y0226008D01*
X0303921Y0226083D01*
X0303899Y0226159D01*
X0303882Y0226236D01*
X0303868Y0226314D01*
X0303858Y0226393D01*
X0303852Y0226472D01*
X0303850Y0226551D01*
X0237905Y0226551D02*
X0237907Y0226630D01*
X0237913Y0226709D01*
X0237923Y0226788D01*
X0237937Y0226866D01*
X0237954Y0226943D01*
X0237976Y0227019D01*
X0238001Y0227094D01*
X0238031Y0227167D01*
X0238063Y0227239D01*
X0238100Y0227310D01*
X0238140Y0227378D01*
X0238183Y0227444D01*
X0238229Y0227508D01*
X0238279Y0227570D01*
X0238332Y0227629D01*
X0238387Y0227685D01*
X0238446Y0227739D01*
X0238507Y0227789D01*
X0238570Y0227837D01*
X0238636Y0227881D01*
X0238704Y0227922D01*
X0238774Y0227959D01*
X0238845Y0227993D01*
X0238919Y0228023D01*
X0238993Y0228049D01*
X0239069Y0228071D01*
X0239146Y0228090D01*
X0239224Y0228105D01*
X0239302Y0228116D01*
X0239381Y0228123D01*
X0239460Y0228126D01*
X0239539Y0228125D01*
X0239618Y0228120D01*
X0239697Y0228111D01*
X0239775Y0228098D01*
X0239852Y0228081D01*
X0239929Y0228061D01*
X0240004Y0228036D01*
X0240078Y0228008D01*
X0240151Y0227976D01*
X0240221Y0227941D01*
X0240290Y0227902D01*
X0240357Y0227859D01*
X0240422Y0227813D01*
X0240484Y0227765D01*
X0240544Y0227713D01*
X0240601Y0227658D01*
X0240655Y0227600D01*
X0240706Y0227540D01*
X0240754Y0227477D01*
X0240799Y0227412D01*
X0240841Y0227344D01*
X0240879Y0227275D01*
X0240913Y0227204D01*
X0240944Y0227131D01*
X0240972Y0227056D01*
X0240995Y0226981D01*
X0241015Y0226904D01*
X0241031Y0226827D01*
X0241043Y0226748D01*
X0241051Y0226670D01*
X0241055Y0226591D01*
X0241055Y0226511D01*
X0241051Y0226432D01*
X0241043Y0226354D01*
X0241031Y0226275D01*
X0241015Y0226198D01*
X0240995Y0226121D01*
X0240972Y0226046D01*
X0240944Y0225971D01*
X0240913Y0225898D01*
X0240879Y0225827D01*
X0240841Y0225758D01*
X0240799Y0225690D01*
X0240754Y0225625D01*
X0240706Y0225562D01*
X0240655Y0225502D01*
X0240601Y0225444D01*
X0240544Y0225389D01*
X0240484Y0225337D01*
X0240422Y0225289D01*
X0240357Y0225243D01*
X0240290Y0225200D01*
X0240221Y0225161D01*
X0240151Y0225126D01*
X0240078Y0225094D01*
X0240004Y0225066D01*
X0239929Y0225041D01*
X0239852Y0225021D01*
X0239775Y0225004D01*
X0239697Y0224991D01*
X0239618Y0224982D01*
X0239539Y0224977D01*
X0239460Y0224976D01*
X0239381Y0224979D01*
X0239302Y0224986D01*
X0239224Y0224997D01*
X0239146Y0225012D01*
X0239069Y0225031D01*
X0238993Y0225053D01*
X0238919Y0225079D01*
X0238845Y0225109D01*
X0238774Y0225143D01*
X0238704Y0225180D01*
X0238636Y0225221D01*
X0238570Y0225265D01*
X0238507Y0225313D01*
X0238446Y0225363D01*
X0238387Y0225417D01*
X0238332Y0225473D01*
X0238279Y0225532D01*
X0238229Y0225594D01*
X0238183Y0225658D01*
X0238140Y0225724D01*
X0238100Y0225792D01*
X0238063Y0225863D01*
X0238031Y0225935D01*
X0238001Y0226008D01*
X0237976Y0226083D01*
X0237954Y0226159D01*
X0237937Y0226236D01*
X0237923Y0226314D01*
X0237913Y0226393D01*
X0237907Y0226472D01*
X0237905Y0226551D01*
X0195550Y0226551D02*
X0195552Y0226630D01*
X0195558Y0226709D01*
X0195568Y0226788D01*
X0195582Y0226866D01*
X0195599Y0226943D01*
X0195621Y0227019D01*
X0195646Y0227094D01*
X0195676Y0227167D01*
X0195708Y0227239D01*
X0195745Y0227310D01*
X0195785Y0227378D01*
X0195828Y0227444D01*
X0195874Y0227508D01*
X0195924Y0227570D01*
X0195977Y0227629D01*
X0196032Y0227685D01*
X0196091Y0227739D01*
X0196152Y0227789D01*
X0196215Y0227837D01*
X0196281Y0227881D01*
X0196349Y0227922D01*
X0196419Y0227959D01*
X0196490Y0227993D01*
X0196564Y0228023D01*
X0196638Y0228049D01*
X0196714Y0228071D01*
X0196791Y0228090D01*
X0196869Y0228105D01*
X0196947Y0228116D01*
X0197026Y0228123D01*
X0197105Y0228126D01*
X0197184Y0228125D01*
X0197263Y0228120D01*
X0197342Y0228111D01*
X0197420Y0228098D01*
X0197497Y0228081D01*
X0197574Y0228061D01*
X0197649Y0228036D01*
X0197723Y0228008D01*
X0197796Y0227976D01*
X0197866Y0227941D01*
X0197935Y0227902D01*
X0198002Y0227859D01*
X0198067Y0227813D01*
X0198129Y0227765D01*
X0198189Y0227713D01*
X0198246Y0227658D01*
X0198300Y0227600D01*
X0198351Y0227540D01*
X0198399Y0227477D01*
X0198444Y0227412D01*
X0198486Y0227344D01*
X0198524Y0227275D01*
X0198558Y0227204D01*
X0198589Y0227131D01*
X0198617Y0227056D01*
X0198640Y0226981D01*
X0198660Y0226904D01*
X0198676Y0226827D01*
X0198688Y0226748D01*
X0198696Y0226670D01*
X0198700Y0226591D01*
X0198700Y0226511D01*
X0198696Y0226432D01*
X0198688Y0226354D01*
X0198676Y0226275D01*
X0198660Y0226198D01*
X0198640Y0226121D01*
X0198617Y0226046D01*
X0198589Y0225971D01*
X0198558Y0225898D01*
X0198524Y0225827D01*
X0198486Y0225758D01*
X0198444Y0225690D01*
X0198399Y0225625D01*
X0198351Y0225562D01*
X0198300Y0225502D01*
X0198246Y0225444D01*
X0198189Y0225389D01*
X0198129Y0225337D01*
X0198067Y0225289D01*
X0198002Y0225243D01*
X0197935Y0225200D01*
X0197866Y0225161D01*
X0197796Y0225126D01*
X0197723Y0225094D01*
X0197649Y0225066D01*
X0197574Y0225041D01*
X0197497Y0225021D01*
X0197420Y0225004D01*
X0197342Y0224991D01*
X0197263Y0224982D01*
X0197184Y0224977D01*
X0197105Y0224976D01*
X0197026Y0224979D01*
X0196947Y0224986D01*
X0196869Y0224997D01*
X0196791Y0225012D01*
X0196714Y0225031D01*
X0196638Y0225053D01*
X0196564Y0225079D01*
X0196490Y0225109D01*
X0196419Y0225143D01*
X0196349Y0225180D01*
X0196281Y0225221D01*
X0196215Y0225265D01*
X0196152Y0225313D01*
X0196091Y0225363D01*
X0196032Y0225417D01*
X0195977Y0225473D01*
X0195924Y0225532D01*
X0195874Y0225594D01*
X0195828Y0225658D01*
X0195785Y0225724D01*
X0195745Y0225792D01*
X0195708Y0225863D01*
X0195676Y0225935D01*
X0195646Y0226008D01*
X0195621Y0226083D01*
X0195599Y0226159D01*
X0195582Y0226236D01*
X0195568Y0226314D01*
X0195558Y0226393D01*
X0195552Y0226472D01*
X0195550Y0226551D01*
X0199700Y0185337D02*
X0199702Y0185498D01*
X0199708Y0185658D01*
X0199718Y0185819D01*
X0199732Y0185979D01*
X0199750Y0186139D01*
X0199771Y0186298D01*
X0199797Y0186457D01*
X0199827Y0186615D01*
X0199860Y0186772D01*
X0199898Y0186929D01*
X0199939Y0187084D01*
X0199984Y0187238D01*
X0200033Y0187391D01*
X0200086Y0187543D01*
X0200142Y0187694D01*
X0200203Y0187843D01*
X0200266Y0187991D01*
X0200334Y0188137D01*
X0200405Y0188281D01*
X0200479Y0188423D01*
X0200557Y0188564D01*
X0200639Y0188702D01*
X0200724Y0188839D01*
X0200812Y0188973D01*
X0200904Y0189105D01*
X0200999Y0189235D01*
X0201097Y0189363D01*
X0201198Y0189488D01*
X0201302Y0189610D01*
X0201409Y0189730D01*
X0201519Y0189847D01*
X0201632Y0189962D01*
X0201748Y0190073D01*
X0201867Y0190182D01*
X0201988Y0190287D01*
X0202112Y0190390D01*
X0202238Y0190490D01*
X0202366Y0190586D01*
X0202497Y0190679D01*
X0202631Y0190769D01*
X0202766Y0190856D01*
X0202904Y0190939D01*
X0203043Y0191019D01*
X0203185Y0191095D01*
X0203328Y0191168D01*
X0203473Y0191237D01*
X0203620Y0191303D01*
X0203768Y0191365D01*
X0203918Y0191423D01*
X0204069Y0191478D01*
X0204222Y0191529D01*
X0204376Y0191576D01*
X0204531Y0191619D01*
X0204687Y0191658D01*
X0204843Y0191694D01*
X0205001Y0191725D01*
X0205159Y0191753D01*
X0205318Y0191777D01*
X0205478Y0191797D01*
X0205638Y0191813D01*
X0205798Y0191825D01*
X0205959Y0191833D01*
X0206120Y0191837D01*
X0206280Y0191837D01*
X0206441Y0191833D01*
X0206602Y0191825D01*
X0206762Y0191813D01*
X0206922Y0191797D01*
X0207082Y0191777D01*
X0207241Y0191753D01*
X0207399Y0191725D01*
X0207557Y0191694D01*
X0207713Y0191658D01*
X0207869Y0191619D01*
X0208024Y0191576D01*
X0208178Y0191529D01*
X0208331Y0191478D01*
X0208482Y0191423D01*
X0208632Y0191365D01*
X0208780Y0191303D01*
X0208927Y0191237D01*
X0209072Y0191168D01*
X0209215Y0191095D01*
X0209357Y0191019D01*
X0209496Y0190939D01*
X0209634Y0190856D01*
X0209769Y0190769D01*
X0209903Y0190679D01*
X0210034Y0190586D01*
X0210162Y0190490D01*
X0210288Y0190390D01*
X0210412Y0190287D01*
X0210533Y0190182D01*
X0210652Y0190073D01*
X0210768Y0189962D01*
X0210881Y0189847D01*
X0210991Y0189730D01*
X0211098Y0189610D01*
X0211202Y0189488D01*
X0211303Y0189363D01*
X0211401Y0189235D01*
X0211496Y0189105D01*
X0211588Y0188973D01*
X0211676Y0188839D01*
X0211761Y0188702D01*
X0211843Y0188564D01*
X0211921Y0188423D01*
X0211995Y0188281D01*
X0212066Y0188137D01*
X0212134Y0187991D01*
X0212197Y0187843D01*
X0212258Y0187694D01*
X0212314Y0187543D01*
X0212367Y0187391D01*
X0212416Y0187238D01*
X0212461Y0187084D01*
X0212502Y0186929D01*
X0212540Y0186772D01*
X0212573Y0186615D01*
X0212603Y0186457D01*
X0212629Y0186298D01*
X0212650Y0186139D01*
X0212668Y0185979D01*
X0212682Y0185819D01*
X0212692Y0185658D01*
X0212698Y0185498D01*
X0212700Y0185337D01*
X0212698Y0185176D01*
X0212692Y0185016D01*
X0212682Y0184855D01*
X0212668Y0184695D01*
X0212650Y0184535D01*
X0212629Y0184376D01*
X0212603Y0184217D01*
X0212573Y0184059D01*
X0212540Y0183902D01*
X0212502Y0183745D01*
X0212461Y0183590D01*
X0212416Y0183436D01*
X0212367Y0183283D01*
X0212314Y0183131D01*
X0212258Y0182980D01*
X0212197Y0182831D01*
X0212134Y0182683D01*
X0212066Y0182537D01*
X0211995Y0182393D01*
X0211921Y0182251D01*
X0211843Y0182110D01*
X0211761Y0181972D01*
X0211676Y0181835D01*
X0211588Y0181701D01*
X0211496Y0181569D01*
X0211401Y0181439D01*
X0211303Y0181311D01*
X0211202Y0181186D01*
X0211098Y0181064D01*
X0210991Y0180944D01*
X0210881Y0180827D01*
X0210768Y0180712D01*
X0210652Y0180601D01*
X0210533Y0180492D01*
X0210412Y0180387D01*
X0210288Y0180284D01*
X0210162Y0180184D01*
X0210034Y0180088D01*
X0209903Y0179995D01*
X0209769Y0179905D01*
X0209634Y0179818D01*
X0209496Y0179735D01*
X0209357Y0179655D01*
X0209215Y0179579D01*
X0209072Y0179506D01*
X0208927Y0179437D01*
X0208780Y0179371D01*
X0208632Y0179309D01*
X0208482Y0179251D01*
X0208331Y0179196D01*
X0208178Y0179145D01*
X0208024Y0179098D01*
X0207869Y0179055D01*
X0207713Y0179016D01*
X0207557Y0178980D01*
X0207399Y0178949D01*
X0207241Y0178921D01*
X0207082Y0178897D01*
X0206922Y0178877D01*
X0206762Y0178861D01*
X0206602Y0178849D01*
X0206441Y0178841D01*
X0206280Y0178837D01*
X0206120Y0178837D01*
X0205959Y0178841D01*
X0205798Y0178849D01*
X0205638Y0178861D01*
X0205478Y0178877D01*
X0205318Y0178897D01*
X0205159Y0178921D01*
X0205001Y0178949D01*
X0204843Y0178980D01*
X0204687Y0179016D01*
X0204531Y0179055D01*
X0204376Y0179098D01*
X0204222Y0179145D01*
X0204069Y0179196D01*
X0203918Y0179251D01*
X0203768Y0179309D01*
X0203620Y0179371D01*
X0203473Y0179437D01*
X0203328Y0179506D01*
X0203185Y0179579D01*
X0203043Y0179655D01*
X0202904Y0179735D01*
X0202766Y0179818D01*
X0202631Y0179905D01*
X0202497Y0179995D01*
X0202366Y0180088D01*
X0202238Y0180184D01*
X0202112Y0180284D01*
X0201988Y0180387D01*
X0201867Y0180492D01*
X0201748Y0180601D01*
X0201632Y0180712D01*
X0201519Y0180827D01*
X0201409Y0180944D01*
X0201302Y0181064D01*
X0201198Y0181186D01*
X0201097Y0181311D01*
X0200999Y0181439D01*
X0200904Y0181569D01*
X0200812Y0181701D01*
X0200724Y0181835D01*
X0200639Y0181972D01*
X0200557Y0182110D01*
X0200479Y0182251D01*
X0200405Y0182393D01*
X0200334Y0182537D01*
X0200266Y0182683D01*
X0200203Y0182831D01*
X0200142Y0182980D01*
X0200086Y0183131D01*
X0200033Y0183283D01*
X0199984Y0183436D01*
X0199939Y0183590D01*
X0199898Y0183745D01*
X0199860Y0183902D01*
X0199827Y0184059D01*
X0199797Y0184217D01*
X0199771Y0184376D01*
X0199750Y0184535D01*
X0199732Y0184695D01*
X0199718Y0184855D01*
X0199708Y0185016D01*
X0199702Y0185176D01*
X0199700Y0185337D01*
X0223000Y0185337D02*
X0223002Y0185498D01*
X0223008Y0185658D01*
X0223018Y0185819D01*
X0223032Y0185979D01*
X0223050Y0186139D01*
X0223071Y0186298D01*
X0223097Y0186457D01*
X0223127Y0186615D01*
X0223160Y0186772D01*
X0223198Y0186929D01*
X0223239Y0187084D01*
X0223284Y0187238D01*
X0223333Y0187391D01*
X0223386Y0187543D01*
X0223442Y0187694D01*
X0223503Y0187843D01*
X0223566Y0187991D01*
X0223634Y0188137D01*
X0223705Y0188281D01*
X0223779Y0188423D01*
X0223857Y0188564D01*
X0223939Y0188702D01*
X0224024Y0188839D01*
X0224112Y0188973D01*
X0224204Y0189105D01*
X0224299Y0189235D01*
X0224397Y0189363D01*
X0224498Y0189488D01*
X0224602Y0189610D01*
X0224709Y0189730D01*
X0224819Y0189847D01*
X0224932Y0189962D01*
X0225048Y0190073D01*
X0225167Y0190182D01*
X0225288Y0190287D01*
X0225412Y0190390D01*
X0225538Y0190490D01*
X0225666Y0190586D01*
X0225797Y0190679D01*
X0225931Y0190769D01*
X0226066Y0190856D01*
X0226204Y0190939D01*
X0226343Y0191019D01*
X0226485Y0191095D01*
X0226628Y0191168D01*
X0226773Y0191237D01*
X0226920Y0191303D01*
X0227068Y0191365D01*
X0227218Y0191423D01*
X0227369Y0191478D01*
X0227522Y0191529D01*
X0227676Y0191576D01*
X0227831Y0191619D01*
X0227987Y0191658D01*
X0228143Y0191694D01*
X0228301Y0191725D01*
X0228459Y0191753D01*
X0228618Y0191777D01*
X0228778Y0191797D01*
X0228938Y0191813D01*
X0229098Y0191825D01*
X0229259Y0191833D01*
X0229420Y0191837D01*
X0229580Y0191837D01*
X0229741Y0191833D01*
X0229902Y0191825D01*
X0230062Y0191813D01*
X0230222Y0191797D01*
X0230382Y0191777D01*
X0230541Y0191753D01*
X0230699Y0191725D01*
X0230857Y0191694D01*
X0231013Y0191658D01*
X0231169Y0191619D01*
X0231324Y0191576D01*
X0231478Y0191529D01*
X0231631Y0191478D01*
X0231782Y0191423D01*
X0231932Y0191365D01*
X0232080Y0191303D01*
X0232227Y0191237D01*
X0232372Y0191168D01*
X0232515Y0191095D01*
X0232657Y0191019D01*
X0232796Y0190939D01*
X0232934Y0190856D01*
X0233069Y0190769D01*
X0233203Y0190679D01*
X0233334Y0190586D01*
X0233462Y0190490D01*
X0233588Y0190390D01*
X0233712Y0190287D01*
X0233833Y0190182D01*
X0233952Y0190073D01*
X0234068Y0189962D01*
X0234181Y0189847D01*
X0234291Y0189730D01*
X0234398Y0189610D01*
X0234502Y0189488D01*
X0234603Y0189363D01*
X0234701Y0189235D01*
X0234796Y0189105D01*
X0234888Y0188973D01*
X0234976Y0188839D01*
X0235061Y0188702D01*
X0235143Y0188564D01*
X0235221Y0188423D01*
X0235295Y0188281D01*
X0235366Y0188137D01*
X0235434Y0187991D01*
X0235497Y0187843D01*
X0235558Y0187694D01*
X0235614Y0187543D01*
X0235667Y0187391D01*
X0235716Y0187238D01*
X0235761Y0187084D01*
X0235802Y0186929D01*
X0235840Y0186772D01*
X0235873Y0186615D01*
X0235903Y0186457D01*
X0235929Y0186298D01*
X0235950Y0186139D01*
X0235968Y0185979D01*
X0235982Y0185819D01*
X0235992Y0185658D01*
X0235998Y0185498D01*
X0236000Y0185337D01*
X0235998Y0185176D01*
X0235992Y0185016D01*
X0235982Y0184855D01*
X0235968Y0184695D01*
X0235950Y0184535D01*
X0235929Y0184376D01*
X0235903Y0184217D01*
X0235873Y0184059D01*
X0235840Y0183902D01*
X0235802Y0183745D01*
X0235761Y0183590D01*
X0235716Y0183436D01*
X0235667Y0183283D01*
X0235614Y0183131D01*
X0235558Y0182980D01*
X0235497Y0182831D01*
X0235434Y0182683D01*
X0235366Y0182537D01*
X0235295Y0182393D01*
X0235221Y0182251D01*
X0235143Y0182110D01*
X0235061Y0181972D01*
X0234976Y0181835D01*
X0234888Y0181701D01*
X0234796Y0181569D01*
X0234701Y0181439D01*
X0234603Y0181311D01*
X0234502Y0181186D01*
X0234398Y0181064D01*
X0234291Y0180944D01*
X0234181Y0180827D01*
X0234068Y0180712D01*
X0233952Y0180601D01*
X0233833Y0180492D01*
X0233712Y0180387D01*
X0233588Y0180284D01*
X0233462Y0180184D01*
X0233334Y0180088D01*
X0233203Y0179995D01*
X0233069Y0179905D01*
X0232934Y0179818D01*
X0232796Y0179735D01*
X0232657Y0179655D01*
X0232515Y0179579D01*
X0232372Y0179506D01*
X0232227Y0179437D01*
X0232080Y0179371D01*
X0231932Y0179309D01*
X0231782Y0179251D01*
X0231631Y0179196D01*
X0231478Y0179145D01*
X0231324Y0179098D01*
X0231169Y0179055D01*
X0231013Y0179016D01*
X0230857Y0178980D01*
X0230699Y0178949D01*
X0230541Y0178921D01*
X0230382Y0178897D01*
X0230222Y0178877D01*
X0230062Y0178861D01*
X0229902Y0178849D01*
X0229741Y0178841D01*
X0229580Y0178837D01*
X0229420Y0178837D01*
X0229259Y0178841D01*
X0229098Y0178849D01*
X0228938Y0178861D01*
X0228778Y0178877D01*
X0228618Y0178897D01*
X0228459Y0178921D01*
X0228301Y0178949D01*
X0228143Y0178980D01*
X0227987Y0179016D01*
X0227831Y0179055D01*
X0227676Y0179098D01*
X0227522Y0179145D01*
X0227369Y0179196D01*
X0227218Y0179251D01*
X0227068Y0179309D01*
X0226920Y0179371D01*
X0226773Y0179437D01*
X0226628Y0179506D01*
X0226485Y0179579D01*
X0226343Y0179655D01*
X0226204Y0179735D01*
X0226066Y0179818D01*
X0225931Y0179905D01*
X0225797Y0179995D01*
X0225666Y0180088D01*
X0225538Y0180184D01*
X0225412Y0180284D01*
X0225288Y0180387D01*
X0225167Y0180492D01*
X0225048Y0180601D01*
X0224932Y0180712D01*
X0224819Y0180827D01*
X0224709Y0180944D01*
X0224602Y0181064D01*
X0224498Y0181186D01*
X0224397Y0181311D01*
X0224299Y0181439D01*
X0224204Y0181569D01*
X0224112Y0181701D01*
X0224024Y0181835D01*
X0223939Y0181972D01*
X0223857Y0182110D01*
X0223779Y0182251D01*
X0223705Y0182393D01*
X0223634Y0182537D01*
X0223566Y0182683D01*
X0223503Y0182831D01*
X0223442Y0182980D01*
X0223386Y0183131D01*
X0223333Y0183283D01*
X0223284Y0183436D01*
X0223239Y0183590D01*
X0223198Y0183745D01*
X0223160Y0183902D01*
X0223127Y0184059D01*
X0223097Y0184217D01*
X0223071Y0184376D01*
X0223050Y0184535D01*
X0223032Y0184695D01*
X0223018Y0184855D01*
X0223008Y0185016D01*
X0223002Y0185176D01*
X0223000Y0185337D01*
X0237905Y0094951D02*
X0237907Y0095030D01*
X0237913Y0095109D01*
X0237923Y0095188D01*
X0237937Y0095266D01*
X0237954Y0095343D01*
X0237976Y0095419D01*
X0238001Y0095494D01*
X0238031Y0095567D01*
X0238063Y0095639D01*
X0238100Y0095710D01*
X0238140Y0095778D01*
X0238183Y0095844D01*
X0238229Y0095908D01*
X0238279Y0095970D01*
X0238332Y0096029D01*
X0238387Y0096085D01*
X0238446Y0096139D01*
X0238507Y0096189D01*
X0238570Y0096237D01*
X0238636Y0096281D01*
X0238704Y0096322D01*
X0238774Y0096359D01*
X0238845Y0096393D01*
X0238919Y0096423D01*
X0238993Y0096449D01*
X0239069Y0096471D01*
X0239146Y0096490D01*
X0239224Y0096505D01*
X0239302Y0096516D01*
X0239381Y0096523D01*
X0239460Y0096526D01*
X0239539Y0096525D01*
X0239618Y0096520D01*
X0239697Y0096511D01*
X0239775Y0096498D01*
X0239852Y0096481D01*
X0239929Y0096461D01*
X0240004Y0096436D01*
X0240078Y0096408D01*
X0240151Y0096376D01*
X0240221Y0096341D01*
X0240290Y0096302D01*
X0240357Y0096259D01*
X0240422Y0096213D01*
X0240484Y0096165D01*
X0240544Y0096113D01*
X0240601Y0096058D01*
X0240655Y0096000D01*
X0240706Y0095940D01*
X0240754Y0095877D01*
X0240799Y0095812D01*
X0240841Y0095744D01*
X0240879Y0095675D01*
X0240913Y0095604D01*
X0240944Y0095531D01*
X0240972Y0095456D01*
X0240995Y0095381D01*
X0241015Y0095304D01*
X0241031Y0095227D01*
X0241043Y0095148D01*
X0241051Y0095070D01*
X0241055Y0094991D01*
X0241055Y0094911D01*
X0241051Y0094832D01*
X0241043Y0094754D01*
X0241031Y0094675D01*
X0241015Y0094598D01*
X0240995Y0094521D01*
X0240972Y0094446D01*
X0240944Y0094371D01*
X0240913Y0094298D01*
X0240879Y0094227D01*
X0240841Y0094158D01*
X0240799Y0094090D01*
X0240754Y0094025D01*
X0240706Y0093962D01*
X0240655Y0093902D01*
X0240601Y0093844D01*
X0240544Y0093789D01*
X0240484Y0093737D01*
X0240422Y0093689D01*
X0240357Y0093643D01*
X0240290Y0093600D01*
X0240221Y0093561D01*
X0240151Y0093526D01*
X0240078Y0093494D01*
X0240004Y0093466D01*
X0239929Y0093441D01*
X0239852Y0093421D01*
X0239775Y0093404D01*
X0239697Y0093391D01*
X0239618Y0093382D01*
X0239539Y0093377D01*
X0239460Y0093376D01*
X0239381Y0093379D01*
X0239302Y0093386D01*
X0239224Y0093397D01*
X0239146Y0093412D01*
X0239069Y0093431D01*
X0238993Y0093453D01*
X0238919Y0093479D01*
X0238845Y0093509D01*
X0238774Y0093543D01*
X0238704Y0093580D01*
X0238636Y0093621D01*
X0238570Y0093665D01*
X0238507Y0093713D01*
X0238446Y0093763D01*
X0238387Y0093817D01*
X0238332Y0093873D01*
X0238279Y0093932D01*
X0238229Y0093994D01*
X0238183Y0094058D01*
X0238140Y0094124D01*
X0238100Y0094192D01*
X0238063Y0094263D01*
X0238031Y0094335D01*
X0238001Y0094408D01*
X0237976Y0094483D01*
X0237954Y0094559D01*
X0237937Y0094636D01*
X0237923Y0094714D01*
X0237913Y0094793D01*
X0237907Y0094872D01*
X0237905Y0094951D01*
X0195550Y0094951D02*
X0195552Y0095030D01*
X0195558Y0095109D01*
X0195568Y0095188D01*
X0195582Y0095266D01*
X0195599Y0095343D01*
X0195621Y0095419D01*
X0195646Y0095494D01*
X0195676Y0095567D01*
X0195708Y0095639D01*
X0195745Y0095710D01*
X0195785Y0095778D01*
X0195828Y0095844D01*
X0195874Y0095908D01*
X0195924Y0095970D01*
X0195977Y0096029D01*
X0196032Y0096085D01*
X0196091Y0096139D01*
X0196152Y0096189D01*
X0196215Y0096237D01*
X0196281Y0096281D01*
X0196349Y0096322D01*
X0196419Y0096359D01*
X0196490Y0096393D01*
X0196564Y0096423D01*
X0196638Y0096449D01*
X0196714Y0096471D01*
X0196791Y0096490D01*
X0196869Y0096505D01*
X0196947Y0096516D01*
X0197026Y0096523D01*
X0197105Y0096526D01*
X0197184Y0096525D01*
X0197263Y0096520D01*
X0197342Y0096511D01*
X0197420Y0096498D01*
X0197497Y0096481D01*
X0197574Y0096461D01*
X0197649Y0096436D01*
X0197723Y0096408D01*
X0197796Y0096376D01*
X0197866Y0096341D01*
X0197935Y0096302D01*
X0198002Y0096259D01*
X0198067Y0096213D01*
X0198129Y0096165D01*
X0198189Y0096113D01*
X0198246Y0096058D01*
X0198300Y0096000D01*
X0198351Y0095940D01*
X0198399Y0095877D01*
X0198444Y0095812D01*
X0198486Y0095744D01*
X0198524Y0095675D01*
X0198558Y0095604D01*
X0198589Y0095531D01*
X0198617Y0095456D01*
X0198640Y0095381D01*
X0198660Y0095304D01*
X0198676Y0095227D01*
X0198688Y0095148D01*
X0198696Y0095070D01*
X0198700Y0094991D01*
X0198700Y0094911D01*
X0198696Y0094832D01*
X0198688Y0094754D01*
X0198676Y0094675D01*
X0198660Y0094598D01*
X0198640Y0094521D01*
X0198617Y0094446D01*
X0198589Y0094371D01*
X0198558Y0094298D01*
X0198524Y0094227D01*
X0198486Y0094158D01*
X0198444Y0094090D01*
X0198399Y0094025D01*
X0198351Y0093962D01*
X0198300Y0093902D01*
X0198246Y0093844D01*
X0198189Y0093789D01*
X0198129Y0093737D01*
X0198067Y0093689D01*
X0198002Y0093643D01*
X0197935Y0093600D01*
X0197866Y0093561D01*
X0197796Y0093526D01*
X0197723Y0093494D01*
X0197649Y0093466D01*
X0197574Y0093441D01*
X0197497Y0093421D01*
X0197420Y0093404D01*
X0197342Y0093391D01*
X0197263Y0093382D01*
X0197184Y0093377D01*
X0197105Y0093376D01*
X0197026Y0093379D01*
X0196947Y0093386D01*
X0196869Y0093397D01*
X0196791Y0093412D01*
X0196714Y0093431D01*
X0196638Y0093453D01*
X0196564Y0093479D01*
X0196490Y0093509D01*
X0196419Y0093543D01*
X0196349Y0093580D01*
X0196281Y0093621D01*
X0196215Y0093665D01*
X0196152Y0093713D01*
X0196091Y0093763D01*
X0196032Y0093817D01*
X0195977Y0093873D01*
X0195924Y0093932D01*
X0195874Y0093994D01*
X0195828Y0094058D01*
X0195785Y0094124D01*
X0195745Y0094192D01*
X0195708Y0094263D01*
X0195676Y0094335D01*
X0195646Y0094408D01*
X0195621Y0094483D01*
X0195599Y0094559D01*
X0195582Y0094636D01*
X0195568Y0094714D01*
X0195558Y0094793D01*
X0195552Y0094872D01*
X0195550Y0094951D01*
X0129605Y0094951D02*
X0129607Y0095030D01*
X0129613Y0095109D01*
X0129623Y0095188D01*
X0129637Y0095266D01*
X0129654Y0095343D01*
X0129676Y0095419D01*
X0129701Y0095494D01*
X0129731Y0095567D01*
X0129763Y0095639D01*
X0129800Y0095710D01*
X0129840Y0095778D01*
X0129883Y0095844D01*
X0129929Y0095908D01*
X0129979Y0095970D01*
X0130032Y0096029D01*
X0130087Y0096085D01*
X0130146Y0096139D01*
X0130207Y0096189D01*
X0130270Y0096237D01*
X0130336Y0096281D01*
X0130404Y0096322D01*
X0130474Y0096359D01*
X0130545Y0096393D01*
X0130619Y0096423D01*
X0130693Y0096449D01*
X0130769Y0096471D01*
X0130846Y0096490D01*
X0130924Y0096505D01*
X0131002Y0096516D01*
X0131081Y0096523D01*
X0131160Y0096526D01*
X0131239Y0096525D01*
X0131318Y0096520D01*
X0131397Y0096511D01*
X0131475Y0096498D01*
X0131552Y0096481D01*
X0131629Y0096461D01*
X0131704Y0096436D01*
X0131778Y0096408D01*
X0131851Y0096376D01*
X0131921Y0096341D01*
X0131990Y0096302D01*
X0132057Y0096259D01*
X0132122Y0096213D01*
X0132184Y0096165D01*
X0132244Y0096113D01*
X0132301Y0096058D01*
X0132355Y0096000D01*
X0132406Y0095940D01*
X0132454Y0095877D01*
X0132499Y0095812D01*
X0132541Y0095744D01*
X0132579Y0095675D01*
X0132613Y0095604D01*
X0132644Y0095531D01*
X0132672Y0095456D01*
X0132695Y0095381D01*
X0132715Y0095304D01*
X0132731Y0095227D01*
X0132743Y0095148D01*
X0132751Y0095070D01*
X0132755Y0094991D01*
X0132755Y0094911D01*
X0132751Y0094832D01*
X0132743Y0094754D01*
X0132731Y0094675D01*
X0132715Y0094598D01*
X0132695Y0094521D01*
X0132672Y0094446D01*
X0132644Y0094371D01*
X0132613Y0094298D01*
X0132579Y0094227D01*
X0132541Y0094158D01*
X0132499Y0094090D01*
X0132454Y0094025D01*
X0132406Y0093962D01*
X0132355Y0093902D01*
X0132301Y0093844D01*
X0132244Y0093789D01*
X0132184Y0093737D01*
X0132122Y0093689D01*
X0132057Y0093643D01*
X0131990Y0093600D01*
X0131921Y0093561D01*
X0131851Y0093526D01*
X0131778Y0093494D01*
X0131704Y0093466D01*
X0131629Y0093441D01*
X0131552Y0093421D01*
X0131475Y0093404D01*
X0131397Y0093391D01*
X0131318Y0093382D01*
X0131239Y0093377D01*
X0131160Y0093376D01*
X0131081Y0093379D01*
X0131002Y0093386D01*
X0130924Y0093397D01*
X0130846Y0093412D01*
X0130769Y0093431D01*
X0130693Y0093453D01*
X0130619Y0093479D01*
X0130545Y0093509D01*
X0130474Y0093543D01*
X0130404Y0093580D01*
X0130336Y0093621D01*
X0130270Y0093665D01*
X0130207Y0093713D01*
X0130146Y0093763D01*
X0130087Y0093817D01*
X0130032Y0093873D01*
X0129979Y0093932D01*
X0129929Y0093994D01*
X0129883Y0094058D01*
X0129840Y0094124D01*
X0129800Y0094192D01*
X0129763Y0094263D01*
X0129731Y0094335D01*
X0129701Y0094408D01*
X0129676Y0094483D01*
X0129654Y0094559D01*
X0129637Y0094636D01*
X0129623Y0094714D01*
X0129613Y0094793D01*
X0129607Y0094872D01*
X0129605Y0094951D01*
X0087250Y0094951D02*
X0087252Y0095030D01*
X0087258Y0095109D01*
X0087268Y0095188D01*
X0087282Y0095266D01*
X0087299Y0095343D01*
X0087321Y0095419D01*
X0087346Y0095494D01*
X0087376Y0095567D01*
X0087408Y0095639D01*
X0087445Y0095710D01*
X0087485Y0095778D01*
X0087528Y0095844D01*
X0087574Y0095908D01*
X0087624Y0095970D01*
X0087677Y0096029D01*
X0087732Y0096085D01*
X0087791Y0096139D01*
X0087852Y0096189D01*
X0087915Y0096237D01*
X0087981Y0096281D01*
X0088049Y0096322D01*
X0088119Y0096359D01*
X0088190Y0096393D01*
X0088264Y0096423D01*
X0088338Y0096449D01*
X0088414Y0096471D01*
X0088491Y0096490D01*
X0088569Y0096505D01*
X0088647Y0096516D01*
X0088726Y0096523D01*
X0088805Y0096526D01*
X0088884Y0096525D01*
X0088963Y0096520D01*
X0089042Y0096511D01*
X0089120Y0096498D01*
X0089197Y0096481D01*
X0089274Y0096461D01*
X0089349Y0096436D01*
X0089423Y0096408D01*
X0089496Y0096376D01*
X0089566Y0096341D01*
X0089635Y0096302D01*
X0089702Y0096259D01*
X0089767Y0096213D01*
X0089829Y0096165D01*
X0089889Y0096113D01*
X0089946Y0096058D01*
X0090000Y0096000D01*
X0090051Y0095940D01*
X0090099Y0095877D01*
X0090144Y0095812D01*
X0090186Y0095744D01*
X0090224Y0095675D01*
X0090258Y0095604D01*
X0090289Y0095531D01*
X0090317Y0095456D01*
X0090340Y0095381D01*
X0090360Y0095304D01*
X0090376Y0095227D01*
X0090388Y0095148D01*
X0090396Y0095070D01*
X0090400Y0094991D01*
X0090400Y0094911D01*
X0090396Y0094832D01*
X0090388Y0094754D01*
X0090376Y0094675D01*
X0090360Y0094598D01*
X0090340Y0094521D01*
X0090317Y0094446D01*
X0090289Y0094371D01*
X0090258Y0094298D01*
X0090224Y0094227D01*
X0090186Y0094158D01*
X0090144Y0094090D01*
X0090099Y0094025D01*
X0090051Y0093962D01*
X0090000Y0093902D01*
X0089946Y0093844D01*
X0089889Y0093789D01*
X0089829Y0093737D01*
X0089767Y0093689D01*
X0089702Y0093643D01*
X0089635Y0093600D01*
X0089566Y0093561D01*
X0089496Y0093526D01*
X0089423Y0093494D01*
X0089349Y0093466D01*
X0089274Y0093441D01*
X0089197Y0093421D01*
X0089120Y0093404D01*
X0089042Y0093391D01*
X0088963Y0093382D01*
X0088884Y0093377D01*
X0088805Y0093376D01*
X0088726Y0093379D01*
X0088647Y0093386D01*
X0088569Y0093397D01*
X0088491Y0093412D01*
X0088414Y0093431D01*
X0088338Y0093453D01*
X0088264Y0093479D01*
X0088190Y0093509D01*
X0088119Y0093543D01*
X0088049Y0093580D01*
X0087981Y0093621D01*
X0087915Y0093665D01*
X0087852Y0093713D01*
X0087791Y0093763D01*
X0087732Y0093817D01*
X0087677Y0093873D01*
X0087624Y0093932D01*
X0087574Y0093994D01*
X0087528Y0094058D01*
X0087485Y0094124D01*
X0087445Y0094192D01*
X0087408Y0094263D01*
X0087376Y0094335D01*
X0087346Y0094408D01*
X0087321Y0094483D01*
X0087299Y0094559D01*
X0087282Y0094636D01*
X0087268Y0094714D01*
X0087258Y0094793D01*
X0087252Y0094872D01*
X0087250Y0094951D01*
X0021305Y0094951D02*
X0021307Y0095030D01*
X0021313Y0095109D01*
X0021323Y0095188D01*
X0021337Y0095266D01*
X0021354Y0095343D01*
X0021376Y0095419D01*
X0021401Y0095494D01*
X0021431Y0095567D01*
X0021463Y0095639D01*
X0021500Y0095710D01*
X0021540Y0095778D01*
X0021583Y0095844D01*
X0021629Y0095908D01*
X0021679Y0095970D01*
X0021732Y0096029D01*
X0021787Y0096085D01*
X0021846Y0096139D01*
X0021907Y0096189D01*
X0021970Y0096237D01*
X0022036Y0096281D01*
X0022104Y0096322D01*
X0022174Y0096359D01*
X0022245Y0096393D01*
X0022319Y0096423D01*
X0022393Y0096449D01*
X0022469Y0096471D01*
X0022546Y0096490D01*
X0022624Y0096505D01*
X0022702Y0096516D01*
X0022781Y0096523D01*
X0022860Y0096526D01*
X0022939Y0096525D01*
X0023018Y0096520D01*
X0023097Y0096511D01*
X0023175Y0096498D01*
X0023252Y0096481D01*
X0023329Y0096461D01*
X0023404Y0096436D01*
X0023478Y0096408D01*
X0023551Y0096376D01*
X0023621Y0096341D01*
X0023690Y0096302D01*
X0023757Y0096259D01*
X0023822Y0096213D01*
X0023884Y0096165D01*
X0023944Y0096113D01*
X0024001Y0096058D01*
X0024055Y0096000D01*
X0024106Y0095940D01*
X0024154Y0095877D01*
X0024199Y0095812D01*
X0024241Y0095744D01*
X0024279Y0095675D01*
X0024313Y0095604D01*
X0024344Y0095531D01*
X0024372Y0095456D01*
X0024395Y0095381D01*
X0024415Y0095304D01*
X0024431Y0095227D01*
X0024443Y0095148D01*
X0024451Y0095070D01*
X0024455Y0094991D01*
X0024455Y0094911D01*
X0024451Y0094832D01*
X0024443Y0094754D01*
X0024431Y0094675D01*
X0024415Y0094598D01*
X0024395Y0094521D01*
X0024372Y0094446D01*
X0024344Y0094371D01*
X0024313Y0094298D01*
X0024279Y0094227D01*
X0024241Y0094158D01*
X0024199Y0094090D01*
X0024154Y0094025D01*
X0024106Y0093962D01*
X0024055Y0093902D01*
X0024001Y0093844D01*
X0023944Y0093789D01*
X0023884Y0093737D01*
X0023822Y0093689D01*
X0023757Y0093643D01*
X0023690Y0093600D01*
X0023621Y0093561D01*
X0023551Y0093526D01*
X0023478Y0093494D01*
X0023404Y0093466D01*
X0023329Y0093441D01*
X0023252Y0093421D01*
X0023175Y0093404D01*
X0023097Y0093391D01*
X0023018Y0093382D01*
X0022939Y0093377D01*
X0022860Y0093376D01*
X0022781Y0093379D01*
X0022702Y0093386D01*
X0022624Y0093397D01*
X0022546Y0093412D01*
X0022469Y0093431D01*
X0022393Y0093453D01*
X0022319Y0093479D01*
X0022245Y0093509D01*
X0022174Y0093543D01*
X0022104Y0093580D01*
X0022036Y0093621D01*
X0021970Y0093665D01*
X0021907Y0093713D01*
X0021846Y0093763D01*
X0021787Y0093817D01*
X0021732Y0093873D01*
X0021679Y0093932D01*
X0021629Y0093994D01*
X0021583Y0094058D01*
X0021540Y0094124D01*
X0021500Y0094192D01*
X0021463Y0094263D01*
X0021431Y0094335D01*
X0021401Y0094408D01*
X0021376Y0094483D01*
X0021354Y0094559D01*
X0021337Y0094636D01*
X0021323Y0094714D01*
X0021313Y0094793D01*
X0021307Y0094872D01*
X0021305Y0094951D01*
X0006400Y0185337D02*
X0006402Y0185498D01*
X0006408Y0185658D01*
X0006418Y0185819D01*
X0006432Y0185979D01*
X0006450Y0186139D01*
X0006471Y0186298D01*
X0006497Y0186457D01*
X0006527Y0186615D01*
X0006560Y0186772D01*
X0006598Y0186929D01*
X0006639Y0187084D01*
X0006684Y0187238D01*
X0006733Y0187391D01*
X0006786Y0187543D01*
X0006842Y0187694D01*
X0006903Y0187843D01*
X0006966Y0187991D01*
X0007034Y0188137D01*
X0007105Y0188281D01*
X0007179Y0188423D01*
X0007257Y0188564D01*
X0007339Y0188702D01*
X0007424Y0188839D01*
X0007512Y0188973D01*
X0007604Y0189105D01*
X0007699Y0189235D01*
X0007797Y0189363D01*
X0007898Y0189488D01*
X0008002Y0189610D01*
X0008109Y0189730D01*
X0008219Y0189847D01*
X0008332Y0189962D01*
X0008448Y0190073D01*
X0008567Y0190182D01*
X0008688Y0190287D01*
X0008812Y0190390D01*
X0008938Y0190490D01*
X0009066Y0190586D01*
X0009197Y0190679D01*
X0009331Y0190769D01*
X0009466Y0190856D01*
X0009604Y0190939D01*
X0009743Y0191019D01*
X0009885Y0191095D01*
X0010028Y0191168D01*
X0010173Y0191237D01*
X0010320Y0191303D01*
X0010468Y0191365D01*
X0010618Y0191423D01*
X0010769Y0191478D01*
X0010922Y0191529D01*
X0011076Y0191576D01*
X0011231Y0191619D01*
X0011387Y0191658D01*
X0011543Y0191694D01*
X0011701Y0191725D01*
X0011859Y0191753D01*
X0012018Y0191777D01*
X0012178Y0191797D01*
X0012338Y0191813D01*
X0012498Y0191825D01*
X0012659Y0191833D01*
X0012820Y0191837D01*
X0012980Y0191837D01*
X0013141Y0191833D01*
X0013302Y0191825D01*
X0013462Y0191813D01*
X0013622Y0191797D01*
X0013782Y0191777D01*
X0013941Y0191753D01*
X0014099Y0191725D01*
X0014257Y0191694D01*
X0014413Y0191658D01*
X0014569Y0191619D01*
X0014724Y0191576D01*
X0014878Y0191529D01*
X0015031Y0191478D01*
X0015182Y0191423D01*
X0015332Y0191365D01*
X0015480Y0191303D01*
X0015627Y0191237D01*
X0015772Y0191168D01*
X0015915Y0191095D01*
X0016057Y0191019D01*
X0016196Y0190939D01*
X0016334Y0190856D01*
X0016469Y0190769D01*
X0016603Y0190679D01*
X0016734Y0190586D01*
X0016862Y0190490D01*
X0016988Y0190390D01*
X0017112Y0190287D01*
X0017233Y0190182D01*
X0017352Y0190073D01*
X0017468Y0189962D01*
X0017581Y0189847D01*
X0017691Y0189730D01*
X0017798Y0189610D01*
X0017902Y0189488D01*
X0018003Y0189363D01*
X0018101Y0189235D01*
X0018196Y0189105D01*
X0018288Y0188973D01*
X0018376Y0188839D01*
X0018461Y0188702D01*
X0018543Y0188564D01*
X0018621Y0188423D01*
X0018695Y0188281D01*
X0018766Y0188137D01*
X0018834Y0187991D01*
X0018897Y0187843D01*
X0018958Y0187694D01*
X0019014Y0187543D01*
X0019067Y0187391D01*
X0019116Y0187238D01*
X0019161Y0187084D01*
X0019202Y0186929D01*
X0019240Y0186772D01*
X0019273Y0186615D01*
X0019303Y0186457D01*
X0019329Y0186298D01*
X0019350Y0186139D01*
X0019368Y0185979D01*
X0019382Y0185819D01*
X0019392Y0185658D01*
X0019398Y0185498D01*
X0019400Y0185337D01*
X0019398Y0185176D01*
X0019392Y0185016D01*
X0019382Y0184855D01*
X0019368Y0184695D01*
X0019350Y0184535D01*
X0019329Y0184376D01*
X0019303Y0184217D01*
X0019273Y0184059D01*
X0019240Y0183902D01*
X0019202Y0183745D01*
X0019161Y0183590D01*
X0019116Y0183436D01*
X0019067Y0183283D01*
X0019014Y0183131D01*
X0018958Y0182980D01*
X0018897Y0182831D01*
X0018834Y0182683D01*
X0018766Y0182537D01*
X0018695Y0182393D01*
X0018621Y0182251D01*
X0018543Y0182110D01*
X0018461Y0181972D01*
X0018376Y0181835D01*
X0018288Y0181701D01*
X0018196Y0181569D01*
X0018101Y0181439D01*
X0018003Y0181311D01*
X0017902Y0181186D01*
X0017798Y0181064D01*
X0017691Y0180944D01*
X0017581Y0180827D01*
X0017468Y0180712D01*
X0017352Y0180601D01*
X0017233Y0180492D01*
X0017112Y0180387D01*
X0016988Y0180284D01*
X0016862Y0180184D01*
X0016734Y0180088D01*
X0016603Y0179995D01*
X0016469Y0179905D01*
X0016334Y0179818D01*
X0016196Y0179735D01*
X0016057Y0179655D01*
X0015915Y0179579D01*
X0015772Y0179506D01*
X0015627Y0179437D01*
X0015480Y0179371D01*
X0015332Y0179309D01*
X0015182Y0179251D01*
X0015031Y0179196D01*
X0014878Y0179145D01*
X0014724Y0179098D01*
X0014569Y0179055D01*
X0014413Y0179016D01*
X0014257Y0178980D01*
X0014099Y0178949D01*
X0013941Y0178921D01*
X0013782Y0178897D01*
X0013622Y0178877D01*
X0013462Y0178861D01*
X0013302Y0178849D01*
X0013141Y0178841D01*
X0012980Y0178837D01*
X0012820Y0178837D01*
X0012659Y0178841D01*
X0012498Y0178849D01*
X0012338Y0178861D01*
X0012178Y0178877D01*
X0012018Y0178897D01*
X0011859Y0178921D01*
X0011701Y0178949D01*
X0011543Y0178980D01*
X0011387Y0179016D01*
X0011231Y0179055D01*
X0011076Y0179098D01*
X0010922Y0179145D01*
X0010769Y0179196D01*
X0010618Y0179251D01*
X0010468Y0179309D01*
X0010320Y0179371D01*
X0010173Y0179437D01*
X0010028Y0179506D01*
X0009885Y0179579D01*
X0009743Y0179655D01*
X0009604Y0179735D01*
X0009466Y0179818D01*
X0009331Y0179905D01*
X0009197Y0179995D01*
X0009066Y0180088D01*
X0008938Y0180184D01*
X0008812Y0180284D01*
X0008688Y0180387D01*
X0008567Y0180492D01*
X0008448Y0180601D01*
X0008332Y0180712D01*
X0008219Y0180827D01*
X0008109Y0180944D01*
X0008002Y0181064D01*
X0007898Y0181186D01*
X0007797Y0181311D01*
X0007699Y0181439D01*
X0007604Y0181569D01*
X0007512Y0181701D01*
X0007424Y0181835D01*
X0007339Y0181972D01*
X0007257Y0182110D01*
X0007179Y0182251D01*
X0007105Y0182393D01*
X0007034Y0182537D01*
X0006966Y0182683D01*
X0006903Y0182831D01*
X0006842Y0182980D01*
X0006786Y0183131D01*
X0006733Y0183283D01*
X0006684Y0183436D01*
X0006639Y0183590D01*
X0006598Y0183745D01*
X0006560Y0183902D01*
X0006527Y0184059D01*
X0006497Y0184217D01*
X0006471Y0184376D01*
X0006450Y0184535D01*
X0006432Y0184695D01*
X0006418Y0184855D01*
X0006408Y0185016D01*
X0006402Y0185176D01*
X0006400Y0185337D01*
X0021305Y0226551D02*
X0021307Y0226630D01*
X0021313Y0226709D01*
X0021323Y0226788D01*
X0021337Y0226866D01*
X0021354Y0226943D01*
X0021376Y0227019D01*
X0021401Y0227094D01*
X0021431Y0227167D01*
X0021463Y0227239D01*
X0021500Y0227310D01*
X0021540Y0227378D01*
X0021583Y0227444D01*
X0021629Y0227508D01*
X0021679Y0227570D01*
X0021732Y0227629D01*
X0021787Y0227685D01*
X0021846Y0227739D01*
X0021907Y0227789D01*
X0021970Y0227837D01*
X0022036Y0227881D01*
X0022104Y0227922D01*
X0022174Y0227959D01*
X0022245Y0227993D01*
X0022319Y0228023D01*
X0022393Y0228049D01*
X0022469Y0228071D01*
X0022546Y0228090D01*
X0022624Y0228105D01*
X0022702Y0228116D01*
X0022781Y0228123D01*
X0022860Y0228126D01*
X0022939Y0228125D01*
X0023018Y0228120D01*
X0023097Y0228111D01*
X0023175Y0228098D01*
X0023252Y0228081D01*
X0023329Y0228061D01*
X0023404Y0228036D01*
X0023478Y0228008D01*
X0023551Y0227976D01*
X0023621Y0227941D01*
X0023690Y0227902D01*
X0023757Y0227859D01*
X0023822Y0227813D01*
X0023884Y0227765D01*
X0023944Y0227713D01*
X0024001Y0227658D01*
X0024055Y0227600D01*
X0024106Y0227540D01*
X0024154Y0227477D01*
X0024199Y0227412D01*
X0024241Y0227344D01*
X0024279Y0227275D01*
X0024313Y0227204D01*
X0024344Y0227131D01*
X0024372Y0227056D01*
X0024395Y0226981D01*
X0024415Y0226904D01*
X0024431Y0226827D01*
X0024443Y0226748D01*
X0024451Y0226670D01*
X0024455Y0226591D01*
X0024455Y0226511D01*
X0024451Y0226432D01*
X0024443Y0226354D01*
X0024431Y0226275D01*
X0024415Y0226198D01*
X0024395Y0226121D01*
X0024372Y0226046D01*
X0024344Y0225971D01*
X0024313Y0225898D01*
X0024279Y0225827D01*
X0024241Y0225758D01*
X0024199Y0225690D01*
X0024154Y0225625D01*
X0024106Y0225562D01*
X0024055Y0225502D01*
X0024001Y0225444D01*
X0023944Y0225389D01*
X0023884Y0225337D01*
X0023822Y0225289D01*
X0023757Y0225243D01*
X0023690Y0225200D01*
X0023621Y0225161D01*
X0023551Y0225126D01*
X0023478Y0225094D01*
X0023404Y0225066D01*
X0023329Y0225041D01*
X0023252Y0225021D01*
X0023175Y0225004D01*
X0023097Y0224991D01*
X0023018Y0224982D01*
X0022939Y0224977D01*
X0022860Y0224976D01*
X0022781Y0224979D01*
X0022702Y0224986D01*
X0022624Y0224997D01*
X0022546Y0225012D01*
X0022469Y0225031D01*
X0022393Y0225053D01*
X0022319Y0225079D01*
X0022245Y0225109D01*
X0022174Y0225143D01*
X0022104Y0225180D01*
X0022036Y0225221D01*
X0021970Y0225265D01*
X0021907Y0225313D01*
X0021846Y0225363D01*
X0021787Y0225417D01*
X0021732Y0225473D01*
X0021679Y0225532D01*
X0021629Y0225594D01*
X0021583Y0225658D01*
X0021540Y0225724D01*
X0021500Y0225792D01*
X0021463Y0225863D01*
X0021431Y0225935D01*
X0021401Y0226008D01*
X0021376Y0226083D01*
X0021354Y0226159D01*
X0021337Y0226236D01*
X0021323Y0226314D01*
X0021313Y0226393D01*
X0021307Y0226472D01*
X0021305Y0226551D01*
X0087250Y0226551D02*
X0087252Y0226630D01*
X0087258Y0226709D01*
X0087268Y0226788D01*
X0087282Y0226866D01*
X0087299Y0226943D01*
X0087321Y0227019D01*
X0087346Y0227094D01*
X0087376Y0227167D01*
X0087408Y0227239D01*
X0087445Y0227310D01*
X0087485Y0227378D01*
X0087528Y0227444D01*
X0087574Y0227508D01*
X0087624Y0227570D01*
X0087677Y0227629D01*
X0087732Y0227685D01*
X0087791Y0227739D01*
X0087852Y0227789D01*
X0087915Y0227837D01*
X0087981Y0227881D01*
X0088049Y0227922D01*
X0088119Y0227959D01*
X0088190Y0227993D01*
X0088264Y0228023D01*
X0088338Y0228049D01*
X0088414Y0228071D01*
X0088491Y0228090D01*
X0088569Y0228105D01*
X0088647Y0228116D01*
X0088726Y0228123D01*
X0088805Y0228126D01*
X0088884Y0228125D01*
X0088963Y0228120D01*
X0089042Y0228111D01*
X0089120Y0228098D01*
X0089197Y0228081D01*
X0089274Y0228061D01*
X0089349Y0228036D01*
X0089423Y0228008D01*
X0089496Y0227976D01*
X0089566Y0227941D01*
X0089635Y0227902D01*
X0089702Y0227859D01*
X0089767Y0227813D01*
X0089829Y0227765D01*
X0089889Y0227713D01*
X0089946Y0227658D01*
X0090000Y0227600D01*
X0090051Y0227540D01*
X0090099Y0227477D01*
X0090144Y0227412D01*
X0090186Y0227344D01*
X0090224Y0227275D01*
X0090258Y0227204D01*
X0090289Y0227131D01*
X0090317Y0227056D01*
X0090340Y0226981D01*
X0090360Y0226904D01*
X0090376Y0226827D01*
X0090388Y0226748D01*
X0090396Y0226670D01*
X0090400Y0226591D01*
X0090400Y0226511D01*
X0090396Y0226432D01*
X0090388Y0226354D01*
X0090376Y0226275D01*
X0090360Y0226198D01*
X0090340Y0226121D01*
X0090317Y0226046D01*
X0090289Y0225971D01*
X0090258Y0225898D01*
X0090224Y0225827D01*
X0090186Y0225758D01*
X0090144Y0225690D01*
X0090099Y0225625D01*
X0090051Y0225562D01*
X0090000Y0225502D01*
X0089946Y0225444D01*
X0089889Y0225389D01*
X0089829Y0225337D01*
X0089767Y0225289D01*
X0089702Y0225243D01*
X0089635Y0225200D01*
X0089566Y0225161D01*
X0089496Y0225126D01*
X0089423Y0225094D01*
X0089349Y0225066D01*
X0089274Y0225041D01*
X0089197Y0225021D01*
X0089120Y0225004D01*
X0089042Y0224991D01*
X0088963Y0224982D01*
X0088884Y0224977D01*
X0088805Y0224976D01*
X0088726Y0224979D01*
X0088647Y0224986D01*
X0088569Y0224997D01*
X0088491Y0225012D01*
X0088414Y0225031D01*
X0088338Y0225053D01*
X0088264Y0225079D01*
X0088190Y0225109D01*
X0088119Y0225143D01*
X0088049Y0225180D01*
X0087981Y0225221D01*
X0087915Y0225265D01*
X0087852Y0225313D01*
X0087791Y0225363D01*
X0087732Y0225417D01*
X0087677Y0225473D01*
X0087624Y0225532D01*
X0087574Y0225594D01*
X0087528Y0225658D01*
X0087485Y0225724D01*
X0087445Y0225792D01*
X0087408Y0225863D01*
X0087376Y0225935D01*
X0087346Y0226008D01*
X0087321Y0226083D01*
X0087299Y0226159D01*
X0087282Y0226236D01*
X0087268Y0226314D01*
X0087258Y0226393D01*
X0087252Y0226472D01*
X0087250Y0226551D01*
X0091400Y0185337D02*
X0091402Y0185498D01*
X0091408Y0185658D01*
X0091418Y0185819D01*
X0091432Y0185979D01*
X0091450Y0186139D01*
X0091471Y0186298D01*
X0091497Y0186457D01*
X0091527Y0186615D01*
X0091560Y0186772D01*
X0091598Y0186929D01*
X0091639Y0187084D01*
X0091684Y0187238D01*
X0091733Y0187391D01*
X0091786Y0187543D01*
X0091842Y0187694D01*
X0091903Y0187843D01*
X0091966Y0187991D01*
X0092034Y0188137D01*
X0092105Y0188281D01*
X0092179Y0188423D01*
X0092257Y0188564D01*
X0092339Y0188702D01*
X0092424Y0188839D01*
X0092512Y0188973D01*
X0092604Y0189105D01*
X0092699Y0189235D01*
X0092797Y0189363D01*
X0092898Y0189488D01*
X0093002Y0189610D01*
X0093109Y0189730D01*
X0093219Y0189847D01*
X0093332Y0189962D01*
X0093448Y0190073D01*
X0093567Y0190182D01*
X0093688Y0190287D01*
X0093812Y0190390D01*
X0093938Y0190490D01*
X0094066Y0190586D01*
X0094197Y0190679D01*
X0094331Y0190769D01*
X0094466Y0190856D01*
X0094604Y0190939D01*
X0094743Y0191019D01*
X0094885Y0191095D01*
X0095028Y0191168D01*
X0095173Y0191237D01*
X0095320Y0191303D01*
X0095468Y0191365D01*
X0095618Y0191423D01*
X0095769Y0191478D01*
X0095922Y0191529D01*
X0096076Y0191576D01*
X0096231Y0191619D01*
X0096387Y0191658D01*
X0096543Y0191694D01*
X0096701Y0191725D01*
X0096859Y0191753D01*
X0097018Y0191777D01*
X0097178Y0191797D01*
X0097338Y0191813D01*
X0097498Y0191825D01*
X0097659Y0191833D01*
X0097820Y0191837D01*
X0097980Y0191837D01*
X0098141Y0191833D01*
X0098302Y0191825D01*
X0098462Y0191813D01*
X0098622Y0191797D01*
X0098782Y0191777D01*
X0098941Y0191753D01*
X0099099Y0191725D01*
X0099257Y0191694D01*
X0099413Y0191658D01*
X0099569Y0191619D01*
X0099724Y0191576D01*
X0099878Y0191529D01*
X0100031Y0191478D01*
X0100182Y0191423D01*
X0100332Y0191365D01*
X0100480Y0191303D01*
X0100627Y0191237D01*
X0100772Y0191168D01*
X0100915Y0191095D01*
X0101057Y0191019D01*
X0101196Y0190939D01*
X0101334Y0190856D01*
X0101469Y0190769D01*
X0101603Y0190679D01*
X0101734Y0190586D01*
X0101862Y0190490D01*
X0101988Y0190390D01*
X0102112Y0190287D01*
X0102233Y0190182D01*
X0102352Y0190073D01*
X0102468Y0189962D01*
X0102581Y0189847D01*
X0102691Y0189730D01*
X0102798Y0189610D01*
X0102902Y0189488D01*
X0103003Y0189363D01*
X0103101Y0189235D01*
X0103196Y0189105D01*
X0103288Y0188973D01*
X0103376Y0188839D01*
X0103461Y0188702D01*
X0103543Y0188564D01*
X0103621Y0188423D01*
X0103695Y0188281D01*
X0103766Y0188137D01*
X0103834Y0187991D01*
X0103897Y0187843D01*
X0103958Y0187694D01*
X0104014Y0187543D01*
X0104067Y0187391D01*
X0104116Y0187238D01*
X0104161Y0187084D01*
X0104202Y0186929D01*
X0104240Y0186772D01*
X0104273Y0186615D01*
X0104303Y0186457D01*
X0104329Y0186298D01*
X0104350Y0186139D01*
X0104368Y0185979D01*
X0104382Y0185819D01*
X0104392Y0185658D01*
X0104398Y0185498D01*
X0104400Y0185337D01*
X0104398Y0185176D01*
X0104392Y0185016D01*
X0104382Y0184855D01*
X0104368Y0184695D01*
X0104350Y0184535D01*
X0104329Y0184376D01*
X0104303Y0184217D01*
X0104273Y0184059D01*
X0104240Y0183902D01*
X0104202Y0183745D01*
X0104161Y0183590D01*
X0104116Y0183436D01*
X0104067Y0183283D01*
X0104014Y0183131D01*
X0103958Y0182980D01*
X0103897Y0182831D01*
X0103834Y0182683D01*
X0103766Y0182537D01*
X0103695Y0182393D01*
X0103621Y0182251D01*
X0103543Y0182110D01*
X0103461Y0181972D01*
X0103376Y0181835D01*
X0103288Y0181701D01*
X0103196Y0181569D01*
X0103101Y0181439D01*
X0103003Y0181311D01*
X0102902Y0181186D01*
X0102798Y0181064D01*
X0102691Y0180944D01*
X0102581Y0180827D01*
X0102468Y0180712D01*
X0102352Y0180601D01*
X0102233Y0180492D01*
X0102112Y0180387D01*
X0101988Y0180284D01*
X0101862Y0180184D01*
X0101734Y0180088D01*
X0101603Y0179995D01*
X0101469Y0179905D01*
X0101334Y0179818D01*
X0101196Y0179735D01*
X0101057Y0179655D01*
X0100915Y0179579D01*
X0100772Y0179506D01*
X0100627Y0179437D01*
X0100480Y0179371D01*
X0100332Y0179309D01*
X0100182Y0179251D01*
X0100031Y0179196D01*
X0099878Y0179145D01*
X0099724Y0179098D01*
X0099569Y0179055D01*
X0099413Y0179016D01*
X0099257Y0178980D01*
X0099099Y0178949D01*
X0098941Y0178921D01*
X0098782Y0178897D01*
X0098622Y0178877D01*
X0098462Y0178861D01*
X0098302Y0178849D01*
X0098141Y0178841D01*
X0097980Y0178837D01*
X0097820Y0178837D01*
X0097659Y0178841D01*
X0097498Y0178849D01*
X0097338Y0178861D01*
X0097178Y0178877D01*
X0097018Y0178897D01*
X0096859Y0178921D01*
X0096701Y0178949D01*
X0096543Y0178980D01*
X0096387Y0179016D01*
X0096231Y0179055D01*
X0096076Y0179098D01*
X0095922Y0179145D01*
X0095769Y0179196D01*
X0095618Y0179251D01*
X0095468Y0179309D01*
X0095320Y0179371D01*
X0095173Y0179437D01*
X0095028Y0179506D01*
X0094885Y0179579D01*
X0094743Y0179655D01*
X0094604Y0179735D01*
X0094466Y0179818D01*
X0094331Y0179905D01*
X0094197Y0179995D01*
X0094066Y0180088D01*
X0093938Y0180184D01*
X0093812Y0180284D01*
X0093688Y0180387D01*
X0093567Y0180492D01*
X0093448Y0180601D01*
X0093332Y0180712D01*
X0093219Y0180827D01*
X0093109Y0180944D01*
X0093002Y0181064D01*
X0092898Y0181186D01*
X0092797Y0181311D01*
X0092699Y0181439D01*
X0092604Y0181569D01*
X0092512Y0181701D01*
X0092424Y0181835D01*
X0092339Y0181972D01*
X0092257Y0182110D01*
X0092179Y0182251D01*
X0092105Y0182393D01*
X0092034Y0182537D01*
X0091966Y0182683D01*
X0091903Y0182831D01*
X0091842Y0182980D01*
X0091786Y0183131D01*
X0091733Y0183283D01*
X0091684Y0183436D01*
X0091639Y0183590D01*
X0091598Y0183745D01*
X0091560Y0183902D01*
X0091527Y0184059D01*
X0091497Y0184217D01*
X0091471Y0184376D01*
X0091450Y0184535D01*
X0091432Y0184695D01*
X0091418Y0184855D01*
X0091408Y0185016D01*
X0091402Y0185176D01*
X0091400Y0185337D01*
X0114700Y0185337D02*
X0114702Y0185498D01*
X0114708Y0185658D01*
X0114718Y0185819D01*
X0114732Y0185979D01*
X0114750Y0186139D01*
X0114771Y0186298D01*
X0114797Y0186457D01*
X0114827Y0186615D01*
X0114860Y0186772D01*
X0114898Y0186929D01*
X0114939Y0187084D01*
X0114984Y0187238D01*
X0115033Y0187391D01*
X0115086Y0187543D01*
X0115142Y0187694D01*
X0115203Y0187843D01*
X0115266Y0187991D01*
X0115334Y0188137D01*
X0115405Y0188281D01*
X0115479Y0188423D01*
X0115557Y0188564D01*
X0115639Y0188702D01*
X0115724Y0188839D01*
X0115812Y0188973D01*
X0115904Y0189105D01*
X0115999Y0189235D01*
X0116097Y0189363D01*
X0116198Y0189488D01*
X0116302Y0189610D01*
X0116409Y0189730D01*
X0116519Y0189847D01*
X0116632Y0189962D01*
X0116748Y0190073D01*
X0116867Y0190182D01*
X0116988Y0190287D01*
X0117112Y0190390D01*
X0117238Y0190490D01*
X0117366Y0190586D01*
X0117497Y0190679D01*
X0117631Y0190769D01*
X0117766Y0190856D01*
X0117904Y0190939D01*
X0118043Y0191019D01*
X0118185Y0191095D01*
X0118328Y0191168D01*
X0118473Y0191237D01*
X0118620Y0191303D01*
X0118768Y0191365D01*
X0118918Y0191423D01*
X0119069Y0191478D01*
X0119222Y0191529D01*
X0119376Y0191576D01*
X0119531Y0191619D01*
X0119687Y0191658D01*
X0119843Y0191694D01*
X0120001Y0191725D01*
X0120159Y0191753D01*
X0120318Y0191777D01*
X0120478Y0191797D01*
X0120638Y0191813D01*
X0120798Y0191825D01*
X0120959Y0191833D01*
X0121120Y0191837D01*
X0121280Y0191837D01*
X0121441Y0191833D01*
X0121602Y0191825D01*
X0121762Y0191813D01*
X0121922Y0191797D01*
X0122082Y0191777D01*
X0122241Y0191753D01*
X0122399Y0191725D01*
X0122557Y0191694D01*
X0122713Y0191658D01*
X0122869Y0191619D01*
X0123024Y0191576D01*
X0123178Y0191529D01*
X0123331Y0191478D01*
X0123482Y0191423D01*
X0123632Y0191365D01*
X0123780Y0191303D01*
X0123927Y0191237D01*
X0124072Y0191168D01*
X0124215Y0191095D01*
X0124357Y0191019D01*
X0124496Y0190939D01*
X0124634Y0190856D01*
X0124769Y0190769D01*
X0124903Y0190679D01*
X0125034Y0190586D01*
X0125162Y0190490D01*
X0125288Y0190390D01*
X0125412Y0190287D01*
X0125533Y0190182D01*
X0125652Y0190073D01*
X0125768Y0189962D01*
X0125881Y0189847D01*
X0125991Y0189730D01*
X0126098Y0189610D01*
X0126202Y0189488D01*
X0126303Y0189363D01*
X0126401Y0189235D01*
X0126496Y0189105D01*
X0126588Y0188973D01*
X0126676Y0188839D01*
X0126761Y0188702D01*
X0126843Y0188564D01*
X0126921Y0188423D01*
X0126995Y0188281D01*
X0127066Y0188137D01*
X0127134Y0187991D01*
X0127197Y0187843D01*
X0127258Y0187694D01*
X0127314Y0187543D01*
X0127367Y0187391D01*
X0127416Y0187238D01*
X0127461Y0187084D01*
X0127502Y0186929D01*
X0127540Y0186772D01*
X0127573Y0186615D01*
X0127603Y0186457D01*
X0127629Y0186298D01*
X0127650Y0186139D01*
X0127668Y0185979D01*
X0127682Y0185819D01*
X0127692Y0185658D01*
X0127698Y0185498D01*
X0127700Y0185337D01*
X0127698Y0185176D01*
X0127692Y0185016D01*
X0127682Y0184855D01*
X0127668Y0184695D01*
X0127650Y0184535D01*
X0127629Y0184376D01*
X0127603Y0184217D01*
X0127573Y0184059D01*
X0127540Y0183902D01*
X0127502Y0183745D01*
X0127461Y0183590D01*
X0127416Y0183436D01*
X0127367Y0183283D01*
X0127314Y0183131D01*
X0127258Y0182980D01*
X0127197Y0182831D01*
X0127134Y0182683D01*
X0127066Y0182537D01*
X0126995Y0182393D01*
X0126921Y0182251D01*
X0126843Y0182110D01*
X0126761Y0181972D01*
X0126676Y0181835D01*
X0126588Y0181701D01*
X0126496Y0181569D01*
X0126401Y0181439D01*
X0126303Y0181311D01*
X0126202Y0181186D01*
X0126098Y0181064D01*
X0125991Y0180944D01*
X0125881Y0180827D01*
X0125768Y0180712D01*
X0125652Y0180601D01*
X0125533Y0180492D01*
X0125412Y0180387D01*
X0125288Y0180284D01*
X0125162Y0180184D01*
X0125034Y0180088D01*
X0124903Y0179995D01*
X0124769Y0179905D01*
X0124634Y0179818D01*
X0124496Y0179735D01*
X0124357Y0179655D01*
X0124215Y0179579D01*
X0124072Y0179506D01*
X0123927Y0179437D01*
X0123780Y0179371D01*
X0123632Y0179309D01*
X0123482Y0179251D01*
X0123331Y0179196D01*
X0123178Y0179145D01*
X0123024Y0179098D01*
X0122869Y0179055D01*
X0122713Y0179016D01*
X0122557Y0178980D01*
X0122399Y0178949D01*
X0122241Y0178921D01*
X0122082Y0178897D01*
X0121922Y0178877D01*
X0121762Y0178861D01*
X0121602Y0178849D01*
X0121441Y0178841D01*
X0121280Y0178837D01*
X0121120Y0178837D01*
X0120959Y0178841D01*
X0120798Y0178849D01*
X0120638Y0178861D01*
X0120478Y0178877D01*
X0120318Y0178897D01*
X0120159Y0178921D01*
X0120001Y0178949D01*
X0119843Y0178980D01*
X0119687Y0179016D01*
X0119531Y0179055D01*
X0119376Y0179098D01*
X0119222Y0179145D01*
X0119069Y0179196D01*
X0118918Y0179251D01*
X0118768Y0179309D01*
X0118620Y0179371D01*
X0118473Y0179437D01*
X0118328Y0179506D01*
X0118185Y0179579D01*
X0118043Y0179655D01*
X0117904Y0179735D01*
X0117766Y0179818D01*
X0117631Y0179905D01*
X0117497Y0179995D01*
X0117366Y0180088D01*
X0117238Y0180184D01*
X0117112Y0180284D01*
X0116988Y0180387D01*
X0116867Y0180492D01*
X0116748Y0180601D01*
X0116632Y0180712D01*
X0116519Y0180827D01*
X0116409Y0180944D01*
X0116302Y0181064D01*
X0116198Y0181186D01*
X0116097Y0181311D01*
X0115999Y0181439D01*
X0115904Y0181569D01*
X0115812Y0181701D01*
X0115724Y0181835D01*
X0115639Y0181972D01*
X0115557Y0182110D01*
X0115479Y0182251D01*
X0115405Y0182393D01*
X0115334Y0182537D01*
X0115266Y0182683D01*
X0115203Y0182831D01*
X0115142Y0182980D01*
X0115086Y0183131D01*
X0115033Y0183283D01*
X0114984Y0183436D01*
X0114939Y0183590D01*
X0114898Y0183745D01*
X0114860Y0183902D01*
X0114827Y0184059D01*
X0114797Y0184217D01*
X0114771Y0184376D01*
X0114750Y0184535D01*
X0114732Y0184695D01*
X0114718Y0184855D01*
X0114708Y0185016D01*
X0114702Y0185176D01*
X0114700Y0185337D01*
X0129605Y0226551D02*
X0129607Y0226630D01*
X0129613Y0226709D01*
X0129623Y0226788D01*
X0129637Y0226866D01*
X0129654Y0226943D01*
X0129676Y0227019D01*
X0129701Y0227094D01*
X0129731Y0227167D01*
X0129763Y0227239D01*
X0129800Y0227310D01*
X0129840Y0227378D01*
X0129883Y0227444D01*
X0129929Y0227508D01*
X0129979Y0227570D01*
X0130032Y0227629D01*
X0130087Y0227685D01*
X0130146Y0227739D01*
X0130207Y0227789D01*
X0130270Y0227837D01*
X0130336Y0227881D01*
X0130404Y0227922D01*
X0130474Y0227959D01*
X0130545Y0227993D01*
X0130619Y0228023D01*
X0130693Y0228049D01*
X0130769Y0228071D01*
X0130846Y0228090D01*
X0130924Y0228105D01*
X0131002Y0228116D01*
X0131081Y0228123D01*
X0131160Y0228126D01*
X0131239Y0228125D01*
X0131318Y0228120D01*
X0131397Y0228111D01*
X0131475Y0228098D01*
X0131552Y0228081D01*
X0131629Y0228061D01*
X0131704Y0228036D01*
X0131778Y0228008D01*
X0131851Y0227976D01*
X0131921Y0227941D01*
X0131990Y0227902D01*
X0132057Y0227859D01*
X0132122Y0227813D01*
X0132184Y0227765D01*
X0132244Y0227713D01*
X0132301Y0227658D01*
X0132355Y0227600D01*
X0132406Y0227540D01*
X0132454Y0227477D01*
X0132499Y0227412D01*
X0132541Y0227344D01*
X0132579Y0227275D01*
X0132613Y0227204D01*
X0132644Y0227131D01*
X0132672Y0227056D01*
X0132695Y0226981D01*
X0132715Y0226904D01*
X0132731Y0226827D01*
X0132743Y0226748D01*
X0132751Y0226670D01*
X0132755Y0226591D01*
X0132755Y0226511D01*
X0132751Y0226432D01*
X0132743Y0226354D01*
X0132731Y0226275D01*
X0132715Y0226198D01*
X0132695Y0226121D01*
X0132672Y0226046D01*
X0132644Y0225971D01*
X0132613Y0225898D01*
X0132579Y0225827D01*
X0132541Y0225758D01*
X0132499Y0225690D01*
X0132454Y0225625D01*
X0132406Y0225562D01*
X0132355Y0225502D01*
X0132301Y0225444D01*
X0132244Y0225389D01*
X0132184Y0225337D01*
X0132122Y0225289D01*
X0132057Y0225243D01*
X0131990Y0225200D01*
X0131921Y0225161D01*
X0131851Y0225126D01*
X0131778Y0225094D01*
X0131704Y0225066D01*
X0131629Y0225041D01*
X0131552Y0225021D01*
X0131475Y0225004D01*
X0131397Y0224991D01*
X0131318Y0224982D01*
X0131239Y0224977D01*
X0131160Y0224976D01*
X0131081Y0224979D01*
X0131002Y0224986D01*
X0130924Y0224997D01*
X0130846Y0225012D01*
X0130769Y0225031D01*
X0130693Y0225053D01*
X0130619Y0225079D01*
X0130545Y0225109D01*
X0130474Y0225143D01*
X0130404Y0225180D01*
X0130336Y0225221D01*
X0130270Y0225265D01*
X0130207Y0225313D01*
X0130146Y0225363D01*
X0130087Y0225417D01*
X0130032Y0225473D01*
X0129979Y0225532D01*
X0129929Y0225594D01*
X0129883Y0225658D01*
X0129840Y0225724D01*
X0129800Y0225792D01*
X0129763Y0225863D01*
X0129731Y0225935D01*
X0129701Y0226008D01*
X0129676Y0226083D01*
X0129654Y0226159D01*
X0129637Y0226236D01*
X0129623Y0226314D01*
X0129613Y0226393D01*
X0129607Y0226472D01*
X0129605Y0226551D01*
X0114700Y0316937D02*
X0114702Y0317098D01*
X0114708Y0317258D01*
X0114718Y0317419D01*
X0114732Y0317579D01*
X0114750Y0317739D01*
X0114771Y0317898D01*
X0114797Y0318057D01*
X0114827Y0318215D01*
X0114860Y0318372D01*
X0114898Y0318529D01*
X0114939Y0318684D01*
X0114984Y0318838D01*
X0115033Y0318991D01*
X0115086Y0319143D01*
X0115142Y0319294D01*
X0115203Y0319443D01*
X0115266Y0319591D01*
X0115334Y0319737D01*
X0115405Y0319881D01*
X0115479Y0320023D01*
X0115557Y0320164D01*
X0115639Y0320302D01*
X0115724Y0320439D01*
X0115812Y0320573D01*
X0115904Y0320705D01*
X0115999Y0320835D01*
X0116097Y0320963D01*
X0116198Y0321088D01*
X0116302Y0321210D01*
X0116409Y0321330D01*
X0116519Y0321447D01*
X0116632Y0321562D01*
X0116748Y0321673D01*
X0116867Y0321782D01*
X0116988Y0321887D01*
X0117112Y0321990D01*
X0117238Y0322090D01*
X0117366Y0322186D01*
X0117497Y0322279D01*
X0117631Y0322369D01*
X0117766Y0322456D01*
X0117904Y0322539D01*
X0118043Y0322619D01*
X0118185Y0322695D01*
X0118328Y0322768D01*
X0118473Y0322837D01*
X0118620Y0322903D01*
X0118768Y0322965D01*
X0118918Y0323023D01*
X0119069Y0323078D01*
X0119222Y0323129D01*
X0119376Y0323176D01*
X0119531Y0323219D01*
X0119687Y0323258D01*
X0119843Y0323294D01*
X0120001Y0323325D01*
X0120159Y0323353D01*
X0120318Y0323377D01*
X0120478Y0323397D01*
X0120638Y0323413D01*
X0120798Y0323425D01*
X0120959Y0323433D01*
X0121120Y0323437D01*
X0121280Y0323437D01*
X0121441Y0323433D01*
X0121602Y0323425D01*
X0121762Y0323413D01*
X0121922Y0323397D01*
X0122082Y0323377D01*
X0122241Y0323353D01*
X0122399Y0323325D01*
X0122557Y0323294D01*
X0122713Y0323258D01*
X0122869Y0323219D01*
X0123024Y0323176D01*
X0123178Y0323129D01*
X0123331Y0323078D01*
X0123482Y0323023D01*
X0123632Y0322965D01*
X0123780Y0322903D01*
X0123927Y0322837D01*
X0124072Y0322768D01*
X0124215Y0322695D01*
X0124357Y0322619D01*
X0124496Y0322539D01*
X0124634Y0322456D01*
X0124769Y0322369D01*
X0124903Y0322279D01*
X0125034Y0322186D01*
X0125162Y0322090D01*
X0125288Y0321990D01*
X0125412Y0321887D01*
X0125533Y0321782D01*
X0125652Y0321673D01*
X0125768Y0321562D01*
X0125881Y0321447D01*
X0125991Y0321330D01*
X0126098Y0321210D01*
X0126202Y0321088D01*
X0126303Y0320963D01*
X0126401Y0320835D01*
X0126496Y0320705D01*
X0126588Y0320573D01*
X0126676Y0320439D01*
X0126761Y0320302D01*
X0126843Y0320164D01*
X0126921Y0320023D01*
X0126995Y0319881D01*
X0127066Y0319737D01*
X0127134Y0319591D01*
X0127197Y0319443D01*
X0127258Y0319294D01*
X0127314Y0319143D01*
X0127367Y0318991D01*
X0127416Y0318838D01*
X0127461Y0318684D01*
X0127502Y0318529D01*
X0127540Y0318372D01*
X0127573Y0318215D01*
X0127603Y0318057D01*
X0127629Y0317898D01*
X0127650Y0317739D01*
X0127668Y0317579D01*
X0127682Y0317419D01*
X0127692Y0317258D01*
X0127698Y0317098D01*
X0127700Y0316937D01*
X0127698Y0316776D01*
X0127692Y0316616D01*
X0127682Y0316455D01*
X0127668Y0316295D01*
X0127650Y0316135D01*
X0127629Y0315976D01*
X0127603Y0315817D01*
X0127573Y0315659D01*
X0127540Y0315502D01*
X0127502Y0315345D01*
X0127461Y0315190D01*
X0127416Y0315036D01*
X0127367Y0314883D01*
X0127314Y0314731D01*
X0127258Y0314580D01*
X0127197Y0314431D01*
X0127134Y0314283D01*
X0127066Y0314137D01*
X0126995Y0313993D01*
X0126921Y0313851D01*
X0126843Y0313710D01*
X0126761Y0313572D01*
X0126676Y0313435D01*
X0126588Y0313301D01*
X0126496Y0313169D01*
X0126401Y0313039D01*
X0126303Y0312911D01*
X0126202Y0312786D01*
X0126098Y0312664D01*
X0125991Y0312544D01*
X0125881Y0312427D01*
X0125768Y0312312D01*
X0125652Y0312201D01*
X0125533Y0312092D01*
X0125412Y0311987D01*
X0125288Y0311884D01*
X0125162Y0311784D01*
X0125034Y0311688D01*
X0124903Y0311595D01*
X0124769Y0311505D01*
X0124634Y0311418D01*
X0124496Y0311335D01*
X0124357Y0311255D01*
X0124215Y0311179D01*
X0124072Y0311106D01*
X0123927Y0311037D01*
X0123780Y0310971D01*
X0123632Y0310909D01*
X0123482Y0310851D01*
X0123331Y0310796D01*
X0123178Y0310745D01*
X0123024Y0310698D01*
X0122869Y0310655D01*
X0122713Y0310616D01*
X0122557Y0310580D01*
X0122399Y0310549D01*
X0122241Y0310521D01*
X0122082Y0310497D01*
X0121922Y0310477D01*
X0121762Y0310461D01*
X0121602Y0310449D01*
X0121441Y0310441D01*
X0121280Y0310437D01*
X0121120Y0310437D01*
X0120959Y0310441D01*
X0120798Y0310449D01*
X0120638Y0310461D01*
X0120478Y0310477D01*
X0120318Y0310497D01*
X0120159Y0310521D01*
X0120001Y0310549D01*
X0119843Y0310580D01*
X0119687Y0310616D01*
X0119531Y0310655D01*
X0119376Y0310698D01*
X0119222Y0310745D01*
X0119069Y0310796D01*
X0118918Y0310851D01*
X0118768Y0310909D01*
X0118620Y0310971D01*
X0118473Y0311037D01*
X0118328Y0311106D01*
X0118185Y0311179D01*
X0118043Y0311255D01*
X0117904Y0311335D01*
X0117766Y0311418D01*
X0117631Y0311505D01*
X0117497Y0311595D01*
X0117366Y0311688D01*
X0117238Y0311784D01*
X0117112Y0311884D01*
X0116988Y0311987D01*
X0116867Y0312092D01*
X0116748Y0312201D01*
X0116632Y0312312D01*
X0116519Y0312427D01*
X0116409Y0312544D01*
X0116302Y0312664D01*
X0116198Y0312786D01*
X0116097Y0312911D01*
X0115999Y0313039D01*
X0115904Y0313169D01*
X0115812Y0313301D01*
X0115724Y0313435D01*
X0115639Y0313572D01*
X0115557Y0313710D01*
X0115479Y0313851D01*
X0115405Y0313993D01*
X0115334Y0314137D01*
X0115266Y0314283D01*
X0115203Y0314431D01*
X0115142Y0314580D01*
X0115086Y0314731D01*
X0115033Y0314883D01*
X0114984Y0315036D01*
X0114939Y0315190D01*
X0114898Y0315345D01*
X0114860Y0315502D01*
X0114827Y0315659D01*
X0114797Y0315817D01*
X0114771Y0315976D01*
X0114750Y0316135D01*
X0114732Y0316295D01*
X0114718Y0316455D01*
X0114708Y0316616D01*
X0114702Y0316776D01*
X0114700Y0316937D01*
X0091400Y0316937D02*
X0091402Y0317098D01*
X0091408Y0317258D01*
X0091418Y0317419D01*
X0091432Y0317579D01*
X0091450Y0317739D01*
X0091471Y0317898D01*
X0091497Y0318057D01*
X0091527Y0318215D01*
X0091560Y0318372D01*
X0091598Y0318529D01*
X0091639Y0318684D01*
X0091684Y0318838D01*
X0091733Y0318991D01*
X0091786Y0319143D01*
X0091842Y0319294D01*
X0091903Y0319443D01*
X0091966Y0319591D01*
X0092034Y0319737D01*
X0092105Y0319881D01*
X0092179Y0320023D01*
X0092257Y0320164D01*
X0092339Y0320302D01*
X0092424Y0320439D01*
X0092512Y0320573D01*
X0092604Y0320705D01*
X0092699Y0320835D01*
X0092797Y0320963D01*
X0092898Y0321088D01*
X0093002Y0321210D01*
X0093109Y0321330D01*
X0093219Y0321447D01*
X0093332Y0321562D01*
X0093448Y0321673D01*
X0093567Y0321782D01*
X0093688Y0321887D01*
X0093812Y0321990D01*
X0093938Y0322090D01*
X0094066Y0322186D01*
X0094197Y0322279D01*
X0094331Y0322369D01*
X0094466Y0322456D01*
X0094604Y0322539D01*
X0094743Y0322619D01*
X0094885Y0322695D01*
X0095028Y0322768D01*
X0095173Y0322837D01*
X0095320Y0322903D01*
X0095468Y0322965D01*
X0095618Y0323023D01*
X0095769Y0323078D01*
X0095922Y0323129D01*
X0096076Y0323176D01*
X0096231Y0323219D01*
X0096387Y0323258D01*
X0096543Y0323294D01*
X0096701Y0323325D01*
X0096859Y0323353D01*
X0097018Y0323377D01*
X0097178Y0323397D01*
X0097338Y0323413D01*
X0097498Y0323425D01*
X0097659Y0323433D01*
X0097820Y0323437D01*
X0097980Y0323437D01*
X0098141Y0323433D01*
X0098302Y0323425D01*
X0098462Y0323413D01*
X0098622Y0323397D01*
X0098782Y0323377D01*
X0098941Y0323353D01*
X0099099Y0323325D01*
X0099257Y0323294D01*
X0099413Y0323258D01*
X0099569Y0323219D01*
X0099724Y0323176D01*
X0099878Y0323129D01*
X0100031Y0323078D01*
X0100182Y0323023D01*
X0100332Y0322965D01*
X0100480Y0322903D01*
X0100627Y0322837D01*
X0100772Y0322768D01*
X0100915Y0322695D01*
X0101057Y0322619D01*
X0101196Y0322539D01*
X0101334Y0322456D01*
X0101469Y0322369D01*
X0101603Y0322279D01*
X0101734Y0322186D01*
X0101862Y0322090D01*
X0101988Y0321990D01*
X0102112Y0321887D01*
X0102233Y0321782D01*
X0102352Y0321673D01*
X0102468Y0321562D01*
X0102581Y0321447D01*
X0102691Y0321330D01*
X0102798Y0321210D01*
X0102902Y0321088D01*
X0103003Y0320963D01*
X0103101Y0320835D01*
X0103196Y0320705D01*
X0103288Y0320573D01*
X0103376Y0320439D01*
X0103461Y0320302D01*
X0103543Y0320164D01*
X0103621Y0320023D01*
X0103695Y0319881D01*
X0103766Y0319737D01*
X0103834Y0319591D01*
X0103897Y0319443D01*
X0103958Y0319294D01*
X0104014Y0319143D01*
X0104067Y0318991D01*
X0104116Y0318838D01*
X0104161Y0318684D01*
X0104202Y0318529D01*
X0104240Y0318372D01*
X0104273Y0318215D01*
X0104303Y0318057D01*
X0104329Y0317898D01*
X0104350Y0317739D01*
X0104368Y0317579D01*
X0104382Y0317419D01*
X0104392Y0317258D01*
X0104398Y0317098D01*
X0104400Y0316937D01*
X0104398Y0316776D01*
X0104392Y0316616D01*
X0104382Y0316455D01*
X0104368Y0316295D01*
X0104350Y0316135D01*
X0104329Y0315976D01*
X0104303Y0315817D01*
X0104273Y0315659D01*
X0104240Y0315502D01*
X0104202Y0315345D01*
X0104161Y0315190D01*
X0104116Y0315036D01*
X0104067Y0314883D01*
X0104014Y0314731D01*
X0103958Y0314580D01*
X0103897Y0314431D01*
X0103834Y0314283D01*
X0103766Y0314137D01*
X0103695Y0313993D01*
X0103621Y0313851D01*
X0103543Y0313710D01*
X0103461Y0313572D01*
X0103376Y0313435D01*
X0103288Y0313301D01*
X0103196Y0313169D01*
X0103101Y0313039D01*
X0103003Y0312911D01*
X0102902Y0312786D01*
X0102798Y0312664D01*
X0102691Y0312544D01*
X0102581Y0312427D01*
X0102468Y0312312D01*
X0102352Y0312201D01*
X0102233Y0312092D01*
X0102112Y0311987D01*
X0101988Y0311884D01*
X0101862Y0311784D01*
X0101734Y0311688D01*
X0101603Y0311595D01*
X0101469Y0311505D01*
X0101334Y0311418D01*
X0101196Y0311335D01*
X0101057Y0311255D01*
X0100915Y0311179D01*
X0100772Y0311106D01*
X0100627Y0311037D01*
X0100480Y0310971D01*
X0100332Y0310909D01*
X0100182Y0310851D01*
X0100031Y0310796D01*
X0099878Y0310745D01*
X0099724Y0310698D01*
X0099569Y0310655D01*
X0099413Y0310616D01*
X0099257Y0310580D01*
X0099099Y0310549D01*
X0098941Y0310521D01*
X0098782Y0310497D01*
X0098622Y0310477D01*
X0098462Y0310461D01*
X0098302Y0310449D01*
X0098141Y0310441D01*
X0097980Y0310437D01*
X0097820Y0310437D01*
X0097659Y0310441D01*
X0097498Y0310449D01*
X0097338Y0310461D01*
X0097178Y0310477D01*
X0097018Y0310497D01*
X0096859Y0310521D01*
X0096701Y0310549D01*
X0096543Y0310580D01*
X0096387Y0310616D01*
X0096231Y0310655D01*
X0096076Y0310698D01*
X0095922Y0310745D01*
X0095769Y0310796D01*
X0095618Y0310851D01*
X0095468Y0310909D01*
X0095320Y0310971D01*
X0095173Y0311037D01*
X0095028Y0311106D01*
X0094885Y0311179D01*
X0094743Y0311255D01*
X0094604Y0311335D01*
X0094466Y0311418D01*
X0094331Y0311505D01*
X0094197Y0311595D01*
X0094066Y0311688D01*
X0093938Y0311784D01*
X0093812Y0311884D01*
X0093688Y0311987D01*
X0093567Y0312092D01*
X0093448Y0312201D01*
X0093332Y0312312D01*
X0093219Y0312427D01*
X0093109Y0312544D01*
X0093002Y0312664D01*
X0092898Y0312786D01*
X0092797Y0312911D01*
X0092699Y0313039D01*
X0092604Y0313169D01*
X0092512Y0313301D01*
X0092424Y0313435D01*
X0092339Y0313572D01*
X0092257Y0313710D01*
X0092179Y0313851D01*
X0092105Y0313993D01*
X0092034Y0314137D01*
X0091966Y0314283D01*
X0091903Y0314431D01*
X0091842Y0314580D01*
X0091786Y0314731D01*
X0091733Y0314883D01*
X0091684Y0315036D01*
X0091639Y0315190D01*
X0091598Y0315345D01*
X0091560Y0315502D01*
X0091527Y0315659D01*
X0091497Y0315817D01*
X0091471Y0315976D01*
X0091450Y0316135D01*
X0091432Y0316295D01*
X0091418Y0316455D01*
X0091408Y0316616D01*
X0091402Y0316776D01*
X0091400Y0316937D01*
X0087250Y0358151D02*
X0087252Y0358230D01*
X0087258Y0358309D01*
X0087268Y0358388D01*
X0087282Y0358466D01*
X0087299Y0358543D01*
X0087321Y0358619D01*
X0087346Y0358694D01*
X0087376Y0358767D01*
X0087408Y0358839D01*
X0087445Y0358910D01*
X0087485Y0358978D01*
X0087528Y0359044D01*
X0087574Y0359108D01*
X0087624Y0359170D01*
X0087677Y0359229D01*
X0087732Y0359285D01*
X0087791Y0359339D01*
X0087852Y0359389D01*
X0087915Y0359437D01*
X0087981Y0359481D01*
X0088049Y0359522D01*
X0088119Y0359559D01*
X0088190Y0359593D01*
X0088264Y0359623D01*
X0088338Y0359649D01*
X0088414Y0359671D01*
X0088491Y0359690D01*
X0088569Y0359705D01*
X0088647Y0359716D01*
X0088726Y0359723D01*
X0088805Y0359726D01*
X0088884Y0359725D01*
X0088963Y0359720D01*
X0089042Y0359711D01*
X0089120Y0359698D01*
X0089197Y0359681D01*
X0089274Y0359661D01*
X0089349Y0359636D01*
X0089423Y0359608D01*
X0089496Y0359576D01*
X0089566Y0359541D01*
X0089635Y0359502D01*
X0089702Y0359459D01*
X0089767Y0359413D01*
X0089829Y0359365D01*
X0089889Y0359313D01*
X0089946Y0359258D01*
X0090000Y0359200D01*
X0090051Y0359140D01*
X0090099Y0359077D01*
X0090144Y0359012D01*
X0090186Y0358944D01*
X0090224Y0358875D01*
X0090258Y0358804D01*
X0090289Y0358731D01*
X0090317Y0358656D01*
X0090340Y0358581D01*
X0090360Y0358504D01*
X0090376Y0358427D01*
X0090388Y0358348D01*
X0090396Y0358270D01*
X0090400Y0358191D01*
X0090400Y0358111D01*
X0090396Y0358032D01*
X0090388Y0357954D01*
X0090376Y0357875D01*
X0090360Y0357798D01*
X0090340Y0357721D01*
X0090317Y0357646D01*
X0090289Y0357571D01*
X0090258Y0357498D01*
X0090224Y0357427D01*
X0090186Y0357358D01*
X0090144Y0357290D01*
X0090099Y0357225D01*
X0090051Y0357162D01*
X0090000Y0357102D01*
X0089946Y0357044D01*
X0089889Y0356989D01*
X0089829Y0356937D01*
X0089767Y0356889D01*
X0089702Y0356843D01*
X0089635Y0356800D01*
X0089566Y0356761D01*
X0089496Y0356726D01*
X0089423Y0356694D01*
X0089349Y0356666D01*
X0089274Y0356641D01*
X0089197Y0356621D01*
X0089120Y0356604D01*
X0089042Y0356591D01*
X0088963Y0356582D01*
X0088884Y0356577D01*
X0088805Y0356576D01*
X0088726Y0356579D01*
X0088647Y0356586D01*
X0088569Y0356597D01*
X0088491Y0356612D01*
X0088414Y0356631D01*
X0088338Y0356653D01*
X0088264Y0356679D01*
X0088190Y0356709D01*
X0088119Y0356743D01*
X0088049Y0356780D01*
X0087981Y0356821D01*
X0087915Y0356865D01*
X0087852Y0356913D01*
X0087791Y0356963D01*
X0087732Y0357017D01*
X0087677Y0357073D01*
X0087624Y0357132D01*
X0087574Y0357194D01*
X0087528Y0357258D01*
X0087485Y0357324D01*
X0087445Y0357392D01*
X0087408Y0357463D01*
X0087376Y0357535D01*
X0087346Y0357608D01*
X0087321Y0357683D01*
X0087299Y0357759D01*
X0087282Y0357836D01*
X0087268Y0357914D01*
X0087258Y0357993D01*
X0087252Y0358072D01*
X0087250Y0358151D01*
X0129605Y0358151D02*
X0129607Y0358230D01*
X0129613Y0358309D01*
X0129623Y0358388D01*
X0129637Y0358466D01*
X0129654Y0358543D01*
X0129676Y0358619D01*
X0129701Y0358694D01*
X0129731Y0358767D01*
X0129763Y0358839D01*
X0129800Y0358910D01*
X0129840Y0358978D01*
X0129883Y0359044D01*
X0129929Y0359108D01*
X0129979Y0359170D01*
X0130032Y0359229D01*
X0130087Y0359285D01*
X0130146Y0359339D01*
X0130207Y0359389D01*
X0130270Y0359437D01*
X0130336Y0359481D01*
X0130404Y0359522D01*
X0130474Y0359559D01*
X0130545Y0359593D01*
X0130619Y0359623D01*
X0130693Y0359649D01*
X0130769Y0359671D01*
X0130846Y0359690D01*
X0130924Y0359705D01*
X0131002Y0359716D01*
X0131081Y0359723D01*
X0131160Y0359726D01*
X0131239Y0359725D01*
X0131318Y0359720D01*
X0131397Y0359711D01*
X0131475Y0359698D01*
X0131552Y0359681D01*
X0131629Y0359661D01*
X0131704Y0359636D01*
X0131778Y0359608D01*
X0131851Y0359576D01*
X0131921Y0359541D01*
X0131990Y0359502D01*
X0132057Y0359459D01*
X0132122Y0359413D01*
X0132184Y0359365D01*
X0132244Y0359313D01*
X0132301Y0359258D01*
X0132355Y0359200D01*
X0132406Y0359140D01*
X0132454Y0359077D01*
X0132499Y0359012D01*
X0132541Y0358944D01*
X0132579Y0358875D01*
X0132613Y0358804D01*
X0132644Y0358731D01*
X0132672Y0358656D01*
X0132695Y0358581D01*
X0132715Y0358504D01*
X0132731Y0358427D01*
X0132743Y0358348D01*
X0132751Y0358270D01*
X0132755Y0358191D01*
X0132755Y0358111D01*
X0132751Y0358032D01*
X0132743Y0357954D01*
X0132731Y0357875D01*
X0132715Y0357798D01*
X0132695Y0357721D01*
X0132672Y0357646D01*
X0132644Y0357571D01*
X0132613Y0357498D01*
X0132579Y0357427D01*
X0132541Y0357358D01*
X0132499Y0357290D01*
X0132454Y0357225D01*
X0132406Y0357162D01*
X0132355Y0357102D01*
X0132301Y0357044D01*
X0132244Y0356989D01*
X0132184Y0356937D01*
X0132122Y0356889D01*
X0132057Y0356843D01*
X0131990Y0356800D01*
X0131921Y0356761D01*
X0131851Y0356726D01*
X0131778Y0356694D01*
X0131704Y0356666D01*
X0131629Y0356641D01*
X0131552Y0356621D01*
X0131475Y0356604D01*
X0131397Y0356591D01*
X0131318Y0356582D01*
X0131239Y0356577D01*
X0131160Y0356576D01*
X0131081Y0356579D01*
X0131002Y0356586D01*
X0130924Y0356597D01*
X0130846Y0356612D01*
X0130769Y0356631D01*
X0130693Y0356653D01*
X0130619Y0356679D01*
X0130545Y0356709D01*
X0130474Y0356743D01*
X0130404Y0356780D01*
X0130336Y0356821D01*
X0130270Y0356865D01*
X0130207Y0356913D01*
X0130146Y0356963D01*
X0130087Y0357017D01*
X0130032Y0357073D01*
X0129979Y0357132D01*
X0129929Y0357194D01*
X0129883Y0357258D01*
X0129840Y0357324D01*
X0129800Y0357392D01*
X0129763Y0357463D01*
X0129731Y0357535D01*
X0129701Y0357608D01*
X0129676Y0357683D01*
X0129654Y0357759D01*
X0129637Y0357836D01*
X0129623Y0357914D01*
X0129613Y0357993D01*
X0129607Y0358072D01*
X0129605Y0358151D01*
X0195550Y0358151D02*
X0195552Y0358230D01*
X0195558Y0358309D01*
X0195568Y0358388D01*
X0195582Y0358466D01*
X0195599Y0358543D01*
X0195621Y0358619D01*
X0195646Y0358694D01*
X0195676Y0358767D01*
X0195708Y0358839D01*
X0195745Y0358910D01*
X0195785Y0358978D01*
X0195828Y0359044D01*
X0195874Y0359108D01*
X0195924Y0359170D01*
X0195977Y0359229D01*
X0196032Y0359285D01*
X0196091Y0359339D01*
X0196152Y0359389D01*
X0196215Y0359437D01*
X0196281Y0359481D01*
X0196349Y0359522D01*
X0196419Y0359559D01*
X0196490Y0359593D01*
X0196564Y0359623D01*
X0196638Y0359649D01*
X0196714Y0359671D01*
X0196791Y0359690D01*
X0196869Y0359705D01*
X0196947Y0359716D01*
X0197026Y0359723D01*
X0197105Y0359726D01*
X0197184Y0359725D01*
X0197263Y0359720D01*
X0197342Y0359711D01*
X0197420Y0359698D01*
X0197497Y0359681D01*
X0197574Y0359661D01*
X0197649Y0359636D01*
X0197723Y0359608D01*
X0197796Y0359576D01*
X0197866Y0359541D01*
X0197935Y0359502D01*
X0198002Y0359459D01*
X0198067Y0359413D01*
X0198129Y0359365D01*
X0198189Y0359313D01*
X0198246Y0359258D01*
X0198300Y0359200D01*
X0198351Y0359140D01*
X0198399Y0359077D01*
X0198444Y0359012D01*
X0198486Y0358944D01*
X0198524Y0358875D01*
X0198558Y0358804D01*
X0198589Y0358731D01*
X0198617Y0358656D01*
X0198640Y0358581D01*
X0198660Y0358504D01*
X0198676Y0358427D01*
X0198688Y0358348D01*
X0198696Y0358270D01*
X0198700Y0358191D01*
X0198700Y0358111D01*
X0198696Y0358032D01*
X0198688Y0357954D01*
X0198676Y0357875D01*
X0198660Y0357798D01*
X0198640Y0357721D01*
X0198617Y0357646D01*
X0198589Y0357571D01*
X0198558Y0357498D01*
X0198524Y0357427D01*
X0198486Y0357358D01*
X0198444Y0357290D01*
X0198399Y0357225D01*
X0198351Y0357162D01*
X0198300Y0357102D01*
X0198246Y0357044D01*
X0198189Y0356989D01*
X0198129Y0356937D01*
X0198067Y0356889D01*
X0198002Y0356843D01*
X0197935Y0356800D01*
X0197866Y0356761D01*
X0197796Y0356726D01*
X0197723Y0356694D01*
X0197649Y0356666D01*
X0197574Y0356641D01*
X0197497Y0356621D01*
X0197420Y0356604D01*
X0197342Y0356591D01*
X0197263Y0356582D01*
X0197184Y0356577D01*
X0197105Y0356576D01*
X0197026Y0356579D01*
X0196947Y0356586D01*
X0196869Y0356597D01*
X0196791Y0356612D01*
X0196714Y0356631D01*
X0196638Y0356653D01*
X0196564Y0356679D01*
X0196490Y0356709D01*
X0196419Y0356743D01*
X0196349Y0356780D01*
X0196281Y0356821D01*
X0196215Y0356865D01*
X0196152Y0356913D01*
X0196091Y0356963D01*
X0196032Y0357017D01*
X0195977Y0357073D01*
X0195924Y0357132D01*
X0195874Y0357194D01*
X0195828Y0357258D01*
X0195785Y0357324D01*
X0195745Y0357392D01*
X0195708Y0357463D01*
X0195676Y0357535D01*
X0195646Y0357608D01*
X0195621Y0357683D01*
X0195599Y0357759D01*
X0195582Y0357836D01*
X0195568Y0357914D01*
X0195558Y0357993D01*
X0195552Y0358072D01*
X0195550Y0358151D01*
X0199700Y0316937D02*
X0199702Y0317098D01*
X0199708Y0317258D01*
X0199718Y0317419D01*
X0199732Y0317579D01*
X0199750Y0317739D01*
X0199771Y0317898D01*
X0199797Y0318057D01*
X0199827Y0318215D01*
X0199860Y0318372D01*
X0199898Y0318529D01*
X0199939Y0318684D01*
X0199984Y0318838D01*
X0200033Y0318991D01*
X0200086Y0319143D01*
X0200142Y0319294D01*
X0200203Y0319443D01*
X0200266Y0319591D01*
X0200334Y0319737D01*
X0200405Y0319881D01*
X0200479Y0320023D01*
X0200557Y0320164D01*
X0200639Y0320302D01*
X0200724Y0320439D01*
X0200812Y0320573D01*
X0200904Y0320705D01*
X0200999Y0320835D01*
X0201097Y0320963D01*
X0201198Y0321088D01*
X0201302Y0321210D01*
X0201409Y0321330D01*
X0201519Y0321447D01*
X0201632Y0321562D01*
X0201748Y0321673D01*
X0201867Y0321782D01*
X0201988Y0321887D01*
X0202112Y0321990D01*
X0202238Y0322090D01*
X0202366Y0322186D01*
X0202497Y0322279D01*
X0202631Y0322369D01*
X0202766Y0322456D01*
X0202904Y0322539D01*
X0203043Y0322619D01*
X0203185Y0322695D01*
X0203328Y0322768D01*
X0203473Y0322837D01*
X0203620Y0322903D01*
X0203768Y0322965D01*
X0203918Y0323023D01*
X0204069Y0323078D01*
X0204222Y0323129D01*
X0204376Y0323176D01*
X0204531Y0323219D01*
X0204687Y0323258D01*
X0204843Y0323294D01*
X0205001Y0323325D01*
X0205159Y0323353D01*
X0205318Y0323377D01*
X0205478Y0323397D01*
X0205638Y0323413D01*
X0205798Y0323425D01*
X0205959Y0323433D01*
X0206120Y0323437D01*
X0206280Y0323437D01*
X0206441Y0323433D01*
X0206602Y0323425D01*
X0206762Y0323413D01*
X0206922Y0323397D01*
X0207082Y0323377D01*
X0207241Y0323353D01*
X0207399Y0323325D01*
X0207557Y0323294D01*
X0207713Y0323258D01*
X0207869Y0323219D01*
X0208024Y0323176D01*
X0208178Y0323129D01*
X0208331Y0323078D01*
X0208482Y0323023D01*
X0208632Y0322965D01*
X0208780Y0322903D01*
X0208927Y0322837D01*
X0209072Y0322768D01*
X0209215Y0322695D01*
X0209357Y0322619D01*
X0209496Y0322539D01*
X0209634Y0322456D01*
X0209769Y0322369D01*
X0209903Y0322279D01*
X0210034Y0322186D01*
X0210162Y0322090D01*
X0210288Y0321990D01*
X0210412Y0321887D01*
X0210533Y0321782D01*
X0210652Y0321673D01*
X0210768Y0321562D01*
X0210881Y0321447D01*
X0210991Y0321330D01*
X0211098Y0321210D01*
X0211202Y0321088D01*
X0211303Y0320963D01*
X0211401Y0320835D01*
X0211496Y0320705D01*
X0211588Y0320573D01*
X0211676Y0320439D01*
X0211761Y0320302D01*
X0211843Y0320164D01*
X0211921Y0320023D01*
X0211995Y0319881D01*
X0212066Y0319737D01*
X0212134Y0319591D01*
X0212197Y0319443D01*
X0212258Y0319294D01*
X0212314Y0319143D01*
X0212367Y0318991D01*
X0212416Y0318838D01*
X0212461Y0318684D01*
X0212502Y0318529D01*
X0212540Y0318372D01*
X0212573Y0318215D01*
X0212603Y0318057D01*
X0212629Y0317898D01*
X0212650Y0317739D01*
X0212668Y0317579D01*
X0212682Y0317419D01*
X0212692Y0317258D01*
X0212698Y0317098D01*
X0212700Y0316937D01*
X0212698Y0316776D01*
X0212692Y0316616D01*
X0212682Y0316455D01*
X0212668Y0316295D01*
X0212650Y0316135D01*
X0212629Y0315976D01*
X0212603Y0315817D01*
X0212573Y0315659D01*
X0212540Y0315502D01*
X0212502Y0315345D01*
X0212461Y0315190D01*
X0212416Y0315036D01*
X0212367Y0314883D01*
X0212314Y0314731D01*
X0212258Y0314580D01*
X0212197Y0314431D01*
X0212134Y0314283D01*
X0212066Y0314137D01*
X0211995Y0313993D01*
X0211921Y0313851D01*
X0211843Y0313710D01*
X0211761Y0313572D01*
X0211676Y0313435D01*
X0211588Y0313301D01*
X0211496Y0313169D01*
X0211401Y0313039D01*
X0211303Y0312911D01*
X0211202Y0312786D01*
X0211098Y0312664D01*
X0210991Y0312544D01*
X0210881Y0312427D01*
X0210768Y0312312D01*
X0210652Y0312201D01*
X0210533Y0312092D01*
X0210412Y0311987D01*
X0210288Y0311884D01*
X0210162Y0311784D01*
X0210034Y0311688D01*
X0209903Y0311595D01*
X0209769Y0311505D01*
X0209634Y0311418D01*
X0209496Y0311335D01*
X0209357Y0311255D01*
X0209215Y0311179D01*
X0209072Y0311106D01*
X0208927Y0311037D01*
X0208780Y0310971D01*
X0208632Y0310909D01*
X0208482Y0310851D01*
X0208331Y0310796D01*
X0208178Y0310745D01*
X0208024Y0310698D01*
X0207869Y0310655D01*
X0207713Y0310616D01*
X0207557Y0310580D01*
X0207399Y0310549D01*
X0207241Y0310521D01*
X0207082Y0310497D01*
X0206922Y0310477D01*
X0206762Y0310461D01*
X0206602Y0310449D01*
X0206441Y0310441D01*
X0206280Y0310437D01*
X0206120Y0310437D01*
X0205959Y0310441D01*
X0205798Y0310449D01*
X0205638Y0310461D01*
X0205478Y0310477D01*
X0205318Y0310497D01*
X0205159Y0310521D01*
X0205001Y0310549D01*
X0204843Y0310580D01*
X0204687Y0310616D01*
X0204531Y0310655D01*
X0204376Y0310698D01*
X0204222Y0310745D01*
X0204069Y0310796D01*
X0203918Y0310851D01*
X0203768Y0310909D01*
X0203620Y0310971D01*
X0203473Y0311037D01*
X0203328Y0311106D01*
X0203185Y0311179D01*
X0203043Y0311255D01*
X0202904Y0311335D01*
X0202766Y0311418D01*
X0202631Y0311505D01*
X0202497Y0311595D01*
X0202366Y0311688D01*
X0202238Y0311784D01*
X0202112Y0311884D01*
X0201988Y0311987D01*
X0201867Y0312092D01*
X0201748Y0312201D01*
X0201632Y0312312D01*
X0201519Y0312427D01*
X0201409Y0312544D01*
X0201302Y0312664D01*
X0201198Y0312786D01*
X0201097Y0312911D01*
X0200999Y0313039D01*
X0200904Y0313169D01*
X0200812Y0313301D01*
X0200724Y0313435D01*
X0200639Y0313572D01*
X0200557Y0313710D01*
X0200479Y0313851D01*
X0200405Y0313993D01*
X0200334Y0314137D01*
X0200266Y0314283D01*
X0200203Y0314431D01*
X0200142Y0314580D01*
X0200086Y0314731D01*
X0200033Y0314883D01*
X0199984Y0315036D01*
X0199939Y0315190D01*
X0199898Y0315345D01*
X0199860Y0315502D01*
X0199827Y0315659D01*
X0199797Y0315817D01*
X0199771Y0315976D01*
X0199750Y0316135D01*
X0199732Y0316295D01*
X0199718Y0316455D01*
X0199708Y0316616D01*
X0199702Y0316776D01*
X0199700Y0316937D01*
X0223000Y0316937D02*
X0223002Y0317098D01*
X0223008Y0317258D01*
X0223018Y0317419D01*
X0223032Y0317579D01*
X0223050Y0317739D01*
X0223071Y0317898D01*
X0223097Y0318057D01*
X0223127Y0318215D01*
X0223160Y0318372D01*
X0223198Y0318529D01*
X0223239Y0318684D01*
X0223284Y0318838D01*
X0223333Y0318991D01*
X0223386Y0319143D01*
X0223442Y0319294D01*
X0223503Y0319443D01*
X0223566Y0319591D01*
X0223634Y0319737D01*
X0223705Y0319881D01*
X0223779Y0320023D01*
X0223857Y0320164D01*
X0223939Y0320302D01*
X0224024Y0320439D01*
X0224112Y0320573D01*
X0224204Y0320705D01*
X0224299Y0320835D01*
X0224397Y0320963D01*
X0224498Y0321088D01*
X0224602Y0321210D01*
X0224709Y0321330D01*
X0224819Y0321447D01*
X0224932Y0321562D01*
X0225048Y0321673D01*
X0225167Y0321782D01*
X0225288Y0321887D01*
X0225412Y0321990D01*
X0225538Y0322090D01*
X0225666Y0322186D01*
X0225797Y0322279D01*
X0225931Y0322369D01*
X0226066Y0322456D01*
X0226204Y0322539D01*
X0226343Y0322619D01*
X0226485Y0322695D01*
X0226628Y0322768D01*
X0226773Y0322837D01*
X0226920Y0322903D01*
X0227068Y0322965D01*
X0227218Y0323023D01*
X0227369Y0323078D01*
X0227522Y0323129D01*
X0227676Y0323176D01*
X0227831Y0323219D01*
X0227987Y0323258D01*
X0228143Y0323294D01*
X0228301Y0323325D01*
X0228459Y0323353D01*
X0228618Y0323377D01*
X0228778Y0323397D01*
X0228938Y0323413D01*
X0229098Y0323425D01*
X0229259Y0323433D01*
X0229420Y0323437D01*
X0229580Y0323437D01*
X0229741Y0323433D01*
X0229902Y0323425D01*
X0230062Y0323413D01*
X0230222Y0323397D01*
X0230382Y0323377D01*
X0230541Y0323353D01*
X0230699Y0323325D01*
X0230857Y0323294D01*
X0231013Y0323258D01*
X0231169Y0323219D01*
X0231324Y0323176D01*
X0231478Y0323129D01*
X0231631Y0323078D01*
X0231782Y0323023D01*
X0231932Y0322965D01*
X0232080Y0322903D01*
X0232227Y0322837D01*
X0232372Y0322768D01*
X0232515Y0322695D01*
X0232657Y0322619D01*
X0232796Y0322539D01*
X0232934Y0322456D01*
X0233069Y0322369D01*
X0233203Y0322279D01*
X0233334Y0322186D01*
X0233462Y0322090D01*
X0233588Y0321990D01*
X0233712Y0321887D01*
X0233833Y0321782D01*
X0233952Y0321673D01*
X0234068Y0321562D01*
X0234181Y0321447D01*
X0234291Y0321330D01*
X0234398Y0321210D01*
X0234502Y0321088D01*
X0234603Y0320963D01*
X0234701Y0320835D01*
X0234796Y0320705D01*
X0234888Y0320573D01*
X0234976Y0320439D01*
X0235061Y0320302D01*
X0235143Y0320164D01*
X0235221Y0320023D01*
X0235295Y0319881D01*
X0235366Y0319737D01*
X0235434Y0319591D01*
X0235497Y0319443D01*
X0235558Y0319294D01*
X0235614Y0319143D01*
X0235667Y0318991D01*
X0235716Y0318838D01*
X0235761Y0318684D01*
X0235802Y0318529D01*
X0235840Y0318372D01*
X0235873Y0318215D01*
X0235903Y0318057D01*
X0235929Y0317898D01*
X0235950Y0317739D01*
X0235968Y0317579D01*
X0235982Y0317419D01*
X0235992Y0317258D01*
X0235998Y0317098D01*
X0236000Y0316937D01*
X0235998Y0316776D01*
X0235992Y0316616D01*
X0235982Y0316455D01*
X0235968Y0316295D01*
X0235950Y0316135D01*
X0235929Y0315976D01*
X0235903Y0315817D01*
X0235873Y0315659D01*
X0235840Y0315502D01*
X0235802Y0315345D01*
X0235761Y0315190D01*
X0235716Y0315036D01*
X0235667Y0314883D01*
X0235614Y0314731D01*
X0235558Y0314580D01*
X0235497Y0314431D01*
X0235434Y0314283D01*
X0235366Y0314137D01*
X0235295Y0313993D01*
X0235221Y0313851D01*
X0235143Y0313710D01*
X0235061Y0313572D01*
X0234976Y0313435D01*
X0234888Y0313301D01*
X0234796Y0313169D01*
X0234701Y0313039D01*
X0234603Y0312911D01*
X0234502Y0312786D01*
X0234398Y0312664D01*
X0234291Y0312544D01*
X0234181Y0312427D01*
X0234068Y0312312D01*
X0233952Y0312201D01*
X0233833Y0312092D01*
X0233712Y0311987D01*
X0233588Y0311884D01*
X0233462Y0311784D01*
X0233334Y0311688D01*
X0233203Y0311595D01*
X0233069Y0311505D01*
X0232934Y0311418D01*
X0232796Y0311335D01*
X0232657Y0311255D01*
X0232515Y0311179D01*
X0232372Y0311106D01*
X0232227Y0311037D01*
X0232080Y0310971D01*
X0231932Y0310909D01*
X0231782Y0310851D01*
X0231631Y0310796D01*
X0231478Y0310745D01*
X0231324Y0310698D01*
X0231169Y0310655D01*
X0231013Y0310616D01*
X0230857Y0310580D01*
X0230699Y0310549D01*
X0230541Y0310521D01*
X0230382Y0310497D01*
X0230222Y0310477D01*
X0230062Y0310461D01*
X0229902Y0310449D01*
X0229741Y0310441D01*
X0229580Y0310437D01*
X0229420Y0310437D01*
X0229259Y0310441D01*
X0229098Y0310449D01*
X0228938Y0310461D01*
X0228778Y0310477D01*
X0228618Y0310497D01*
X0228459Y0310521D01*
X0228301Y0310549D01*
X0228143Y0310580D01*
X0227987Y0310616D01*
X0227831Y0310655D01*
X0227676Y0310698D01*
X0227522Y0310745D01*
X0227369Y0310796D01*
X0227218Y0310851D01*
X0227068Y0310909D01*
X0226920Y0310971D01*
X0226773Y0311037D01*
X0226628Y0311106D01*
X0226485Y0311179D01*
X0226343Y0311255D01*
X0226204Y0311335D01*
X0226066Y0311418D01*
X0225931Y0311505D01*
X0225797Y0311595D01*
X0225666Y0311688D01*
X0225538Y0311784D01*
X0225412Y0311884D01*
X0225288Y0311987D01*
X0225167Y0312092D01*
X0225048Y0312201D01*
X0224932Y0312312D01*
X0224819Y0312427D01*
X0224709Y0312544D01*
X0224602Y0312664D01*
X0224498Y0312786D01*
X0224397Y0312911D01*
X0224299Y0313039D01*
X0224204Y0313169D01*
X0224112Y0313301D01*
X0224024Y0313435D01*
X0223939Y0313572D01*
X0223857Y0313710D01*
X0223779Y0313851D01*
X0223705Y0313993D01*
X0223634Y0314137D01*
X0223566Y0314283D01*
X0223503Y0314431D01*
X0223442Y0314580D01*
X0223386Y0314731D01*
X0223333Y0314883D01*
X0223284Y0315036D01*
X0223239Y0315190D01*
X0223198Y0315345D01*
X0223160Y0315502D01*
X0223127Y0315659D01*
X0223097Y0315817D01*
X0223071Y0315976D01*
X0223050Y0316135D01*
X0223032Y0316295D01*
X0223018Y0316455D01*
X0223008Y0316616D01*
X0223002Y0316776D01*
X0223000Y0316937D01*
X0237905Y0358151D02*
X0237907Y0358230D01*
X0237913Y0358309D01*
X0237923Y0358388D01*
X0237937Y0358466D01*
X0237954Y0358543D01*
X0237976Y0358619D01*
X0238001Y0358694D01*
X0238031Y0358767D01*
X0238063Y0358839D01*
X0238100Y0358910D01*
X0238140Y0358978D01*
X0238183Y0359044D01*
X0238229Y0359108D01*
X0238279Y0359170D01*
X0238332Y0359229D01*
X0238387Y0359285D01*
X0238446Y0359339D01*
X0238507Y0359389D01*
X0238570Y0359437D01*
X0238636Y0359481D01*
X0238704Y0359522D01*
X0238774Y0359559D01*
X0238845Y0359593D01*
X0238919Y0359623D01*
X0238993Y0359649D01*
X0239069Y0359671D01*
X0239146Y0359690D01*
X0239224Y0359705D01*
X0239302Y0359716D01*
X0239381Y0359723D01*
X0239460Y0359726D01*
X0239539Y0359725D01*
X0239618Y0359720D01*
X0239697Y0359711D01*
X0239775Y0359698D01*
X0239852Y0359681D01*
X0239929Y0359661D01*
X0240004Y0359636D01*
X0240078Y0359608D01*
X0240151Y0359576D01*
X0240221Y0359541D01*
X0240290Y0359502D01*
X0240357Y0359459D01*
X0240422Y0359413D01*
X0240484Y0359365D01*
X0240544Y0359313D01*
X0240601Y0359258D01*
X0240655Y0359200D01*
X0240706Y0359140D01*
X0240754Y0359077D01*
X0240799Y0359012D01*
X0240841Y0358944D01*
X0240879Y0358875D01*
X0240913Y0358804D01*
X0240944Y0358731D01*
X0240972Y0358656D01*
X0240995Y0358581D01*
X0241015Y0358504D01*
X0241031Y0358427D01*
X0241043Y0358348D01*
X0241051Y0358270D01*
X0241055Y0358191D01*
X0241055Y0358111D01*
X0241051Y0358032D01*
X0241043Y0357954D01*
X0241031Y0357875D01*
X0241015Y0357798D01*
X0240995Y0357721D01*
X0240972Y0357646D01*
X0240944Y0357571D01*
X0240913Y0357498D01*
X0240879Y0357427D01*
X0240841Y0357358D01*
X0240799Y0357290D01*
X0240754Y0357225D01*
X0240706Y0357162D01*
X0240655Y0357102D01*
X0240601Y0357044D01*
X0240544Y0356989D01*
X0240484Y0356937D01*
X0240422Y0356889D01*
X0240357Y0356843D01*
X0240290Y0356800D01*
X0240221Y0356761D01*
X0240151Y0356726D01*
X0240078Y0356694D01*
X0240004Y0356666D01*
X0239929Y0356641D01*
X0239852Y0356621D01*
X0239775Y0356604D01*
X0239697Y0356591D01*
X0239618Y0356582D01*
X0239539Y0356577D01*
X0239460Y0356576D01*
X0239381Y0356579D01*
X0239302Y0356586D01*
X0239224Y0356597D01*
X0239146Y0356612D01*
X0239069Y0356631D01*
X0238993Y0356653D01*
X0238919Y0356679D01*
X0238845Y0356709D01*
X0238774Y0356743D01*
X0238704Y0356780D01*
X0238636Y0356821D01*
X0238570Y0356865D01*
X0238507Y0356913D01*
X0238446Y0356963D01*
X0238387Y0357017D01*
X0238332Y0357073D01*
X0238279Y0357132D01*
X0238229Y0357194D01*
X0238183Y0357258D01*
X0238140Y0357324D01*
X0238100Y0357392D01*
X0238063Y0357463D01*
X0238031Y0357535D01*
X0238001Y0357608D01*
X0237976Y0357683D01*
X0237954Y0357759D01*
X0237937Y0357836D01*
X0237923Y0357914D01*
X0237913Y0357993D01*
X0237907Y0358072D01*
X0237905Y0358151D01*
X0303850Y0358151D02*
X0303852Y0358230D01*
X0303858Y0358309D01*
X0303868Y0358388D01*
X0303882Y0358466D01*
X0303899Y0358543D01*
X0303921Y0358619D01*
X0303946Y0358694D01*
X0303976Y0358767D01*
X0304008Y0358839D01*
X0304045Y0358910D01*
X0304085Y0358978D01*
X0304128Y0359044D01*
X0304174Y0359108D01*
X0304224Y0359170D01*
X0304277Y0359229D01*
X0304332Y0359285D01*
X0304391Y0359339D01*
X0304452Y0359389D01*
X0304515Y0359437D01*
X0304581Y0359481D01*
X0304649Y0359522D01*
X0304719Y0359559D01*
X0304790Y0359593D01*
X0304864Y0359623D01*
X0304938Y0359649D01*
X0305014Y0359671D01*
X0305091Y0359690D01*
X0305169Y0359705D01*
X0305247Y0359716D01*
X0305326Y0359723D01*
X0305405Y0359726D01*
X0305484Y0359725D01*
X0305563Y0359720D01*
X0305642Y0359711D01*
X0305720Y0359698D01*
X0305797Y0359681D01*
X0305874Y0359661D01*
X0305949Y0359636D01*
X0306023Y0359608D01*
X0306096Y0359576D01*
X0306166Y0359541D01*
X0306235Y0359502D01*
X0306302Y0359459D01*
X0306367Y0359413D01*
X0306429Y0359365D01*
X0306489Y0359313D01*
X0306546Y0359258D01*
X0306600Y0359200D01*
X0306651Y0359140D01*
X0306699Y0359077D01*
X0306744Y0359012D01*
X0306786Y0358944D01*
X0306824Y0358875D01*
X0306858Y0358804D01*
X0306889Y0358731D01*
X0306917Y0358656D01*
X0306940Y0358581D01*
X0306960Y0358504D01*
X0306976Y0358427D01*
X0306988Y0358348D01*
X0306996Y0358270D01*
X0307000Y0358191D01*
X0307000Y0358111D01*
X0306996Y0358032D01*
X0306988Y0357954D01*
X0306976Y0357875D01*
X0306960Y0357798D01*
X0306940Y0357721D01*
X0306917Y0357646D01*
X0306889Y0357571D01*
X0306858Y0357498D01*
X0306824Y0357427D01*
X0306786Y0357358D01*
X0306744Y0357290D01*
X0306699Y0357225D01*
X0306651Y0357162D01*
X0306600Y0357102D01*
X0306546Y0357044D01*
X0306489Y0356989D01*
X0306429Y0356937D01*
X0306367Y0356889D01*
X0306302Y0356843D01*
X0306235Y0356800D01*
X0306166Y0356761D01*
X0306096Y0356726D01*
X0306023Y0356694D01*
X0305949Y0356666D01*
X0305874Y0356641D01*
X0305797Y0356621D01*
X0305720Y0356604D01*
X0305642Y0356591D01*
X0305563Y0356582D01*
X0305484Y0356577D01*
X0305405Y0356576D01*
X0305326Y0356579D01*
X0305247Y0356586D01*
X0305169Y0356597D01*
X0305091Y0356612D01*
X0305014Y0356631D01*
X0304938Y0356653D01*
X0304864Y0356679D01*
X0304790Y0356709D01*
X0304719Y0356743D01*
X0304649Y0356780D01*
X0304581Y0356821D01*
X0304515Y0356865D01*
X0304452Y0356913D01*
X0304391Y0356963D01*
X0304332Y0357017D01*
X0304277Y0357073D01*
X0304224Y0357132D01*
X0304174Y0357194D01*
X0304128Y0357258D01*
X0304085Y0357324D01*
X0304045Y0357392D01*
X0304008Y0357463D01*
X0303976Y0357535D01*
X0303946Y0357608D01*
X0303921Y0357683D01*
X0303899Y0357759D01*
X0303882Y0357836D01*
X0303868Y0357914D01*
X0303858Y0357993D01*
X0303852Y0358072D01*
X0303850Y0358151D01*
X0308000Y0316937D02*
X0308002Y0317098D01*
X0308008Y0317258D01*
X0308018Y0317419D01*
X0308032Y0317579D01*
X0308050Y0317739D01*
X0308071Y0317898D01*
X0308097Y0318057D01*
X0308127Y0318215D01*
X0308160Y0318372D01*
X0308198Y0318529D01*
X0308239Y0318684D01*
X0308284Y0318838D01*
X0308333Y0318991D01*
X0308386Y0319143D01*
X0308442Y0319294D01*
X0308503Y0319443D01*
X0308566Y0319591D01*
X0308634Y0319737D01*
X0308705Y0319881D01*
X0308779Y0320023D01*
X0308857Y0320164D01*
X0308939Y0320302D01*
X0309024Y0320439D01*
X0309112Y0320573D01*
X0309204Y0320705D01*
X0309299Y0320835D01*
X0309397Y0320963D01*
X0309498Y0321088D01*
X0309602Y0321210D01*
X0309709Y0321330D01*
X0309819Y0321447D01*
X0309932Y0321562D01*
X0310048Y0321673D01*
X0310167Y0321782D01*
X0310288Y0321887D01*
X0310412Y0321990D01*
X0310538Y0322090D01*
X0310666Y0322186D01*
X0310797Y0322279D01*
X0310931Y0322369D01*
X0311066Y0322456D01*
X0311204Y0322539D01*
X0311343Y0322619D01*
X0311485Y0322695D01*
X0311628Y0322768D01*
X0311773Y0322837D01*
X0311920Y0322903D01*
X0312068Y0322965D01*
X0312218Y0323023D01*
X0312369Y0323078D01*
X0312522Y0323129D01*
X0312676Y0323176D01*
X0312831Y0323219D01*
X0312987Y0323258D01*
X0313143Y0323294D01*
X0313301Y0323325D01*
X0313459Y0323353D01*
X0313618Y0323377D01*
X0313778Y0323397D01*
X0313938Y0323413D01*
X0314098Y0323425D01*
X0314259Y0323433D01*
X0314420Y0323437D01*
X0314580Y0323437D01*
X0314741Y0323433D01*
X0314902Y0323425D01*
X0315062Y0323413D01*
X0315222Y0323397D01*
X0315382Y0323377D01*
X0315541Y0323353D01*
X0315699Y0323325D01*
X0315857Y0323294D01*
X0316013Y0323258D01*
X0316169Y0323219D01*
X0316324Y0323176D01*
X0316478Y0323129D01*
X0316631Y0323078D01*
X0316782Y0323023D01*
X0316932Y0322965D01*
X0317080Y0322903D01*
X0317227Y0322837D01*
X0317372Y0322768D01*
X0317515Y0322695D01*
X0317657Y0322619D01*
X0317796Y0322539D01*
X0317934Y0322456D01*
X0318069Y0322369D01*
X0318203Y0322279D01*
X0318334Y0322186D01*
X0318462Y0322090D01*
X0318588Y0321990D01*
X0318712Y0321887D01*
X0318833Y0321782D01*
X0318952Y0321673D01*
X0319068Y0321562D01*
X0319181Y0321447D01*
X0319291Y0321330D01*
X0319398Y0321210D01*
X0319502Y0321088D01*
X0319603Y0320963D01*
X0319701Y0320835D01*
X0319796Y0320705D01*
X0319888Y0320573D01*
X0319976Y0320439D01*
X0320061Y0320302D01*
X0320143Y0320164D01*
X0320221Y0320023D01*
X0320295Y0319881D01*
X0320366Y0319737D01*
X0320434Y0319591D01*
X0320497Y0319443D01*
X0320558Y0319294D01*
X0320614Y0319143D01*
X0320667Y0318991D01*
X0320716Y0318838D01*
X0320761Y0318684D01*
X0320802Y0318529D01*
X0320840Y0318372D01*
X0320873Y0318215D01*
X0320903Y0318057D01*
X0320929Y0317898D01*
X0320950Y0317739D01*
X0320968Y0317579D01*
X0320982Y0317419D01*
X0320992Y0317258D01*
X0320998Y0317098D01*
X0321000Y0316937D01*
X0320998Y0316776D01*
X0320992Y0316616D01*
X0320982Y0316455D01*
X0320968Y0316295D01*
X0320950Y0316135D01*
X0320929Y0315976D01*
X0320903Y0315817D01*
X0320873Y0315659D01*
X0320840Y0315502D01*
X0320802Y0315345D01*
X0320761Y0315190D01*
X0320716Y0315036D01*
X0320667Y0314883D01*
X0320614Y0314731D01*
X0320558Y0314580D01*
X0320497Y0314431D01*
X0320434Y0314283D01*
X0320366Y0314137D01*
X0320295Y0313993D01*
X0320221Y0313851D01*
X0320143Y0313710D01*
X0320061Y0313572D01*
X0319976Y0313435D01*
X0319888Y0313301D01*
X0319796Y0313169D01*
X0319701Y0313039D01*
X0319603Y0312911D01*
X0319502Y0312786D01*
X0319398Y0312664D01*
X0319291Y0312544D01*
X0319181Y0312427D01*
X0319068Y0312312D01*
X0318952Y0312201D01*
X0318833Y0312092D01*
X0318712Y0311987D01*
X0318588Y0311884D01*
X0318462Y0311784D01*
X0318334Y0311688D01*
X0318203Y0311595D01*
X0318069Y0311505D01*
X0317934Y0311418D01*
X0317796Y0311335D01*
X0317657Y0311255D01*
X0317515Y0311179D01*
X0317372Y0311106D01*
X0317227Y0311037D01*
X0317080Y0310971D01*
X0316932Y0310909D01*
X0316782Y0310851D01*
X0316631Y0310796D01*
X0316478Y0310745D01*
X0316324Y0310698D01*
X0316169Y0310655D01*
X0316013Y0310616D01*
X0315857Y0310580D01*
X0315699Y0310549D01*
X0315541Y0310521D01*
X0315382Y0310497D01*
X0315222Y0310477D01*
X0315062Y0310461D01*
X0314902Y0310449D01*
X0314741Y0310441D01*
X0314580Y0310437D01*
X0314420Y0310437D01*
X0314259Y0310441D01*
X0314098Y0310449D01*
X0313938Y0310461D01*
X0313778Y0310477D01*
X0313618Y0310497D01*
X0313459Y0310521D01*
X0313301Y0310549D01*
X0313143Y0310580D01*
X0312987Y0310616D01*
X0312831Y0310655D01*
X0312676Y0310698D01*
X0312522Y0310745D01*
X0312369Y0310796D01*
X0312218Y0310851D01*
X0312068Y0310909D01*
X0311920Y0310971D01*
X0311773Y0311037D01*
X0311628Y0311106D01*
X0311485Y0311179D01*
X0311343Y0311255D01*
X0311204Y0311335D01*
X0311066Y0311418D01*
X0310931Y0311505D01*
X0310797Y0311595D01*
X0310666Y0311688D01*
X0310538Y0311784D01*
X0310412Y0311884D01*
X0310288Y0311987D01*
X0310167Y0312092D01*
X0310048Y0312201D01*
X0309932Y0312312D01*
X0309819Y0312427D01*
X0309709Y0312544D01*
X0309602Y0312664D01*
X0309498Y0312786D01*
X0309397Y0312911D01*
X0309299Y0313039D01*
X0309204Y0313169D01*
X0309112Y0313301D01*
X0309024Y0313435D01*
X0308939Y0313572D01*
X0308857Y0313710D01*
X0308779Y0313851D01*
X0308705Y0313993D01*
X0308634Y0314137D01*
X0308566Y0314283D01*
X0308503Y0314431D01*
X0308442Y0314580D01*
X0308386Y0314731D01*
X0308333Y0314883D01*
X0308284Y0315036D01*
X0308239Y0315190D01*
X0308198Y0315345D01*
X0308160Y0315502D01*
X0308127Y0315659D01*
X0308097Y0315817D01*
X0308071Y0315976D01*
X0308050Y0316135D01*
X0308032Y0316295D01*
X0308018Y0316455D01*
X0308008Y0316616D01*
X0308002Y0316776D01*
X0308000Y0316937D01*
X0331300Y0316937D02*
X0331302Y0317098D01*
X0331308Y0317258D01*
X0331318Y0317419D01*
X0331332Y0317579D01*
X0331350Y0317739D01*
X0331371Y0317898D01*
X0331397Y0318057D01*
X0331427Y0318215D01*
X0331460Y0318372D01*
X0331498Y0318529D01*
X0331539Y0318684D01*
X0331584Y0318838D01*
X0331633Y0318991D01*
X0331686Y0319143D01*
X0331742Y0319294D01*
X0331803Y0319443D01*
X0331866Y0319591D01*
X0331934Y0319737D01*
X0332005Y0319881D01*
X0332079Y0320023D01*
X0332157Y0320164D01*
X0332239Y0320302D01*
X0332324Y0320439D01*
X0332412Y0320573D01*
X0332504Y0320705D01*
X0332599Y0320835D01*
X0332697Y0320963D01*
X0332798Y0321088D01*
X0332902Y0321210D01*
X0333009Y0321330D01*
X0333119Y0321447D01*
X0333232Y0321562D01*
X0333348Y0321673D01*
X0333467Y0321782D01*
X0333588Y0321887D01*
X0333712Y0321990D01*
X0333838Y0322090D01*
X0333966Y0322186D01*
X0334097Y0322279D01*
X0334231Y0322369D01*
X0334366Y0322456D01*
X0334504Y0322539D01*
X0334643Y0322619D01*
X0334785Y0322695D01*
X0334928Y0322768D01*
X0335073Y0322837D01*
X0335220Y0322903D01*
X0335368Y0322965D01*
X0335518Y0323023D01*
X0335669Y0323078D01*
X0335822Y0323129D01*
X0335976Y0323176D01*
X0336131Y0323219D01*
X0336287Y0323258D01*
X0336443Y0323294D01*
X0336601Y0323325D01*
X0336759Y0323353D01*
X0336918Y0323377D01*
X0337078Y0323397D01*
X0337238Y0323413D01*
X0337398Y0323425D01*
X0337559Y0323433D01*
X0337720Y0323437D01*
X0337880Y0323437D01*
X0338041Y0323433D01*
X0338202Y0323425D01*
X0338362Y0323413D01*
X0338522Y0323397D01*
X0338682Y0323377D01*
X0338841Y0323353D01*
X0338999Y0323325D01*
X0339157Y0323294D01*
X0339313Y0323258D01*
X0339469Y0323219D01*
X0339624Y0323176D01*
X0339778Y0323129D01*
X0339931Y0323078D01*
X0340082Y0323023D01*
X0340232Y0322965D01*
X0340380Y0322903D01*
X0340527Y0322837D01*
X0340672Y0322768D01*
X0340815Y0322695D01*
X0340957Y0322619D01*
X0341096Y0322539D01*
X0341234Y0322456D01*
X0341369Y0322369D01*
X0341503Y0322279D01*
X0341634Y0322186D01*
X0341762Y0322090D01*
X0341888Y0321990D01*
X0342012Y0321887D01*
X0342133Y0321782D01*
X0342252Y0321673D01*
X0342368Y0321562D01*
X0342481Y0321447D01*
X0342591Y0321330D01*
X0342698Y0321210D01*
X0342802Y0321088D01*
X0342903Y0320963D01*
X0343001Y0320835D01*
X0343096Y0320705D01*
X0343188Y0320573D01*
X0343276Y0320439D01*
X0343361Y0320302D01*
X0343443Y0320164D01*
X0343521Y0320023D01*
X0343595Y0319881D01*
X0343666Y0319737D01*
X0343734Y0319591D01*
X0343797Y0319443D01*
X0343858Y0319294D01*
X0343914Y0319143D01*
X0343967Y0318991D01*
X0344016Y0318838D01*
X0344061Y0318684D01*
X0344102Y0318529D01*
X0344140Y0318372D01*
X0344173Y0318215D01*
X0344203Y0318057D01*
X0344229Y0317898D01*
X0344250Y0317739D01*
X0344268Y0317579D01*
X0344282Y0317419D01*
X0344292Y0317258D01*
X0344298Y0317098D01*
X0344300Y0316937D01*
X0344298Y0316776D01*
X0344292Y0316616D01*
X0344282Y0316455D01*
X0344268Y0316295D01*
X0344250Y0316135D01*
X0344229Y0315976D01*
X0344203Y0315817D01*
X0344173Y0315659D01*
X0344140Y0315502D01*
X0344102Y0315345D01*
X0344061Y0315190D01*
X0344016Y0315036D01*
X0343967Y0314883D01*
X0343914Y0314731D01*
X0343858Y0314580D01*
X0343797Y0314431D01*
X0343734Y0314283D01*
X0343666Y0314137D01*
X0343595Y0313993D01*
X0343521Y0313851D01*
X0343443Y0313710D01*
X0343361Y0313572D01*
X0343276Y0313435D01*
X0343188Y0313301D01*
X0343096Y0313169D01*
X0343001Y0313039D01*
X0342903Y0312911D01*
X0342802Y0312786D01*
X0342698Y0312664D01*
X0342591Y0312544D01*
X0342481Y0312427D01*
X0342368Y0312312D01*
X0342252Y0312201D01*
X0342133Y0312092D01*
X0342012Y0311987D01*
X0341888Y0311884D01*
X0341762Y0311784D01*
X0341634Y0311688D01*
X0341503Y0311595D01*
X0341369Y0311505D01*
X0341234Y0311418D01*
X0341096Y0311335D01*
X0340957Y0311255D01*
X0340815Y0311179D01*
X0340672Y0311106D01*
X0340527Y0311037D01*
X0340380Y0310971D01*
X0340232Y0310909D01*
X0340082Y0310851D01*
X0339931Y0310796D01*
X0339778Y0310745D01*
X0339624Y0310698D01*
X0339469Y0310655D01*
X0339313Y0310616D01*
X0339157Y0310580D01*
X0338999Y0310549D01*
X0338841Y0310521D01*
X0338682Y0310497D01*
X0338522Y0310477D01*
X0338362Y0310461D01*
X0338202Y0310449D01*
X0338041Y0310441D01*
X0337880Y0310437D01*
X0337720Y0310437D01*
X0337559Y0310441D01*
X0337398Y0310449D01*
X0337238Y0310461D01*
X0337078Y0310477D01*
X0336918Y0310497D01*
X0336759Y0310521D01*
X0336601Y0310549D01*
X0336443Y0310580D01*
X0336287Y0310616D01*
X0336131Y0310655D01*
X0335976Y0310698D01*
X0335822Y0310745D01*
X0335669Y0310796D01*
X0335518Y0310851D01*
X0335368Y0310909D01*
X0335220Y0310971D01*
X0335073Y0311037D01*
X0334928Y0311106D01*
X0334785Y0311179D01*
X0334643Y0311255D01*
X0334504Y0311335D01*
X0334366Y0311418D01*
X0334231Y0311505D01*
X0334097Y0311595D01*
X0333966Y0311688D01*
X0333838Y0311784D01*
X0333712Y0311884D01*
X0333588Y0311987D01*
X0333467Y0312092D01*
X0333348Y0312201D01*
X0333232Y0312312D01*
X0333119Y0312427D01*
X0333009Y0312544D01*
X0332902Y0312664D01*
X0332798Y0312786D01*
X0332697Y0312911D01*
X0332599Y0313039D01*
X0332504Y0313169D01*
X0332412Y0313301D01*
X0332324Y0313435D01*
X0332239Y0313572D01*
X0332157Y0313710D01*
X0332079Y0313851D01*
X0332005Y0313993D01*
X0331934Y0314137D01*
X0331866Y0314283D01*
X0331803Y0314431D01*
X0331742Y0314580D01*
X0331686Y0314731D01*
X0331633Y0314883D01*
X0331584Y0315036D01*
X0331539Y0315190D01*
X0331498Y0315345D01*
X0331460Y0315502D01*
X0331427Y0315659D01*
X0331397Y0315817D01*
X0331371Y0315976D01*
X0331350Y0316135D01*
X0331332Y0316295D01*
X0331318Y0316455D01*
X0331308Y0316616D01*
X0331302Y0316776D01*
X0331300Y0316937D01*
X0346205Y0358151D02*
X0346207Y0358230D01*
X0346213Y0358309D01*
X0346223Y0358388D01*
X0346237Y0358466D01*
X0346254Y0358543D01*
X0346276Y0358619D01*
X0346301Y0358694D01*
X0346331Y0358767D01*
X0346363Y0358839D01*
X0346400Y0358910D01*
X0346440Y0358978D01*
X0346483Y0359044D01*
X0346529Y0359108D01*
X0346579Y0359170D01*
X0346632Y0359229D01*
X0346687Y0359285D01*
X0346746Y0359339D01*
X0346807Y0359389D01*
X0346870Y0359437D01*
X0346936Y0359481D01*
X0347004Y0359522D01*
X0347074Y0359559D01*
X0347145Y0359593D01*
X0347219Y0359623D01*
X0347293Y0359649D01*
X0347369Y0359671D01*
X0347446Y0359690D01*
X0347524Y0359705D01*
X0347602Y0359716D01*
X0347681Y0359723D01*
X0347760Y0359726D01*
X0347839Y0359725D01*
X0347918Y0359720D01*
X0347997Y0359711D01*
X0348075Y0359698D01*
X0348152Y0359681D01*
X0348229Y0359661D01*
X0348304Y0359636D01*
X0348378Y0359608D01*
X0348451Y0359576D01*
X0348521Y0359541D01*
X0348590Y0359502D01*
X0348657Y0359459D01*
X0348722Y0359413D01*
X0348784Y0359365D01*
X0348844Y0359313D01*
X0348901Y0359258D01*
X0348955Y0359200D01*
X0349006Y0359140D01*
X0349054Y0359077D01*
X0349099Y0359012D01*
X0349141Y0358944D01*
X0349179Y0358875D01*
X0349213Y0358804D01*
X0349244Y0358731D01*
X0349272Y0358656D01*
X0349295Y0358581D01*
X0349315Y0358504D01*
X0349331Y0358427D01*
X0349343Y0358348D01*
X0349351Y0358270D01*
X0349355Y0358191D01*
X0349355Y0358111D01*
X0349351Y0358032D01*
X0349343Y0357954D01*
X0349331Y0357875D01*
X0349315Y0357798D01*
X0349295Y0357721D01*
X0349272Y0357646D01*
X0349244Y0357571D01*
X0349213Y0357498D01*
X0349179Y0357427D01*
X0349141Y0357358D01*
X0349099Y0357290D01*
X0349054Y0357225D01*
X0349006Y0357162D01*
X0348955Y0357102D01*
X0348901Y0357044D01*
X0348844Y0356989D01*
X0348784Y0356937D01*
X0348722Y0356889D01*
X0348657Y0356843D01*
X0348590Y0356800D01*
X0348521Y0356761D01*
X0348451Y0356726D01*
X0348378Y0356694D01*
X0348304Y0356666D01*
X0348229Y0356641D01*
X0348152Y0356621D01*
X0348075Y0356604D01*
X0347997Y0356591D01*
X0347918Y0356582D01*
X0347839Y0356577D01*
X0347760Y0356576D01*
X0347681Y0356579D01*
X0347602Y0356586D01*
X0347524Y0356597D01*
X0347446Y0356612D01*
X0347369Y0356631D01*
X0347293Y0356653D01*
X0347219Y0356679D01*
X0347145Y0356709D01*
X0347074Y0356743D01*
X0347004Y0356780D01*
X0346936Y0356821D01*
X0346870Y0356865D01*
X0346807Y0356913D01*
X0346746Y0356963D01*
X0346687Y0357017D01*
X0346632Y0357073D01*
X0346579Y0357132D01*
X0346529Y0357194D01*
X0346483Y0357258D01*
X0346440Y0357324D01*
X0346400Y0357392D01*
X0346363Y0357463D01*
X0346331Y0357535D01*
X0346301Y0357608D01*
X0346276Y0357683D01*
X0346254Y0357759D01*
X0346237Y0357836D01*
X0346223Y0357914D01*
X0346213Y0357993D01*
X0346207Y0358072D01*
X0346205Y0358151D01*
X0412150Y0358151D02*
X0412152Y0358230D01*
X0412158Y0358309D01*
X0412168Y0358388D01*
X0412182Y0358466D01*
X0412199Y0358543D01*
X0412221Y0358619D01*
X0412246Y0358694D01*
X0412276Y0358767D01*
X0412308Y0358839D01*
X0412345Y0358910D01*
X0412385Y0358978D01*
X0412428Y0359044D01*
X0412474Y0359108D01*
X0412524Y0359170D01*
X0412577Y0359229D01*
X0412632Y0359285D01*
X0412691Y0359339D01*
X0412752Y0359389D01*
X0412815Y0359437D01*
X0412881Y0359481D01*
X0412949Y0359522D01*
X0413019Y0359559D01*
X0413090Y0359593D01*
X0413164Y0359623D01*
X0413238Y0359649D01*
X0413314Y0359671D01*
X0413391Y0359690D01*
X0413469Y0359705D01*
X0413547Y0359716D01*
X0413626Y0359723D01*
X0413705Y0359726D01*
X0413784Y0359725D01*
X0413863Y0359720D01*
X0413942Y0359711D01*
X0414020Y0359698D01*
X0414097Y0359681D01*
X0414174Y0359661D01*
X0414249Y0359636D01*
X0414323Y0359608D01*
X0414396Y0359576D01*
X0414466Y0359541D01*
X0414535Y0359502D01*
X0414602Y0359459D01*
X0414667Y0359413D01*
X0414729Y0359365D01*
X0414789Y0359313D01*
X0414846Y0359258D01*
X0414900Y0359200D01*
X0414951Y0359140D01*
X0414999Y0359077D01*
X0415044Y0359012D01*
X0415086Y0358944D01*
X0415124Y0358875D01*
X0415158Y0358804D01*
X0415189Y0358731D01*
X0415217Y0358656D01*
X0415240Y0358581D01*
X0415260Y0358504D01*
X0415276Y0358427D01*
X0415288Y0358348D01*
X0415296Y0358270D01*
X0415300Y0358191D01*
X0415300Y0358111D01*
X0415296Y0358032D01*
X0415288Y0357954D01*
X0415276Y0357875D01*
X0415260Y0357798D01*
X0415240Y0357721D01*
X0415217Y0357646D01*
X0415189Y0357571D01*
X0415158Y0357498D01*
X0415124Y0357427D01*
X0415086Y0357358D01*
X0415044Y0357290D01*
X0414999Y0357225D01*
X0414951Y0357162D01*
X0414900Y0357102D01*
X0414846Y0357044D01*
X0414789Y0356989D01*
X0414729Y0356937D01*
X0414667Y0356889D01*
X0414602Y0356843D01*
X0414535Y0356800D01*
X0414466Y0356761D01*
X0414396Y0356726D01*
X0414323Y0356694D01*
X0414249Y0356666D01*
X0414174Y0356641D01*
X0414097Y0356621D01*
X0414020Y0356604D01*
X0413942Y0356591D01*
X0413863Y0356582D01*
X0413784Y0356577D01*
X0413705Y0356576D01*
X0413626Y0356579D01*
X0413547Y0356586D01*
X0413469Y0356597D01*
X0413391Y0356612D01*
X0413314Y0356631D01*
X0413238Y0356653D01*
X0413164Y0356679D01*
X0413090Y0356709D01*
X0413019Y0356743D01*
X0412949Y0356780D01*
X0412881Y0356821D01*
X0412815Y0356865D01*
X0412752Y0356913D01*
X0412691Y0356963D01*
X0412632Y0357017D01*
X0412577Y0357073D01*
X0412524Y0357132D01*
X0412474Y0357194D01*
X0412428Y0357258D01*
X0412385Y0357324D01*
X0412345Y0357392D01*
X0412308Y0357463D01*
X0412276Y0357535D01*
X0412246Y0357608D01*
X0412221Y0357683D01*
X0412199Y0357759D01*
X0412182Y0357836D01*
X0412168Y0357914D01*
X0412158Y0357993D01*
X0412152Y0358072D01*
X0412150Y0358151D01*
X0416300Y0316937D02*
X0416302Y0317098D01*
X0416308Y0317258D01*
X0416318Y0317419D01*
X0416332Y0317579D01*
X0416350Y0317739D01*
X0416371Y0317898D01*
X0416397Y0318057D01*
X0416427Y0318215D01*
X0416460Y0318372D01*
X0416498Y0318529D01*
X0416539Y0318684D01*
X0416584Y0318838D01*
X0416633Y0318991D01*
X0416686Y0319143D01*
X0416742Y0319294D01*
X0416803Y0319443D01*
X0416866Y0319591D01*
X0416934Y0319737D01*
X0417005Y0319881D01*
X0417079Y0320023D01*
X0417157Y0320164D01*
X0417239Y0320302D01*
X0417324Y0320439D01*
X0417412Y0320573D01*
X0417504Y0320705D01*
X0417599Y0320835D01*
X0417697Y0320963D01*
X0417798Y0321088D01*
X0417902Y0321210D01*
X0418009Y0321330D01*
X0418119Y0321447D01*
X0418232Y0321562D01*
X0418348Y0321673D01*
X0418467Y0321782D01*
X0418588Y0321887D01*
X0418712Y0321990D01*
X0418838Y0322090D01*
X0418966Y0322186D01*
X0419097Y0322279D01*
X0419231Y0322369D01*
X0419366Y0322456D01*
X0419504Y0322539D01*
X0419643Y0322619D01*
X0419785Y0322695D01*
X0419928Y0322768D01*
X0420073Y0322837D01*
X0420220Y0322903D01*
X0420368Y0322965D01*
X0420518Y0323023D01*
X0420669Y0323078D01*
X0420822Y0323129D01*
X0420976Y0323176D01*
X0421131Y0323219D01*
X0421287Y0323258D01*
X0421443Y0323294D01*
X0421601Y0323325D01*
X0421759Y0323353D01*
X0421918Y0323377D01*
X0422078Y0323397D01*
X0422238Y0323413D01*
X0422398Y0323425D01*
X0422559Y0323433D01*
X0422720Y0323437D01*
X0422880Y0323437D01*
X0423041Y0323433D01*
X0423202Y0323425D01*
X0423362Y0323413D01*
X0423522Y0323397D01*
X0423682Y0323377D01*
X0423841Y0323353D01*
X0423999Y0323325D01*
X0424157Y0323294D01*
X0424313Y0323258D01*
X0424469Y0323219D01*
X0424624Y0323176D01*
X0424778Y0323129D01*
X0424931Y0323078D01*
X0425082Y0323023D01*
X0425232Y0322965D01*
X0425380Y0322903D01*
X0425527Y0322837D01*
X0425672Y0322768D01*
X0425815Y0322695D01*
X0425957Y0322619D01*
X0426096Y0322539D01*
X0426234Y0322456D01*
X0426369Y0322369D01*
X0426503Y0322279D01*
X0426634Y0322186D01*
X0426762Y0322090D01*
X0426888Y0321990D01*
X0427012Y0321887D01*
X0427133Y0321782D01*
X0427252Y0321673D01*
X0427368Y0321562D01*
X0427481Y0321447D01*
X0427591Y0321330D01*
X0427698Y0321210D01*
X0427802Y0321088D01*
X0427903Y0320963D01*
X0428001Y0320835D01*
X0428096Y0320705D01*
X0428188Y0320573D01*
X0428276Y0320439D01*
X0428361Y0320302D01*
X0428443Y0320164D01*
X0428521Y0320023D01*
X0428595Y0319881D01*
X0428666Y0319737D01*
X0428734Y0319591D01*
X0428797Y0319443D01*
X0428858Y0319294D01*
X0428914Y0319143D01*
X0428967Y0318991D01*
X0429016Y0318838D01*
X0429061Y0318684D01*
X0429102Y0318529D01*
X0429140Y0318372D01*
X0429173Y0318215D01*
X0429203Y0318057D01*
X0429229Y0317898D01*
X0429250Y0317739D01*
X0429268Y0317579D01*
X0429282Y0317419D01*
X0429292Y0317258D01*
X0429298Y0317098D01*
X0429300Y0316937D01*
X0429298Y0316776D01*
X0429292Y0316616D01*
X0429282Y0316455D01*
X0429268Y0316295D01*
X0429250Y0316135D01*
X0429229Y0315976D01*
X0429203Y0315817D01*
X0429173Y0315659D01*
X0429140Y0315502D01*
X0429102Y0315345D01*
X0429061Y0315190D01*
X0429016Y0315036D01*
X0428967Y0314883D01*
X0428914Y0314731D01*
X0428858Y0314580D01*
X0428797Y0314431D01*
X0428734Y0314283D01*
X0428666Y0314137D01*
X0428595Y0313993D01*
X0428521Y0313851D01*
X0428443Y0313710D01*
X0428361Y0313572D01*
X0428276Y0313435D01*
X0428188Y0313301D01*
X0428096Y0313169D01*
X0428001Y0313039D01*
X0427903Y0312911D01*
X0427802Y0312786D01*
X0427698Y0312664D01*
X0427591Y0312544D01*
X0427481Y0312427D01*
X0427368Y0312312D01*
X0427252Y0312201D01*
X0427133Y0312092D01*
X0427012Y0311987D01*
X0426888Y0311884D01*
X0426762Y0311784D01*
X0426634Y0311688D01*
X0426503Y0311595D01*
X0426369Y0311505D01*
X0426234Y0311418D01*
X0426096Y0311335D01*
X0425957Y0311255D01*
X0425815Y0311179D01*
X0425672Y0311106D01*
X0425527Y0311037D01*
X0425380Y0310971D01*
X0425232Y0310909D01*
X0425082Y0310851D01*
X0424931Y0310796D01*
X0424778Y0310745D01*
X0424624Y0310698D01*
X0424469Y0310655D01*
X0424313Y0310616D01*
X0424157Y0310580D01*
X0423999Y0310549D01*
X0423841Y0310521D01*
X0423682Y0310497D01*
X0423522Y0310477D01*
X0423362Y0310461D01*
X0423202Y0310449D01*
X0423041Y0310441D01*
X0422880Y0310437D01*
X0422720Y0310437D01*
X0422559Y0310441D01*
X0422398Y0310449D01*
X0422238Y0310461D01*
X0422078Y0310477D01*
X0421918Y0310497D01*
X0421759Y0310521D01*
X0421601Y0310549D01*
X0421443Y0310580D01*
X0421287Y0310616D01*
X0421131Y0310655D01*
X0420976Y0310698D01*
X0420822Y0310745D01*
X0420669Y0310796D01*
X0420518Y0310851D01*
X0420368Y0310909D01*
X0420220Y0310971D01*
X0420073Y0311037D01*
X0419928Y0311106D01*
X0419785Y0311179D01*
X0419643Y0311255D01*
X0419504Y0311335D01*
X0419366Y0311418D01*
X0419231Y0311505D01*
X0419097Y0311595D01*
X0418966Y0311688D01*
X0418838Y0311784D01*
X0418712Y0311884D01*
X0418588Y0311987D01*
X0418467Y0312092D01*
X0418348Y0312201D01*
X0418232Y0312312D01*
X0418119Y0312427D01*
X0418009Y0312544D01*
X0417902Y0312664D01*
X0417798Y0312786D01*
X0417697Y0312911D01*
X0417599Y0313039D01*
X0417504Y0313169D01*
X0417412Y0313301D01*
X0417324Y0313435D01*
X0417239Y0313572D01*
X0417157Y0313710D01*
X0417079Y0313851D01*
X0417005Y0313993D01*
X0416934Y0314137D01*
X0416866Y0314283D01*
X0416803Y0314431D01*
X0416742Y0314580D01*
X0416686Y0314731D01*
X0416633Y0314883D01*
X0416584Y0315036D01*
X0416539Y0315190D01*
X0416498Y0315345D01*
X0416460Y0315502D01*
X0416427Y0315659D01*
X0416397Y0315817D01*
X0416371Y0315976D01*
X0416350Y0316135D01*
X0416332Y0316295D01*
X0416318Y0316455D01*
X0416308Y0316616D01*
X0416302Y0316776D01*
X0416300Y0316937D01*
X0412150Y0226551D02*
X0412152Y0226630D01*
X0412158Y0226709D01*
X0412168Y0226788D01*
X0412182Y0226866D01*
X0412199Y0226943D01*
X0412221Y0227019D01*
X0412246Y0227094D01*
X0412276Y0227167D01*
X0412308Y0227239D01*
X0412345Y0227310D01*
X0412385Y0227378D01*
X0412428Y0227444D01*
X0412474Y0227508D01*
X0412524Y0227570D01*
X0412577Y0227629D01*
X0412632Y0227685D01*
X0412691Y0227739D01*
X0412752Y0227789D01*
X0412815Y0227837D01*
X0412881Y0227881D01*
X0412949Y0227922D01*
X0413019Y0227959D01*
X0413090Y0227993D01*
X0413164Y0228023D01*
X0413238Y0228049D01*
X0413314Y0228071D01*
X0413391Y0228090D01*
X0413469Y0228105D01*
X0413547Y0228116D01*
X0413626Y0228123D01*
X0413705Y0228126D01*
X0413784Y0228125D01*
X0413863Y0228120D01*
X0413942Y0228111D01*
X0414020Y0228098D01*
X0414097Y0228081D01*
X0414174Y0228061D01*
X0414249Y0228036D01*
X0414323Y0228008D01*
X0414396Y0227976D01*
X0414466Y0227941D01*
X0414535Y0227902D01*
X0414602Y0227859D01*
X0414667Y0227813D01*
X0414729Y0227765D01*
X0414789Y0227713D01*
X0414846Y0227658D01*
X0414900Y0227600D01*
X0414951Y0227540D01*
X0414999Y0227477D01*
X0415044Y0227412D01*
X0415086Y0227344D01*
X0415124Y0227275D01*
X0415158Y0227204D01*
X0415189Y0227131D01*
X0415217Y0227056D01*
X0415240Y0226981D01*
X0415260Y0226904D01*
X0415276Y0226827D01*
X0415288Y0226748D01*
X0415296Y0226670D01*
X0415300Y0226591D01*
X0415300Y0226511D01*
X0415296Y0226432D01*
X0415288Y0226354D01*
X0415276Y0226275D01*
X0415260Y0226198D01*
X0415240Y0226121D01*
X0415217Y0226046D01*
X0415189Y0225971D01*
X0415158Y0225898D01*
X0415124Y0225827D01*
X0415086Y0225758D01*
X0415044Y0225690D01*
X0414999Y0225625D01*
X0414951Y0225562D01*
X0414900Y0225502D01*
X0414846Y0225444D01*
X0414789Y0225389D01*
X0414729Y0225337D01*
X0414667Y0225289D01*
X0414602Y0225243D01*
X0414535Y0225200D01*
X0414466Y0225161D01*
X0414396Y0225126D01*
X0414323Y0225094D01*
X0414249Y0225066D01*
X0414174Y0225041D01*
X0414097Y0225021D01*
X0414020Y0225004D01*
X0413942Y0224991D01*
X0413863Y0224982D01*
X0413784Y0224977D01*
X0413705Y0224976D01*
X0413626Y0224979D01*
X0413547Y0224986D01*
X0413469Y0224997D01*
X0413391Y0225012D01*
X0413314Y0225031D01*
X0413238Y0225053D01*
X0413164Y0225079D01*
X0413090Y0225109D01*
X0413019Y0225143D01*
X0412949Y0225180D01*
X0412881Y0225221D01*
X0412815Y0225265D01*
X0412752Y0225313D01*
X0412691Y0225363D01*
X0412632Y0225417D01*
X0412577Y0225473D01*
X0412524Y0225532D01*
X0412474Y0225594D01*
X0412428Y0225658D01*
X0412385Y0225724D01*
X0412345Y0225792D01*
X0412308Y0225863D01*
X0412276Y0225935D01*
X0412246Y0226008D01*
X0412221Y0226083D01*
X0412199Y0226159D01*
X0412182Y0226236D01*
X0412168Y0226314D01*
X0412158Y0226393D01*
X0412152Y0226472D01*
X0412150Y0226551D01*
X0416300Y0185337D02*
X0416302Y0185498D01*
X0416308Y0185658D01*
X0416318Y0185819D01*
X0416332Y0185979D01*
X0416350Y0186139D01*
X0416371Y0186298D01*
X0416397Y0186457D01*
X0416427Y0186615D01*
X0416460Y0186772D01*
X0416498Y0186929D01*
X0416539Y0187084D01*
X0416584Y0187238D01*
X0416633Y0187391D01*
X0416686Y0187543D01*
X0416742Y0187694D01*
X0416803Y0187843D01*
X0416866Y0187991D01*
X0416934Y0188137D01*
X0417005Y0188281D01*
X0417079Y0188423D01*
X0417157Y0188564D01*
X0417239Y0188702D01*
X0417324Y0188839D01*
X0417412Y0188973D01*
X0417504Y0189105D01*
X0417599Y0189235D01*
X0417697Y0189363D01*
X0417798Y0189488D01*
X0417902Y0189610D01*
X0418009Y0189730D01*
X0418119Y0189847D01*
X0418232Y0189962D01*
X0418348Y0190073D01*
X0418467Y0190182D01*
X0418588Y0190287D01*
X0418712Y0190390D01*
X0418838Y0190490D01*
X0418966Y0190586D01*
X0419097Y0190679D01*
X0419231Y0190769D01*
X0419366Y0190856D01*
X0419504Y0190939D01*
X0419643Y0191019D01*
X0419785Y0191095D01*
X0419928Y0191168D01*
X0420073Y0191237D01*
X0420220Y0191303D01*
X0420368Y0191365D01*
X0420518Y0191423D01*
X0420669Y0191478D01*
X0420822Y0191529D01*
X0420976Y0191576D01*
X0421131Y0191619D01*
X0421287Y0191658D01*
X0421443Y0191694D01*
X0421601Y0191725D01*
X0421759Y0191753D01*
X0421918Y0191777D01*
X0422078Y0191797D01*
X0422238Y0191813D01*
X0422398Y0191825D01*
X0422559Y0191833D01*
X0422720Y0191837D01*
X0422880Y0191837D01*
X0423041Y0191833D01*
X0423202Y0191825D01*
X0423362Y0191813D01*
X0423522Y0191797D01*
X0423682Y0191777D01*
X0423841Y0191753D01*
X0423999Y0191725D01*
X0424157Y0191694D01*
X0424313Y0191658D01*
X0424469Y0191619D01*
X0424624Y0191576D01*
X0424778Y0191529D01*
X0424931Y0191478D01*
X0425082Y0191423D01*
X0425232Y0191365D01*
X0425380Y0191303D01*
X0425527Y0191237D01*
X0425672Y0191168D01*
X0425815Y0191095D01*
X0425957Y0191019D01*
X0426096Y0190939D01*
X0426234Y0190856D01*
X0426369Y0190769D01*
X0426503Y0190679D01*
X0426634Y0190586D01*
X0426762Y0190490D01*
X0426888Y0190390D01*
X0427012Y0190287D01*
X0427133Y0190182D01*
X0427252Y0190073D01*
X0427368Y0189962D01*
X0427481Y0189847D01*
X0427591Y0189730D01*
X0427698Y0189610D01*
X0427802Y0189488D01*
X0427903Y0189363D01*
X0428001Y0189235D01*
X0428096Y0189105D01*
X0428188Y0188973D01*
X0428276Y0188839D01*
X0428361Y0188702D01*
X0428443Y0188564D01*
X0428521Y0188423D01*
X0428595Y0188281D01*
X0428666Y0188137D01*
X0428734Y0187991D01*
X0428797Y0187843D01*
X0428858Y0187694D01*
X0428914Y0187543D01*
X0428967Y0187391D01*
X0429016Y0187238D01*
X0429061Y0187084D01*
X0429102Y0186929D01*
X0429140Y0186772D01*
X0429173Y0186615D01*
X0429203Y0186457D01*
X0429229Y0186298D01*
X0429250Y0186139D01*
X0429268Y0185979D01*
X0429282Y0185819D01*
X0429292Y0185658D01*
X0429298Y0185498D01*
X0429300Y0185337D01*
X0429298Y0185176D01*
X0429292Y0185016D01*
X0429282Y0184855D01*
X0429268Y0184695D01*
X0429250Y0184535D01*
X0429229Y0184376D01*
X0429203Y0184217D01*
X0429173Y0184059D01*
X0429140Y0183902D01*
X0429102Y0183745D01*
X0429061Y0183590D01*
X0429016Y0183436D01*
X0428967Y0183283D01*
X0428914Y0183131D01*
X0428858Y0182980D01*
X0428797Y0182831D01*
X0428734Y0182683D01*
X0428666Y0182537D01*
X0428595Y0182393D01*
X0428521Y0182251D01*
X0428443Y0182110D01*
X0428361Y0181972D01*
X0428276Y0181835D01*
X0428188Y0181701D01*
X0428096Y0181569D01*
X0428001Y0181439D01*
X0427903Y0181311D01*
X0427802Y0181186D01*
X0427698Y0181064D01*
X0427591Y0180944D01*
X0427481Y0180827D01*
X0427368Y0180712D01*
X0427252Y0180601D01*
X0427133Y0180492D01*
X0427012Y0180387D01*
X0426888Y0180284D01*
X0426762Y0180184D01*
X0426634Y0180088D01*
X0426503Y0179995D01*
X0426369Y0179905D01*
X0426234Y0179818D01*
X0426096Y0179735D01*
X0425957Y0179655D01*
X0425815Y0179579D01*
X0425672Y0179506D01*
X0425527Y0179437D01*
X0425380Y0179371D01*
X0425232Y0179309D01*
X0425082Y0179251D01*
X0424931Y0179196D01*
X0424778Y0179145D01*
X0424624Y0179098D01*
X0424469Y0179055D01*
X0424313Y0179016D01*
X0424157Y0178980D01*
X0423999Y0178949D01*
X0423841Y0178921D01*
X0423682Y0178897D01*
X0423522Y0178877D01*
X0423362Y0178861D01*
X0423202Y0178849D01*
X0423041Y0178841D01*
X0422880Y0178837D01*
X0422720Y0178837D01*
X0422559Y0178841D01*
X0422398Y0178849D01*
X0422238Y0178861D01*
X0422078Y0178877D01*
X0421918Y0178897D01*
X0421759Y0178921D01*
X0421601Y0178949D01*
X0421443Y0178980D01*
X0421287Y0179016D01*
X0421131Y0179055D01*
X0420976Y0179098D01*
X0420822Y0179145D01*
X0420669Y0179196D01*
X0420518Y0179251D01*
X0420368Y0179309D01*
X0420220Y0179371D01*
X0420073Y0179437D01*
X0419928Y0179506D01*
X0419785Y0179579D01*
X0419643Y0179655D01*
X0419504Y0179735D01*
X0419366Y0179818D01*
X0419231Y0179905D01*
X0419097Y0179995D01*
X0418966Y0180088D01*
X0418838Y0180184D01*
X0418712Y0180284D01*
X0418588Y0180387D01*
X0418467Y0180492D01*
X0418348Y0180601D01*
X0418232Y0180712D01*
X0418119Y0180827D01*
X0418009Y0180944D01*
X0417902Y0181064D01*
X0417798Y0181186D01*
X0417697Y0181311D01*
X0417599Y0181439D01*
X0417504Y0181569D01*
X0417412Y0181701D01*
X0417324Y0181835D01*
X0417239Y0181972D01*
X0417157Y0182110D01*
X0417079Y0182251D01*
X0417005Y0182393D01*
X0416934Y0182537D01*
X0416866Y0182683D01*
X0416803Y0182831D01*
X0416742Y0182980D01*
X0416686Y0183131D01*
X0416633Y0183283D01*
X0416584Y0183436D01*
X0416539Y0183590D01*
X0416498Y0183745D01*
X0416460Y0183902D01*
X0416427Y0184059D01*
X0416397Y0184217D01*
X0416371Y0184376D01*
X0416350Y0184535D01*
X0416332Y0184695D01*
X0416318Y0184855D01*
X0416308Y0185016D01*
X0416302Y0185176D01*
X0416300Y0185337D01*
X0412150Y0094951D02*
X0412152Y0095030D01*
X0412158Y0095109D01*
X0412168Y0095188D01*
X0412182Y0095266D01*
X0412199Y0095343D01*
X0412221Y0095419D01*
X0412246Y0095494D01*
X0412276Y0095567D01*
X0412308Y0095639D01*
X0412345Y0095710D01*
X0412385Y0095778D01*
X0412428Y0095844D01*
X0412474Y0095908D01*
X0412524Y0095970D01*
X0412577Y0096029D01*
X0412632Y0096085D01*
X0412691Y0096139D01*
X0412752Y0096189D01*
X0412815Y0096237D01*
X0412881Y0096281D01*
X0412949Y0096322D01*
X0413019Y0096359D01*
X0413090Y0096393D01*
X0413164Y0096423D01*
X0413238Y0096449D01*
X0413314Y0096471D01*
X0413391Y0096490D01*
X0413469Y0096505D01*
X0413547Y0096516D01*
X0413626Y0096523D01*
X0413705Y0096526D01*
X0413784Y0096525D01*
X0413863Y0096520D01*
X0413942Y0096511D01*
X0414020Y0096498D01*
X0414097Y0096481D01*
X0414174Y0096461D01*
X0414249Y0096436D01*
X0414323Y0096408D01*
X0414396Y0096376D01*
X0414466Y0096341D01*
X0414535Y0096302D01*
X0414602Y0096259D01*
X0414667Y0096213D01*
X0414729Y0096165D01*
X0414789Y0096113D01*
X0414846Y0096058D01*
X0414900Y0096000D01*
X0414951Y0095940D01*
X0414999Y0095877D01*
X0415044Y0095812D01*
X0415086Y0095744D01*
X0415124Y0095675D01*
X0415158Y0095604D01*
X0415189Y0095531D01*
X0415217Y0095456D01*
X0415240Y0095381D01*
X0415260Y0095304D01*
X0415276Y0095227D01*
X0415288Y0095148D01*
X0415296Y0095070D01*
X0415300Y0094991D01*
X0415300Y0094911D01*
X0415296Y0094832D01*
X0415288Y0094754D01*
X0415276Y0094675D01*
X0415260Y0094598D01*
X0415240Y0094521D01*
X0415217Y0094446D01*
X0415189Y0094371D01*
X0415158Y0094298D01*
X0415124Y0094227D01*
X0415086Y0094158D01*
X0415044Y0094090D01*
X0414999Y0094025D01*
X0414951Y0093962D01*
X0414900Y0093902D01*
X0414846Y0093844D01*
X0414789Y0093789D01*
X0414729Y0093737D01*
X0414667Y0093689D01*
X0414602Y0093643D01*
X0414535Y0093600D01*
X0414466Y0093561D01*
X0414396Y0093526D01*
X0414323Y0093494D01*
X0414249Y0093466D01*
X0414174Y0093441D01*
X0414097Y0093421D01*
X0414020Y0093404D01*
X0413942Y0093391D01*
X0413863Y0093382D01*
X0413784Y0093377D01*
X0413705Y0093376D01*
X0413626Y0093379D01*
X0413547Y0093386D01*
X0413469Y0093397D01*
X0413391Y0093412D01*
X0413314Y0093431D01*
X0413238Y0093453D01*
X0413164Y0093479D01*
X0413090Y0093509D01*
X0413019Y0093543D01*
X0412949Y0093580D01*
X0412881Y0093621D01*
X0412815Y0093665D01*
X0412752Y0093713D01*
X0412691Y0093763D01*
X0412632Y0093817D01*
X0412577Y0093873D01*
X0412524Y0093932D01*
X0412474Y0093994D01*
X0412428Y0094058D01*
X0412385Y0094124D01*
X0412345Y0094192D01*
X0412308Y0094263D01*
X0412276Y0094335D01*
X0412246Y0094408D01*
X0412221Y0094483D01*
X0412199Y0094559D01*
X0412182Y0094636D01*
X0412168Y0094714D01*
X0412158Y0094793D01*
X0412152Y0094872D01*
X0412150Y0094951D01*
X0346205Y0094951D02*
X0346207Y0095030D01*
X0346213Y0095109D01*
X0346223Y0095188D01*
X0346237Y0095266D01*
X0346254Y0095343D01*
X0346276Y0095419D01*
X0346301Y0095494D01*
X0346331Y0095567D01*
X0346363Y0095639D01*
X0346400Y0095710D01*
X0346440Y0095778D01*
X0346483Y0095844D01*
X0346529Y0095908D01*
X0346579Y0095970D01*
X0346632Y0096029D01*
X0346687Y0096085D01*
X0346746Y0096139D01*
X0346807Y0096189D01*
X0346870Y0096237D01*
X0346936Y0096281D01*
X0347004Y0096322D01*
X0347074Y0096359D01*
X0347145Y0096393D01*
X0347219Y0096423D01*
X0347293Y0096449D01*
X0347369Y0096471D01*
X0347446Y0096490D01*
X0347524Y0096505D01*
X0347602Y0096516D01*
X0347681Y0096523D01*
X0347760Y0096526D01*
X0347839Y0096525D01*
X0347918Y0096520D01*
X0347997Y0096511D01*
X0348075Y0096498D01*
X0348152Y0096481D01*
X0348229Y0096461D01*
X0348304Y0096436D01*
X0348378Y0096408D01*
X0348451Y0096376D01*
X0348521Y0096341D01*
X0348590Y0096302D01*
X0348657Y0096259D01*
X0348722Y0096213D01*
X0348784Y0096165D01*
X0348844Y0096113D01*
X0348901Y0096058D01*
X0348955Y0096000D01*
X0349006Y0095940D01*
X0349054Y0095877D01*
X0349099Y0095812D01*
X0349141Y0095744D01*
X0349179Y0095675D01*
X0349213Y0095604D01*
X0349244Y0095531D01*
X0349272Y0095456D01*
X0349295Y0095381D01*
X0349315Y0095304D01*
X0349331Y0095227D01*
X0349343Y0095148D01*
X0349351Y0095070D01*
X0349355Y0094991D01*
X0349355Y0094911D01*
X0349351Y0094832D01*
X0349343Y0094754D01*
X0349331Y0094675D01*
X0349315Y0094598D01*
X0349295Y0094521D01*
X0349272Y0094446D01*
X0349244Y0094371D01*
X0349213Y0094298D01*
X0349179Y0094227D01*
X0349141Y0094158D01*
X0349099Y0094090D01*
X0349054Y0094025D01*
X0349006Y0093962D01*
X0348955Y0093902D01*
X0348901Y0093844D01*
X0348844Y0093789D01*
X0348784Y0093737D01*
X0348722Y0093689D01*
X0348657Y0093643D01*
X0348590Y0093600D01*
X0348521Y0093561D01*
X0348451Y0093526D01*
X0348378Y0093494D01*
X0348304Y0093466D01*
X0348229Y0093441D01*
X0348152Y0093421D01*
X0348075Y0093404D01*
X0347997Y0093391D01*
X0347918Y0093382D01*
X0347839Y0093377D01*
X0347760Y0093376D01*
X0347681Y0093379D01*
X0347602Y0093386D01*
X0347524Y0093397D01*
X0347446Y0093412D01*
X0347369Y0093431D01*
X0347293Y0093453D01*
X0347219Y0093479D01*
X0347145Y0093509D01*
X0347074Y0093543D01*
X0347004Y0093580D01*
X0346936Y0093621D01*
X0346870Y0093665D01*
X0346807Y0093713D01*
X0346746Y0093763D01*
X0346687Y0093817D01*
X0346632Y0093873D01*
X0346579Y0093932D01*
X0346529Y0093994D01*
X0346483Y0094058D01*
X0346440Y0094124D01*
X0346400Y0094192D01*
X0346363Y0094263D01*
X0346331Y0094335D01*
X0346301Y0094408D01*
X0346276Y0094483D01*
X0346254Y0094559D01*
X0346237Y0094636D01*
X0346223Y0094714D01*
X0346213Y0094793D01*
X0346207Y0094872D01*
X0346205Y0094951D01*
X0303850Y0094951D02*
X0303852Y0095030D01*
X0303858Y0095109D01*
X0303868Y0095188D01*
X0303882Y0095266D01*
X0303899Y0095343D01*
X0303921Y0095419D01*
X0303946Y0095494D01*
X0303976Y0095567D01*
X0304008Y0095639D01*
X0304045Y0095710D01*
X0304085Y0095778D01*
X0304128Y0095844D01*
X0304174Y0095908D01*
X0304224Y0095970D01*
X0304277Y0096029D01*
X0304332Y0096085D01*
X0304391Y0096139D01*
X0304452Y0096189D01*
X0304515Y0096237D01*
X0304581Y0096281D01*
X0304649Y0096322D01*
X0304719Y0096359D01*
X0304790Y0096393D01*
X0304864Y0096423D01*
X0304938Y0096449D01*
X0305014Y0096471D01*
X0305091Y0096490D01*
X0305169Y0096505D01*
X0305247Y0096516D01*
X0305326Y0096523D01*
X0305405Y0096526D01*
X0305484Y0096525D01*
X0305563Y0096520D01*
X0305642Y0096511D01*
X0305720Y0096498D01*
X0305797Y0096481D01*
X0305874Y0096461D01*
X0305949Y0096436D01*
X0306023Y0096408D01*
X0306096Y0096376D01*
X0306166Y0096341D01*
X0306235Y0096302D01*
X0306302Y0096259D01*
X0306367Y0096213D01*
X0306429Y0096165D01*
X0306489Y0096113D01*
X0306546Y0096058D01*
X0306600Y0096000D01*
X0306651Y0095940D01*
X0306699Y0095877D01*
X0306744Y0095812D01*
X0306786Y0095744D01*
X0306824Y0095675D01*
X0306858Y0095604D01*
X0306889Y0095531D01*
X0306917Y0095456D01*
X0306940Y0095381D01*
X0306960Y0095304D01*
X0306976Y0095227D01*
X0306988Y0095148D01*
X0306996Y0095070D01*
X0307000Y0094991D01*
X0307000Y0094911D01*
X0306996Y0094832D01*
X0306988Y0094754D01*
X0306976Y0094675D01*
X0306960Y0094598D01*
X0306940Y0094521D01*
X0306917Y0094446D01*
X0306889Y0094371D01*
X0306858Y0094298D01*
X0306824Y0094227D01*
X0306786Y0094158D01*
X0306744Y0094090D01*
X0306699Y0094025D01*
X0306651Y0093962D01*
X0306600Y0093902D01*
X0306546Y0093844D01*
X0306489Y0093789D01*
X0306429Y0093737D01*
X0306367Y0093689D01*
X0306302Y0093643D01*
X0306235Y0093600D01*
X0306166Y0093561D01*
X0306096Y0093526D01*
X0306023Y0093494D01*
X0305949Y0093466D01*
X0305874Y0093441D01*
X0305797Y0093421D01*
X0305720Y0093404D01*
X0305642Y0093391D01*
X0305563Y0093382D01*
X0305484Y0093377D01*
X0305405Y0093376D01*
X0305326Y0093379D01*
X0305247Y0093386D01*
X0305169Y0093397D01*
X0305091Y0093412D01*
X0305014Y0093431D01*
X0304938Y0093453D01*
X0304864Y0093479D01*
X0304790Y0093509D01*
X0304719Y0093543D01*
X0304649Y0093580D01*
X0304581Y0093621D01*
X0304515Y0093665D01*
X0304452Y0093713D01*
X0304391Y0093763D01*
X0304332Y0093817D01*
X0304277Y0093873D01*
X0304224Y0093932D01*
X0304174Y0093994D01*
X0304128Y0094058D01*
X0304085Y0094124D01*
X0304045Y0094192D01*
X0304008Y0094263D01*
X0303976Y0094335D01*
X0303946Y0094408D01*
X0303921Y0094483D01*
X0303899Y0094559D01*
X0303882Y0094636D01*
X0303868Y0094714D01*
X0303858Y0094793D01*
X0303852Y0094872D01*
X0303850Y0094951D01*
X0021305Y0358151D02*
X0021307Y0358230D01*
X0021313Y0358309D01*
X0021323Y0358388D01*
X0021337Y0358466D01*
X0021354Y0358543D01*
X0021376Y0358619D01*
X0021401Y0358694D01*
X0021431Y0358767D01*
X0021463Y0358839D01*
X0021500Y0358910D01*
X0021540Y0358978D01*
X0021583Y0359044D01*
X0021629Y0359108D01*
X0021679Y0359170D01*
X0021732Y0359229D01*
X0021787Y0359285D01*
X0021846Y0359339D01*
X0021907Y0359389D01*
X0021970Y0359437D01*
X0022036Y0359481D01*
X0022104Y0359522D01*
X0022174Y0359559D01*
X0022245Y0359593D01*
X0022319Y0359623D01*
X0022393Y0359649D01*
X0022469Y0359671D01*
X0022546Y0359690D01*
X0022624Y0359705D01*
X0022702Y0359716D01*
X0022781Y0359723D01*
X0022860Y0359726D01*
X0022939Y0359725D01*
X0023018Y0359720D01*
X0023097Y0359711D01*
X0023175Y0359698D01*
X0023252Y0359681D01*
X0023329Y0359661D01*
X0023404Y0359636D01*
X0023478Y0359608D01*
X0023551Y0359576D01*
X0023621Y0359541D01*
X0023690Y0359502D01*
X0023757Y0359459D01*
X0023822Y0359413D01*
X0023884Y0359365D01*
X0023944Y0359313D01*
X0024001Y0359258D01*
X0024055Y0359200D01*
X0024106Y0359140D01*
X0024154Y0359077D01*
X0024199Y0359012D01*
X0024241Y0358944D01*
X0024279Y0358875D01*
X0024313Y0358804D01*
X0024344Y0358731D01*
X0024372Y0358656D01*
X0024395Y0358581D01*
X0024415Y0358504D01*
X0024431Y0358427D01*
X0024443Y0358348D01*
X0024451Y0358270D01*
X0024455Y0358191D01*
X0024455Y0358111D01*
X0024451Y0358032D01*
X0024443Y0357954D01*
X0024431Y0357875D01*
X0024415Y0357798D01*
X0024395Y0357721D01*
X0024372Y0357646D01*
X0024344Y0357571D01*
X0024313Y0357498D01*
X0024279Y0357427D01*
X0024241Y0357358D01*
X0024199Y0357290D01*
X0024154Y0357225D01*
X0024106Y0357162D01*
X0024055Y0357102D01*
X0024001Y0357044D01*
X0023944Y0356989D01*
X0023884Y0356937D01*
X0023822Y0356889D01*
X0023757Y0356843D01*
X0023690Y0356800D01*
X0023621Y0356761D01*
X0023551Y0356726D01*
X0023478Y0356694D01*
X0023404Y0356666D01*
X0023329Y0356641D01*
X0023252Y0356621D01*
X0023175Y0356604D01*
X0023097Y0356591D01*
X0023018Y0356582D01*
X0022939Y0356577D01*
X0022860Y0356576D01*
X0022781Y0356579D01*
X0022702Y0356586D01*
X0022624Y0356597D01*
X0022546Y0356612D01*
X0022469Y0356631D01*
X0022393Y0356653D01*
X0022319Y0356679D01*
X0022245Y0356709D01*
X0022174Y0356743D01*
X0022104Y0356780D01*
X0022036Y0356821D01*
X0021970Y0356865D01*
X0021907Y0356913D01*
X0021846Y0356963D01*
X0021787Y0357017D01*
X0021732Y0357073D01*
X0021679Y0357132D01*
X0021629Y0357194D01*
X0021583Y0357258D01*
X0021540Y0357324D01*
X0021500Y0357392D01*
X0021463Y0357463D01*
X0021431Y0357535D01*
X0021401Y0357608D01*
X0021376Y0357683D01*
X0021354Y0357759D01*
X0021337Y0357836D01*
X0021323Y0357914D01*
X0021313Y0357993D01*
X0021307Y0358072D01*
X0021305Y0358151D01*
X0006400Y0316937D02*
X0006402Y0317098D01*
X0006408Y0317258D01*
X0006418Y0317419D01*
X0006432Y0317579D01*
X0006450Y0317739D01*
X0006471Y0317898D01*
X0006497Y0318057D01*
X0006527Y0318215D01*
X0006560Y0318372D01*
X0006598Y0318529D01*
X0006639Y0318684D01*
X0006684Y0318838D01*
X0006733Y0318991D01*
X0006786Y0319143D01*
X0006842Y0319294D01*
X0006903Y0319443D01*
X0006966Y0319591D01*
X0007034Y0319737D01*
X0007105Y0319881D01*
X0007179Y0320023D01*
X0007257Y0320164D01*
X0007339Y0320302D01*
X0007424Y0320439D01*
X0007512Y0320573D01*
X0007604Y0320705D01*
X0007699Y0320835D01*
X0007797Y0320963D01*
X0007898Y0321088D01*
X0008002Y0321210D01*
X0008109Y0321330D01*
X0008219Y0321447D01*
X0008332Y0321562D01*
X0008448Y0321673D01*
X0008567Y0321782D01*
X0008688Y0321887D01*
X0008812Y0321990D01*
X0008938Y0322090D01*
X0009066Y0322186D01*
X0009197Y0322279D01*
X0009331Y0322369D01*
X0009466Y0322456D01*
X0009604Y0322539D01*
X0009743Y0322619D01*
X0009885Y0322695D01*
X0010028Y0322768D01*
X0010173Y0322837D01*
X0010320Y0322903D01*
X0010468Y0322965D01*
X0010618Y0323023D01*
X0010769Y0323078D01*
X0010922Y0323129D01*
X0011076Y0323176D01*
X0011231Y0323219D01*
X0011387Y0323258D01*
X0011543Y0323294D01*
X0011701Y0323325D01*
X0011859Y0323353D01*
X0012018Y0323377D01*
X0012178Y0323397D01*
X0012338Y0323413D01*
X0012498Y0323425D01*
X0012659Y0323433D01*
X0012820Y0323437D01*
X0012980Y0323437D01*
X0013141Y0323433D01*
X0013302Y0323425D01*
X0013462Y0323413D01*
X0013622Y0323397D01*
X0013782Y0323377D01*
X0013941Y0323353D01*
X0014099Y0323325D01*
X0014257Y0323294D01*
X0014413Y0323258D01*
X0014569Y0323219D01*
X0014724Y0323176D01*
X0014878Y0323129D01*
X0015031Y0323078D01*
X0015182Y0323023D01*
X0015332Y0322965D01*
X0015480Y0322903D01*
X0015627Y0322837D01*
X0015772Y0322768D01*
X0015915Y0322695D01*
X0016057Y0322619D01*
X0016196Y0322539D01*
X0016334Y0322456D01*
X0016469Y0322369D01*
X0016603Y0322279D01*
X0016734Y0322186D01*
X0016862Y0322090D01*
X0016988Y0321990D01*
X0017112Y0321887D01*
X0017233Y0321782D01*
X0017352Y0321673D01*
X0017468Y0321562D01*
X0017581Y0321447D01*
X0017691Y0321330D01*
X0017798Y0321210D01*
X0017902Y0321088D01*
X0018003Y0320963D01*
X0018101Y0320835D01*
X0018196Y0320705D01*
X0018288Y0320573D01*
X0018376Y0320439D01*
X0018461Y0320302D01*
X0018543Y0320164D01*
X0018621Y0320023D01*
X0018695Y0319881D01*
X0018766Y0319737D01*
X0018834Y0319591D01*
X0018897Y0319443D01*
X0018958Y0319294D01*
X0019014Y0319143D01*
X0019067Y0318991D01*
X0019116Y0318838D01*
X0019161Y0318684D01*
X0019202Y0318529D01*
X0019240Y0318372D01*
X0019273Y0318215D01*
X0019303Y0318057D01*
X0019329Y0317898D01*
X0019350Y0317739D01*
X0019368Y0317579D01*
X0019382Y0317419D01*
X0019392Y0317258D01*
X0019398Y0317098D01*
X0019400Y0316937D01*
X0019398Y0316776D01*
X0019392Y0316616D01*
X0019382Y0316455D01*
X0019368Y0316295D01*
X0019350Y0316135D01*
X0019329Y0315976D01*
X0019303Y0315817D01*
X0019273Y0315659D01*
X0019240Y0315502D01*
X0019202Y0315345D01*
X0019161Y0315190D01*
X0019116Y0315036D01*
X0019067Y0314883D01*
X0019014Y0314731D01*
X0018958Y0314580D01*
X0018897Y0314431D01*
X0018834Y0314283D01*
X0018766Y0314137D01*
X0018695Y0313993D01*
X0018621Y0313851D01*
X0018543Y0313710D01*
X0018461Y0313572D01*
X0018376Y0313435D01*
X0018288Y0313301D01*
X0018196Y0313169D01*
X0018101Y0313039D01*
X0018003Y0312911D01*
X0017902Y0312786D01*
X0017798Y0312664D01*
X0017691Y0312544D01*
X0017581Y0312427D01*
X0017468Y0312312D01*
X0017352Y0312201D01*
X0017233Y0312092D01*
X0017112Y0311987D01*
X0016988Y0311884D01*
X0016862Y0311784D01*
X0016734Y0311688D01*
X0016603Y0311595D01*
X0016469Y0311505D01*
X0016334Y0311418D01*
X0016196Y0311335D01*
X0016057Y0311255D01*
X0015915Y0311179D01*
X0015772Y0311106D01*
X0015627Y0311037D01*
X0015480Y0310971D01*
X0015332Y0310909D01*
X0015182Y0310851D01*
X0015031Y0310796D01*
X0014878Y0310745D01*
X0014724Y0310698D01*
X0014569Y0310655D01*
X0014413Y0310616D01*
X0014257Y0310580D01*
X0014099Y0310549D01*
X0013941Y0310521D01*
X0013782Y0310497D01*
X0013622Y0310477D01*
X0013462Y0310461D01*
X0013302Y0310449D01*
X0013141Y0310441D01*
X0012980Y0310437D01*
X0012820Y0310437D01*
X0012659Y0310441D01*
X0012498Y0310449D01*
X0012338Y0310461D01*
X0012178Y0310477D01*
X0012018Y0310497D01*
X0011859Y0310521D01*
X0011701Y0310549D01*
X0011543Y0310580D01*
X0011387Y0310616D01*
X0011231Y0310655D01*
X0011076Y0310698D01*
X0010922Y0310745D01*
X0010769Y0310796D01*
X0010618Y0310851D01*
X0010468Y0310909D01*
X0010320Y0310971D01*
X0010173Y0311037D01*
X0010028Y0311106D01*
X0009885Y0311179D01*
X0009743Y0311255D01*
X0009604Y0311335D01*
X0009466Y0311418D01*
X0009331Y0311505D01*
X0009197Y0311595D01*
X0009066Y0311688D01*
X0008938Y0311784D01*
X0008812Y0311884D01*
X0008688Y0311987D01*
X0008567Y0312092D01*
X0008448Y0312201D01*
X0008332Y0312312D01*
X0008219Y0312427D01*
X0008109Y0312544D01*
X0008002Y0312664D01*
X0007898Y0312786D01*
X0007797Y0312911D01*
X0007699Y0313039D01*
X0007604Y0313169D01*
X0007512Y0313301D01*
X0007424Y0313435D01*
X0007339Y0313572D01*
X0007257Y0313710D01*
X0007179Y0313851D01*
X0007105Y0313993D01*
X0007034Y0314137D01*
X0006966Y0314283D01*
X0006903Y0314431D01*
X0006842Y0314580D01*
X0006786Y0314731D01*
X0006733Y0314883D01*
X0006684Y0315036D01*
X0006639Y0315190D01*
X0006598Y0315345D01*
X0006560Y0315502D01*
X0006527Y0315659D01*
X0006497Y0315817D01*
X0006471Y0315976D01*
X0006450Y0316135D01*
X0006432Y0316295D01*
X0006418Y0316455D01*
X0006408Y0316616D01*
X0006402Y0316776D01*
X0006400Y0316937D01*
X0006400Y0448537D02*
X0006402Y0448698D01*
X0006408Y0448858D01*
X0006418Y0449019D01*
X0006432Y0449179D01*
X0006450Y0449339D01*
X0006471Y0449498D01*
X0006497Y0449657D01*
X0006527Y0449815D01*
X0006560Y0449972D01*
X0006598Y0450129D01*
X0006639Y0450284D01*
X0006684Y0450438D01*
X0006733Y0450591D01*
X0006786Y0450743D01*
X0006842Y0450894D01*
X0006903Y0451043D01*
X0006966Y0451191D01*
X0007034Y0451337D01*
X0007105Y0451481D01*
X0007179Y0451623D01*
X0007257Y0451764D01*
X0007339Y0451902D01*
X0007424Y0452039D01*
X0007512Y0452173D01*
X0007604Y0452305D01*
X0007699Y0452435D01*
X0007797Y0452563D01*
X0007898Y0452688D01*
X0008002Y0452810D01*
X0008109Y0452930D01*
X0008219Y0453047D01*
X0008332Y0453162D01*
X0008448Y0453273D01*
X0008567Y0453382D01*
X0008688Y0453487D01*
X0008812Y0453590D01*
X0008938Y0453690D01*
X0009066Y0453786D01*
X0009197Y0453879D01*
X0009331Y0453969D01*
X0009466Y0454056D01*
X0009604Y0454139D01*
X0009743Y0454219D01*
X0009885Y0454295D01*
X0010028Y0454368D01*
X0010173Y0454437D01*
X0010320Y0454503D01*
X0010468Y0454565D01*
X0010618Y0454623D01*
X0010769Y0454678D01*
X0010922Y0454729D01*
X0011076Y0454776D01*
X0011231Y0454819D01*
X0011387Y0454858D01*
X0011543Y0454894D01*
X0011701Y0454925D01*
X0011859Y0454953D01*
X0012018Y0454977D01*
X0012178Y0454997D01*
X0012338Y0455013D01*
X0012498Y0455025D01*
X0012659Y0455033D01*
X0012820Y0455037D01*
X0012980Y0455037D01*
X0013141Y0455033D01*
X0013302Y0455025D01*
X0013462Y0455013D01*
X0013622Y0454997D01*
X0013782Y0454977D01*
X0013941Y0454953D01*
X0014099Y0454925D01*
X0014257Y0454894D01*
X0014413Y0454858D01*
X0014569Y0454819D01*
X0014724Y0454776D01*
X0014878Y0454729D01*
X0015031Y0454678D01*
X0015182Y0454623D01*
X0015332Y0454565D01*
X0015480Y0454503D01*
X0015627Y0454437D01*
X0015772Y0454368D01*
X0015915Y0454295D01*
X0016057Y0454219D01*
X0016196Y0454139D01*
X0016334Y0454056D01*
X0016469Y0453969D01*
X0016603Y0453879D01*
X0016734Y0453786D01*
X0016862Y0453690D01*
X0016988Y0453590D01*
X0017112Y0453487D01*
X0017233Y0453382D01*
X0017352Y0453273D01*
X0017468Y0453162D01*
X0017581Y0453047D01*
X0017691Y0452930D01*
X0017798Y0452810D01*
X0017902Y0452688D01*
X0018003Y0452563D01*
X0018101Y0452435D01*
X0018196Y0452305D01*
X0018288Y0452173D01*
X0018376Y0452039D01*
X0018461Y0451902D01*
X0018543Y0451764D01*
X0018621Y0451623D01*
X0018695Y0451481D01*
X0018766Y0451337D01*
X0018834Y0451191D01*
X0018897Y0451043D01*
X0018958Y0450894D01*
X0019014Y0450743D01*
X0019067Y0450591D01*
X0019116Y0450438D01*
X0019161Y0450284D01*
X0019202Y0450129D01*
X0019240Y0449972D01*
X0019273Y0449815D01*
X0019303Y0449657D01*
X0019329Y0449498D01*
X0019350Y0449339D01*
X0019368Y0449179D01*
X0019382Y0449019D01*
X0019392Y0448858D01*
X0019398Y0448698D01*
X0019400Y0448537D01*
X0019398Y0448376D01*
X0019392Y0448216D01*
X0019382Y0448055D01*
X0019368Y0447895D01*
X0019350Y0447735D01*
X0019329Y0447576D01*
X0019303Y0447417D01*
X0019273Y0447259D01*
X0019240Y0447102D01*
X0019202Y0446945D01*
X0019161Y0446790D01*
X0019116Y0446636D01*
X0019067Y0446483D01*
X0019014Y0446331D01*
X0018958Y0446180D01*
X0018897Y0446031D01*
X0018834Y0445883D01*
X0018766Y0445737D01*
X0018695Y0445593D01*
X0018621Y0445451D01*
X0018543Y0445310D01*
X0018461Y0445172D01*
X0018376Y0445035D01*
X0018288Y0444901D01*
X0018196Y0444769D01*
X0018101Y0444639D01*
X0018003Y0444511D01*
X0017902Y0444386D01*
X0017798Y0444264D01*
X0017691Y0444144D01*
X0017581Y0444027D01*
X0017468Y0443912D01*
X0017352Y0443801D01*
X0017233Y0443692D01*
X0017112Y0443587D01*
X0016988Y0443484D01*
X0016862Y0443384D01*
X0016734Y0443288D01*
X0016603Y0443195D01*
X0016469Y0443105D01*
X0016334Y0443018D01*
X0016196Y0442935D01*
X0016057Y0442855D01*
X0015915Y0442779D01*
X0015772Y0442706D01*
X0015627Y0442637D01*
X0015480Y0442571D01*
X0015332Y0442509D01*
X0015182Y0442451D01*
X0015031Y0442396D01*
X0014878Y0442345D01*
X0014724Y0442298D01*
X0014569Y0442255D01*
X0014413Y0442216D01*
X0014257Y0442180D01*
X0014099Y0442149D01*
X0013941Y0442121D01*
X0013782Y0442097D01*
X0013622Y0442077D01*
X0013462Y0442061D01*
X0013302Y0442049D01*
X0013141Y0442041D01*
X0012980Y0442037D01*
X0012820Y0442037D01*
X0012659Y0442041D01*
X0012498Y0442049D01*
X0012338Y0442061D01*
X0012178Y0442077D01*
X0012018Y0442097D01*
X0011859Y0442121D01*
X0011701Y0442149D01*
X0011543Y0442180D01*
X0011387Y0442216D01*
X0011231Y0442255D01*
X0011076Y0442298D01*
X0010922Y0442345D01*
X0010769Y0442396D01*
X0010618Y0442451D01*
X0010468Y0442509D01*
X0010320Y0442571D01*
X0010173Y0442637D01*
X0010028Y0442706D01*
X0009885Y0442779D01*
X0009743Y0442855D01*
X0009604Y0442935D01*
X0009466Y0443018D01*
X0009331Y0443105D01*
X0009197Y0443195D01*
X0009066Y0443288D01*
X0008938Y0443384D01*
X0008812Y0443484D01*
X0008688Y0443587D01*
X0008567Y0443692D01*
X0008448Y0443801D01*
X0008332Y0443912D01*
X0008219Y0444027D01*
X0008109Y0444144D01*
X0008002Y0444264D01*
X0007898Y0444386D01*
X0007797Y0444511D01*
X0007699Y0444639D01*
X0007604Y0444769D01*
X0007512Y0444901D01*
X0007424Y0445035D01*
X0007339Y0445172D01*
X0007257Y0445310D01*
X0007179Y0445451D01*
X0007105Y0445593D01*
X0007034Y0445737D01*
X0006966Y0445883D01*
X0006903Y0446031D01*
X0006842Y0446180D01*
X0006786Y0446331D01*
X0006733Y0446483D01*
X0006684Y0446636D01*
X0006639Y0446790D01*
X0006598Y0446945D01*
X0006560Y0447102D01*
X0006527Y0447259D01*
X0006497Y0447417D01*
X0006471Y0447576D01*
X0006450Y0447735D01*
X0006432Y0447895D01*
X0006418Y0448055D01*
X0006408Y0448216D01*
X0006402Y0448376D01*
X0006400Y0448537D01*
X0091400Y0448537D02*
X0091402Y0448698D01*
X0091408Y0448858D01*
X0091418Y0449019D01*
X0091432Y0449179D01*
X0091450Y0449339D01*
X0091471Y0449498D01*
X0091497Y0449657D01*
X0091527Y0449815D01*
X0091560Y0449972D01*
X0091598Y0450129D01*
X0091639Y0450284D01*
X0091684Y0450438D01*
X0091733Y0450591D01*
X0091786Y0450743D01*
X0091842Y0450894D01*
X0091903Y0451043D01*
X0091966Y0451191D01*
X0092034Y0451337D01*
X0092105Y0451481D01*
X0092179Y0451623D01*
X0092257Y0451764D01*
X0092339Y0451902D01*
X0092424Y0452039D01*
X0092512Y0452173D01*
X0092604Y0452305D01*
X0092699Y0452435D01*
X0092797Y0452563D01*
X0092898Y0452688D01*
X0093002Y0452810D01*
X0093109Y0452930D01*
X0093219Y0453047D01*
X0093332Y0453162D01*
X0093448Y0453273D01*
X0093567Y0453382D01*
X0093688Y0453487D01*
X0093812Y0453590D01*
X0093938Y0453690D01*
X0094066Y0453786D01*
X0094197Y0453879D01*
X0094331Y0453969D01*
X0094466Y0454056D01*
X0094604Y0454139D01*
X0094743Y0454219D01*
X0094885Y0454295D01*
X0095028Y0454368D01*
X0095173Y0454437D01*
X0095320Y0454503D01*
X0095468Y0454565D01*
X0095618Y0454623D01*
X0095769Y0454678D01*
X0095922Y0454729D01*
X0096076Y0454776D01*
X0096231Y0454819D01*
X0096387Y0454858D01*
X0096543Y0454894D01*
X0096701Y0454925D01*
X0096859Y0454953D01*
X0097018Y0454977D01*
X0097178Y0454997D01*
X0097338Y0455013D01*
X0097498Y0455025D01*
X0097659Y0455033D01*
X0097820Y0455037D01*
X0097980Y0455037D01*
X0098141Y0455033D01*
X0098302Y0455025D01*
X0098462Y0455013D01*
X0098622Y0454997D01*
X0098782Y0454977D01*
X0098941Y0454953D01*
X0099099Y0454925D01*
X0099257Y0454894D01*
X0099413Y0454858D01*
X0099569Y0454819D01*
X0099724Y0454776D01*
X0099878Y0454729D01*
X0100031Y0454678D01*
X0100182Y0454623D01*
X0100332Y0454565D01*
X0100480Y0454503D01*
X0100627Y0454437D01*
X0100772Y0454368D01*
X0100915Y0454295D01*
X0101057Y0454219D01*
X0101196Y0454139D01*
X0101334Y0454056D01*
X0101469Y0453969D01*
X0101603Y0453879D01*
X0101734Y0453786D01*
X0101862Y0453690D01*
X0101988Y0453590D01*
X0102112Y0453487D01*
X0102233Y0453382D01*
X0102352Y0453273D01*
X0102468Y0453162D01*
X0102581Y0453047D01*
X0102691Y0452930D01*
X0102798Y0452810D01*
X0102902Y0452688D01*
X0103003Y0452563D01*
X0103101Y0452435D01*
X0103196Y0452305D01*
X0103288Y0452173D01*
X0103376Y0452039D01*
X0103461Y0451902D01*
X0103543Y0451764D01*
X0103621Y0451623D01*
X0103695Y0451481D01*
X0103766Y0451337D01*
X0103834Y0451191D01*
X0103897Y0451043D01*
X0103958Y0450894D01*
X0104014Y0450743D01*
X0104067Y0450591D01*
X0104116Y0450438D01*
X0104161Y0450284D01*
X0104202Y0450129D01*
X0104240Y0449972D01*
X0104273Y0449815D01*
X0104303Y0449657D01*
X0104329Y0449498D01*
X0104350Y0449339D01*
X0104368Y0449179D01*
X0104382Y0449019D01*
X0104392Y0448858D01*
X0104398Y0448698D01*
X0104400Y0448537D01*
X0104398Y0448376D01*
X0104392Y0448216D01*
X0104382Y0448055D01*
X0104368Y0447895D01*
X0104350Y0447735D01*
X0104329Y0447576D01*
X0104303Y0447417D01*
X0104273Y0447259D01*
X0104240Y0447102D01*
X0104202Y0446945D01*
X0104161Y0446790D01*
X0104116Y0446636D01*
X0104067Y0446483D01*
X0104014Y0446331D01*
X0103958Y0446180D01*
X0103897Y0446031D01*
X0103834Y0445883D01*
X0103766Y0445737D01*
X0103695Y0445593D01*
X0103621Y0445451D01*
X0103543Y0445310D01*
X0103461Y0445172D01*
X0103376Y0445035D01*
X0103288Y0444901D01*
X0103196Y0444769D01*
X0103101Y0444639D01*
X0103003Y0444511D01*
X0102902Y0444386D01*
X0102798Y0444264D01*
X0102691Y0444144D01*
X0102581Y0444027D01*
X0102468Y0443912D01*
X0102352Y0443801D01*
X0102233Y0443692D01*
X0102112Y0443587D01*
X0101988Y0443484D01*
X0101862Y0443384D01*
X0101734Y0443288D01*
X0101603Y0443195D01*
X0101469Y0443105D01*
X0101334Y0443018D01*
X0101196Y0442935D01*
X0101057Y0442855D01*
X0100915Y0442779D01*
X0100772Y0442706D01*
X0100627Y0442637D01*
X0100480Y0442571D01*
X0100332Y0442509D01*
X0100182Y0442451D01*
X0100031Y0442396D01*
X0099878Y0442345D01*
X0099724Y0442298D01*
X0099569Y0442255D01*
X0099413Y0442216D01*
X0099257Y0442180D01*
X0099099Y0442149D01*
X0098941Y0442121D01*
X0098782Y0442097D01*
X0098622Y0442077D01*
X0098462Y0442061D01*
X0098302Y0442049D01*
X0098141Y0442041D01*
X0097980Y0442037D01*
X0097820Y0442037D01*
X0097659Y0442041D01*
X0097498Y0442049D01*
X0097338Y0442061D01*
X0097178Y0442077D01*
X0097018Y0442097D01*
X0096859Y0442121D01*
X0096701Y0442149D01*
X0096543Y0442180D01*
X0096387Y0442216D01*
X0096231Y0442255D01*
X0096076Y0442298D01*
X0095922Y0442345D01*
X0095769Y0442396D01*
X0095618Y0442451D01*
X0095468Y0442509D01*
X0095320Y0442571D01*
X0095173Y0442637D01*
X0095028Y0442706D01*
X0094885Y0442779D01*
X0094743Y0442855D01*
X0094604Y0442935D01*
X0094466Y0443018D01*
X0094331Y0443105D01*
X0094197Y0443195D01*
X0094066Y0443288D01*
X0093938Y0443384D01*
X0093812Y0443484D01*
X0093688Y0443587D01*
X0093567Y0443692D01*
X0093448Y0443801D01*
X0093332Y0443912D01*
X0093219Y0444027D01*
X0093109Y0444144D01*
X0093002Y0444264D01*
X0092898Y0444386D01*
X0092797Y0444511D01*
X0092699Y0444639D01*
X0092604Y0444769D01*
X0092512Y0444901D01*
X0092424Y0445035D01*
X0092339Y0445172D01*
X0092257Y0445310D01*
X0092179Y0445451D01*
X0092105Y0445593D01*
X0092034Y0445737D01*
X0091966Y0445883D01*
X0091903Y0446031D01*
X0091842Y0446180D01*
X0091786Y0446331D01*
X0091733Y0446483D01*
X0091684Y0446636D01*
X0091639Y0446790D01*
X0091598Y0446945D01*
X0091560Y0447102D01*
X0091527Y0447259D01*
X0091497Y0447417D01*
X0091471Y0447576D01*
X0091450Y0447735D01*
X0091432Y0447895D01*
X0091418Y0448055D01*
X0091408Y0448216D01*
X0091402Y0448376D01*
X0091400Y0448537D01*
X0114700Y0448537D02*
X0114702Y0448698D01*
X0114708Y0448858D01*
X0114718Y0449019D01*
X0114732Y0449179D01*
X0114750Y0449339D01*
X0114771Y0449498D01*
X0114797Y0449657D01*
X0114827Y0449815D01*
X0114860Y0449972D01*
X0114898Y0450129D01*
X0114939Y0450284D01*
X0114984Y0450438D01*
X0115033Y0450591D01*
X0115086Y0450743D01*
X0115142Y0450894D01*
X0115203Y0451043D01*
X0115266Y0451191D01*
X0115334Y0451337D01*
X0115405Y0451481D01*
X0115479Y0451623D01*
X0115557Y0451764D01*
X0115639Y0451902D01*
X0115724Y0452039D01*
X0115812Y0452173D01*
X0115904Y0452305D01*
X0115999Y0452435D01*
X0116097Y0452563D01*
X0116198Y0452688D01*
X0116302Y0452810D01*
X0116409Y0452930D01*
X0116519Y0453047D01*
X0116632Y0453162D01*
X0116748Y0453273D01*
X0116867Y0453382D01*
X0116988Y0453487D01*
X0117112Y0453590D01*
X0117238Y0453690D01*
X0117366Y0453786D01*
X0117497Y0453879D01*
X0117631Y0453969D01*
X0117766Y0454056D01*
X0117904Y0454139D01*
X0118043Y0454219D01*
X0118185Y0454295D01*
X0118328Y0454368D01*
X0118473Y0454437D01*
X0118620Y0454503D01*
X0118768Y0454565D01*
X0118918Y0454623D01*
X0119069Y0454678D01*
X0119222Y0454729D01*
X0119376Y0454776D01*
X0119531Y0454819D01*
X0119687Y0454858D01*
X0119843Y0454894D01*
X0120001Y0454925D01*
X0120159Y0454953D01*
X0120318Y0454977D01*
X0120478Y0454997D01*
X0120638Y0455013D01*
X0120798Y0455025D01*
X0120959Y0455033D01*
X0121120Y0455037D01*
X0121280Y0455037D01*
X0121441Y0455033D01*
X0121602Y0455025D01*
X0121762Y0455013D01*
X0121922Y0454997D01*
X0122082Y0454977D01*
X0122241Y0454953D01*
X0122399Y0454925D01*
X0122557Y0454894D01*
X0122713Y0454858D01*
X0122869Y0454819D01*
X0123024Y0454776D01*
X0123178Y0454729D01*
X0123331Y0454678D01*
X0123482Y0454623D01*
X0123632Y0454565D01*
X0123780Y0454503D01*
X0123927Y0454437D01*
X0124072Y0454368D01*
X0124215Y0454295D01*
X0124357Y0454219D01*
X0124496Y0454139D01*
X0124634Y0454056D01*
X0124769Y0453969D01*
X0124903Y0453879D01*
X0125034Y0453786D01*
X0125162Y0453690D01*
X0125288Y0453590D01*
X0125412Y0453487D01*
X0125533Y0453382D01*
X0125652Y0453273D01*
X0125768Y0453162D01*
X0125881Y0453047D01*
X0125991Y0452930D01*
X0126098Y0452810D01*
X0126202Y0452688D01*
X0126303Y0452563D01*
X0126401Y0452435D01*
X0126496Y0452305D01*
X0126588Y0452173D01*
X0126676Y0452039D01*
X0126761Y0451902D01*
X0126843Y0451764D01*
X0126921Y0451623D01*
X0126995Y0451481D01*
X0127066Y0451337D01*
X0127134Y0451191D01*
X0127197Y0451043D01*
X0127258Y0450894D01*
X0127314Y0450743D01*
X0127367Y0450591D01*
X0127416Y0450438D01*
X0127461Y0450284D01*
X0127502Y0450129D01*
X0127540Y0449972D01*
X0127573Y0449815D01*
X0127603Y0449657D01*
X0127629Y0449498D01*
X0127650Y0449339D01*
X0127668Y0449179D01*
X0127682Y0449019D01*
X0127692Y0448858D01*
X0127698Y0448698D01*
X0127700Y0448537D01*
X0127698Y0448376D01*
X0127692Y0448216D01*
X0127682Y0448055D01*
X0127668Y0447895D01*
X0127650Y0447735D01*
X0127629Y0447576D01*
X0127603Y0447417D01*
X0127573Y0447259D01*
X0127540Y0447102D01*
X0127502Y0446945D01*
X0127461Y0446790D01*
X0127416Y0446636D01*
X0127367Y0446483D01*
X0127314Y0446331D01*
X0127258Y0446180D01*
X0127197Y0446031D01*
X0127134Y0445883D01*
X0127066Y0445737D01*
X0126995Y0445593D01*
X0126921Y0445451D01*
X0126843Y0445310D01*
X0126761Y0445172D01*
X0126676Y0445035D01*
X0126588Y0444901D01*
X0126496Y0444769D01*
X0126401Y0444639D01*
X0126303Y0444511D01*
X0126202Y0444386D01*
X0126098Y0444264D01*
X0125991Y0444144D01*
X0125881Y0444027D01*
X0125768Y0443912D01*
X0125652Y0443801D01*
X0125533Y0443692D01*
X0125412Y0443587D01*
X0125288Y0443484D01*
X0125162Y0443384D01*
X0125034Y0443288D01*
X0124903Y0443195D01*
X0124769Y0443105D01*
X0124634Y0443018D01*
X0124496Y0442935D01*
X0124357Y0442855D01*
X0124215Y0442779D01*
X0124072Y0442706D01*
X0123927Y0442637D01*
X0123780Y0442571D01*
X0123632Y0442509D01*
X0123482Y0442451D01*
X0123331Y0442396D01*
X0123178Y0442345D01*
X0123024Y0442298D01*
X0122869Y0442255D01*
X0122713Y0442216D01*
X0122557Y0442180D01*
X0122399Y0442149D01*
X0122241Y0442121D01*
X0122082Y0442097D01*
X0121922Y0442077D01*
X0121762Y0442061D01*
X0121602Y0442049D01*
X0121441Y0442041D01*
X0121280Y0442037D01*
X0121120Y0442037D01*
X0120959Y0442041D01*
X0120798Y0442049D01*
X0120638Y0442061D01*
X0120478Y0442077D01*
X0120318Y0442097D01*
X0120159Y0442121D01*
X0120001Y0442149D01*
X0119843Y0442180D01*
X0119687Y0442216D01*
X0119531Y0442255D01*
X0119376Y0442298D01*
X0119222Y0442345D01*
X0119069Y0442396D01*
X0118918Y0442451D01*
X0118768Y0442509D01*
X0118620Y0442571D01*
X0118473Y0442637D01*
X0118328Y0442706D01*
X0118185Y0442779D01*
X0118043Y0442855D01*
X0117904Y0442935D01*
X0117766Y0443018D01*
X0117631Y0443105D01*
X0117497Y0443195D01*
X0117366Y0443288D01*
X0117238Y0443384D01*
X0117112Y0443484D01*
X0116988Y0443587D01*
X0116867Y0443692D01*
X0116748Y0443801D01*
X0116632Y0443912D01*
X0116519Y0444027D01*
X0116409Y0444144D01*
X0116302Y0444264D01*
X0116198Y0444386D01*
X0116097Y0444511D01*
X0115999Y0444639D01*
X0115904Y0444769D01*
X0115812Y0444901D01*
X0115724Y0445035D01*
X0115639Y0445172D01*
X0115557Y0445310D01*
X0115479Y0445451D01*
X0115405Y0445593D01*
X0115334Y0445737D01*
X0115266Y0445883D01*
X0115203Y0446031D01*
X0115142Y0446180D01*
X0115086Y0446331D01*
X0115033Y0446483D01*
X0114984Y0446636D01*
X0114939Y0446790D01*
X0114898Y0446945D01*
X0114860Y0447102D01*
X0114827Y0447259D01*
X0114797Y0447417D01*
X0114771Y0447576D01*
X0114750Y0447735D01*
X0114732Y0447895D01*
X0114718Y0448055D01*
X0114708Y0448216D01*
X0114702Y0448376D01*
X0114700Y0448537D01*
X0199700Y0448537D02*
X0199702Y0448698D01*
X0199708Y0448858D01*
X0199718Y0449019D01*
X0199732Y0449179D01*
X0199750Y0449339D01*
X0199771Y0449498D01*
X0199797Y0449657D01*
X0199827Y0449815D01*
X0199860Y0449972D01*
X0199898Y0450129D01*
X0199939Y0450284D01*
X0199984Y0450438D01*
X0200033Y0450591D01*
X0200086Y0450743D01*
X0200142Y0450894D01*
X0200203Y0451043D01*
X0200266Y0451191D01*
X0200334Y0451337D01*
X0200405Y0451481D01*
X0200479Y0451623D01*
X0200557Y0451764D01*
X0200639Y0451902D01*
X0200724Y0452039D01*
X0200812Y0452173D01*
X0200904Y0452305D01*
X0200999Y0452435D01*
X0201097Y0452563D01*
X0201198Y0452688D01*
X0201302Y0452810D01*
X0201409Y0452930D01*
X0201519Y0453047D01*
X0201632Y0453162D01*
X0201748Y0453273D01*
X0201867Y0453382D01*
X0201988Y0453487D01*
X0202112Y0453590D01*
X0202238Y0453690D01*
X0202366Y0453786D01*
X0202497Y0453879D01*
X0202631Y0453969D01*
X0202766Y0454056D01*
X0202904Y0454139D01*
X0203043Y0454219D01*
X0203185Y0454295D01*
X0203328Y0454368D01*
X0203473Y0454437D01*
X0203620Y0454503D01*
X0203768Y0454565D01*
X0203918Y0454623D01*
X0204069Y0454678D01*
X0204222Y0454729D01*
X0204376Y0454776D01*
X0204531Y0454819D01*
X0204687Y0454858D01*
X0204843Y0454894D01*
X0205001Y0454925D01*
X0205159Y0454953D01*
X0205318Y0454977D01*
X0205478Y0454997D01*
X0205638Y0455013D01*
X0205798Y0455025D01*
X0205959Y0455033D01*
X0206120Y0455037D01*
X0206280Y0455037D01*
X0206441Y0455033D01*
X0206602Y0455025D01*
X0206762Y0455013D01*
X0206922Y0454997D01*
X0207082Y0454977D01*
X0207241Y0454953D01*
X0207399Y0454925D01*
X0207557Y0454894D01*
X0207713Y0454858D01*
X0207869Y0454819D01*
X0208024Y0454776D01*
X0208178Y0454729D01*
X0208331Y0454678D01*
X0208482Y0454623D01*
X0208632Y0454565D01*
X0208780Y0454503D01*
X0208927Y0454437D01*
X0209072Y0454368D01*
X0209215Y0454295D01*
X0209357Y0454219D01*
X0209496Y0454139D01*
X0209634Y0454056D01*
X0209769Y0453969D01*
X0209903Y0453879D01*
X0210034Y0453786D01*
X0210162Y0453690D01*
X0210288Y0453590D01*
X0210412Y0453487D01*
X0210533Y0453382D01*
X0210652Y0453273D01*
X0210768Y0453162D01*
X0210881Y0453047D01*
X0210991Y0452930D01*
X0211098Y0452810D01*
X0211202Y0452688D01*
X0211303Y0452563D01*
X0211401Y0452435D01*
X0211496Y0452305D01*
X0211588Y0452173D01*
X0211676Y0452039D01*
X0211761Y0451902D01*
X0211843Y0451764D01*
X0211921Y0451623D01*
X0211995Y0451481D01*
X0212066Y0451337D01*
X0212134Y0451191D01*
X0212197Y0451043D01*
X0212258Y0450894D01*
X0212314Y0450743D01*
X0212367Y0450591D01*
X0212416Y0450438D01*
X0212461Y0450284D01*
X0212502Y0450129D01*
X0212540Y0449972D01*
X0212573Y0449815D01*
X0212603Y0449657D01*
X0212629Y0449498D01*
X0212650Y0449339D01*
X0212668Y0449179D01*
X0212682Y0449019D01*
X0212692Y0448858D01*
X0212698Y0448698D01*
X0212700Y0448537D01*
X0212698Y0448376D01*
X0212692Y0448216D01*
X0212682Y0448055D01*
X0212668Y0447895D01*
X0212650Y0447735D01*
X0212629Y0447576D01*
X0212603Y0447417D01*
X0212573Y0447259D01*
X0212540Y0447102D01*
X0212502Y0446945D01*
X0212461Y0446790D01*
X0212416Y0446636D01*
X0212367Y0446483D01*
X0212314Y0446331D01*
X0212258Y0446180D01*
X0212197Y0446031D01*
X0212134Y0445883D01*
X0212066Y0445737D01*
X0211995Y0445593D01*
X0211921Y0445451D01*
X0211843Y0445310D01*
X0211761Y0445172D01*
X0211676Y0445035D01*
X0211588Y0444901D01*
X0211496Y0444769D01*
X0211401Y0444639D01*
X0211303Y0444511D01*
X0211202Y0444386D01*
X0211098Y0444264D01*
X0210991Y0444144D01*
X0210881Y0444027D01*
X0210768Y0443912D01*
X0210652Y0443801D01*
X0210533Y0443692D01*
X0210412Y0443587D01*
X0210288Y0443484D01*
X0210162Y0443384D01*
X0210034Y0443288D01*
X0209903Y0443195D01*
X0209769Y0443105D01*
X0209634Y0443018D01*
X0209496Y0442935D01*
X0209357Y0442855D01*
X0209215Y0442779D01*
X0209072Y0442706D01*
X0208927Y0442637D01*
X0208780Y0442571D01*
X0208632Y0442509D01*
X0208482Y0442451D01*
X0208331Y0442396D01*
X0208178Y0442345D01*
X0208024Y0442298D01*
X0207869Y0442255D01*
X0207713Y0442216D01*
X0207557Y0442180D01*
X0207399Y0442149D01*
X0207241Y0442121D01*
X0207082Y0442097D01*
X0206922Y0442077D01*
X0206762Y0442061D01*
X0206602Y0442049D01*
X0206441Y0442041D01*
X0206280Y0442037D01*
X0206120Y0442037D01*
X0205959Y0442041D01*
X0205798Y0442049D01*
X0205638Y0442061D01*
X0205478Y0442077D01*
X0205318Y0442097D01*
X0205159Y0442121D01*
X0205001Y0442149D01*
X0204843Y0442180D01*
X0204687Y0442216D01*
X0204531Y0442255D01*
X0204376Y0442298D01*
X0204222Y0442345D01*
X0204069Y0442396D01*
X0203918Y0442451D01*
X0203768Y0442509D01*
X0203620Y0442571D01*
X0203473Y0442637D01*
X0203328Y0442706D01*
X0203185Y0442779D01*
X0203043Y0442855D01*
X0202904Y0442935D01*
X0202766Y0443018D01*
X0202631Y0443105D01*
X0202497Y0443195D01*
X0202366Y0443288D01*
X0202238Y0443384D01*
X0202112Y0443484D01*
X0201988Y0443587D01*
X0201867Y0443692D01*
X0201748Y0443801D01*
X0201632Y0443912D01*
X0201519Y0444027D01*
X0201409Y0444144D01*
X0201302Y0444264D01*
X0201198Y0444386D01*
X0201097Y0444511D01*
X0200999Y0444639D01*
X0200904Y0444769D01*
X0200812Y0444901D01*
X0200724Y0445035D01*
X0200639Y0445172D01*
X0200557Y0445310D01*
X0200479Y0445451D01*
X0200405Y0445593D01*
X0200334Y0445737D01*
X0200266Y0445883D01*
X0200203Y0446031D01*
X0200142Y0446180D01*
X0200086Y0446331D01*
X0200033Y0446483D01*
X0199984Y0446636D01*
X0199939Y0446790D01*
X0199898Y0446945D01*
X0199860Y0447102D01*
X0199827Y0447259D01*
X0199797Y0447417D01*
X0199771Y0447576D01*
X0199750Y0447735D01*
X0199732Y0447895D01*
X0199718Y0448055D01*
X0199708Y0448216D01*
X0199702Y0448376D01*
X0199700Y0448537D01*
X0223000Y0448537D02*
X0223002Y0448698D01*
X0223008Y0448858D01*
X0223018Y0449019D01*
X0223032Y0449179D01*
X0223050Y0449339D01*
X0223071Y0449498D01*
X0223097Y0449657D01*
X0223127Y0449815D01*
X0223160Y0449972D01*
X0223198Y0450129D01*
X0223239Y0450284D01*
X0223284Y0450438D01*
X0223333Y0450591D01*
X0223386Y0450743D01*
X0223442Y0450894D01*
X0223503Y0451043D01*
X0223566Y0451191D01*
X0223634Y0451337D01*
X0223705Y0451481D01*
X0223779Y0451623D01*
X0223857Y0451764D01*
X0223939Y0451902D01*
X0224024Y0452039D01*
X0224112Y0452173D01*
X0224204Y0452305D01*
X0224299Y0452435D01*
X0224397Y0452563D01*
X0224498Y0452688D01*
X0224602Y0452810D01*
X0224709Y0452930D01*
X0224819Y0453047D01*
X0224932Y0453162D01*
X0225048Y0453273D01*
X0225167Y0453382D01*
X0225288Y0453487D01*
X0225412Y0453590D01*
X0225538Y0453690D01*
X0225666Y0453786D01*
X0225797Y0453879D01*
X0225931Y0453969D01*
X0226066Y0454056D01*
X0226204Y0454139D01*
X0226343Y0454219D01*
X0226485Y0454295D01*
X0226628Y0454368D01*
X0226773Y0454437D01*
X0226920Y0454503D01*
X0227068Y0454565D01*
X0227218Y0454623D01*
X0227369Y0454678D01*
X0227522Y0454729D01*
X0227676Y0454776D01*
X0227831Y0454819D01*
X0227987Y0454858D01*
X0228143Y0454894D01*
X0228301Y0454925D01*
X0228459Y0454953D01*
X0228618Y0454977D01*
X0228778Y0454997D01*
X0228938Y0455013D01*
X0229098Y0455025D01*
X0229259Y0455033D01*
X0229420Y0455037D01*
X0229580Y0455037D01*
X0229741Y0455033D01*
X0229902Y0455025D01*
X0230062Y0455013D01*
X0230222Y0454997D01*
X0230382Y0454977D01*
X0230541Y0454953D01*
X0230699Y0454925D01*
X0230857Y0454894D01*
X0231013Y0454858D01*
X0231169Y0454819D01*
X0231324Y0454776D01*
X0231478Y0454729D01*
X0231631Y0454678D01*
X0231782Y0454623D01*
X0231932Y0454565D01*
X0232080Y0454503D01*
X0232227Y0454437D01*
X0232372Y0454368D01*
X0232515Y0454295D01*
X0232657Y0454219D01*
X0232796Y0454139D01*
X0232934Y0454056D01*
X0233069Y0453969D01*
X0233203Y0453879D01*
X0233334Y0453786D01*
X0233462Y0453690D01*
X0233588Y0453590D01*
X0233712Y0453487D01*
X0233833Y0453382D01*
X0233952Y0453273D01*
X0234068Y0453162D01*
X0234181Y0453047D01*
X0234291Y0452930D01*
X0234398Y0452810D01*
X0234502Y0452688D01*
X0234603Y0452563D01*
X0234701Y0452435D01*
X0234796Y0452305D01*
X0234888Y0452173D01*
X0234976Y0452039D01*
X0235061Y0451902D01*
X0235143Y0451764D01*
X0235221Y0451623D01*
X0235295Y0451481D01*
X0235366Y0451337D01*
X0235434Y0451191D01*
X0235497Y0451043D01*
X0235558Y0450894D01*
X0235614Y0450743D01*
X0235667Y0450591D01*
X0235716Y0450438D01*
X0235761Y0450284D01*
X0235802Y0450129D01*
X0235840Y0449972D01*
X0235873Y0449815D01*
X0235903Y0449657D01*
X0235929Y0449498D01*
X0235950Y0449339D01*
X0235968Y0449179D01*
X0235982Y0449019D01*
X0235992Y0448858D01*
X0235998Y0448698D01*
X0236000Y0448537D01*
X0235998Y0448376D01*
X0235992Y0448216D01*
X0235982Y0448055D01*
X0235968Y0447895D01*
X0235950Y0447735D01*
X0235929Y0447576D01*
X0235903Y0447417D01*
X0235873Y0447259D01*
X0235840Y0447102D01*
X0235802Y0446945D01*
X0235761Y0446790D01*
X0235716Y0446636D01*
X0235667Y0446483D01*
X0235614Y0446331D01*
X0235558Y0446180D01*
X0235497Y0446031D01*
X0235434Y0445883D01*
X0235366Y0445737D01*
X0235295Y0445593D01*
X0235221Y0445451D01*
X0235143Y0445310D01*
X0235061Y0445172D01*
X0234976Y0445035D01*
X0234888Y0444901D01*
X0234796Y0444769D01*
X0234701Y0444639D01*
X0234603Y0444511D01*
X0234502Y0444386D01*
X0234398Y0444264D01*
X0234291Y0444144D01*
X0234181Y0444027D01*
X0234068Y0443912D01*
X0233952Y0443801D01*
X0233833Y0443692D01*
X0233712Y0443587D01*
X0233588Y0443484D01*
X0233462Y0443384D01*
X0233334Y0443288D01*
X0233203Y0443195D01*
X0233069Y0443105D01*
X0232934Y0443018D01*
X0232796Y0442935D01*
X0232657Y0442855D01*
X0232515Y0442779D01*
X0232372Y0442706D01*
X0232227Y0442637D01*
X0232080Y0442571D01*
X0231932Y0442509D01*
X0231782Y0442451D01*
X0231631Y0442396D01*
X0231478Y0442345D01*
X0231324Y0442298D01*
X0231169Y0442255D01*
X0231013Y0442216D01*
X0230857Y0442180D01*
X0230699Y0442149D01*
X0230541Y0442121D01*
X0230382Y0442097D01*
X0230222Y0442077D01*
X0230062Y0442061D01*
X0229902Y0442049D01*
X0229741Y0442041D01*
X0229580Y0442037D01*
X0229420Y0442037D01*
X0229259Y0442041D01*
X0229098Y0442049D01*
X0228938Y0442061D01*
X0228778Y0442077D01*
X0228618Y0442097D01*
X0228459Y0442121D01*
X0228301Y0442149D01*
X0228143Y0442180D01*
X0227987Y0442216D01*
X0227831Y0442255D01*
X0227676Y0442298D01*
X0227522Y0442345D01*
X0227369Y0442396D01*
X0227218Y0442451D01*
X0227068Y0442509D01*
X0226920Y0442571D01*
X0226773Y0442637D01*
X0226628Y0442706D01*
X0226485Y0442779D01*
X0226343Y0442855D01*
X0226204Y0442935D01*
X0226066Y0443018D01*
X0225931Y0443105D01*
X0225797Y0443195D01*
X0225666Y0443288D01*
X0225538Y0443384D01*
X0225412Y0443484D01*
X0225288Y0443587D01*
X0225167Y0443692D01*
X0225048Y0443801D01*
X0224932Y0443912D01*
X0224819Y0444027D01*
X0224709Y0444144D01*
X0224602Y0444264D01*
X0224498Y0444386D01*
X0224397Y0444511D01*
X0224299Y0444639D01*
X0224204Y0444769D01*
X0224112Y0444901D01*
X0224024Y0445035D01*
X0223939Y0445172D01*
X0223857Y0445310D01*
X0223779Y0445451D01*
X0223705Y0445593D01*
X0223634Y0445737D01*
X0223566Y0445883D01*
X0223503Y0446031D01*
X0223442Y0446180D01*
X0223386Y0446331D01*
X0223333Y0446483D01*
X0223284Y0446636D01*
X0223239Y0446790D01*
X0223198Y0446945D01*
X0223160Y0447102D01*
X0223127Y0447259D01*
X0223097Y0447417D01*
X0223071Y0447576D01*
X0223050Y0447735D01*
X0223032Y0447895D01*
X0223018Y0448055D01*
X0223008Y0448216D01*
X0223002Y0448376D01*
X0223000Y0448537D01*
X0308000Y0448537D02*
X0308002Y0448698D01*
X0308008Y0448858D01*
X0308018Y0449019D01*
X0308032Y0449179D01*
X0308050Y0449339D01*
X0308071Y0449498D01*
X0308097Y0449657D01*
X0308127Y0449815D01*
X0308160Y0449972D01*
X0308198Y0450129D01*
X0308239Y0450284D01*
X0308284Y0450438D01*
X0308333Y0450591D01*
X0308386Y0450743D01*
X0308442Y0450894D01*
X0308503Y0451043D01*
X0308566Y0451191D01*
X0308634Y0451337D01*
X0308705Y0451481D01*
X0308779Y0451623D01*
X0308857Y0451764D01*
X0308939Y0451902D01*
X0309024Y0452039D01*
X0309112Y0452173D01*
X0309204Y0452305D01*
X0309299Y0452435D01*
X0309397Y0452563D01*
X0309498Y0452688D01*
X0309602Y0452810D01*
X0309709Y0452930D01*
X0309819Y0453047D01*
X0309932Y0453162D01*
X0310048Y0453273D01*
X0310167Y0453382D01*
X0310288Y0453487D01*
X0310412Y0453590D01*
X0310538Y0453690D01*
X0310666Y0453786D01*
X0310797Y0453879D01*
X0310931Y0453969D01*
X0311066Y0454056D01*
X0311204Y0454139D01*
X0311343Y0454219D01*
X0311485Y0454295D01*
X0311628Y0454368D01*
X0311773Y0454437D01*
X0311920Y0454503D01*
X0312068Y0454565D01*
X0312218Y0454623D01*
X0312369Y0454678D01*
X0312522Y0454729D01*
X0312676Y0454776D01*
X0312831Y0454819D01*
X0312987Y0454858D01*
X0313143Y0454894D01*
X0313301Y0454925D01*
X0313459Y0454953D01*
X0313618Y0454977D01*
X0313778Y0454997D01*
X0313938Y0455013D01*
X0314098Y0455025D01*
X0314259Y0455033D01*
X0314420Y0455037D01*
X0314580Y0455037D01*
X0314741Y0455033D01*
X0314902Y0455025D01*
X0315062Y0455013D01*
X0315222Y0454997D01*
X0315382Y0454977D01*
X0315541Y0454953D01*
X0315699Y0454925D01*
X0315857Y0454894D01*
X0316013Y0454858D01*
X0316169Y0454819D01*
X0316324Y0454776D01*
X0316478Y0454729D01*
X0316631Y0454678D01*
X0316782Y0454623D01*
X0316932Y0454565D01*
X0317080Y0454503D01*
X0317227Y0454437D01*
X0317372Y0454368D01*
X0317515Y0454295D01*
X0317657Y0454219D01*
X0317796Y0454139D01*
X0317934Y0454056D01*
X0318069Y0453969D01*
X0318203Y0453879D01*
X0318334Y0453786D01*
X0318462Y0453690D01*
X0318588Y0453590D01*
X0318712Y0453487D01*
X0318833Y0453382D01*
X0318952Y0453273D01*
X0319068Y0453162D01*
X0319181Y0453047D01*
X0319291Y0452930D01*
X0319398Y0452810D01*
X0319502Y0452688D01*
X0319603Y0452563D01*
X0319701Y0452435D01*
X0319796Y0452305D01*
X0319888Y0452173D01*
X0319976Y0452039D01*
X0320061Y0451902D01*
X0320143Y0451764D01*
X0320221Y0451623D01*
X0320295Y0451481D01*
X0320366Y0451337D01*
X0320434Y0451191D01*
X0320497Y0451043D01*
X0320558Y0450894D01*
X0320614Y0450743D01*
X0320667Y0450591D01*
X0320716Y0450438D01*
X0320761Y0450284D01*
X0320802Y0450129D01*
X0320840Y0449972D01*
X0320873Y0449815D01*
X0320903Y0449657D01*
X0320929Y0449498D01*
X0320950Y0449339D01*
X0320968Y0449179D01*
X0320982Y0449019D01*
X0320992Y0448858D01*
X0320998Y0448698D01*
X0321000Y0448537D01*
X0320998Y0448376D01*
X0320992Y0448216D01*
X0320982Y0448055D01*
X0320968Y0447895D01*
X0320950Y0447735D01*
X0320929Y0447576D01*
X0320903Y0447417D01*
X0320873Y0447259D01*
X0320840Y0447102D01*
X0320802Y0446945D01*
X0320761Y0446790D01*
X0320716Y0446636D01*
X0320667Y0446483D01*
X0320614Y0446331D01*
X0320558Y0446180D01*
X0320497Y0446031D01*
X0320434Y0445883D01*
X0320366Y0445737D01*
X0320295Y0445593D01*
X0320221Y0445451D01*
X0320143Y0445310D01*
X0320061Y0445172D01*
X0319976Y0445035D01*
X0319888Y0444901D01*
X0319796Y0444769D01*
X0319701Y0444639D01*
X0319603Y0444511D01*
X0319502Y0444386D01*
X0319398Y0444264D01*
X0319291Y0444144D01*
X0319181Y0444027D01*
X0319068Y0443912D01*
X0318952Y0443801D01*
X0318833Y0443692D01*
X0318712Y0443587D01*
X0318588Y0443484D01*
X0318462Y0443384D01*
X0318334Y0443288D01*
X0318203Y0443195D01*
X0318069Y0443105D01*
X0317934Y0443018D01*
X0317796Y0442935D01*
X0317657Y0442855D01*
X0317515Y0442779D01*
X0317372Y0442706D01*
X0317227Y0442637D01*
X0317080Y0442571D01*
X0316932Y0442509D01*
X0316782Y0442451D01*
X0316631Y0442396D01*
X0316478Y0442345D01*
X0316324Y0442298D01*
X0316169Y0442255D01*
X0316013Y0442216D01*
X0315857Y0442180D01*
X0315699Y0442149D01*
X0315541Y0442121D01*
X0315382Y0442097D01*
X0315222Y0442077D01*
X0315062Y0442061D01*
X0314902Y0442049D01*
X0314741Y0442041D01*
X0314580Y0442037D01*
X0314420Y0442037D01*
X0314259Y0442041D01*
X0314098Y0442049D01*
X0313938Y0442061D01*
X0313778Y0442077D01*
X0313618Y0442097D01*
X0313459Y0442121D01*
X0313301Y0442149D01*
X0313143Y0442180D01*
X0312987Y0442216D01*
X0312831Y0442255D01*
X0312676Y0442298D01*
X0312522Y0442345D01*
X0312369Y0442396D01*
X0312218Y0442451D01*
X0312068Y0442509D01*
X0311920Y0442571D01*
X0311773Y0442637D01*
X0311628Y0442706D01*
X0311485Y0442779D01*
X0311343Y0442855D01*
X0311204Y0442935D01*
X0311066Y0443018D01*
X0310931Y0443105D01*
X0310797Y0443195D01*
X0310666Y0443288D01*
X0310538Y0443384D01*
X0310412Y0443484D01*
X0310288Y0443587D01*
X0310167Y0443692D01*
X0310048Y0443801D01*
X0309932Y0443912D01*
X0309819Y0444027D01*
X0309709Y0444144D01*
X0309602Y0444264D01*
X0309498Y0444386D01*
X0309397Y0444511D01*
X0309299Y0444639D01*
X0309204Y0444769D01*
X0309112Y0444901D01*
X0309024Y0445035D01*
X0308939Y0445172D01*
X0308857Y0445310D01*
X0308779Y0445451D01*
X0308705Y0445593D01*
X0308634Y0445737D01*
X0308566Y0445883D01*
X0308503Y0446031D01*
X0308442Y0446180D01*
X0308386Y0446331D01*
X0308333Y0446483D01*
X0308284Y0446636D01*
X0308239Y0446790D01*
X0308198Y0446945D01*
X0308160Y0447102D01*
X0308127Y0447259D01*
X0308097Y0447417D01*
X0308071Y0447576D01*
X0308050Y0447735D01*
X0308032Y0447895D01*
X0308018Y0448055D01*
X0308008Y0448216D01*
X0308002Y0448376D01*
X0308000Y0448537D01*
X0331300Y0448537D02*
X0331302Y0448698D01*
X0331308Y0448858D01*
X0331318Y0449019D01*
X0331332Y0449179D01*
X0331350Y0449339D01*
X0331371Y0449498D01*
X0331397Y0449657D01*
X0331427Y0449815D01*
X0331460Y0449972D01*
X0331498Y0450129D01*
X0331539Y0450284D01*
X0331584Y0450438D01*
X0331633Y0450591D01*
X0331686Y0450743D01*
X0331742Y0450894D01*
X0331803Y0451043D01*
X0331866Y0451191D01*
X0331934Y0451337D01*
X0332005Y0451481D01*
X0332079Y0451623D01*
X0332157Y0451764D01*
X0332239Y0451902D01*
X0332324Y0452039D01*
X0332412Y0452173D01*
X0332504Y0452305D01*
X0332599Y0452435D01*
X0332697Y0452563D01*
X0332798Y0452688D01*
X0332902Y0452810D01*
X0333009Y0452930D01*
X0333119Y0453047D01*
X0333232Y0453162D01*
X0333348Y0453273D01*
X0333467Y0453382D01*
X0333588Y0453487D01*
X0333712Y0453590D01*
X0333838Y0453690D01*
X0333966Y0453786D01*
X0334097Y0453879D01*
X0334231Y0453969D01*
X0334366Y0454056D01*
X0334504Y0454139D01*
X0334643Y0454219D01*
X0334785Y0454295D01*
X0334928Y0454368D01*
X0335073Y0454437D01*
X0335220Y0454503D01*
X0335368Y0454565D01*
X0335518Y0454623D01*
X0335669Y0454678D01*
X0335822Y0454729D01*
X0335976Y0454776D01*
X0336131Y0454819D01*
X0336287Y0454858D01*
X0336443Y0454894D01*
X0336601Y0454925D01*
X0336759Y0454953D01*
X0336918Y0454977D01*
X0337078Y0454997D01*
X0337238Y0455013D01*
X0337398Y0455025D01*
X0337559Y0455033D01*
X0337720Y0455037D01*
X0337880Y0455037D01*
X0338041Y0455033D01*
X0338202Y0455025D01*
X0338362Y0455013D01*
X0338522Y0454997D01*
X0338682Y0454977D01*
X0338841Y0454953D01*
X0338999Y0454925D01*
X0339157Y0454894D01*
X0339313Y0454858D01*
X0339469Y0454819D01*
X0339624Y0454776D01*
X0339778Y0454729D01*
X0339931Y0454678D01*
X0340082Y0454623D01*
X0340232Y0454565D01*
X0340380Y0454503D01*
X0340527Y0454437D01*
X0340672Y0454368D01*
X0340815Y0454295D01*
X0340957Y0454219D01*
X0341096Y0454139D01*
X0341234Y0454056D01*
X0341369Y0453969D01*
X0341503Y0453879D01*
X0341634Y0453786D01*
X0341762Y0453690D01*
X0341888Y0453590D01*
X0342012Y0453487D01*
X0342133Y0453382D01*
X0342252Y0453273D01*
X0342368Y0453162D01*
X0342481Y0453047D01*
X0342591Y0452930D01*
X0342698Y0452810D01*
X0342802Y0452688D01*
X0342903Y0452563D01*
X0343001Y0452435D01*
X0343096Y0452305D01*
X0343188Y0452173D01*
X0343276Y0452039D01*
X0343361Y0451902D01*
X0343443Y0451764D01*
X0343521Y0451623D01*
X0343595Y0451481D01*
X0343666Y0451337D01*
X0343734Y0451191D01*
X0343797Y0451043D01*
X0343858Y0450894D01*
X0343914Y0450743D01*
X0343967Y0450591D01*
X0344016Y0450438D01*
X0344061Y0450284D01*
X0344102Y0450129D01*
X0344140Y0449972D01*
X0344173Y0449815D01*
X0344203Y0449657D01*
X0344229Y0449498D01*
X0344250Y0449339D01*
X0344268Y0449179D01*
X0344282Y0449019D01*
X0344292Y0448858D01*
X0344298Y0448698D01*
X0344300Y0448537D01*
X0344298Y0448376D01*
X0344292Y0448216D01*
X0344282Y0448055D01*
X0344268Y0447895D01*
X0344250Y0447735D01*
X0344229Y0447576D01*
X0344203Y0447417D01*
X0344173Y0447259D01*
X0344140Y0447102D01*
X0344102Y0446945D01*
X0344061Y0446790D01*
X0344016Y0446636D01*
X0343967Y0446483D01*
X0343914Y0446331D01*
X0343858Y0446180D01*
X0343797Y0446031D01*
X0343734Y0445883D01*
X0343666Y0445737D01*
X0343595Y0445593D01*
X0343521Y0445451D01*
X0343443Y0445310D01*
X0343361Y0445172D01*
X0343276Y0445035D01*
X0343188Y0444901D01*
X0343096Y0444769D01*
X0343001Y0444639D01*
X0342903Y0444511D01*
X0342802Y0444386D01*
X0342698Y0444264D01*
X0342591Y0444144D01*
X0342481Y0444027D01*
X0342368Y0443912D01*
X0342252Y0443801D01*
X0342133Y0443692D01*
X0342012Y0443587D01*
X0341888Y0443484D01*
X0341762Y0443384D01*
X0341634Y0443288D01*
X0341503Y0443195D01*
X0341369Y0443105D01*
X0341234Y0443018D01*
X0341096Y0442935D01*
X0340957Y0442855D01*
X0340815Y0442779D01*
X0340672Y0442706D01*
X0340527Y0442637D01*
X0340380Y0442571D01*
X0340232Y0442509D01*
X0340082Y0442451D01*
X0339931Y0442396D01*
X0339778Y0442345D01*
X0339624Y0442298D01*
X0339469Y0442255D01*
X0339313Y0442216D01*
X0339157Y0442180D01*
X0338999Y0442149D01*
X0338841Y0442121D01*
X0338682Y0442097D01*
X0338522Y0442077D01*
X0338362Y0442061D01*
X0338202Y0442049D01*
X0338041Y0442041D01*
X0337880Y0442037D01*
X0337720Y0442037D01*
X0337559Y0442041D01*
X0337398Y0442049D01*
X0337238Y0442061D01*
X0337078Y0442077D01*
X0336918Y0442097D01*
X0336759Y0442121D01*
X0336601Y0442149D01*
X0336443Y0442180D01*
X0336287Y0442216D01*
X0336131Y0442255D01*
X0335976Y0442298D01*
X0335822Y0442345D01*
X0335669Y0442396D01*
X0335518Y0442451D01*
X0335368Y0442509D01*
X0335220Y0442571D01*
X0335073Y0442637D01*
X0334928Y0442706D01*
X0334785Y0442779D01*
X0334643Y0442855D01*
X0334504Y0442935D01*
X0334366Y0443018D01*
X0334231Y0443105D01*
X0334097Y0443195D01*
X0333966Y0443288D01*
X0333838Y0443384D01*
X0333712Y0443484D01*
X0333588Y0443587D01*
X0333467Y0443692D01*
X0333348Y0443801D01*
X0333232Y0443912D01*
X0333119Y0444027D01*
X0333009Y0444144D01*
X0332902Y0444264D01*
X0332798Y0444386D01*
X0332697Y0444511D01*
X0332599Y0444639D01*
X0332504Y0444769D01*
X0332412Y0444901D01*
X0332324Y0445035D01*
X0332239Y0445172D01*
X0332157Y0445310D01*
X0332079Y0445451D01*
X0332005Y0445593D01*
X0331934Y0445737D01*
X0331866Y0445883D01*
X0331803Y0446031D01*
X0331742Y0446180D01*
X0331686Y0446331D01*
X0331633Y0446483D01*
X0331584Y0446636D01*
X0331539Y0446790D01*
X0331498Y0446945D01*
X0331460Y0447102D01*
X0331427Y0447259D01*
X0331397Y0447417D01*
X0331371Y0447576D01*
X0331350Y0447735D01*
X0331332Y0447895D01*
X0331318Y0448055D01*
X0331308Y0448216D01*
X0331302Y0448376D01*
X0331300Y0448537D01*
X0416300Y0448537D02*
X0416302Y0448698D01*
X0416308Y0448858D01*
X0416318Y0449019D01*
X0416332Y0449179D01*
X0416350Y0449339D01*
X0416371Y0449498D01*
X0416397Y0449657D01*
X0416427Y0449815D01*
X0416460Y0449972D01*
X0416498Y0450129D01*
X0416539Y0450284D01*
X0416584Y0450438D01*
X0416633Y0450591D01*
X0416686Y0450743D01*
X0416742Y0450894D01*
X0416803Y0451043D01*
X0416866Y0451191D01*
X0416934Y0451337D01*
X0417005Y0451481D01*
X0417079Y0451623D01*
X0417157Y0451764D01*
X0417239Y0451902D01*
X0417324Y0452039D01*
X0417412Y0452173D01*
X0417504Y0452305D01*
X0417599Y0452435D01*
X0417697Y0452563D01*
X0417798Y0452688D01*
X0417902Y0452810D01*
X0418009Y0452930D01*
X0418119Y0453047D01*
X0418232Y0453162D01*
X0418348Y0453273D01*
X0418467Y0453382D01*
X0418588Y0453487D01*
X0418712Y0453590D01*
X0418838Y0453690D01*
X0418966Y0453786D01*
X0419097Y0453879D01*
X0419231Y0453969D01*
X0419366Y0454056D01*
X0419504Y0454139D01*
X0419643Y0454219D01*
X0419785Y0454295D01*
X0419928Y0454368D01*
X0420073Y0454437D01*
X0420220Y0454503D01*
X0420368Y0454565D01*
X0420518Y0454623D01*
X0420669Y0454678D01*
X0420822Y0454729D01*
X0420976Y0454776D01*
X0421131Y0454819D01*
X0421287Y0454858D01*
X0421443Y0454894D01*
X0421601Y0454925D01*
X0421759Y0454953D01*
X0421918Y0454977D01*
X0422078Y0454997D01*
X0422238Y0455013D01*
X0422398Y0455025D01*
X0422559Y0455033D01*
X0422720Y0455037D01*
X0422880Y0455037D01*
X0423041Y0455033D01*
X0423202Y0455025D01*
X0423362Y0455013D01*
X0423522Y0454997D01*
X0423682Y0454977D01*
X0423841Y0454953D01*
X0423999Y0454925D01*
X0424157Y0454894D01*
X0424313Y0454858D01*
X0424469Y0454819D01*
X0424624Y0454776D01*
X0424778Y0454729D01*
X0424931Y0454678D01*
X0425082Y0454623D01*
X0425232Y0454565D01*
X0425380Y0454503D01*
X0425527Y0454437D01*
X0425672Y0454368D01*
X0425815Y0454295D01*
X0425957Y0454219D01*
X0426096Y0454139D01*
X0426234Y0454056D01*
X0426369Y0453969D01*
X0426503Y0453879D01*
X0426634Y0453786D01*
X0426762Y0453690D01*
X0426888Y0453590D01*
X0427012Y0453487D01*
X0427133Y0453382D01*
X0427252Y0453273D01*
X0427368Y0453162D01*
X0427481Y0453047D01*
X0427591Y0452930D01*
X0427698Y0452810D01*
X0427802Y0452688D01*
X0427903Y0452563D01*
X0428001Y0452435D01*
X0428096Y0452305D01*
X0428188Y0452173D01*
X0428276Y0452039D01*
X0428361Y0451902D01*
X0428443Y0451764D01*
X0428521Y0451623D01*
X0428595Y0451481D01*
X0428666Y0451337D01*
X0428734Y0451191D01*
X0428797Y0451043D01*
X0428858Y0450894D01*
X0428914Y0450743D01*
X0428967Y0450591D01*
X0429016Y0450438D01*
X0429061Y0450284D01*
X0429102Y0450129D01*
X0429140Y0449972D01*
X0429173Y0449815D01*
X0429203Y0449657D01*
X0429229Y0449498D01*
X0429250Y0449339D01*
X0429268Y0449179D01*
X0429282Y0449019D01*
X0429292Y0448858D01*
X0429298Y0448698D01*
X0429300Y0448537D01*
X0429298Y0448376D01*
X0429292Y0448216D01*
X0429282Y0448055D01*
X0429268Y0447895D01*
X0429250Y0447735D01*
X0429229Y0447576D01*
X0429203Y0447417D01*
X0429173Y0447259D01*
X0429140Y0447102D01*
X0429102Y0446945D01*
X0429061Y0446790D01*
X0429016Y0446636D01*
X0428967Y0446483D01*
X0428914Y0446331D01*
X0428858Y0446180D01*
X0428797Y0446031D01*
X0428734Y0445883D01*
X0428666Y0445737D01*
X0428595Y0445593D01*
X0428521Y0445451D01*
X0428443Y0445310D01*
X0428361Y0445172D01*
X0428276Y0445035D01*
X0428188Y0444901D01*
X0428096Y0444769D01*
X0428001Y0444639D01*
X0427903Y0444511D01*
X0427802Y0444386D01*
X0427698Y0444264D01*
X0427591Y0444144D01*
X0427481Y0444027D01*
X0427368Y0443912D01*
X0427252Y0443801D01*
X0427133Y0443692D01*
X0427012Y0443587D01*
X0426888Y0443484D01*
X0426762Y0443384D01*
X0426634Y0443288D01*
X0426503Y0443195D01*
X0426369Y0443105D01*
X0426234Y0443018D01*
X0426096Y0442935D01*
X0425957Y0442855D01*
X0425815Y0442779D01*
X0425672Y0442706D01*
X0425527Y0442637D01*
X0425380Y0442571D01*
X0425232Y0442509D01*
X0425082Y0442451D01*
X0424931Y0442396D01*
X0424778Y0442345D01*
X0424624Y0442298D01*
X0424469Y0442255D01*
X0424313Y0442216D01*
X0424157Y0442180D01*
X0423999Y0442149D01*
X0423841Y0442121D01*
X0423682Y0442097D01*
X0423522Y0442077D01*
X0423362Y0442061D01*
X0423202Y0442049D01*
X0423041Y0442041D01*
X0422880Y0442037D01*
X0422720Y0442037D01*
X0422559Y0442041D01*
X0422398Y0442049D01*
X0422238Y0442061D01*
X0422078Y0442077D01*
X0421918Y0442097D01*
X0421759Y0442121D01*
X0421601Y0442149D01*
X0421443Y0442180D01*
X0421287Y0442216D01*
X0421131Y0442255D01*
X0420976Y0442298D01*
X0420822Y0442345D01*
X0420669Y0442396D01*
X0420518Y0442451D01*
X0420368Y0442509D01*
X0420220Y0442571D01*
X0420073Y0442637D01*
X0419928Y0442706D01*
X0419785Y0442779D01*
X0419643Y0442855D01*
X0419504Y0442935D01*
X0419366Y0443018D01*
X0419231Y0443105D01*
X0419097Y0443195D01*
X0418966Y0443288D01*
X0418838Y0443384D01*
X0418712Y0443484D01*
X0418588Y0443587D01*
X0418467Y0443692D01*
X0418348Y0443801D01*
X0418232Y0443912D01*
X0418119Y0444027D01*
X0418009Y0444144D01*
X0417902Y0444264D01*
X0417798Y0444386D01*
X0417697Y0444511D01*
X0417599Y0444639D01*
X0417504Y0444769D01*
X0417412Y0444901D01*
X0417324Y0445035D01*
X0417239Y0445172D01*
X0417157Y0445310D01*
X0417079Y0445451D01*
X0417005Y0445593D01*
X0416934Y0445737D01*
X0416866Y0445883D01*
X0416803Y0446031D01*
X0416742Y0446180D01*
X0416686Y0446331D01*
X0416633Y0446483D01*
X0416584Y0446636D01*
X0416539Y0446790D01*
X0416498Y0446945D01*
X0416460Y0447102D01*
X0416427Y0447259D01*
X0416397Y0447417D01*
X0416371Y0447576D01*
X0416350Y0447735D01*
X0416332Y0447895D01*
X0416318Y0448055D01*
X0416308Y0448216D01*
X0416302Y0448376D01*
X0416300Y0448537D01*
M02*
