%
M48
M72
T01C0.0150
T02C0.0200
T03C0.0315
T04C0.0400
T05C0.1300
%
T01
X5540Y9034
X6040Y9384
X7540Y9534
X8290Y10184
X8790Y10184
X8690Y12034
X8040Y12034
X6790Y12284
X6390Y12034
X5940Y12834
X5540Y12884
X5240Y13234
X5540Y12284
X4290Y13784
X4946Y14618
X5540Y15034
X6040Y15534
X6840Y13784
X8040Y14034
X8040Y15034
X3540Y12284
X2540Y12534
X3040Y14034
X2790Y10034
X3540Y9534
X13370Y12534
X14370Y12284
X15120Y13784
X15776Y14618
X16370Y15034
X16870Y15534
X17670Y13784
X16770Y12834
X16370Y12884
X16070Y13234
X16370Y12284
X17220Y12034
X17620Y12284
X18870Y12034
X19520Y12034
X19620Y10184
X19120Y10184
X18370Y9534
X16870Y9384
X16370Y9034
X14370Y9534
X13620Y10034
X13870Y14034
X18870Y14034
X18870Y15034
X24200Y12534
X25200Y12284
X25950Y13784
X26606Y14618
X27200Y15034
X27700Y15534
X28500Y13784
X27600Y12834
X27200Y12884
X26900Y13234
X27200Y12284
X28050Y12034
X28450Y12284
X29700Y12034
X30350Y12034
X30450Y10184
X29950Y10184
X29200Y9534
X27700Y9384
X27200Y9034
X25200Y9534
X24450Y10034
X24700Y14034
X29700Y14034
X29700Y15034
X35030Y12534
X36030Y12284
X36780Y13784
X37436Y14618
X38030Y15034
X38530Y15534
X39330Y13784
X38430Y12834
X38030Y12884
X37730Y13234
X38030Y12284
X38880Y12034
X39280Y12284
X40530Y12034
X41180Y12034
X41280Y10184
X40780Y10184
X40030Y9534
X38530Y9384
X38030Y9034
X36030Y9534
X35280Y10034
X35530Y14034
X40530Y14034
X40530Y15034
X38030Y22194
X38530Y22544
X40030Y22694
X40780Y23344
X41280Y23344
X41180Y25194
X40530Y25194
X39280Y25444
X38880Y25194
X38030Y25444
X38030Y26044
X38430Y25994
X37730Y26394
X36780Y26944
X37436Y27778
X38030Y28194
X38530Y28694
X39330Y26944
X40530Y27194
X40530Y28194
X36030Y25444
X35030Y25694
X35530Y27194
X35280Y23194
X36030Y22694
X30450Y23344
X29950Y23344
X29200Y22694
X27700Y22544
X27200Y22194
X25200Y22694
X24450Y23194
X25200Y25444
X24200Y25694
X24700Y27194
X25950Y26944
X26606Y27778
X27200Y28194
X27700Y28694
X28500Y26944
X27600Y25994
X27200Y26044
X26900Y26394
X27200Y25444
X28050Y25194
X28450Y25444
X29700Y25194
X30350Y25194
X29700Y27194
X29700Y28194
X27200Y35354
X27700Y35704
X29200Y35854
X29950Y36504
X30450Y36504
X30350Y38354
X29700Y38354
X28450Y38604
X28050Y38354
X27600Y39154
X27200Y39204
X26900Y39554
X27200Y38604
X25950Y40104
X26606Y40938
X27200Y41354
X27700Y41854
X28500Y40104
X29700Y40354
X29700Y41354
X25200Y38604
X24200Y38854
X24700Y40354
X24450Y36354
X25200Y35854
X19620Y36504
X19120Y36504
X18370Y35854
X16870Y35704
X16370Y35354
X14370Y35854
X13620Y36354
X14370Y38604
X13370Y38854
X13870Y40354
X15120Y40104
X15776Y40938
X16370Y41354
X16870Y41854
X17670Y40104
X16770Y39154
X16370Y39204
X16070Y39554
X16370Y38604
X17220Y38354
X17620Y38604
X18870Y38354
X19520Y38354
X18870Y40354
X18870Y41354
X8790Y36504
X8290Y36504
X7540Y35854
X6040Y35704
X5540Y35354
X3540Y35854
X2790Y36354
X3540Y38604
X2540Y38854
X3040Y40354
X4290Y40104
X4946Y40938
X5540Y41354
X6040Y41854
X6840Y40104
X5940Y39154
X5540Y39204
X5240Y39554
X5540Y38604
X6390Y38354
X6790Y38604
X8040Y38354
X8690Y38354
X8040Y40354
X8040Y41354
X6040Y28694
X5540Y28194
X4946Y27778
X4290Y26944
X5240Y26394
X5540Y26044
X5940Y25994
X5540Y25444
X6390Y25194
X6790Y25444
X8040Y25194
X8690Y25194
X8790Y23344
X8290Y23344
X7540Y22694
X6040Y22544
X5540Y22194
X3540Y22694
X2790Y23194
X3540Y25444
X2540Y25694
X3040Y27194
X6840Y26944
X8040Y27194
X8040Y28194
X13370Y25694
X14370Y25444
X15120Y26944
X15776Y27778
X16370Y28194
X16870Y28694
X17670Y26944
X16770Y25994
X16370Y26044
X16070Y26394
X16370Y25444
X17220Y25194
X17620Y25444
X18870Y25194
X19520Y25194
X19620Y23344
X19120Y23344
X18370Y22694
X16870Y22544
X16370Y22194
X14370Y22694
X13620Y23194
X13870Y27194
X18870Y27194
X18870Y28194
X35030Y38854
X36030Y38604
X36780Y40104
X37436Y40938
X38030Y41354
X38530Y41854
X39330Y40104
X38430Y39154
X38030Y39204
X37730Y39554
X38030Y38604
X38880Y38354
X39280Y38604
X40530Y38354
X41180Y38354
X41280Y36504
X40780Y36504
X40030Y35854
X38530Y35704
X38030Y35354
X36030Y35854
X35280Y36354
X35530Y40354
X40530Y40354
X40530Y41354
T02
X39280Y36154
X28450Y36154
X17620Y36154
X6790Y36154
X6790Y22994
X17620Y22994
X28450Y22994
X39280Y22994
X39280Y9834
X28450Y9834
X17620Y9834
X6790Y9834
T03
X8883Y9495
X13118Y9495
X19713Y9495
X23948Y9495
X30543Y9495
X34778Y9495
X41373Y9495
X41373Y22655
X34778Y22655
X30543Y22655
X23948Y22655
X19713Y22655
X13118Y22655
X8883Y22655
X2288Y22655
X2288Y35815
X8883Y35815
X13118Y35815
X19713Y35815
X23948Y35815
X30543Y35815
X34778Y35815
X41373Y35815
X2288Y9495
T04
X9040Y12534
X9040Y13534
X9040Y14534
X9040Y15534
X9040Y25694
X9040Y26694
X9040Y27694
X9040Y28694
X9040Y38854
X9040Y39854
X9040Y40854
X9040Y41854
X19870Y41854
X19870Y40854
X19870Y39854
X19870Y38854
X19870Y28694
X19870Y27694
X19870Y26694
X19870Y25694
X19870Y15534
X19870Y14534
X19870Y13534
X19870Y12534
X30700Y12534
X30700Y13534
X30700Y14534
X30700Y15534
X30700Y25694
X30700Y26694
X30700Y27694
X30700Y28694
X30700Y38854
X30700Y39854
X30700Y40854
X30700Y41854
X41530Y41854
X41530Y40854
X41530Y39854
X41530Y38854
X41530Y28694
X41530Y27694
X41530Y26694
X41530Y25694
X41530Y15534
X41530Y14534
X41530Y13534
X41530Y12534
T05
X42280Y18534
X33780Y18534
X31450Y18534
X22950Y18534
X20620Y18534
X12120Y18534
X9790Y18534
X1290Y18534
X1290Y31694
X9790Y31694
X12120Y31694
X20620Y31694
X22950Y31694
X31450Y31694
X33780Y31694
X42280Y31694
X42280Y44854
X33780Y44854
X31450Y44854
X22950Y44854
X20620Y44854
X12120Y44854
X9790Y44854
X1290Y44854
M30
