G75*
%MOIN*%
%OFA0B0*%
%FSLAX25Y25*%
%IPPOS*%
%LPD*%
%AMOC8*
5,1,8,0,0,1.08239X$1,22.5*
%
%ADD10R,0.02178X0.08674*%
%ADD11C,0.03950*%
%ADD12C,0.08200*%
%ADD13C,0.13800*%
D10*
X0021306Y0108337D03*
X0023865Y0108337D03*
X0026424Y0108337D03*
X0028983Y0108337D03*
X0031542Y0108337D03*
X0034101Y0108337D03*
X0036660Y0108337D03*
X0039219Y0108337D03*
X0041778Y0108337D03*
X0044337Y0108337D03*
X0046896Y0108337D03*
X0049455Y0108337D03*
X0052014Y0108337D03*
X0054573Y0108337D03*
X0057132Y0108337D03*
X0059691Y0108337D03*
X0062250Y0108337D03*
X0064809Y0108337D03*
X0067369Y0108337D03*
X0069928Y0108337D03*
X0072487Y0108337D03*
X0075046Y0108337D03*
X0077605Y0108337D03*
X0080164Y0108337D03*
X0082723Y0108337D03*
X0085282Y0108337D03*
X0087841Y0108337D03*
X0090400Y0108337D03*
X0129606Y0108337D03*
X0132165Y0108337D03*
X0134724Y0108337D03*
X0137283Y0108337D03*
X0139842Y0108337D03*
X0142401Y0108337D03*
X0144960Y0108337D03*
X0147519Y0108337D03*
X0150078Y0108337D03*
X0152637Y0108337D03*
X0155196Y0108337D03*
X0157755Y0108337D03*
X0160314Y0108337D03*
X0162873Y0108337D03*
X0165432Y0108337D03*
X0167991Y0108337D03*
X0170550Y0108337D03*
X0173109Y0108337D03*
X0175669Y0108337D03*
X0178228Y0108337D03*
X0180787Y0108337D03*
X0183346Y0108337D03*
X0185905Y0108337D03*
X0188464Y0108337D03*
X0191023Y0108337D03*
X0193582Y0108337D03*
X0196141Y0108337D03*
X0198700Y0108337D03*
X0237906Y0108337D03*
X0240465Y0108337D03*
X0243024Y0108337D03*
X0245583Y0108337D03*
X0248142Y0108337D03*
X0250701Y0108337D03*
X0253260Y0108337D03*
X0255819Y0108337D03*
X0258378Y0108337D03*
X0260937Y0108337D03*
X0263496Y0108337D03*
X0266055Y0108337D03*
X0268614Y0108337D03*
X0271173Y0108337D03*
X0273732Y0108337D03*
X0276291Y0108337D03*
X0278850Y0108337D03*
X0281409Y0108337D03*
X0283969Y0108337D03*
X0286528Y0108337D03*
X0289087Y0108337D03*
X0291646Y0108337D03*
X0294205Y0108337D03*
X0296764Y0108337D03*
X0299323Y0108337D03*
X0301882Y0108337D03*
X0304441Y0108337D03*
X0307000Y0108337D03*
X0346206Y0108337D03*
X0348765Y0108337D03*
X0351324Y0108337D03*
X0353883Y0108337D03*
X0356442Y0108337D03*
X0359001Y0108337D03*
X0361560Y0108337D03*
X0364119Y0108337D03*
X0366678Y0108337D03*
X0369237Y0108337D03*
X0371796Y0108337D03*
X0374355Y0108337D03*
X0376914Y0108337D03*
X0379473Y0108337D03*
X0382032Y0108337D03*
X0384591Y0108337D03*
X0387150Y0108337D03*
X0389709Y0108337D03*
X0392269Y0108337D03*
X0394828Y0108337D03*
X0397387Y0108337D03*
X0399946Y0108337D03*
X0402505Y0108337D03*
X0405064Y0108337D03*
X0407623Y0108337D03*
X0410182Y0108337D03*
X0412741Y0108337D03*
X0415300Y0108337D03*
X0415300Y0239937D03*
X0412741Y0239937D03*
X0410182Y0239937D03*
X0407623Y0239937D03*
X0405064Y0239937D03*
X0402505Y0239937D03*
X0399946Y0239937D03*
X0397387Y0239937D03*
X0394828Y0239937D03*
X0392269Y0239937D03*
X0389709Y0239937D03*
X0387150Y0239937D03*
X0384591Y0239937D03*
X0382032Y0239937D03*
X0379473Y0239937D03*
X0376914Y0239937D03*
X0374355Y0239937D03*
X0371796Y0239937D03*
X0369237Y0239937D03*
X0366678Y0239937D03*
X0364119Y0239937D03*
X0361560Y0239937D03*
X0359001Y0239937D03*
X0356442Y0239937D03*
X0353883Y0239937D03*
X0351324Y0239937D03*
X0348765Y0239937D03*
X0346206Y0239937D03*
X0307000Y0239937D03*
X0304441Y0239937D03*
X0301882Y0239937D03*
X0299323Y0239937D03*
X0296764Y0239937D03*
X0294205Y0239937D03*
X0291646Y0239937D03*
X0289087Y0239937D03*
X0286528Y0239937D03*
X0283969Y0239937D03*
X0281409Y0239937D03*
X0278850Y0239937D03*
X0276291Y0239937D03*
X0273732Y0239937D03*
X0271173Y0239937D03*
X0268614Y0239937D03*
X0266055Y0239937D03*
X0263496Y0239937D03*
X0260937Y0239937D03*
X0258378Y0239937D03*
X0255819Y0239937D03*
X0253260Y0239937D03*
X0250701Y0239937D03*
X0248142Y0239937D03*
X0245583Y0239937D03*
X0243024Y0239937D03*
X0240465Y0239937D03*
X0237906Y0239937D03*
X0198700Y0239937D03*
X0196141Y0239937D03*
X0193582Y0239937D03*
X0191023Y0239937D03*
X0188464Y0239937D03*
X0185905Y0239937D03*
X0183346Y0239937D03*
X0180787Y0239937D03*
X0178228Y0239937D03*
X0175669Y0239937D03*
X0173109Y0239937D03*
X0170550Y0239937D03*
X0167991Y0239937D03*
X0165432Y0239937D03*
X0162873Y0239937D03*
X0160314Y0239937D03*
X0157755Y0239937D03*
X0155196Y0239937D03*
X0152637Y0239937D03*
X0150078Y0239937D03*
X0147519Y0239937D03*
X0144960Y0239937D03*
X0142401Y0239937D03*
X0139842Y0239937D03*
X0137283Y0239937D03*
X0134724Y0239937D03*
X0132165Y0239937D03*
X0129606Y0239937D03*
X0090400Y0239937D03*
X0087841Y0239937D03*
X0085282Y0239937D03*
X0082723Y0239937D03*
X0080164Y0239937D03*
X0077605Y0239937D03*
X0075046Y0239937D03*
X0072487Y0239937D03*
X0069928Y0239937D03*
X0067369Y0239937D03*
X0064809Y0239937D03*
X0062250Y0239937D03*
X0059691Y0239937D03*
X0057132Y0239937D03*
X0054573Y0239937D03*
X0052014Y0239937D03*
X0049455Y0239937D03*
X0046896Y0239937D03*
X0044337Y0239937D03*
X0041778Y0239937D03*
X0039219Y0239937D03*
X0036660Y0239937D03*
X0034101Y0239937D03*
X0031542Y0239937D03*
X0028983Y0239937D03*
X0026424Y0239937D03*
X0023865Y0239937D03*
X0021306Y0239937D03*
X0021306Y0371537D03*
X0023865Y0371537D03*
X0026424Y0371537D03*
X0028983Y0371537D03*
X0031542Y0371537D03*
X0034101Y0371537D03*
X0036660Y0371537D03*
X0039219Y0371537D03*
X0041778Y0371537D03*
X0044337Y0371537D03*
X0046896Y0371537D03*
X0049455Y0371537D03*
X0052014Y0371537D03*
X0054573Y0371537D03*
X0057132Y0371537D03*
X0059691Y0371537D03*
X0062250Y0371537D03*
X0064809Y0371537D03*
X0067369Y0371537D03*
X0069928Y0371537D03*
X0072487Y0371537D03*
X0075046Y0371537D03*
X0077605Y0371537D03*
X0080164Y0371537D03*
X0082723Y0371537D03*
X0085282Y0371537D03*
X0087841Y0371537D03*
X0090400Y0371537D03*
X0129606Y0371537D03*
X0132165Y0371537D03*
X0134724Y0371537D03*
X0137283Y0371537D03*
X0139842Y0371537D03*
X0142401Y0371537D03*
X0144960Y0371537D03*
X0147519Y0371537D03*
X0150078Y0371537D03*
X0152637Y0371537D03*
X0155196Y0371537D03*
X0157755Y0371537D03*
X0160314Y0371537D03*
X0162873Y0371537D03*
X0165432Y0371537D03*
X0167991Y0371537D03*
X0170550Y0371537D03*
X0173109Y0371537D03*
X0175669Y0371537D03*
X0178228Y0371537D03*
X0180787Y0371537D03*
X0183346Y0371537D03*
X0185905Y0371537D03*
X0188464Y0371537D03*
X0191023Y0371537D03*
X0193582Y0371537D03*
X0196141Y0371537D03*
X0198700Y0371537D03*
X0237906Y0371537D03*
X0240465Y0371537D03*
X0243024Y0371537D03*
X0245583Y0371537D03*
X0248142Y0371537D03*
X0250701Y0371537D03*
X0253260Y0371537D03*
X0255819Y0371537D03*
X0258378Y0371537D03*
X0260937Y0371537D03*
X0263496Y0371537D03*
X0266055Y0371537D03*
X0268614Y0371537D03*
X0271173Y0371537D03*
X0273732Y0371537D03*
X0276291Y0371537D03*
X0278850Y0371537D03*
X0281409Y0371537D03*
X0283969Y0371537D03*
X0286528Y0371537D03*
X0289087Y0371537D03*
X0291646Y0371537D03*
X0294205Y0371537D03*
X0296764Y0371537D03*
X0299323Y0371537D03*
X0301882Y0371537D03*
X0304441Y0371537D03*
X0307000Y0371537D03*
X0346206Y0371537D03*
X0348765Y0371537D03*
X0351324Y0371537D03*
X0353883Y0371537D03*
X0356442Y0371537D03*
X0359001Y0371537D03*
X0361560Y0371537D03*
X0364119Y0371537D03*
X0366678Y0371537D03*
X0369237Y0371537D03*
X0371796Y0371537D03*
X0374355Y0371537D03*
X0376914Y0371537D03*
X0379473Y0371537D03*
X0382032Y0371537D03*
X0384591Y0371537D03*
X0387150Y0371537D03*
X0389709Y0371537D03*
X0392269Y0371537D03*
X0394828Y0371537D03*
X0397387Y0371537D03*
X0399946Y0371537D03*
X0402505Y0371537D03*
X0405064Y0371537D03*
X0407623Y0371537D03*
X0410182Y0371537D03*
X0412741Y0371537D03*
X0415300Y0371537D03*
D11*
X0022880Y0094951D03*
X0088825Y0094951D03*
X0131180Y0094951D03*
X0197125Y0094951D03*
X0239480Y0094951D03*
X0305425Y0094951D03*
X0347780Y0094951D03*
X0413725Y0094951D03*
X0413725Y0226551D03*
X0347780Y0226551D03*
X0305425Y0226551D03*
X0239480Y0226551D03*
X0197125Y0226551D03*
X0131180Y0226551D03*
X0088825Y0226551D03*
X0022880Y0226551D03*
X0022880Y0358151D03*
X0088825Y0358151D03*
X0131180Y0358151D03*
X0197125Y0358151D03*
X0239480Y0358151D03*
X0305425Y0358151D03*
X0347780Y0358151D03*
X0413725Y0358151D03*
D12*
X0415300Y0388537D03*
X0415300Y0398537D03*
X0415300Y0408537D03*
X0415300Y0418537D03*
X0307000Y0418537D03*
X0307000Y0408537D03*
X0307000Y0398537D03*
X0307000Y0388537D03*
X0307000Y0286937D03*
X0307000Y0276937D03*
X0307000Y0266937D03*
X0307000Y0256937D03*
X0307000Y0155337D03*
X0307000Y0145337D03*
X0307000Y0135337D03*
X0307000Y0125337D03*
X0198700Y0125337D03*
X0198700Y0135337D03*
X0198700Y0145337D03*
X0198700Y0155337D03*
X0198700Y0256937D03*
X0198700Y0266937D03*
X0198700Y0276937D03*
X0198700Y0286937D03*
X0198700Y0388537D03*
X0198700Y0398537D03*
X0198700Y0408537D03*
X0198700Y0418537D03*
X0090400Y0418537D03*
X0090400Y0408537D03*
X0090400Y0398537D03*
X0090400Y0388537D03*
X0090400Y0286937D03*
X0090400Y0276937D03*
X0090400Y0266937D03*
X0090400Y0256937D03*
X0090400Y0155337D03*
X0090400Y0145337D03*
X0090400Y0135337D03*
X0090400Y0125337D03*
X0415300Y0125337D03*
X0415300Y0135337D03*
X0415300Y0145337D03*
X0415300Y0155337D03*
X0415300Y0256937D03*
X0415300Y0266937D03*
X0415300Y0276937D03*
X0415300Y0286937D03*
D13*
X0422800Y0316937D03*
X0337800Y0316937D03*
X0314500Y0316937D03*
X0229500Y0316937D03*
X0206200Y0316937D03*
X0121200Y0316937D03*
X0097900Y0316937D03*
X0012900Y0316937D03*
X0012900Y0185337D03*
X0097900Y0185337D03*
X0121200Y0185337D03*
X0206200Y0185337D03*
X0229500Y0185337D03*
X0314500Y0185337D03*
X0337800Y0185337D03*
X0422800Y0185337D03*
X0422800Y0448537D03*
X0337800Y0448537D03*
X0314500Y0448537D03*
X0229500Y0448537D03*
X0206200Y0448537D03*
X0121200Y0448537D03*
X0097900Y0448537D03*
X0012900Y0448537D03*
M02*
