G75*
%MOIN*%
%OFA0B0*%
%FSLAX25Y25*%
%IPPOS*%
%LPD*%
%AMOC8*
5,1,8,0,0,1.08239X$1,22.5*
%
%ADD10C,0.00700*%
%ADD11C,0.00500*%
D10*
X0005743Y0113987D02*
X0006377Y0114620D01*
X0006377Y0117156D01*
X0007011Y0116522D02*
X0005743Y0116522D01*
X0008619Y0116522D02*
X0008619Y0113987D01*
X0010521Y0113987D01*
X0011155Y0114620D01*
X0011155Y0116522D01*
X0012763Y0115888D02*
X0013397Y0116522D01*
X0014664Y0116522D01*
X0015298Y0115888D01*
X0015298Y0114620D01*
X0014664Y0113987D01*
X0013397Y0113987D01*
X0012763Y0114620D01*
X0012763Y0115888D01*
X0016850Y0116522D02*
X0018751Y0115254D01*
X0016850Y0113987D01*
X0018751Y0113987D02*
X0018751Y0117790D01*
X0020359Y0115888D02*
X0020359Y0113987D01*
X0022261Y0113987D01*
X0022895Y0114620D01*
X0022261Y0115254D01*
X0020359Y0115254D01*
X0020359Y0115888D02*
X0020993Y0116522D01*
X0022261Y0116522D01*
X0024503Y0115888D02*
X0024503Y0115254D01*
X0027038Y0115254D01*
X0027038Y0114620D02*
X0027038Y0115888D01*
X0026404Y0116522D01*
X0025137Y0116522D01*
X0024503Y0115888D01*
X0025137Y0113987D02*
X0026404Y0113987D01*
X0027038Y0114620D01*
X0028590Y0116522D02*
X0029223Y0116522D01*
X0030491Y0115254D01*
X0030491Y0113987D02*
X0030491Y0116522D01*
X0032099Y0116522D02*
X0032733Y0115888D01*
X0034635Y0115888D01*
X0034635Y0113987D02*
X0032733Y0113987D01*
X0032099Y0114620D01*
X0032099Y0115254D01*
X0032733Y0115888D01*
X0032099Y0116522D02*
X0032099Y0117156D01*
X0032733Y0117790D01*
X0034635Y0117790D01*
X0034635Y0113987D01*
X0040386Y0114620D02*
X0040386Y0117156D01*
X0041020Y0117790D01*
X0042922Y0117790D01*
X0042922Y0113987D01*
X0041020Y0113987D01*
X0040386Y0114620D01*
X0044530Y0113987D02*
X0047065Y0113987D01*
X0047065Y0117790D01*
X0044530Y0117790D01*
X0045798Y0115888D02*
X0047065Y0115888D01*
X0048673Y0113987D02*
X0051209Y0113987D01*
X0051209Y0117790D01*
X0052817Y0117156D02*
X0053451Y0117790D01*
X0054719Y0117790D01*
X0055352Y0117156D01*
X0055352Y0114620D01*
X0054719Y0113987D01*
X0053451Y0113987D01*
X0052817Y0114620D01*
X0052817Y0117156D01*
X0061104Y0116522D02*
X0063006Y0116522D01*
X0063639Y0115888D01*
X0063639Y0114620D01*
X0063006Y0113987D01*
X0061104Y0113987D01*
X0065134Y0113987D02*
X0066402Y0113987D01*
X0065768Y0113987D02*
X0065768Y0116522D01*
X0066402Y0116522D01*
X0065768Y0117790D02*
X0065768Y0118424D01*
X0068530Y0118424D02*
X0068530Y0117790D01*
X0068530Y0116522D02*
X0068530Y0113987D01*
X0069164Y0113987D02*
X0067896Y0113987D01*
X0068530Y0116522D02*
X0069164Y0116522D01*
X0070772Y0116522D02*
X0070772Y0114620D01*
X0071406Y0113987D01*
X0072040Y0114620D01*
X0072674Y0113987D01*
X0073308Y0114620D01*
X0073308Y0116522D01*
X0074916Y0117156D02*
X0074916Y0114620D01*
X0075550Y0113987D01*
X0076817Y0113987D01*
X0077451Y0114620D01*
X0077451Y0117156D01*
X0076817Y0117790D01*
X0075550Y0117790D01*
X0074916Y0117156D01*
X0076184Y0115254D02*
X0074916Y0113987D01*
X0086543Y0113987D02*
X0087177Y0114620D01*
X0087177Y0117156D01*
X0087811Y0116522D02*
X0086543Y0116522D01*
X0089419Y0116522D02*
X0089419Y0113987D01*
X0091321Y0113987D01*
X0091955Y0114620D01*
X0091955Y0116522D01*
X0093563Y0115888D02*
X0094197Y0116522D01*
X0095464Y0116522D01*
X0096098Y0115888D01*
X0096098Y0114620D01*
X0095464Y0113987D01*
X0094197Y0113987D01*
X0093563Y0114620D01*
X0093563Y0115888D01*
X0097650Y0116522D02*
X0099551Y0115254D01*
X0097650Y0113987D01*
X0099551Y0113987D02*
X0099551Y0117790D01*
X0101159Y0115888D02*
X0101159Y0113987D01*
X0103061Y0113987D01*
X0103695Y0114620D01*
X0103061Y0115254D01*
X0101159Y0115254D01*
X0101159Y0115888D02*
X0101793Y0116522D01*
X0103061Y0116522D01*
X0105303Y0115888D02*
X0105303Y0115254D01*
X0107838Y0115254D01*
X0107838Y0114620D02*
X0107838Y0115888D01*
X0107204Y0116522D01*
X0105937Y0116522D01*
X0105303Y0115888D01*
X0105937Y0113987D02*
X0107204Y0113987D01*
X0107838Y0114620D01*
X0109390Y0116522D02*
X0110023Y0116522D01*
X0111291Y0115254D01*
X0111291Y0113987D02*
X0111291Y0116522D01*
X0112899Y0116522D02*
X0113533Y0115888D01*
X0115435Y0115888D01*
X0115435Y0113987D02*
X0113533Y0113987D01*
X0112899Y0114620D01*
X0112899Y0115254D01*
X0113533Y0115888D01*
X0112899Y0116522D02*
X0112899Y0117156D01*
X0113533Y0117790D01*
X0115435Y0117790D01*
X0115435Y0113987D01*
X0121186Y0114620D02*
X0121186Y0117156D01*
X0121820Y0117790D01*
X0123722Y0117790D01*
X0123722Y0113987D01*
X0121820Y0113987D01*
X0121186Y0114620D01*
X0125330Y0113987D02*
X0127865Y0113987D01*
X0127865Y0117790D01*
X0125330Y0117790D01*
X0126598Y0115888D02*
X0127865Y0115888D01*
X0129473Y0113987D02*
X0132009Y0113987D01*
X0132009Y0117790D01*
X0133617Y0117156D02*
X0134251Y0117790D01*
X0135519Y0117790D01*
X0136152Y0117156D01*
X0136152Y0114620D01*
X0135519Y0113987D01*
X0134251Y0113987D01*
X0133617Y0114620D01*
X0133617Y0117156D01*
X0141904Y0116522D02*
X0143806Y0116522D01*
X0144439Y0115888D01*
X0144439Y0114620D01*
X0143806Y0113987D01*
X0141904Y0113987D01*
X0145934Y0113987D02*
X0147202Y0113987D01*
X0146568Y0113987D02*
X0146568Y0116522D01*
X0147202Y0116522D01*
X0146568Y0117790D02*
X0146568Y0118424D01*
X0149330Y0118424D02*
X0149330Y0117790D01*
X0149330Y0116522D02*
X0149330Y0113987D01*
X0149964Y0113987D02*
X0148696Y0113987D01*
X0149330Y0116522D02*
X0149964Y0116522D01*
X0151572Y0116522D02*
X0151572Y0114620D01*
X0152206Y0113987D01*
X0152840Y0114620D01*
X0153474Y0113987D01*
X0154108Y0114620D01*
X0154108Y0116522D01*
X0155716Y0117156D02*
X0155716Y0114620D01*
X0156350Y0113987D01*
X0157617Y0113987D01*
X0158251Y0114620D01*
X0158251Y0117156D01*
X0157617Y0117790D01*
X0156350Y0117790D01*
X0155716Y0117156D01*
X0156984Y0115254D02*
X0155716Y0113987D01*
X0167343Y0113987D02*
X0167977Y0114620D01*
X0167977Y0117156D01*
X0168611Y0116522D02*
X0167343Y0116522D01*
X0170219Y0116522D02*
X0170219Y0113987D01*
X0172121Y0113987D01*
X0172755Y0114620D01*
X0172755Y0116522D01*
X0174363Y0115888D02*
X0174997Y0116522D01*
X0176264Y0116522D01*
X0176898Y0115888D01*
X0176898Y0114620D01*
X0176264Y0113987D01*
X0174997Y0113987D01*
X0174363Y0114620D01*
X0174363Y0115888D01*
X0178450Y0116522D02*
X0180351Y0115254D01*
X0178450Y0113987D01*
X0180351Y0113987D02*
X0180351Y0117790D01*
X0181959Y0115888D02*
X0181959Y0113987D01*
X0183861Y0113987D01*
X0184495Y0114620D01*
X0183861Y0115254D01*
X0181959Y0115254D01*
X0181959Y0115888D02*
X0182593Y0116522D01*
X0183861Y0116522D01*
X0186103Y0115888D02*
X0186103Y0115254D01*
X0188638Y0115254D01*
X0188638Y0114620D02*
X0188638Y0115888D01*
X0188004Y0116522D01*
X0186737Y0116522D01*
X0186103Y0115888D01*
X0186737Y0113987D02*
X0188004Y0113987D01*
X0188638Y0114620D01*
X0190190Y0116522D02*
X0190823Y0116522D01*
X0192091Y0115254D01*
X0192091Y0113987D02*
X0192091Y0116522D01*
X0193699Y0116522D02*
X0194333Y0115888D01*
X0196235Y0115888D01*
X0196235Y0113987D02*
X0194333Y0113987D01*
X0193699Y0114620D01*
X0193699Y0115254D01*
X0194333Y0115888D01*
X0193699Y0116522D02*
X0193699Y0117156D01*
X0194333Y0117790D01*
X0196235Y0117790D01*
X0196235Y0113987D01*
X0201986Y0114620D02*
X0201986Y0117156D01*
X0202620Y0117790D01*
X0204522Y0117790D01*
X0204522Y0113987D01*
X0202620Y0113987D01*
X0201986Y0114620D01*
X0206130Y0113987D02*
X0208665Y0113987D01*
X0208665Y0117790D01*
X0206130Y0117790D01*
X0207398Y0115888D02*
X0208665Y0115888D01*
X0210273Y0113987D02*
X0212809Y0113987D01*
X0212809Y0117790D01*
X0214417Y0117156D02*
X0215051Y0117790D01*
X0216319Y0117790D01*
X0216952Y0117156D01*
X0216952Y0114620D01*
X0216319Y0113987D01*
X0215051Y0113987D01*
X0214417Y0114620D01*
X0214417Y0117156D01*
X0222704Y0116522D02*
X0224606Y0116522D01*
X0225239Y0115888D01*
X0225239Y0114620D01*
X0224606Y0113987D01*
X0222704Y0113987D01*
X0226734Y0113987D02*
X0228002Y0113987D01*
X0227368Y0113987D02*
X0227368Y0116522D01*
X0228002Y0116522D01*
X0227368Y0117790D02*
X0227368Y0118424D01*
X0230130Y0118424D02*
X0230130Y0117790D01*
X0230130Y0116522D02*
X0230130Y0113987D01*
X0230764Y0113987D02*
X0229496Y0113987D01*
X0230130Y0116522D02*
X0230764Y0116522D01*
X0232372Y0116522D02*
X0232372Y0114620D01*
X0233006Y0113987D01*
X0233640Y0114620D01*
X0234274Y0113987D01*
X0234908Y0114620D01*
X0234908Y0116522D01*
X0236516Y0117156D02*
X0237150Y0117790D01*
X0238417Y0117790D01*
X0239051Y0117156D01*
X0239051Y0114620D01*
X0238417Y0113987D01*
X0237150Y0113987D01*
X0236516Y0114620D01*
X0236516Y0117156D01*
X0237784Y0115254D02*
X0236516Y0113987D01*
X0248143Y0113987D02*
X0248777Y0114620D01*
X0248777Y0117156D01*
X0249411Y0116522D02*
X0248143Y0116522D01*
X0251019Y0116522D02*
X0251019Y0113987D01*
X0252921Y0113987D01*
X0253555Y0114620D01*
X0253555Y0116522D01*
X0255163Y0115888D02*
X0255797Y0116522D01*
X0257064Y0116522D01*
X0257698Y0115888D01*
X0257698Y0114620D01*
X0257064Y0113987D01*
X0255797Y0113987D01*
X0255163Y0114620D01*
X0255163Y0115888D01*
X0259250Y0116522D02*
X0261151Y0115254D01*
X0259250Y0113987D01*
X0261151Y0113987D02*
X0261151Y0117790D01*
X0262759Y0115888D02*
X0262759Y0113987D01*
X0264661Y0113987D01*
X0265295Y0114620D01*
X0264661Y0115254D01*
X0262759Y0115254D01*
X0262759Y0115888D02*
X0263393Y0116522D01*
X0264661Y0116522D01*
X0266903Y0115888D02*
X0266903Y0115254D01*
X0269438Y0115254D01*
X0269438Y0114620D02*
X0269438Y0115888D01*
X0268804Y0116522D01*
X0267537Y0116522D01*
X0266903Y0115888D01*
X0267537Y0113987D02*
X0268804Y0113987D01*
X0269438Y0114620D01*
X0270990Y0116522D02*
X0271623Y0116522D01*
X0272891Y0115254D01*
X0272891Y0113987D02*
X0272891Y0116522D01*
X0274499Y0116522D02*
X0275133Y0115888D01*
X0277035Y0115888D01*
X0277035Y0113987D02*
X0275133Y0113987D01*
X0274499Y0114620D01*
X0274499Y0115254D01*
X0275133Y0115888D01*
X0274499Y0116522D02*
X0274499Y0117156D01*
X0275133Y0117790D01*
X0277035Y0117790D01*
X0277035Y0113987D01*
X0282786Y0114620D02*
X0282786Y0117156D01*
X0283420Y0117790D01*
X0285322Y0117790D01*
X0285322Y0113987D01*
X0283420Y0113987D01*
X0282786Y0114620D01*
X0286930Y0113987D02*
X0289465Y0113987D01*
X0289465Y0117790D01*
X0286930Y0117790D01*
X0288198Y0115888D02*
X0289465Y0115888D01*
X0291073Y0113987D02*
X0293609Y0113987D01*
X0293609Y0117790D01*
X0295217Y0117156D02*
X0295851Y0117790D01*
X0297119Y0117790D01*
X0297752Y0117156D01*
X0297752Y0114620D01*
X0297119Y0113987D01*
X0295851Y0113987D01*
X0295217Y0114620D01*
X0295217Y0117156D01*
X0303504Y0116522D02*
X0305406Y0116522D01*
X0306039Y0115888D01*
X0306039Y0114620D01*
X0305406Y0113987D01*
X0303504Y0113987D01*
X0307534Y0113987D02*
X0308802Y0113987D01*
X0308168Y0113987D02*
X0308168Y0116522D01*
X0308802Y0116522D01*
X0308168Y0117790D02*
X0308168Y0118424D01*
X0310930Y0118424D02*
X0310930Y0117790D01*
X0310930Y0116522D02*
X0310930Y0113987D01*
X0311564Y0113987D02*
X0310296Y0113987D01*
X0310930Y0116522D02*
X0311564Y0116522D01*
X0313172Y0116522D02*
X0313172Y0114620D01*
X0313806Y0113987D01*
X0314440Y0114620D01*
X0315074Y0113987D01*
X0315708Y0114620D01*
X0315708Y0116522D01*
X0317316Y0117156D02*
X0317316Y0114620D01*
X0317950Y0113987D01*
X0319217Y0113987D01*
X0319851Y0114620D01*
X0319851Y0117156D01*
X0319217Y0117790D01*
X0317950Y0117790D01*
X0317316Y0117156D01*
X0318584Y0115254D02*
X0317316Y0113987D01*
X0317316Y0194787D02*
X0318584Y0196054D01*
X0319217Y0194787D02*
X0319851Y0195420D01*
X0319851Y0197956D01*
X0319217Y0198590D01*
X0317950Y0198590D01*
X0317316Y0197956D01*
X0317316Y0195420D01*
X0317950Y0194787D01*
X0319217Y0194787D01*
X0315708Y0195420D02*
X0315074Y0194787D01*
X0314440Y0195420D01*
X0313806Y0194787D01*
X0313172Y0195420D01*
X0313172Y0197322D01*
X0311564Y0197322D02*
X0310930Y0197322D01*
X0310930Y0194787D01*
X0311564Y0194787D02*
X0310296Y0194787D01*
X0308802Y0194787D02*
X0307534Y0194787D01*
X0308168Y0194787D02*
X0308168Y0197322D01*
X0308802Y0197322D01*
X0308168Y0198590D02*
X0308168Y0199224D01*
X0310930Y0199224D02*
X0310930Y0198590D01*
X0306039Y0196688D02*
X0306039Y0195420D01*
X0305406Y0194787D01*
X0303504Y0194787D01*
X0303504Y0197322D02*
X0305406Y0197322D01*
X0306039Y0196688D01*
X0297752Y0195420D02*
X0297119Y0194787D01*
X0295851Y0194787D01*
X0295217Y0195420D01*
X0295217Y0197956D01*
X0295851Y0198590D01*
X0297119Y0198590D01*
X0297752Y0197956D01*
X0297752Y0195420D01*
X0293609Y0194787D02*
X0293609Y0198590D01*
X0293609Y0194787D02*
X0291073Y0194787D01*
X0289465Y0194787D02*
X0286930Y0194787D01*
X0285322Y0194787D02*
X0283420Y0194787D01*
X0282786Y0195420D01*
X0282786Y0197956D01*
X0283420Y0198590D01*
X0285322Y0198590D01*
X0285322Y0194787D01*
X0288198Y0196688D02*
X0289465Y0196688D01*
X0289465Y0194787D02*
X0289465Y0198590D01*
X0286930Y0198590D01*
X0277035Y0198590D02*
X0277035Y0194787D01*
X0275133Y0194787D01*
X0274499Y0195420D01*
X0274499Y0196054D01*
X0275133Y0196688D01*
X0277035Y0196688D01*
X0277035Y0198590D02*
X0275133Y0198590D01*
X0274499Y0197956D01*
X0274499Y0197322D01*
X0275133Y0196688D01*
X0272891Y0196054D02*
X0271623Y0197322D01*
X0270990Y0197322D01*
X0269438Y0196688D02*
X0268804Y0197322D01*
X0267537Y0197322D01*
X0266903Y0196688D01*
X0266903Y0196054D01*
X0269438Y0196054D01*
X0269438Y0195420D02*
X0269438Y0196688D01*
X0269438Y0195420D02*
X0268804Y0194787D01*
X0267537Y0194787D01*
X0265295Y0195420D02*
X0264661Y0196054D01*
X0262759Y0196054D01*
X0262759Y0196688D02*
X0262759Y0194787D01*
X0264661Y0194787D01*
X0265295Y0195420D01*
X0264661Y0197322D02*
X0263393Y0197322D01*
X0262759Y0196688D01*
X0261151Y0196054D02*
X0259250Y0197322D01*
X0257698Y0196688D02*
X0257698Y0195420D01*
X0257064Y0194787D01*
X0255797Y0194787D01*
X0255163Y0195420D01*
X0255163Y0196688D01*
X0255797Y0197322D01*
X0257064Y0197322D01*
X0257698Y0196688D01*
X0259250Y0194787D02*
X0261151Y0196054D01*
X0261151Y0194787D02*
X0261151Y0198590D01*
X0253555Y0197322D02*
X0253555Y0195420D01*
X0252921Y0194787D01*
X0251019Y0194787D01*
X0251019Y0197322D01*
X0249411Y0197322D02*
X0248143Y0197322D01*
X0248777Y0197956D02*
X0248777Y0195420D01*
X0248143Y0194787D01*
X0239051Y0195420D02*
X0238417Y0194787D01*
X0237150Y0194787D01*
X0236516Y0195420D01*
X0236516Y0197956D01*
X0237150Y0198590D01*
X0238417Y0198590D01*
X0239051Y0197956D01*
X0239051Y0195420D01*
X0237784Y0196054D02*
X0236516Y0194787D01*
X0234908Y0195420D02*
X0234274Y0194787D01*
X0233640Y0195420D01*
X0233006Y0194787D01*
X0232372Y0195420D01*
X0232372Y0197322D01*
X0230764Y0197322D02*
X0230130Y0197322D01*
X0230130Y0194787D01*
X0230764Y0194787D02*
X0229496Y0194787D01*
X0228002Y0194787D02*
X0226734Y0194787D01*
X0227368Y0194787D02*
X0227368Y0197322D01*
X0228002Y0197322D01*
X0227368Y0198590D02*
X0227368Y0199224D01*
X0230130Y0199224D02*
X0230130Y0198590D01*
X0234908Y0197322D02*
X0234908Y0195420D01*
X0225239Y0195420D02*
X0224606Y0194787D01*
X0222704Y0194787D01*
X0222704Y0197322D02*
X0224606Y0197322D01*
X0225239Y0196688D01*
X0225239Y0195420D01*
X0216952Y0195420D02*
X0216319Y0194787D01*
X0215051Y0194787D01*
X0214417Y0195420D01*
X0214417Y0197956D01*
X0215051Y0198590D01*
X0216319Y0198590D01*
X0216952Y0197956D01*
X0216952Y0195420D01*
X0212809Y0194787D02*
X0210273Y0194787D01*
X0208665Y0194787D02*
X0208665Y0198590D01*
X0206130Y0198590D01*
X0204522Y0198590D02*
X0202620Y0198590D01*
X0201986Y0197956D01*
X0201986Y0195420D01*
X0202620Y0194787D01*
X0204522Y0194787D01*
X0204522Y0198590D01*
X0207398Y0196688D02*
X0208665Y0196688D01*
X0208665Y0194787D02*
X0206130Y0194787D01*
X0212809Y0194787D02*
X0212809Y0198590D01*
X0196235Y0198590D02*
X0196235Y0194787D01*
X0194333Y0194787D01*
X0193699Y0195420D01*
X0193699Y0196054D01*
X0194333Y0196688D01*
X0196235Y0196688D01*
X0196235Y0198590D02*
X0194333Y0198590D01*
X0193699Y0197956D01*
X0193699Y0197322D01*
X0194333Y0196688D01*
X0192091Y0196054D02*
X0190823Y0197322D01*
X0190190Y0197322D01*
X0188638Y0196688D02*
X0188004Y0197322D01*
X0186737Y0197322D01*
X0186103Y0196688D01*
X0186103Y0196054D01*
X0188638Y0196054D01*
X0188638Y0195420D02*
X0188638Y0196688D01*
X0188638Y0195420D02*
X0188004Y0194787D01*
X0186737Y0194787D01*
X0184495Y0195420D02*
X0183861Y0196054D01*
X0181959Y0196054D01*
X0181959Y0196688D02*
X0181959Y0194787D01*
X0183861Y0194787D01*
X0184495Y0195420D01*
X0183861Y0197322D02*
X0182593Y0197322D01*
X0181959Y0196688D01*
X0180351Y0196054D02*
X0178450Y0197322D01*
X0176898Y0196688D02*
X0176898Y0195420D01*
X0176264Y0194787D01*
X0174997Y0194787D01*
X0174363Y0195420D01*
X0174363Y0196688D01*
X0174997Y0197322D01*
X0176264Y0197322D01*
X0176898Y0196688D01*
X0178450Y0194787D02*
X0180351Y0196054D01*
X0180351Y0194787D02*
X0180351Y0198590D01*
X0172755Y0197322D02*
X0172755Y0195420D01*
X0172121Y0194787D01*
X0170219Y0194787D01*
X0170219Y0197322D01*
X0168611Y0197322D02*
X0167343Y0197322D01*
X0167977Y0197956D02*
X0167977Y0195420D01*
X0167343Y0194787D01*
X0158251Y0195420D02*
X0157617Y0194787D01*
X0156350Y0194787D01*
X0155716Y0195420D01*
X0155716Y0197956D01*
X0156350Y0198590D01*
X0157617Y0198590D01*
X0158251Y0197956D01*
X0158251Y0195420D01*
X0156984Y0196054D02*
X0155716Y0194787D01*
X0154108Y0195420D02*
X0153474Y0194787D01*
X0152840Y0195420D01*
X0152206Y0194787D01*
X0151572Y0195420D01*
X0151572Y0197322D01*
X0149964Y0197322D02*
X0149330Y0197322D01*
X0149330Y0194787D01*
X0149964Y0194787D02*
X0148696Y0194787D01*
X0147202Y0194787D02*
X0145934Y0194787D01*
X0146568Y0194787D02*
X0146568Y0197322D01*
X0147202Y0197322D01*
X0146568Y0198590D02*
X0146568Y0199224D01*
X0149330Y0199224D02*
X0149330Y0198590D01*
X0144439Y0196688D02*
X0144439Y0195420D01*
X0143806Y0194787D01*
X0141904Y0194787D01*
X0141904Y0197322D02*
X0143806Y0197322D01*
X0144439Y0196688D01*
X0136152Y0195420D02*
X0135519Y0194787D01*
X0134251Y0194787D01*
X0133617Y0195420D01*
X0133617Y0197956D01*
X0134251Y0198590D01*
X0135519Y0198590D01*
X0136152Y0197956D01*
X0136152Y0195420D01*
X0132009Y0194787D02*
X0132009Y0198590D01*
X0132009Y0194787D02*
X0129473Y0194787D01*
X0127865Y0194787D02*
X0125330Y0194787D01*
X0123722Y0194787D02*
X0123722Y0198590D01*
X0121820Y0198590D01*
X0121186Y0197956D01*
X0121186Y0195420D01*
X0121820Y0194787D01*
X0123722Y0194787D01*
X0126598Y0196688D02*
X0127865Y0196688D01*
X0127865Y0194787D02*
X0127865Y0198590D01*
X0125330Y0198590D01*
X0115435Y0198590D02*
X0115435Y0194787D01*
X0113533Y0194787D01*
X0112899Y0195420D01*
X0112899Y0196054D01*
X0113533Y0196688D01*
X0115435Y0196688D01*
X0115435Y0198590D02*
X0113533Y0198590D01*
X0112899Y0197956D01*
X0112899Y0197322D01*
X0113533Y0196688D01*
X0111291Y0196054D02*
X0110023Y0197322D01*
X0109390Y0197322D01*
X0107838Y0196688D02*
X0107204Y0197322D01*
X0105937Y0197322D01*
X0105303Y0196688D01*
X0105303Y0196054D01*
X0107838Y0196054D01*
X0107838Y0195420D02*
X0107838Y0196688D01*
X0107838Y0195420D02*
X0107204Y0194787D01*
X0105937Y0194787D01*
X0103695Y0195420D02*
X0103061Y0196054D01*
X0101159Y0196054D01*
X0101159Y0196688D02*
X0101159Y0194787D01*
X0103061Y0194787D01*
X0103695Y0195420D01*
X0103061Y0197322D02*
X0101793Y0197322D01*
X0101159Y0196688D01*
X0099551Y0196054D02*
X0097650Y0197322D01*
X0096098Y0196688D02*
X0096098Y0195420D01*
X0095464Y0194787D01*
X0094197Y0194787D01*
X0093563Y0195420D01*
X0093563Y0196688D01*
X0094197Y0197322D01*
X0095464Y0197322D01*
X0096098Y0196688D01*
X0097650Y0194787D02*
X0099551Y0196054D01*
X0099551Y0194787D02*
X0099551Y0198590D01*
X0091955Y0197322D02*
X0091955Y0195420D01*
X0091321Y0194787D01*
X0089419Y0194787D01*
X0089419Y0197322D01*
X0087811Y0197322D02*
X0086543Y0197322D01*
X0087177Y0197956D02*
X0087177Y0195420D01*
X0086543Y0194787D01*
X0077451Y0195420D02*
X0076817Y0194787D01*
X0075550Y0194787D01*
X0074916Y0195420D01*
X0074916Y0197956D01*
X0075550Y0198590D01*
X0076817Y0198590D01*
X0077451Y0197956D01*
X0077451Y0195420D01*
X0076184Y0196054D02*
X0074916Y0194787D01*
X0073308Y0195420D02*
X0072674Y0194787D01*
X0072040Y0195420D01*
X0071406Y0194787D01*
X0070772Y0195420D01*
X0070772Y0197322D01*
X0069164Y0197322D02*
X0068530Y0197322D01*
X0068530Y0194787D01*
X0069164Y0194787D02*
X0067896Y0194787D01*
X0066402Y0194787D02*
X0065134Y0194787D01*
X0065768Y0194787D02*
X0065768Y0197322D01*
X0066402Y0197322D01*
X0065768Y0198590D02*
X0065768Y0199224D01*
X0068530Y0199224D02*
X0068530Y0198590D01*
X0063639Y0196688D02*
X0063639Y0195420D01*
X0063006Y0194787D01*
X0061104Y0194787D01*
X0061104Y0197322D02*
X0063006Y0197322D01*
X0063639Y0196688D01*
X0055352Y0195420D02*
X0054719Y0194787D01*
X0053451Y0194787D01*
X0052817Y0195420D01*
X0052817Y0197956D01*
X0053451Y0198590D01*
X0054719Y0198590D01*
X0055352Y0197956D01*
X0055352Y0195420D01*
X0051209Y0194787D02*
X0051209Y0198590D01*
X0051209Y0194787D02*
X0048673Y0194787D01*
X0047065Y0194787D02*
X0044530Y0194787D01*
X0042922Y0194787D02*
X0041020Y0194787D01*
X0040386Y0195420D01*
X0040386Y0197956D01*
X0041020Y0198590D01*
X0042922Y0198590D01*
X0042922Y0194787D01*
X0045798Y0196688D02*
X0047065Y0196688D01*
X0047065Y0194787D02*
X0047065Y0198590D01*
X0044530Y0198590D01*
X0034635Y0198590D02*
X0034635Y0194787D01*
X0032733Y0194787D01*
X0032099Y0195420D01*
X0032099Y0196054D01*
X0032733Y0196688D01*
X0034635Y0196688D01*
X0034635Y0198590D02*
X0032733Y0198590D01*
X0032099Y0197956D01*
X0032099Y0197322D01*
X0032733Y0196688D01*
X0030491Y0196054D02*
X0029223Y0197322D01*
X0028590Y0197322D01*
X0027038Y0196688D02*
X0026404Y0197322D01*
X0025137Y0197322D01*
X0024503Y0196688D01*
X0024503Y0196054D01*
X0027038Y0196054D01*
X0027038Y0195420D02*
X0027038Y0196688D01*
X0027038Y0195420D02*
X0026404Y0194787D01*
X0025137Y0194787D01*
X0022895Y0195420D02*
X0022261Y0196054D01*
X0020359Y0196054D01*
X0020359Y0196688D02*
X0020359Y0194787D01*
X0022261Y0194787D01*
X0022895Y0195420D01*
X0022261Y0197322D02*
X0020993Y0197322D01*
X0020359Y0196688D01*
X0018751Y0196054D02*
X0016850Y0197322D01*
X0015298Y0196688D02*
X0015298Y0195420D01*
X0014664Y0194787D01*
X0013397Y0194787D01*
X0012763Y0195420D01*
X0012763Y0196688D01*
X0013397Y0197322D01*
X0014664Y0197322D01*
X0015298Y0196688D01*
X0016850Y0194787D02*
X0018751Y0196054D01*
X0018751Y0194787D02*
X0018751Y0198590D01*
X0011155Y0197322D02*
X0011155Y0195420D01*
X0010521Y0194787D01*
X0008619Y0194787D01*
X0008619Y0197322D01*
X0007011Y0197322D02*
X0005743Y0197322D01*
X0006377Y0197956D02*
X0006377Y0195420D01*
X0005743Y0194787D01*
X0030491Y0194787D02*
X0030491Y0197322D01*
X0073308Y0197322D02*
X0073308Y0195420D01*
X0111291Y0194787D02*
X0111291Y0197322D01*
X0154108Y0197322D02*
X0154108Y0195420D01*
X0192091Y0194787D02*
X0192091Y0197322D01*
X0192091Y0275587D02*
X0192091Y0278122D01*
X0190823Y0278122D02*
X0190190Y0278122D01*
X0190823Y0278122D02*
X0192091Y0276854D01*
X0193699Y0276854D02*
X0193699Y0276220D01*
X0194333Y0275587D01*
X0196235Y0275587D01*
X0196235Y0279390D01*
X0194333Y0279390D01*
X0193699Y0278756D01*
X0193699Y0278122D01*
X0194333Y0277488D01*
X0196235Y0277488D01*
X0194333Y0277488D02*
X0193699Y0276854D01*
X0188638Y0276854D02*
X0186103Y0276854D01*
X0186103Y0277488D01*
X0186737Y0278122D01*
X0188004Y0278122D01*
X0188638Y0277488D01*
X0188638Y0276220D01*
X0188004Y0275587D01*
X0186737Y0275587D01*
X0184495Y0276220D02*
X0183861Y0276854D01*
X0181959Y0276854D01*
X0181959Y0277488D02*
X0181959Y0275587D01*
X0183861Y0275587D01*
X0184495Y0276220D01*
X0183861Y0278122D02*
X0182593Y0278122D01*
X0181959Y0277488D01*
X0180351Y0276854D02*
X0178450Y0278122D01*
X0176898Y0277488D02*
X0176898Y0276220D01*
X0176264Y0275587D01*
X0174997Y0275587D01*
X0174363Y0276220D01*
X0174363Y0277488D01*
X0174997Y0278122D01*
X0176264Y0278122D01*
X0176898Y0277488D01*
X0178450Y0275587D02*
X0180351Y0276854D01*
X0180351Y0275587D02*
X0180351Y0279390D01*
X0172755Y0278122D02*
X0172755Y0276220D01*
X0172121Y0275587D01*
X0170219Y0275587D01*
X0170219Y0278122D01*
X0168611Y0278122D02*
X0167343Y0278122D01*
X0167977Y0278756D02*
X0167977Y0276220D01*
X0167343Y0275587D01*
X0158251Y0276220D02*
X0157617Y0275587D01*
X0156350Y0275587D01*
X0155716Y0276220D01*
X0155716Y0278756D01*
X0156350Y0279390D01*
X0157617Y0279390D01*
X0158251Y0278756D01*
X0158251Y0276220D01*
X0156984Y0276854D02*
X0155716Y0275587D01*
X0154108Y0276220D02*
X0153474Y0275587D01*
X0152840Y0276220D01*
X0152206Y0275587D01*
X0151572Y0276220D01*
X0151572Y0278122D01*
X0149964Y0278122D02*
X0149330Y0278122D01*
X0149330Y0275587D01*
X0149964Y0275587D02*
X0148696Y0275587D01*
X0147202Y0275587D02*
X0145934Y0275587D01*
X0146568Y0275587D02*
X0146568Y0278122D01*
X0147202Y0278122D01*
X0146568Y0279390D02*
X0146568Y0280024D01*
X0149330Y0280024D02*
X0149330Y0279390D01*
X0144439Y0277488D02*
X0144439Y0276220D01*
X0143806Y0275587D01*
X0141904Y0275587D01*
X0141904Y0278122D02*
X0143806Y0278122D01*
X0144439Y0277488D01*
X0136152Y0276220D02*
X0135519Y0275587D01*
X0134251Y0275587D01*
X0133617Y0276220D01*
X0133617Y0278756D01*
X0134251Y0279390D01*
X0135519Y0279390D01*
X0136152Y0278756D01*
X0136152Y0276220D01*
X0132009Y0275587D02*
X0132009Y0279390D01*
X0132009Y0275587D02*
X0129473Y0275587D01*
X0127865Y0275587D02*
X0125330Y0275587D01*
X0123722Y0275587D02*
X0123722Y0279390D01*
X0121820Y0279390D01*
X0121186Y0278756D01*
X0121186Y0276220D01*
X0121820Y0275587D01*
X0123722Y0275587D01*
X0126598Y0277488D02*
X0127865Y0277488D01*
X0127865Y0275587D02*
X0127865Y0279390D01*
X0125330Y0279390D01*
X0115435Y0279390D02*
X0115435Y0275587D01*
X0113533Y0275587D01*
X0112899Y0276220D01*
X0112899Y0276854D01*
X0113533Y0277488D01*
X0115435Y0277488D01*
X0115435Y0279390D02*
X0113533Y0279390D01*
X0112899Y0278756D01*
X0112899Y0278122D01*
X0113533Y0277488D01*
X0111291Y0276854D02*
X0110023Y0278122D01*
X0109390Y0278122D01*
X0107838Y0277488D02*
X0107204Y0278122D01*
X0105937Y0278122D01*
X0105303Y0277488D01*
X0105303Y0276854D01*
X0107838Y0276854D01*
X0107838Y0276220D02*
X0107838Y0277488D01*
X0107838Y0276220D02*
X0107204Y0275587D01*
X0105937Y0275587D01*
X0103695Y0276220D02*
X0103061Y0276854D01*
X0101159Y0276854D01*
X0101159Y0277488D02*
X0101159Y0275587D01*
X0103061Y0275587D01*
X0103695Y0276220D01*
X0103061Y0278122D02*
X0101793Y0278122D01*
X0101159Y0277488D01*
X0099551Y0276854D02*
X0097650Y0278122D01*
X0096098Y0277488D02*
X0096098Y0276220D01*
X0095464Y0275587D01*
X0094197Y0275587D01*
X0093563Y0276220D01*
X0093563Y0277488D01*
X0094197Y0278122D01*
X0095464Y0278122D01*
X0096098Y0277488D01*
X0097650Y0275587D02*
X0099551Y0276854D01*
X0099551Y0275587D02*
X0099551Y0279390D01*
X0091955Y0278122D02*
X0091955Y0276220D01*
X0091321Y0275587D01*
X0089419Y0275587D01*
X0089419Y0278122D01*
X0087811Y0278122D02*
X0086543Y0278122D01*
X0087177Y0278756D02*
X0087177Y0276220D01*
X0086543Y0275587D01*
X0077451Y0276220D02*
X0076817Y0275587D01*
X0075550Y0275587D01*
X0074916Y0276220D01*
X0074916Y0278756D01*
X0075550Y0279390D01*
X0076817Y0279390D01*
X0077451Y0278756D01*
X0077451Y0276220D01*
X0076184Y0276854D02*
X0074916Y0275587D01*
X0073308Y0276220D02*
X0072674Y0275587D01*
X0072040Y0276220D01*
X0071406Y0275587D01*
X0070772Y0276220D01*
X0070772Y0278122D01*
X0069164Y0278122D02*
X0068530Y0278122D01*
X0068530Y0275587D01*
X0069164Y0275587D02*
X0067896Y0275587D01*
X0066402Y0275587D02*
X0065134Y0275587D01*
X0065768Y0275587D02*
X0065768Y0278122D01*
X0066402Y0278122D01*
X0065768Y0279390D02*
X0065768Y0280024D01*
X0068530Y0280024D02*
X0068530Y0279390D01*
X0063639Y0277488D02*
X0063639Y0276220D01*
X0063006Y0275587D01*
X0061104Y0275587D01*
X0061104Y0278122D02*
X0063006Y0278122D01*
X0063639Y0277488D01*
X0055352Y0276220D02*
X0054719Y0275587D01*
X0053451Y0275587D01*
X0052817Y0276220D01*
X0052817Y0278756D01*
X0053451Y0279390D01*
X0054719Y0279390D01*
X0055352Y0278756D01*
X0055352Y0276220D01*
X0051209Y0275587D02*
X0051209Y0279390D01*
X0051209Y0275587D02*
X0048673Y0275587D01*
X0047065Y0275587D02*
X0044530Y0275587D01*
X0042922Y0275587D02*
X0041020Y0275587D01*
X0040386Y0276220D01*
X0040386Y0278756D01*
X0041020Y0279390D01*
X0042922Y0279390D01*
X0042922Y0275587D01*
X0045798Y0277488D02*
X0047065Y0277488D01*
X0047065Y0275587D02*
X0047065Y0279390D01*
X0044530Y0279390D01*
X0034635Y0279390D02*
X0034635Y0275587D01*
X0032733Y0275587D01*
X0032099Y0276220D01*
X0032099Y0276854D01*
X0032733Y0277488D01*
X0034635Y0277488D01*
X0034635Y0279390D02*
X0032733Y0279390D01*
X0032099Y0278756D01*
X0032099Y0278122D01*
X0032733Y0277488D01*
X0030491Y0276854D02*
X0029223Y0278122D01*
X0028590Y0278122D01*
X0027038Y0277488D02*
X0026404Y0278122D01*
X0025137Y0278122D01*
X0024503Y0277488D01*
X0024503Y0276854D01*
X0027038Y0276854D01*
X0027038Y0276220D02*
X0027038Y0277488D01*
X0027038Y0276220D02*
X0026404Y0275587D01*
X0025137Y0275587D01*
X0022895Y0276220D02*
X0022261Y0276854D01*
X0020359Y0276854D01*
X0020359Y0277488D02*
X0020359Y0275587D01*
X0022261Y0275587D01*
X0022895Y0276220D01*
X0022261Y0278122D02*
X0020993Y0278122D01*
X0020359Y0277488D01*
X0018751Y0276854D02*
X0016850Y0278122D01*
X0015298Y0277488D02*
X0015298Y0276220D01*
X0014664Y0275587D01*
X0013397Y0275587D01*
X0012763Y0276220D01*
X0012763Y0277488D01*
X0013397Y0278122D01*
X0014664Y0278122D01*
X0015298Y0277488D01*
X0016850Y0275587D02*
X0018751Y0276854D01*
X0018751Y0275587D02*
X0018751Y0279390D01*
X0011155Y0278122D02*
X0011155Y0276220D01*
X0010521Y0275587D01*
X0008619Y0275587D01*
X0008619Y0278122D01*
X0007011Y0278122D02*
X0005743Y0278122D01*
X0006377Y0278756D02*
X0006377Y0276220D01*
X0005743Y0275587D01*
X0030491Y0275587D02*
X0030491Y0278122D01*
X0073308Y0278122D02*
X0073308Y0276220D01*
X0111291Y0275587D02*
X0111291Y0278122D01*
X0154108Y0278122D02*
X0154108Y0276220D01*
X0201986Y0276220D02*
X0201986Y0278756D01*
X0202620Y0279390D01*
X0204522Y0279390D01*
X0204522Y0275587D01*
X0202620Y0275587D01*
X0201986Y0276220D01*
X0206130Y0275587D02*
X0208665Y0275587D01*
X0208665Y0279390D01*
X0206130Y0279390D01*
X0207398Y0277488D02*
X0208665Y0277488D01*
X0210273Y0275587D02*
X0212809Y0275587D01*
X0212809Y0279390D01*
X0214417Y0278756D02*
X0215051Y0279390D01*
X0216319Y0279390D01*
X0216952Y0278756D01*
X0216952Y0276220D01*
X0216319Y0275587D01*
X0215051Y0275587D01*
X0214417Y0276220D01*
X0214417Y0278756D01*
X0222704Y0278122D02*
X0224606Y0278122D01*
X0225239Y0277488D01*
X0225239Y0276220D01*
X0224606Y0275587D01*
X0222704Y0275587D01*
X0226734Y0275587D02*
X0228002Y0275587D01*
X0227368Y0275587D02*
X0227368Y0278122D01*
X0228002Y0278122D01*
X0227368Y0279390D02*
X0227368Y0280024D01*
X0230130Y0280024D02*
X0230130Y0279390D01*
X0230130Y0278122D02*
X0230130Y0275587D01*
X0230764Y0275587D02*
X0229496Y0275587D01*
X0230130Y0278122D02*
X0230764Y0278122D01*
X0232372Y0278122D02*
X0232372Y0276220D01*
X0233006Y0275587D01*
X0233640Y0276220D01*
X0234274Y0275587D01*
X0234908Y0276220D01*
X0234908Y0278122D01*
X0236516Y0278756D02*
X0237150Y0279390D01*
X0238417Y0279390D01*
X0239051Y0278756D01*
X0239051Y0276220D01*
X0238417Y0275587D01*
X0237150Y0275587D01*
X0236516Y0276220D01*
X0236516Y0278756D01*
X0237784Y0276854D02*
X0236516Y0275587D01*
X0248143Y0275587D02*
X0248777Y0276220D01*
X0248777Y0278756D01*
X0249411Y0278122D02*
X0248143Y0278122D01*
X0251019Y0278122D02*
X0251019Y0275587D01*
X0252921Y0275587D01*
X0253555Y0276220D01*
X0253555Y0278122D01*
X0255163Y0277488D02*
X0255797Y0278122D01*
X0257064Y0278122D01*
X0257698Y0277488D01*
X0257698Y0276220D01*
X0257064Y0275587D01*
X0255797Y0275587D01*
X0255163Y0276220D01*
X0255163Y0277488D01*
X0259250Y0278122D02*
X0261151Y0276854D01*
X0259250Y0275587D01*
X0261151Y0275587D02*
X0261151Y0279390D01*
X0262759Y0277488D02*
X0262759Y0275587D01*
X0264661Y0275587D01*
X0265295Y0276220D01*
X0264661Y0276854D01*
X0262759Y0276854D01*
X0262759Y0277488D02*
X0263393Y0278122D01*
X0264661Y0278122D01*
X0266903Y0277488D02*
X0266903Y0276854D01*
X0269438Y0276854D01*
X0269438Y0276220D02*
X0269438Y0277488D01*
X0268804Y0278122D01*
X0267537Y0278122D01*
X0266903Y0277488D01*
X0267537Y0275587D02*
X0268804Y0275587D01*
X0269438Y0276220D01*
X0270990Y0278122D02*
X0271623Y0278122D01*
X0272891Y0276854D01*
X0272891Y0275587D02*
X0272891Y0278122D01*
X0274499Y0278122D02*
X0275133Y0277488D01*
X0277035Y0277488D01*
X0277035Y0275587D02*
X0275133Y0275587D01*
X0274499Y0276220D01*
X0274499Y0276854D01*
X0275133Y0277488D01*
X0274499Y0278122D02*
X0274499Y0278756D01*
X0275133Y0279390D01*
X0277035Y0279390D01*
X0277035Y0275587D01*
X0282786Y0276220D02*
X0282786Y0278756D01*
X0283420Y0279390D01*
X0285322Y0279390D01*
X0285322Y0275587D01*
X0283420Y0275587D01*
X0282786Y0276220D01*
X0286930Y0275587D02*
X0289465Y0275587D01*
X0289465Y0279390D01*
X0286930Y0279390D01*
X0288198Y0277488D02*
X0289465Y0277488D01*
X0291073Y0275587D02*
X0293609Y0275587D01*
X0293609Y0279390D01*
X0295217Y0278756D02*
X0295851Y0279390D01*
X0297119Y0279390D01*
X0297752Y0278756D01*
X0297752Y0276220D01*
X0297119Y0275587D01*
X0295851Y0275587D01*
X0295217Y0276220D01*
X0295217Y0278756D01*
X0303504Y0278122D02*
X0305406Y0278122D01*
X0306039Y0277488D01*
X0306039Y0276220D01*
X0305406Y0275587D01*
X0303504Y0275587D01*
X0307534Y0275587D02*
X0308802Y0275587D01*
X0308168Y0275587D02*
X0308168Y0278122D01*
X0308802Y0278122D01*
X0308168Y0279390D02*
X0308168Y0280024D01*
X0310930Y0280024D02*
X0310930Y0279390D01*
X0310930Y0278122D02*
X0310930Y0275587D01*
X0311564Y0275587D02*
X0310296Y0275587D01*
X0310930Y0278122D02*
X0311564Y0278122D01*
X0313172Y0278122D02*
X0313172Y0276220D01*
X0313806Y0275587D01*
X0314440Y0276220D01*
X0315074Y0275587D01*
X0315708Y0276220D01*
X0315708Y0278122D01*
X0317316Y0278756D02*
X0317316Y0276220D01*
X0317950Y0275587D01*
X0319217Y0275587D01*
X0319851Y0276220D01*
X0319851Y0278756D01*
X0319217Y0279390D01*
X0317950Y0279390D01*
X0317316Y0278756D01*
X0318584Y0276854D02*
X0317316Y0275587D01*
X0315708Y0197322D02*
X0315708Y0195420D01*
X0272891Y0194787D02*
X0272891Y0197322D01*
X0272891Y0356364D02*
X0272891Y0358899D01*
X0272891Y0357632D02*
X0271623Y0358899D01*
X0270990Y0358899D01*
X0269438Y0358265D02*
X0268804Y0358899D01*
X0267537Y0358899D01*
X0266903Y0358265D01*
X0266903Y0357632D01*
X0269438Y0357632D01*
X0269438Y0358265D02*
X0269438Y0356998D01*
X0268804Y0356364D01*
X0267537Y0356364D01*
X0265295Y0356998D02*
X0264661Y0357632D01*
X0262759Y0357632D01*
X0262759Y0358265D02*
X0262759Y0356364D01*
X0264661Y0356364D01*
X0265295Y0356998D01*
X0264661Y0358899D02*
X0263393Y0358899D01*
X0262759Y0358265D01*
X0261151Y0357632D02*
X0259250Y0358899D01*
X0257698Y0358265D02*
X0257698Y0356998D01*
X0257064Y0356364D01*
X0255797Y0356364D01*
X0255163Y0356998D01*
X0255163Y0358265D01*
X0255797Y0358899D01*
X0257064Y0358899D01*
X0257698Y0358265D01*
X0259250Y0356364D02*
X0261151Y0357632D01*
X0261151Y0356364D02*
X0261151Y0360167D01*
X0253555Y0358899D02*
X0253555Y0356998D01*
X0252921Y0356364D01*
X0251019Y0356364D01*
X0251019Y0358899D01*
X0249411Y0358899D02*
X0248143Y0358899D01*
X0248777Y0359533D02*
X0248777Y0356998D01*
X0248143Y0356364D01*
X0239051Y0356998D02*
X0238417Y0356364D01*
X0237150Y0356364D01*
X0236516Y0356998D01*
X0236516Y0359533D01*
X0237150Y0360167D01*
X0238417Y0360167D01*
X0239051Y0359533D01*
X0239051Y0356998D01*
X0237784Y0357632D02*
X0236516Y0356364D01*
X0234908Y0356998D02*
X0234274Y0356364D01*
X0233640Y0356998D01*
X0233006Y0356364D01*
X0232372Y0356998D01*
X0232372Y0358899D01*
X0230764Y0358899D02*
X0230130Y0358899D01*
X0230130Y0356364D01*
X0230764Y0356364D02*
X0229496Y0356364D01*
X0228002Y0356364D02*
X0226734Y0356364D01*
X0227368Y0356364D02*
X0227368Y0358899D01*
X0228002Y0358899D01*
X0227368Y0360167D02*
X0227368Y0360801D01*
X0230130Y0360801D02*
X0230130Y0360167D01*
X0234908Y0358899D02*
X0234908Y0356998D01*
X0225239Y0356998D02*
X0224606Y0356364D01*
X0222704Y0356364D01*
X0222704Y0358899D02*
X0224606Y0358899D01*
X0225239Y0358265D01*
X0225239Y0356998D01*
X0216952Y0356998D02*
X0216319Y0356364D01*
X0215051Y0356364D01*
X0214417Y0356998D01*
X0214417Y0359533D01*
X0215051Y0360167D01*
X0216319Y0360167D01*
X0216952Y0359533D01*
X0216952Y0356998D01*
X0212809Y0356364D02*
X0210273Y0356364D01*
X0208665Y0356364D02*
X0208665Y0360167D01*
X0206130Y0360167D01*
X0204522Y0360167D02*
X0202620Y0360167D01*
X0201986Y0359533D01*
X0201986Y0356998D01*
X0202620Y0356364D01*
X0204522Y0356364D01*
X0204522Y0360167D01*
X0207398Y0358265D02*
X0208665Y0358265D01*
X0208665Y0356364D02*
X0206130Y0356364D01*
X0212809Y0356364D02*
X0212809Y0360167D01*
X0196235Y0360167D02*
X0196235Y0356364D01*
X0194333Y0356364D01*
X0193699Y0356998D01*
X0193699Y0357632D01*
X0194333Y0358265D01*
X0196235Y0358265D01*
X0194333Y0358265D02*
X0193699Y0358899D01*
X0193699Y0359533D01*
X0194333Y0360167D01*
X0196235Y0360167D01*
X0192091Y0358899D02*
X0192091Y0356364D01*
X0192091Y0357632D02*
X0190823Y0358899D01*
X0190190Y0358899D01*
X0188638Y0358265D02*
X0188004Y0358899D01*
X0186737Y0358899D01*
X0186103Y0358265D01*
X0186103Y0357632D01*
X0188638Y0357632D01*
X0188638Y0358265D02*
X0188638Y0356998D01*
X0188004Y0356364D01*
X0186737Y0356364D01*
X0184495Y0356998D02*
X0183861Y0357632D01*
X0181959Y0357632D01*
X0181959Y0358265D02*
X0181959Y0356364D01*
X0183861Y0356364D01*
X0184495Y0356998D01*
X0183861Y0358899D02*
X0182593Y0358899D01*
X0181959Y0358265D01*
X0180351Y0357632D02*
X0178450Y0358899D01*
X0176898Y0358265D02*
X0176898Y0356998D01*
X0176264Y0356364D01*
X0174997Y0356364D01*
X0174363Y0356998D01*
X0174363Y0358265D01*
X0174997Y0358899D01*
X0176264Y0358899D01*
X0176898Y0358265D01*
X0178450Y0356364D02*
X0180351Y0357632D01*
X0180351Y0356364D02*
X0180351Y0360167D01*
X0172755Y0358899D02*
X0172755Y0356998D01*
X0172121Y0356364D01*
X0170219Y0356364D01*
X0170219Y0358899D01*
X0168611Y0358899D02*
X0167343Y0358899D01*
X0167977Y0359533D02*
X0167977Y0356998D01*
X0167343Y0356364D01*
X0158251Y0356998D02*
X0157617Y0356364D01*
X0156350Y0356364D01*
X0155716Y0356998D01*
X0155716Y0359533D01*
X0156350Y0360167D01*
X0157617Y0360167D01*
X0158251Y0359533D01*
X0158251Y0356998D01*
X0156984Y0357632D02*
X0155716Y0356364D01*
X0154108Y0356998D02*
X0153474Y0356364D01*
X0152840Y0356998D01*
X0152206Y0356364D01*
X0151572Y0356998D01*
X0151572Y0358899D01*
X0149964Y0358899D02*
X0149330Y0358899D01*
X0149330Y0356364D01*
X0149964Y0356364D02*
X0148696Y0356364D01*
X0147202Y0356364D02*
X0145934Y0356364D01*
X0146568Y0356364D02*
X0146568Y0358899D01*
X0147202Y0358899D01*
X0146568Y0360167D02*
X0146568Y0360801D01*
X0149330Y0360801D02*
X0149330Y0360167D01*
X0144439Y0358265D02*
X0144439Y0356998D01*
X0143806Y0356364D01*
X0141904Y0356364D01*
X0141904Y0358899D02*
X0143806Y0358899D01*
X0144439Y0358265D01*
X0136152Y0356998D02*
X0135519Y0356364D01*
X0134251Y0356364D01*
X0133617Y0356998D01*
X0133617Y0359533D01*
X0134251Y0360167D01*
X0135519Y0360167D01*
X0136152Y0359533D01*
X0136152Y0356998D01*
X0132009Y0356364D02*
X0132009Y0360167D01*
X0132009Y0356364D02*
X0129473Y0356364D01*
X0127865Y0356364D02*
X0125330Y0356364D01*
X0123722Y0356364D02*
X0123722Y0360167D01*
X0121820Y0360167D01*
X0121186Y0359533D01*
X0121186Y0356998D01*
X0121820Y0356364D01*
X0123722Y0356364D01*
X0126598Y0358265D02*
X0127865Y0358265D01*
X0127865Y0356364D02*
X0127865Y0360167D01*
X0125330Y0360167D01*
X0115435Y0360167D02*
X0115435Y0356364D01*
X0113533Y0356364D01*
X0112899Y0356998D01*
X0112899Y0357632D01*
X0113533Y0358265D01*
X0115435Y0358265D01*
X0113533Y0358265D02*
X0112899Y0358899D01*
X0112899Y0359533D01*
X0113533Y0360167D01*
X0115435Y0360167D01*
X0111291Y0358899D02*
X0111291Y0356364D01*
X0111291Y0357632D02*
X0110023Y0358899D01*
X0109390Y0358899D01*
X0107838Y0358265D02*
X0107204Y0358899D01*
X0105937Y0358899D01*
X0105303Y0358265D01*
X0105303Y0357632D01*
X0107838Y0357632D01*
X0107838Y0358265D02*
X0107838Y0356998D01*
X0107204Y0356364D01*
X0105937Y0356364D01*
X0103695Y0356998D02*
X0103061Y0357632D01*
X0101159Y0357632D01*
X0101159Y0358265D02*
X0101159Y0356364D01*
X0103061Y0356364D01*
X0103695Y0356998D01*
X0103061Y0358899D02*
X0101793Y0358899D01*
X0101159Y0358265D01*
X0099551Y0357632D02*
X0097650Y0358899D01*
X0096098Y0358265D02*
X0096098Y0356998D01*
X0095464Y0356364D01*
X0094197Y0356364D01*
X0093563Y0356998D01*
X0093563Y0358265D01*
X0094197Y0358899D01*
X0095464Y0358899D01*
X0096098Y0358265D01*
X0097650Y0356364D02*
X0099551Y0357632D01*
X0099551Y0356364D02*
X0099551Y0360167D01*
X0091955Y0358899D02*
X0091955Y0356998D01*
X0091321Y0356364D01*
X0089419Y0356364D01*
X0089419Y0358899D01*
X0087811Y0358899D02*
X0086543Y0358899D01*
X0087177Y0359533D02*
X0087177Y0356998D01*
X0086543Y0356364D01*
X0077451Y0356998D02*
X0076817Y0356364D01*
X0075550Y0356364D01*
X0074916Y0356998D01*
X0074916Y0359533D01*
X0075550Y0360167D01*
X0076817Y0360167D01*
X0077451Y0359533D01*
X0077451Y0356998D01*
X0076184Y0357632D02*
X0074916Y0356364D01*
X0073308Y0356998D02*
X0072674Y0356364D01*
X0072040Y0356998D01*
X0071406Y0356364D01*
X0070772Y0356998D01*
X0070772Y0358899D01*
X0069164Y0358899D02*
X0068530Y0358899D01*
X0068530Y0356364D01*
X0069164Y0356364D02*
X0067896Y0356364D01*
X0066402Y0356364D02*
X0065134Y0356364D01*
X0065768Y0356364D02*
X0065768Y0358899D01*
X0066402Y0358899D01*
X0065768Y0360167D02*
X0065768Y0360801D01*
X0068530Y0360801D02*
X0068530Y0360167D01*
X0063639Y0358265D02*
X0063639Y0356998D01*
X0063006Y0356364D01*
X0061104Y0356364D01*
X0061104Y0358899D02*
X0063006Y0358899D01*
X0063639Y0358265D01*
X0055352Y0356998D02*
X0054719Y0356364D01*
X0053451Y0356364D01*
X0052817Y0356998D01*
X0052817Y0359533D01*
X0053451Y0360167D01*
X0054719Y0360167D01*
X0055352Y0359533D01*
X0055352Y0356998D01*
X0051209Y0356364D02*
X0051209Y0360167D01*
X0051209Y0356364D02*
X0048673Y0356364D01*
X0047065Y0356364D02*
X0044530Y0356364D01*
X0042922Y0356364D02*
X0041020Y0356364D01*
X0040386Y0356998D01*
X0040386Y0359533D01*
X0041020Y0360167D01*
X0042922Y0360167D01*
X0042922Y0356364D01*
X0045798Y0358265D02*
X0047065Y0358265D01*
X0047065Y0356364D02*
X0047065Y0360167D01*
X0044530Y0360167D01*
X0034635Y0360167D02*
X0034635Y0356364D01*
X0032733Y0356364D01*
X0032099Y0356998D01*
X0032099Y0357632D01*
X0032733Y0358265D01*
X0034635Y0358265D01*
X0032733Y0358265D02*
X0032099Y0358899D01*
X0032099Y0359533D01*
X0032733Y0360167D01*
X0034635Y0360167D01*
X0030491Y0358899D02*
X0030491Y0356364D01*
X0030491Y0357632D02*
X0029223Y0358899D01*
X0028590Y0358899D01*
X0027038Y0358265D02*
X0026404Y0358899D01*
X0025137Y0358899D01*
X0024503Y0358265D01*
X0024503Y0357632D01*
X0027038Y0357632D01*
X0027038Y0358265D02*
X0027038Y0356998D01*
X0026404Y0356364D01*
X0025137Y0356364D01*
X0022895Y0356998D02*
X0022261Y0357632D01*
X0020359Y0357632D01*
X0020359Y0358265D02*
X0020359Y0356364D01*
X0022261Y0356364D01*
X0022895Y0356998D01*
X0022261Y0358899D02*
X0020993Y0358899D01*
X0020359Y0358265D01*
X0018751Y0357632D02*
X0016850Y0358899D01*
X0015298Y0358265D02*
X0015298Y0356998D01*
X0014664Y0356364D01*
X0013397Y0356364D01*
X0012763Y0356998D01*
X0012763Y0358265D01*
X0013397Y0358899D01*
X0014664Y0358899D01*
X0015298Y0358265D01*
X0016850Y0356364D02*
X0018751Y0357632D01*
X0018751Y0356364D02*
X0018751Y0360167D01*
X0011155Y0358899D02*
X0011155Y0356998D01*
X0010521Y0356364D01*
X0008619Y0356364D01*
X0008619Y0358899D01*
X0007011Y0358899D02*
X0005743Y0358899D01*
X0006377Y0359533D02*
X0006377Y0356998D01*
X0005743Y0356364D01*
X0073308Y0356998D02*
X0073308Y0358899D01*
X0154108Y0358899D02*
X0154108Y0356998D01*
X0274499Y0356998D02*
X0275133Y0356364D01*
X0277035Y0356364D01*
X0277035Y0360167D01*
X0275133Y0360167D01*
X0274499Y0359533D01*
X0274499Y0358899D01*
X0275133Y0358265D01*
X0277035Y0358265D01*
X0275133Y0358265D02*
X0274499Y0357632D01*
X0274499Y0356998D01*
X0282786Y0356998D02*
X0282786Y0359533D01*
X0283420Y0360167D01*
X0285322Y0360167D01*
X0285322Y0356364D01*
X0283420Y0356364D01*
X0282786Y0356998D01*
X0286930Y0356364D02*
X0289465Y0356364D01*
X0289465Y0360167D01*
X0286930Y0360167D01*
X0288198Y0358265D02*
X0289465Y0358265D01*
X0291073Y0356364D02*
X0293609Y0356364D01*
X0293609Y0360167D01*
X0295217Y0359533D02*
X0295851Y0360167D01*
X0297119Y0360167D01*
X0297752Y0359533D01*
X0297752Y0356998D01*
X0297119Y0356364D01*
X0295851Y0356364D01*
X0295217Y0356998D01*
X0295217Y0359533D01*
X0303504Y0358899D02*
X0305406Y0358899D01*
X0306039Y0358265D01*
X0306039Y0356998D01*
X0305406Y0356364D01*
X0303504Y0356364D01*
X0307534Y0356364D02*
X0308802Y0356364D01*
X0308168Y0356364D02*
X0308168Y0358899D01*
X0308802Y0358899D01*
X0308168Y0360167D02*
X0308168Y0360801D01*
X0310930Y0360801D02*
X0310930Y0360167D01*
X0310930Y0358899D02*
X0310930Y0356364D01*
X0311564Y0356364D02*
X0310296Y0356364D01*
X0310930Y0358899D02*
X0311564Y0358899D01*
X0313172Y0358899D02*
X0313172Y0356998D01*
X0313806Y0356364D01*
X0314440Y0356998D01*
X0315074Y0356364D01*
X0315708Y0356998D01*
X0315708Y0358899D01*
X0317316Y0359533D02*
X0317316Y0356998D01*
X0317950Y0356364D01*
X0319217Y0356364D01*
X0319851Y0356998D01*
X0319851Y0359533D01*
X0319217Y0360167D01*
X0317950Y0360167D01*
X0317316Y0359533D01*
X0318584Y0357632D02*
X0317316Y0356364D01*
D11*
X0313650Y0366264D02*
X0312649Y0366264D01*
X0312148Y0366764D01*
X0312148Y0367765D01*
X0313149Y0367765D01*
X0312148Y0368766D02*
X0312649Y0369266D01*
X0313650Y0369266D01*
X0314150Y0368766D01*
X0314150Y0366764D01*
X0313650Y0366264D01*
X0310927Y0366264D02*
X0310927Y0369266D01*
X0308926Y0366264D01*
X0308926Y0369266D01*
X0307705Y0369266D02*
X0307705Y0366264D01*
X0306203Y0366264D01*
X0305703Y0366764D01*
X0305703Y0368766D01*
X0306203Y0369266D01*
X0307705Y0369266D01*
X0307004Y0376164D02*
X0307505Y0376664D01*
X0307004Y0376164D02*
X0306003Y0376164D01*
X0305503Y0376664D01*
X0305503Y0377165D01*
X0306003Y0377665D01*
X0306504Y0377665D01*
X0306003Y0377665D02*
X0305503Y0378165D01*
X0305503Y0378666D01*
X0306003Y0379166D01*
X0307004Y0379166D01*
X0307505Y0378666D01*
X0308726Y0379166D02*
X0308726Y0377165D01*
X0309726Y0376164D01*
X0310727Y0377165D01*
X0310727Y0379166D01*
X0311948Y0378666D02*
X0311948Y0378165D01*
X0312449Y0377665D01*
X0311948Y0377165D01*
X0311948Y0376664D01*
X0312449Y0376164D01*
X0313450Y0376164D01*
X0313950Y0376664D01*
X0312949Y0377665D02*
X0312449Y0377665D01*
X0311948Y0378666D02*
X0312449Y0379166D01*
X0313450Y0379166D01*
X0313950Y0378666D01*
X0313150Y0386164D02*
X0313650Y0386664D01*
X0313150Y0386164D02*
X0312149Y0386164D01*
X0311648Y0386664D01*
X0311648Y0387165D01*
X0312149Y0387665D01*
X0313150Y0387665D01*
X0313650Y0388165D01*
X0313650Y0388666D01*
X0313150Y0389166D01*
X0312149Y0389166D01*
X0311648Y0388666D01*
X0310427Y0389166D02*
X0310427Y0386164D01*
X0308926Y0386164D01*
X0308426Y0386664D01*
X0308426Y0388666D01*
X0308926Y0389166D01*
X0310427Y0389166D01*
X0307205Y0388165D02*
X0307205Y0386164D01*
X0307205Y0387665D02*
X0305203Y0387665D01*
X0305203Y0388165D02*
X0305203Y0386164D01*
X0305203Y0388165D02*
X0306204Y0389166D01*
X0307205Y0388165D01*
X0307205Y0396164D02*
X0305203Y0396164D01*
X0307205Y0396164D02*
X0307205Y0399166D01*
X0308426Y0398666D02*
X0308926Y0399166D01*
X0309927Y0399166D01*
X0310427Y0398666D01*
X0310427Y0396664D01*
X0309927Y0396164D01*
X0308926Y0396164D01*
X0308426Y0396664D01*
X0311648Y0396664D02*
X0312149Y0396164D01*
X0313150Y0396164D01*
X0313650Y0396664D01*
X0313150Y0397665D02*
X0312149Y0397665D01*
X0311648Y0397165D01*
X0311648Y0396664D01*
X0313150Y0397665D02*
X0313650Y0398165D01*
X0313650Y0398666D01*
X0313150Y0399166D01*
X0312149Y0399166D01*
X0311648Y0398666D01*
X0312149Y0318389D02*
X0313150Y0318389D01*
X0313650Y0317889D01*
X0313650Y0317388D01*
X0313150Y0316888D01*
X0312149Y0316888D01*
X0311648Y0316387D01*
X0311648Y0315887D01*
X0312149Y0315387D01*
X0313150Y0315387D01*
X0313650Y0315887D01*
X0311648Y0317889D02*
X0312149Y0318389D01*
X0310427Y0317889D02*
X0310427Y0315887D01*
X0309927Y0315387D01*
X0308926Y0315387D01*
X0308426Y0315887D01*
X0307205Y0315387D02*
X0305203Y0315387D01*
X0307205Y0315387D02*
X0307205Y0318389D01*
X0308426Y0317889D02*
X0308926Y0318389D01*
X0309927Y0318389D01*
X0310427Y0317889D01*
X0310427Y0308389D02*
X0308926Y0308389D01*
X0308426Y0307889D01*
X0308426Y0305887D01*
X0308926Y0305387D01*
X0310427Y0305387D01*
X0310427Y0308389D01*
X0311648Y0307889D02*
X0312149Y0308389D01*
X0313150Y0308389D01*
X0313650Y0307889D01*
X0313650Y0307388D01*
X0313150Y0306888D01*
X0312149Y0306888D01*
X0311648Y0306387D01*
X0311648Y0305887D01*
X0312149Y0305387D01*
X0313150Y0305387D01*
X0313650Y0305887D01*
X0307205Y0305387D02*
X0307205Y0307388D01*
X0306204Y0308389D01*
X0305203Y0307388D01*
X0305203Y0305387D01*
X0305203Y0306888D02*
X0307205Y0306888D01*
X0307004Y0298389D02*
X0306003Y0298389D01*
X0305503Y0297889D01*
X0305503Y0297388D01*
X0306003Y0296888D01*
X0305503Y0296387D01*
X0305503Y0295887D01*
X0306003Y0295387D01*
X0307004Y0295387D01*
X0307505Y0295887D01*
X0308726Y0296387D02*
X0308726Y0298389D01*
X0307505Y0297889D02*
X0307004Y0298389D01*
X0306504Y0296888D02*
X0306003Y0296888D01*
X0308726Y0296387D02*
X0309726Y0295387D01*
X0310727Y0296387D01*
X0310727Y0298389D01*
X0311948Y0297889D02*
X0311948Y0297388D01*
X0312449Y0296888D01*
X0311948Y0296387D01*
X0311948Y0295887D01*
X0312449Y0295387D01*
X0313450Y0295387D01*
X0313950Y0295887D01*
X0312949Y0296888D02*
X0312449Y0296888D01*
X0311948Y0297889D02*
X0312449Y0298389D01*
X0313450Y0298389D01*
X0313950Y0297889D01*
X0313650Y0288489D02*
X0314150Y0287989D01*
X0314150Y0285987D01*
X0313650Y0285487D01*
X0312649Y0285487D01*
X0312148Y0285987D01*
X0312148Y0286988D01*
X0313149Y0286988D01*
X0312148Y0287989D02*
X0312649Y0288489D01*
X0313650Y0288489D01*
X0310927Y0288489D02*
X0308926Y0285487D01*
X0308926Y0288489D01*
X0307705Y0288489D02*
X0307705Y0285487D01*
X0306203Y0285487D01*
X0305703Y0285987D01*
X0305703Y0287989D01*
X0306203Y0288489D01*
X0307705Y0288489D01*
X0310927Y0288489D02*
X0310927Y0285487D01*
X0309927Y0237589D02*
X0310427Y0237089D01*
X0310427Y0235087D01*
X0309927Y0234587D01*
X0308926Y0234587D01*
X0308426Y0235087D01*
X0307205Y0234587D02*
X0305203Y0234587D01*
X0307205Y0234587D02*
X0307205Y0237589D01*
X0308426Y0237089D02*
X0308926Y0237589D01*
X0309927Y0237589D01*
X0311648Y0237089D02*
X0312149Y0237589D01*
X0313150Y0237589D01*
X0313650Y0237089D01*
X0313650Y0236588D01*
X0313150Y0236088D01*
X0312149Y0236088D01*
X0311648Y0235587D01*
X0311648Y0235087D01*
X0312149Y0234587D01*
X0313150Y0234587D01*
X0313650Y0235087D01*
X0313150Y0227589D02*
X0313650Y0227089D01*
X0313650Y0226588D01*
X0313150Y0226088D01*
X0312149Y0226088D01*
X0311648Y0225587D01*
X0311648Y0225087D01*
X0312149Y0224587D01*
X0313150Y0224587D01*
X0313650Y0225087D01*
X0313150Y0227589D02*
X0312149Y0227589D01*
X0311648Y0227089D01*
X0310427Y0227589D02*
X0310427Y0224587D01*
X0308926Y0224587D01*
X0308426Y0225087D01*
X0308426Y0227089D01*
X0308926Y0227589D01*
X0310427Y0227589D01*
X0307205Y0226588D02*
X0307205Y0224587D01*
X0307205Y0226088D02*
X0305203Y0226088D01*
X0305203Y0226588D02*
X0305203Y0224587D01*
X0305203Y0226588D02*
X0306204Y0227589D01*
X0307205Y0226588D01*
X0307004Y0217589D02*
X0306003Y0217589D01*
X0305503Y0217089D01*
X0305503Y0216588D01*
X0306003Y0216088D01*
X0305503Y0215587D01*
X0305503Y0215087D01*
X0306003Y0214587D01*
X0307004Y0214587D01*
X0307505Y0215087D01*
X0308726Y0215587D02*
X0308726Y0217589D01*
X0307505Y0217089D02*
X0307004Y0217589D01*
X0306504Y0216088D02*
X0306003Y0216088D01*
X0308726Y0215587D02*
X0309726Y0214587D01*
X0310727Y0215587D01*
X0310727Y0217589D01*
X0311948Y0217089D02*
X0311948Y0216588D01*
X0312449Y0216088D01*
X0311948Y0215587D01*
X0311948Y0215087D01*
X0312449Y0214587D01*
X0313450Y0214587D01*
X0313950Y0215087D01*
X0312949Y0216088D02*
X0312449Y0216088D01*
X0311948Y0217089D02*
X0312449Y0217589D01*
X0313450Y0217589D01*
X0313950Y0217089D01*
X0313650Y0207689D02*
X0314150Y0207189D01*
X0314150Y0205187D01*
X0313650Y0204687D01*
X0312649Y0204687D01*
X0312148Y0205187D01*
X0312148Y0206188D01*
X0313149Y0206188D01*
X0312148Y0207189D02*
X0312649Y0207689D01*
X0313650Y0207689D01*
X0310927Y0207689D02*
X0308926Y0204687D01*
X0308926Y0207689D01*
X0307705Y0207689D02*
X0307705Y0204687D01*
X0306203Y0204687D01*
X0305703Y0205187D01*
X0305703Y0207189D01*
X0306203Y0207689D01*
X0307705Y0207689D01*
X0310927Y0207689D02*
X0310927Y0204687D01*
X0309927Y0156789D02*
X0310427Y0156289D01*
X0310427Y0154287D01*
X0309927Y0153787D01*
X0308926Y0153787D01*
X0308426Y0154287D01*
X0307205Y0153787D02*
X0305203Y0153787D01*
X0307205Y0153787D02*
X0307205Y0156789D01*
X0308426Y0156289D02*
X0308926Y0156789D01*
X0309927Y0156789D01*
X0311648Y0156289D02*
X0312149Y0156789D01*
X0313150Y0156789D01*
X0313650Y0156289D01*
X0313650Y0155788D01*
X0313150Y0155288D01*
X0312149Y0155288D01*
X0311648Y0154787D01*
X0311648Y0154287D01*
X0312149Y0153787D01*
X0313150Y0153787D01*
X0313650Y0154287D01*
X0313150Y0146789D02*
X0313650Y0146289D01*
X0313650Y0145788D01*
X0313150Y0145288D01*
X0312149Y0145288D01*
X0311648Y0144787D01*
X0311648Y0144287D01*
X0312149Y0143787D01*
X0313150Y0143787D01*
X0313650Y0144287D01*
X0313150Y0146789D02*
X0312149Y0146789D01*
X0311648Y0146289D01*
X0310427Y0146789D02*
X0310427Y0143787D01*
X0308926Y0143787D01*
X0308426Y0144287D01*
X0308426Y0146289D01*
X0308926Y0146789D01*
X0310427Y0146789D01*
X0307205Y0145788D02*
X0307205Y0143787D01*
X0307205Y0145288D02*
X0305203Y0145288D01*
X0305203Y0145788D02*
X0305203Y0143787D01*
X0305203Y0145788D02*
X0306204Y0146789D01*
X0307205Y0145788D01*
X0307004Y0136789D02*
X0306003Y0136789D01*
X0305503Y0136289D01*
X0305503Y0135788D01*
X0306003Y0135288D01*
X0305503Y0134787D01*
X0305503Y0134287D01*
X0306003Y0133787D01*
X0307004Y0133787D01*
X0307505Y0134287D01*
X0308726Y0134787D02*
X0308726Y0136789D01*
X0307505Y0136289D02*
X0307004Y0136789D01*
X0306504Y0135288D02*
X0306003Y0135288D01*
X0308726Y0134787D02*
X0309726Y0133787D01*
X0310727Y0134787D01*
X0310727Y0136789D01*
X0311948Y0136289D02*
X0311948Y0135788D01*
X0312449Y0135288D01*
X0311948Y0134787D01*
X0311948Y0134287D01*
X0312449Y0133787D01*
X0313450Y0133787D01*
X0313950Y0134287D01*
X0312949Y0135288D02*
X0312449Y0135288D01*
X0311948Y0136289D02*
X0312449Y0136789D01*
X0313450Y0136789D01*
X0313950Y0136289D01*
X0313650Y0126889D02*
X0314150Y0126389D01*
X0314150Y0124387D01*
X0313650Y0123887D01*
X0312649Y0123887D01*
X0312148Y0124387D01*
X0312148Y0125388D01*
X0313149Y0125388D01*
X0312148Y0126389D02*
X0312649Y0126889D01*
X0313650Y0126889D01*
X0310927Y0126889D02*
X0308926Y0123887D01*
X0308926Y0126889D01*
X0307705Y0126889D02*
X0307705Y0123887D01*
X0306203Y0123887D01*
X0305703Y0124387D01*
X0305703Y0126389D01*
X0306203Y0126889D01*
X0307705Y0126889D01*
X0310927Y0126889D02*
X0310927Y0123887D01*
X0233350Y0124387D02*
X0232850Y0123887D01*
X0231849Y0123887D01*
X0231348Y0124387D01*
X0231348Y0125388D01*
X0232349Y0125388D01*
X0231348Y0126389D02*
X0231849Y0126889D01*
X0232850Y0126889D01*
X0233350Y0126389D01*
X0233350Y0124387D01*
X0230127Y0123887D02*
X0230127Y0126889D01*
X0228126Y0123887D01*
X0228126Y0126889D01*
X0226905Y0126889D02*
X0225403Y0126889D01*
X0224903Y0126389D01*
X0224903Y0124387D01*
X0225403Y0123887D01*
X0226905Y0123887D01*
X0226905Y0126889D01*
X0226204Y0133787D02*
X0225203Y0133787D01*
X0224703Y0134287D01*
X0224703Y0134787D01*
X0225203Y0135288D01*
X0225704Y0135288D01*
X0225203Y0135288D02*
X0224703Y0135788D01*
X0224703Y0136289D01*
X0225203Y0136789D01*
X0226204Y0136789D01*
X0226705Y0136289D01*
X0227926Y0136789D02*
X0227926Y0134787D01*
X0228926Y0133787D01*
X0229927Y0134787D01*
X0229927Y0136789D01*
X0231148Y0136289D02*
X0231148Y0135788D01*
X0231649Y0135288D01*
X0231148Y0134787D01*
X0231148Y0134287D01*
X0231649Y0133787D01*
X0232650Y0133787D01*
X0233150Y0134287D01*
X0232149Y0135288D02*
X0231649Y0135288D01*
X0231148Y0136289D02*
X0231649Y0136789D01*
X0232650Y0136789D01*
X0233150Y0136289D01*
X0226705Y0134287D02*
X0226204Y0133787D01*
X0226405Y0143787D02*
X0226405Y0145788D01*
X0225404Y0146789D01*
X0224403Y0145788D01*
X0224403Y0143787D01*
X0224403Y0145288D02*
X0226405Y0145288D01*
X0227626Y0144287D02*
X0227626Y0146289D01*
X0228126Y0146789D01*
X0229627Y0146789D01*
X0229627Y0143787D01*
X0228126Y0143787D01*
X0227626Y0144287D01*
X0230848Y0144287D02*
X0231349Y0143787D01*
X0232350Y0143787D01*
X0232850Y0144287D01*
X0232350Y0145288D02*
X0232850Y0145788D01*
X0232850Y0146289D01*
X0232350Y0146789D01*
X0231349Y0146789D01*
X0230848Y0146289D01*
X0231349Y0145288D02*
X0230848Y0144787D01*
X0230848Y0144287D01*
X0231349Y0145288D02*
X0232350Y0145288D01*
X0232350Y0153787D02*
X0232850Y0154287D01*
X0232350Y0153787D02*
X0231349Y0153787D01*
X0230848Y0154287D01*
X0230848Y0154787D01*
X0231349Y0155288D01*
X0232350Y0155288D01*
X0232850Y0155788D01*
X0232850Y0156289D01*
X0232350Y0156789D01*
X0231349Y0156789D01*
X0230848Y0156289D01*
X0229627Y0156289D02*
X0229627Y0154287D01*
X0229127Y0153787D01*
X0228126Y0153787D01*
X0227626Y0154287D01*
X0226405Y0153787D02*
X0224403Y0153787D01*
X0226405Y0153787D02*
X0226405Y0156789D01*
X0227626Y0156289D02*
X0228126Y0156789D01*
X0229127Y0156789D01*
X0229627Y0156289D01*
X0230127Y0204687D02*
X0230127Y0207689D01*
X0228126Y0204687D01*
X0228126Y0207689D01*
X0226905Y0207689D02*
X0225403Y0207689D01*
X0224903Y0207189D01*
X0224903Y0205187D01*
X0225403Y0204687D01*
X0226905Y0204687D01*
X0226905Y0207689D01*
X0231348Y0207189D02*
X0231849Y0207689D01*
X0232850Y0207689D01*
X0233350Y0207189D01*
X0233350Y0205187D01*
X0232850Y0204687D01*
X0231849Y0204687D01*
X0231348Y0205187D01*
X0231348Y0206188D01*
X0232349Y0206188D01*
X0232650Y0214587D02*
X0231649Y0214587D01*
X0231148Y0215087D01*
X0231148Y0215587D01*
X0231649Y0216088D01*
X0232149Y0216088D01*
X0231649Y0216088D02*
X0231148Y0216588D01*
X0231148Y0217089D01*
X0231649Y0217589D01*
X0232650Y0217589D01*
X0233150Y0217089D01*
X0233150Y0215087D02*
X0232650Y0214587D01*
X0229927Y0215587D02*
X0228926Y0214587D01*
X0227926Y0215587D01*
X0227926Y0217589D01*
X0226705Y0217089D02*
X0226204Y0217589D01*
X0225203Y0217589D01*
X0224703Y0217089D01*
X0224703Y0216588D01*
X0225203Y0216088D01*
X0224703Y0215587D01*
X0224703Y0215087D01*
X0225203Y0214587D01*
X0226204Y0214587D01*
X0226705Y0215087D01*
X0225704Y0216088D02*
X0225203Y0216088D01*
X0229927Y0215587D02*
X0229927Y0217589D01*
X0229627Y0224587D02*
X0228126Y0224587D01*
X0227626Y0225087D01*
X0227626Y0227089D01*
X0228126Y0227589D01*
X0229627Y0227589D01*
X0229627Y0224587D01*
X0230848Y0225087D02*
X0231349Y0224587D01*
X0232350Y0224587D01*
X0232850Y0225087D01*
X0232350Y0226088D02*
X0232850Y0226588D01*
X0232850Y0227089D01*
X0232350Y0227589D01*
X0231349Y0227589D01*
X0230848Y0227089D01*
X0231349Y0226088D02*
X0230848Y0225587D01*
X0230848Y0225087D01*
X0231349Y0226088D02*
X0232350Y0226088D01*
X0226405Y0226088D02*
X0224403Y0226088D01*
X0224403Y0226588D02*
X0224403Y0224587D01*
X0224403Y0226588D02*
X0225404Y0227589D01*
X0226405Y0226588D01*
X0226405Y0224587D01*
X0226405Y0234587D02*
X0224403Y0234587D01*
X0226405Y0234587D02*
X0226405Y0237589D01*
X0227626Y0237089D02*
X0228126Y0237589D01*
X0229127Y0237589D01*
X0229627Y0237089D01*
X0229627Y0235087D01*
X0229127Y0234587D01*
X0228126Y0234587D01*
X0227626Y0235087D01*
X0230848Y0235087D02*
X0231349Y0234587D01*
X0232350Y0234587D01*
X0232850Y0235087D01*
X0232350Y0236088D02*
X0232850Y0236588D01*
X0232850Y0237089D01*
X0232350Y0237589D01*
X0231349Y0237589D01*
X0230848Y0237089D01*
X0231349Y0236088D02*
X0230848Y0235587D01*
X0230848Y0235087D01*
X0231349Y0236088D02*
X0232350Y0236088D01*
X0232850Y0285487D02*
X0231849Y0285487D01*
X0231348Y0285987D01*
X0231348Y0286988D01*
X0232349Y0286988D01*
X0231348Y0287989D02*
X0231849Y0288489D01*
X0232850Y0288489D01*
X0233350Y0287989D01*
X0233350Y0285987D01*
X0232850Y0285487D01*
X0230127Y0285487D02*
X0230127Y0288489D01*
X0228126Y0285487D01*
X0228126Y0288489D01*
X0226905Y0288489D02*
X0225403Y0288489D01*
X0224903Y0287989D01*
X0224903Y0285987D01*
X0225403Y0285487D01*
X0226905Y0285487D01*
X0226905Y0288489D01*
X0226204Y0295387D02*
X0225203Y0295387D01*
X0224703Y0295887D01*
X0224703Y0296387D01*
X0225203Y0296888D01*
X0225704Y0296888D01*
X0225203Y0296888D02*
X0224703Y0297388D01*
X0224703Y0297889D01*
X0225203Y0298389D01*
X0226204Y0298389D01*
X0226705Y0297889D01*
X0227926Y0298389D02*
X0227926Y0296387D01*
X0228926Y0295387D01*
X0229927Y0296387D01*
X0229927Y0298389D01*
X0231148Y0297889D02*
X0231148Y0297388D01*
X0231649Y0296888D01*
X0231148Y0296387D01*
X0231148Y0295887D01*
X0231649Y0295387D01*
X0232650Y0295387D01*
X0233150Y0295887D01*
X0232149Y0296888D02*
X0231649Y0296888D01*
X0231148Y0297889D02*
X0231649Y0298389D01*
X0232650Y0298389D01*
X0233150Y0297889D01*
X0226705Y0295887D02*
X0226204Y0295387D01*
X0226405Y0305387D02*
X0226405Y0307388D01*
X0225404Y0308389D01*
X0224403Y0307388D01*
X0224403Y0305387D01*
X0224403Y0306888D02*
X0226405Y0306888D01*
X0227626Y0305887D02*
X0227626Y0307889D01*
X0228126Y0308389D01*
X0229627Y0308389D01*
X0229627Y0305387D01*
X0228126Y0305387D01*
X0227626Y0305887D01*
X0230848Y0305887D02*
X0231349Y0305387D01*
X0232350Y0305387D01*
X0232850Y0305887D01*
X0232350Y0306888D02*
X0232850Y0307388D01*
X0232850Y0307889D01*
X0232350Y0308389D01*
X0231349Y0308389D01*
X0230848Y0307889D01*
X0231349Y0306888D02*
X0230848Y0306387D01*
X0230848Y0305887D01*
X0231349Y0306888D02*
X0232350Y0306888D01*
X0232350Y0315387D02*
X0232850Y0315887D01*
X0232350Y0315387D02*
X0231349Y0315387D01*
X0230848Y0315887D01*
X0230848Y0316387D01*
X0231349Y0316888D01*
X0232350Y0316888D01*
X0232850Y0317388D01*
X0232850Y0317889D01*
X0232350Y0318389D01*
X0231349Y0318389D01*
X0230848Y0317889D01*
X0229627Y0317889D02*
X0229627Y0315887D01*
X0229127Y0315387D01*
X0228126Y0315387D01*
X0227626Y0315887D01*
X0226405Y0315387D02*
X0224403Y0315387D01*
X0226405Y0315387D02*
X0226405Y0318389D01*
X0227626Y0317889D02*
X0228126Y0318389D01*
X0229127Y0318389D01*
X0229627Y0317889D01*
X0230127Y0366264D02*
X0230127Y0369266D01*
X0228126Y0366264D01*
X0228126Y0369266D01*
X0226905Y0369266D02*
X0225403Y0369266D01*
X0224903Y0368766D01*
X0224903Y0366764D01*
X0225403Y0366264D01*
X0226905Y0366264D01*
X0226905Y0369266D01*
X0231348Y0368766D02*
X0231849Y0369266D01*
X0232850Y0369266D01*
X0233350Y0368766D01*
X0233350Y0366764D01*
X0232850Y0366264D01*
X0231849Y0366264D01*
X0231348Y0366764D01*
X0231348Y0367765D01*
X0232349Y0367765D01*
X0232650Y0376164D02*
X0231649Y0376164D01*
X0231148Y0376664D01*
X0231148Y0377165D01*
X0231649Y0377665D01*
X0232149Y0377665D01*
X0231649Y0377665D02*
X0231148Y0378165D01*
X0231148Y0378666D01*
X0231649Y0379166D01*
X0232650Y0379166D01*
X0233150Y0378666D01*
X0233150Y0376664D02*
X0232650Y0376164D01*
X0229927Y0377165D02*
X0228926Y0376164D01*
X0227926Y0377165D01*
X0227926Y0379166D01*
X0226705Y0378666D02*
X0226204Y0379166D01*
X0225203Y0379166D01*
X0224703Y0378666D01*
X0224703Y0378165D01*
X0225203Y0377665D01*
X0224703Y0377165D01*
X0224703Y0376664D01*
X0225203Y0376164D01*
X0226204Y0376164D01*
X0226705Y0376664D01*
X0225704Y0377665D02*
X0225203Y0377665D01*
X0229927Y0377165D02*
X0229927Y0379166D01*
X0229627Y0386164D02*
X0228126Y0386164D01*
X0227626Y0386664D01*
X0227626Y0388666D01*
X0228126Y0389166D01*
X0229627Y0389166D01*
X0229627Y0386164D01*
X0230848Y0386664D02*
X0231349Y0386164D01*
X0232350Y0386164D01*
X0232850Y0386664D01*
X0232350Y0387665D02*
X0232850Y0388165D01*
X0232850Y0388666D01*
X0232350Y0389166D01*
X0231349Y0389166D01*
X0230848Y0388666D01*
X0231349Y0387665D02*
X0230848Y0387165D01*
X0230848Y0386664D01*
X0231349Y0387665D02*
X0232350Y0387665D01*
X0226405Y0387665D02*
X0224403Y0387665D01*
X0224403Y0388165D02*
X0224403Y0386164D01*
X0224403Y0388165D02*
X0225404Y0389166D01*
X0226405Y0388165D01*
X0226405Y0386164D01*
X0226405Y0396164D02*
X0224403Y0396164D01*
X0226405Y0396164D02*
X0226405Y0399166D01*
X0227626Y0398666D02*
X0228126Y0399166D01*
X0229127Y0399166D01*
X0229627Y0398666D01*
X0229627Y0396664D01*
X0229127Y0396164D01*
X0228126Y0396164D01*
X0227626Y0396664D01*
X0230848Y0396664D02*
X0231349Y0396164D01*
X0232350Y0396164D01*
X0232850Y0396664D01*
X0232350Y0397665D02*
X0232850Y0398165D01*
X0232850Y0398666D01*
X0232350Y0399166D01*
X0231349Y0399166D01*
X0230848Y0398666D01*
X0231349Y0397665D02*
X0230848Y0397165D01*
X0230848Y0396664D01*
X0231349Y0397665D02*
X0232350Y0397665D01*
X0152050Y0398165D02*
X0151550Y0397665D01*
X0150549Y0397665D01*
X0150048Y0397165D01*
X0150048Y0396664D01*
X0150549Y0396164D01*
X0151550Y0396164D01*
X0152050Y0396664D01*
X0152050Y0398165D02*
X0152050Y0398666D01*
X0151550Y0399166D01*
X0150549Y0399166D01*
X0150048Y0398666D01*
X0148827Y0398666D02*
X0148827Y0396664D01*
X0148327Y0396164D01*
X0147326Y0396164D01*
X0146826Y0396664D01*
X0145605Y0396164D02*
X0143603Y0396164D01*
X0145605Y0396164D02*
X0145605Y0399166D01*
X0146826Y0398666D02*
X0147326Y0399166D01*
X0148327Y0399166D01*
X0148827Y0398666D01*
X0148827Y0389166D02*
X0147326Y0389166D01*
X0146826Y0388666D01*
X0146826Y0386664D01*
X0147326Y0386164D01*
X0148827Y0386164D01*
X0148827Y0389166D01*
X0150048Y0388666D02*
X0150549Y0389166D01*
X0151550Y0389166D01*
X0152050Y0388666D01*
X0152050Y0388165D01*
X0151550Y0387665D01*
X0150549Y0387665D01*
X0150048Y0387165D01*
X0150048Y0386664D01*
X0150549Y0386164D01*
X0151550Y0386164D01*
X0152050Y0386664D01*
X0145605Y0386164D02*
X0145605Y0388165D01*
X0144604Y0389166D01*
X0143603Y0388165D01*
X0143603Y0386164D01*
X0143603Y0387665D02*
X0145605Y0387665D01*
X0145404Y0379166D02*
X0144403Y0379166D01*
X0143903Y0378666D01*
X0143903Y0378165D01*
X0144403Y0377665D01*
X0143903Y0377165D01*
X0143903Y0376664D01*
X0144403Y0376164D01*
X0145404Y0376164D01*
X0145905Y0376664D01*
X0147126Y0377165D02*
X0147126Y0379166D01*
X0145905Y0378666D02*
X0145404Y0379166D01*
X0144904Y0377665D02*
X0144403Y0377665D01*
X0147126Y0377165D02*
X0148126Y0376164D01*
X0149127Y0377165D01*
X0149127Y0379166D01*
X0150348Y0378666D02*
X0150348Y0378165D01*
X0150849Y0377665D01*
X0150348Y0377165D01*
X0150348Y0376664D01*
X0150849Y0376164D01*
X0151850Y0376164D01*
X0152350Y0376664D01*
X0151349Y0377665D02*
X0150849Y0377665D01*
X0150348Y0378666D02*
X0150849Y0379166D01*
X0151850Y0379166D01*
X0152350Y0378666D01*
X0152050Y0369266D02*
X0152550Y0368766D01*
X0152550Y0366764D01*
X0152050Y0366264D01*
X0151049Y0366264D01*
X0150548Y0366764D01*
X0150548Y0367765D01*
X0151549Y0367765D01*
X0150548Y0368766D02*
X0151049Y0369266D01*
X0152050Y0369266D01*
X0149327Y0369266D02*
X0149327Y0366264D01*
X0147326Y0366264D02*
X0147326Y0369266D01*
X0146105Y0369266D02*
X0144603Y0369266D01*
X0144103Y0368766D01*
X0144103Y0366764D01*
X0144603Y0366264D01*
X0146105Y0366264D01*
X0146105Y0369266D01*
X0149327Y0369266D02*
X0147326Y0366264D01*
X0147326Y0318389D02*
X0148327Y0318389D01*
X0148827Y0317889D01*
X0148827Y0315887D01*
X0148327Y0315387D01*
X0147326Y0315387D01*
X0146826Y0315887D01*
X0145605Y0315387D02*
X0143603Y0315387D01*
X0145605Y0315387D02*
X0145605Y0318389D01*
X0146826Y0317889D02*
X0147326Y0318389D01*
X0150048Y0317889D02*
X0150549Y0318389D01*
X0151550Y0318389D01*
X0152050Y0317889D01*
X0152050Y0317388D01*
X0151550Y0316888D01*
X0150549Y0316888D01*
X0150048Y0316387D01*
X0150048Y0315887D01*
X0150549Y0315387D01*
X0151550Y0315387D01*
X0152050Y0315887D01*
X0151550Y0308389D02*
X0150549Y0308389D01*
X0150048Y0307889D01*
X0150549Y0306888D02*
X0150048Y0306387D01*
X0150048Y0305887D01*
X0150549Y0305387D01*
X0151550Y0305387D01*
X0152050Y0305887D01*
X0151550Y0306888D02*
X0150549Y0306888D01*
X0151550Y0306888D02*
X0152050Y0307388D01*
X0152050Y0307889D01*
X0151550Y0308389D01*
X0148827Y0308389D02*
X0148827Y0305387D01*
X0147326Y0305387D01*
X0146826Y0305887D01*
X0146826Y0307889D01*
X0147326Y0308389D01*
X0148827Y0308389D01*
X0145605Y0307388D02*
X0145605Y0305387D01*
X0145605Y0306888D02*
X0143603Y0306888D01*
X0143603Y0307388D02*
X0143603Y0305387D01*
X0143603Y0307388D02*
X0144604Y0308389D01*
X0145605Y0307388D01*
X0145404Y0298389D02*
X0144403Y0298389D01*
X0143903Y0297889D01*
X0143903Y0297388D01*
X0144403Y0296888D01*
X0143903Y0296387D01*
X0143903Y0295887D01*
X0144403Y0295387D01*
X0145404Y0295387D01*
X0145905Y0295887D01*
X0147126Y0296387D02*
X0147126Y0298389D01*
X0145905Y0297889D02*
X0145404Y0298389D01*
X0144904Y0296888D02*
X0144403Y0296888D01*
X0147126Y0296387D02*
X0148126Y0295387D01*
X0149127Y0296387D01*
X0149127Y0298389D01*
X0150348Y0297889D02*
X0150348Y0297388D01*
X0150849Y0296888D01*
X0150348Y0296387D01*
X0150348Y0295887D01*
X0150849Y0295387D01*
X0151850Y0295387D01*
X0152350Y0295887D01*
X0151349Y0296888D02*
X0150849Y0296888D01*
X0150348Y0297889D02*
X0150849Y0298389D01*
X0151850Y0298389D01*
X0152350Y0297889D01*
X0152050Y0288489D02*
X0152550Y0287989D01*
X0152550Y0285987D01*
X0152050Y0285487D01*
X0151049Y0285487D01*
X0150548Y0285987D01*
X0150548Y0286988D01*
X0151549Y0286988D01*
X0150548Y0287989D02*
X0151049Y0288489D01*
X0152050Y0288489D01*
X0149327Y0288489D02*
X0149327Y0285487D01*
X0147326Y0285487D02*
X0147326Y0288489D01*
X0146105Y0288489D02*
X0144603Y0288489D01*
X0144103Y0287989D01*
X0144103Y0285987D01*
X0144603Y0285487D01*
X0146105Y0285487D01*
X0146105Y0288489D01*
X0149327Y0288489D02*
X0147326Y0285487D01*
X0147326Y0237589D02*
X0148327Y0237589D01*
X0148827Y0237089D01*
X0148827Y0235087D01*
X0148327Y0234587D01*
X0147326Y0234587D01*
X0146826Y0235087D01*
X0145605Y0234587D02*
X0143603Y0234587D01*
X0145605Y0234587D02*
X0145605Y0237589D01*
X0146826Y0237089D02*
X0147326Y0237589D01*
X0150048Y0237089D02*
X0150549Y0237589D01*
X0151550Y0237589D01*
X0152050Y0237089D01*
X0152050Y0236588D01*
X0151550Y0236088D01*
X0150549Y0236088D01*
X0150048Y0235587D01*
X0150048Y0235087D01*
X0150549Y0234587D01*
X0151550Y0234587D01*
X0152050Y0235087D01*
X0151550Y0227589D02*
X0150549Y0227589D01*
X0150048Y0227089D01*
X0150549Y0226088D02*
X0150048Y0225587D01*
X0150048Y0225087D01*
X0150549Y0224587D01*
X0151550Y0224587D01*
X0152050Y0225087D01*
X0151550Y0226088D02*
X0150549Y0226088D01*
X0151550Y0226088D02*
X0152050Y0226588D01*
X0152050Y0227089D01*
X0151550Y0227589D01*
X0148827Y0227589D02*
X0148827Y0224587D01*
X0147326Y0224587D01*
X0146826Y0225087D01*
X0146826Y0227089D01*
X0147326Y0227589D01*
X0148827Y0227589D01*
X0145605Y0226588D02*
X0145605Y0224587D01*
X0145605Y0226088D02*
X0143603Y0226088D01*
X0143603Y0226588D02*
X0143603Y0224587D01*
X0143603Y0226588D02*
X0144604Y0227589D01*
X0145605Y0226588D01*
X0145404Y0217589D02*
X0144403Y0217589D01*
X0143903Y0217089D01*
X0143903Y0216588D01*
X0144403Y0216088D01*
X0143903Y0215587D01*
X0143903Y0215087D01*
X0144403Y0214587D01*
X0145404Y0214587D01*
X0145905Y0215087D01*
X0147126Y0215587D02*
X0147126Y0217589D01*
X0145905Y0217089D02*
X0145404Y0217589D01*
X0144904Y0216088D02*
X0144403Y0216088D01*
X0147126Y0215587D02*
X0148126Y0214587D01*
X0149127Y0215587D01*
X0149127Y0217589D01*
X0150348Y0217089D02*
X0150348Y0216588D01*
X0150849Y0216088D01*
X0150348Y0215587D01*
X0150348Y0215087D01*
X0150849Y0214587D01*
X0151850Y0214587D01*
X0152350Y0215087D01*
X0151349Y0216088D02*
X0150849Y0216088D01*
X0150348Y0217089D02*
X0150849Y0217589D01*
X0151850Y0217589D01*
X0152350Y0217089D01*
X0152050Y0207689D02*
X0152550Y0207189D01*
X0152550Y0205187D01*
X0152050Y0204687D01*
X0151049Y0204687D01*
X0150548Y0205187D01*
X0150548Y0206188D01*
X0151549Y0206188D01*
X0150548Y0207189D02*
X0151049Y0207689D01*
X0152050Y0207689D01*
X0149327Y0207689D02*
X0149327Y0204687D01*
X0147326Y0204687D02*
X0147326Y0207689D01*
X0146105Y0207689D02*
X0144603Y0207689D01*
X0144103Y0207189D01*
X0144103Y0205187D01*
X0144603Y0204687D01*
X0146105Y0204687D01*
X0146105Y0207689D01*
X0149327Y0207689D02*
X0147326Y0204687D01*
X0147326Y0156789D02*
X0148327Y0156789D01*
X0148827Y0156289D01*
X0148827Y0154287D01*
X0148327Y0153787D01*
X0147326Y0153787D01*
X0146826Y0154287D01*
X0145605Y0153787D02*
X0143603Y0153787D01*
X0145605Y0153787D02*
X0145605Y0156789D01*
X0146826Y0156289D02*
X0147326Y0156789D01*
X0150048Y0156289D02*
X0150549Y0156789D01*
X0151550Y0156789D01*
X0152050Y0156289D01*
X0152050Y0155788D01*
X0151550Y0155288D01*
X0150549Y0155288D01*
X0150048Y0154787D01*
X0150048Y0154287D01*
X0150549Y0153787D01*
X0151550Y0153787D01*
X0152050Y0154287D01*
X0151550Y0146789D02*
X0150549Y0146789D01*
X0150048Y0146289D01*
X0150549Y0145288D02*
X0150048Y0144787D01*
X0150048Y0144287D01*
X0150549Y0143787D01*
X0151550Y0143787D01*
X0152050Y0144287D01*
X0151550Y0145288D02*
X0150549Y0145288D01*
X0151550Y0145288D02*
X0152050Y0145788D01*
X0152050Y0146289D01*
X0151550Y0146789D01*
X0148827Y0146789D02*
X0148827Y0143787D01*
X0147326Y0143787D01*
X0146826Y0144287D01*
X0146826Y0146289D01*
X0147326Y0146789D01*
X0148827Y0146789D01*
X0145605Y0145788D02*
X0145605Y0143787D01*
X0145605Y0145288D02*
X0143603Y0145288D01*
X0143603Y0145788D02*
X0143603Y0143787D01*
X0143603Y0145788D02*
X0144604Y0146789D01*
X0145605Y0145788D01*
X0145404Y0136789D02*
X0144403Y0136789D01*
X0143903Y0136289D01*
X0143903Y0135788D01*
X0144403Y0135288D01*
X0143903Y0134787D01*
X0143903Y0134287D01*
X0144403Y0133787D01*
X0145404Y0133787D01*
X0145905Y0134287D01*
X0147126Y0134787D02*
X0147126Y0136789D01*
X0145905Y0136289D02*
X0145404Y0136789D01*
X0144904Y0135288D02*
X0144403Y0135288D01*
X0147126Y0134787D02*
X0148126Y0133787D01*
X0149127Y0134787D01*
X0149127Y0136789D01*
X0150348Y0136289D02*
X0150348Y0135788D01*
X0150849Y0135288D01*
X0150348Y0134787D01*
X0150348Y0134287D01*
X0150849Y0133787D01*
X0151850Y0133787D01*
X0152350Y0134287D01*
X0151349Y0135288D02*
X0150849Y0135288D01*
X0150348Y0136289D02*
X0150849Y0136789D01*
X0151850Y0136789D01*
X0152350Y0136289D01*
X0152050Y0126889D02*
X0152550Y0126389D01*
X0152550Y0124387D01*
X0152050Y0123887D01*
X0151049Y0123887D01*
X0150548Y0124387D01*
X0150548Y0125388D01*
X0151549Y0125388D01*
X0150548Y0126389D02*
X0151049Y0126889D01*
X0152050Y0126889D01*
X0149327Y0126889D02*
X0149327Y0123887D01*
X0147326Y0123887D02*
X0147326Y0126889D01*
X0146105Y0126889D02*
X0144603Y0126889D01*
X0144103Y0126389D01*
X0144103Y0124387D01*
X0144603Y0123887D01*
X0146105Y0123887D01*
X0146105Y0126889D01*
X0149327Y0126889D02*
X0147326Y0123887D01*
X0071750Y0124387D02*
X0071250Y0123887D01*
X0070249Y0123887D01*
X0069748Y0124387D01*
X0069748Y0125388D01*
X0070749Y0125388D01*
X0069748Y0126389D02*
X0070249Y0126889D01*
X0071250Y0126889D01*
X0071750Y0126389D01*
X0071750Y0124387D01*
X0068527Y0123887D02*
X0068527Y0126889D01*
X0066526Y0123887D01*
X0066526Y0126889D01*
X0065305Y0126889D02*
X0065305Y0123887D01*
X0063803Y0123887D01*
X0063303Y0124387D01*
X0063303Y0126389D01*
X0063803Y0126889D01*
X0065305Y0126889D01*
X0064604Y0133787D02*
X0065105Y0134287D01*
X0064604Y0133787D02*
X0063603Y0133787D01*
X0063103Y0134287D01*
X0063103Y0134787D01*
X0063603Y0135288D01*
X0064104Y0135288D01*
X0063603Y0135288D02*
X0063103Y0135788D01*
X0063103Y0136289D01*
X0063603Y0136789D01*
X0064604Y0136789D01*
X0065105Y0136289D01*
X0066326Y0136789D02*
X0066326Y0134787D01*
X0067326Y0133787D01*
X0068327Y0134787D01*
X0068327Y0136789D01*
X0069548Y0136289D02*
X0069548Y0135788D01*
X0070049Y0135288D01*
X0069548Y0134787D01*
X0069548Y0134287D01*
X0070049Y0133787D01*
X0071050Y0133787D01*
X0071550Y0134287D01*
X0070549Y0135288D02*
X0070049Y0135288D01*
X0069548Y0136289D02*
X0070049Y0136789D01*
X0071050Y0136789D01*
X0071550Y0136289D01*
X0070750Y0143787D02*
X0071250Y0144287D01*
X0070750Y0143787D02*
X0069749Y0143787D01*
X0069248Y0144287D01*
X0069248Y0144787D01*
X0069749Y0145288D01*
X0070750Y0145288D01*
X0071250Y0145788D01*
X0071250Y0146289D01*
X0070750Y0146789D01*
X0069749Y0146789D01*
X0069248Y0146289D01*
X0068027Y0146789D02*
X0068027Y0143787D01*
X0066526Y0143787D01*
X0066026Y0144287D01*
X0066026Y0146289D01*
X0066526Y0146789D01*
X0068027Y0146789D01*
X0064805Y0145788D02*
X0064805Y0143787D01*
X0064805Y0145288D02*
X0062803Y0145288D01*
X0062803Y0145788D02*
X0062803Y0143787D01*
X0062803Y0145788D02*
X0063804Y0146789D01*
X0064805Y0145788D01*
X0064805Y0153787D02*
X0062803Y0153787D01*
X0064805Y0153787D02*
X0064805Y0156789D01*
X0066026Y0156289D02*
X0066526Y0156789D01*
X0067527Y0156789D01*
X0068027Y0156289D01*
X0068027Y0154287D01*
X0067527Y0153787D01*
X0066526Y0153787D01*
X0066026Y0154287D01*
X0069248Y0154287D02*
X0069749Y0153787D01*
X0070750Y0153787D01*
X0071250Y0154287D01*
X0070750Y0155288D02*
X0069749Y0155288D01*
X0069248Y0154787D01*
X0069248Y0154287D01*
X0070750Y0155288D02*
X0071250Y0155788D01*
X0071250Y0156289D01*
X0070750Y0156789D01*
X0069749Y0156789D01*
X0069248Y0156289D01*
X0068527Y0204687D02*
X0068527Y0207689D01*
X0066526Y0204687D01*
X0066526Y0207689D01*
X0065305Y0207689D02*
X0065305Y0204687D01*
X0063803Y0204687D01*
X0063303Y0205187D01*
X0063303Y0207189D01*
X0063803Y0207689D01*
X0065305Y0207689D01*
X0069748Y0207189D02*
X0070249Y0207689D01*
X0071250Y0207689D01*
X0071750Y0207189D01*
X0071750Y0205187D01*
X0071250Y0204687D01*
X0070249Y0204687D01*
X0069748Y0205187D01*
X0069748Y0206188D01*
X0070749Y0206188D01*
X0071050Y0214587D02*
X0071550Y0215087D01*
X0071050Y0214587D02*
X0070049Y0214587D01*
X0069548Y0215087D01*
X0069548Y0215587D01*
X0070049Y0216088D01*
X0070549Y0216088D01*
X0070049Y0216088D02*
X0069548Y0216588D01*
X0069548Y0217089D01*
X0070049Y0217589D01*
X0071050Y0217589D01*
X0071550Y0217089D01*
X0068327Y0217589D02*
X0068327Y0215587D01*
X0067326Y0214587D01*
X0066326Y0215587D01*
X0066326Y0217589D01*
X0065105Y0217089D02*
X0064604Y0217589D01*
X0063603Y0217589D01*
X0063103Y0217089D01*
X0063103Y0216588D01*
X0063603Y0216088D01*
X0063103Y0215587D01*
X0063103Y0215087D01*
X0063603Y0214587D01*
X0064604Y0214587D01*
X0065105Y0215087D01*
X0064104Y0216088D02*
X0063603Y0216088D01*
X0062803Y0224587D02*
X0062803Y0226588D01*
X0063804Y0227589D01*
X0064805Y0226588D01*
X0064805Y0224587D01*
X0066026Y0225087D02*
X0066026Y0227089D01*
X0066526Y0227589D01*
X0068027Y0227589D01*
X0068027Y0224587D01*
X0066526Y0224587D01*
X0066026Y0225087D01*
X0064805Y0226088D02*
X0062803Y0226088D01*
X0069248Y0225587D02*
X0069248Y0225087D01*
X0069749Y0224587D01*
X0070750Y0224587D01*
X0071250Y0225087D01*
X0070750Y0226088D02*
X0069749Y0226088D01*
X0069248Y0225587D01*
X0069248Y0227089D02*
X0069749Y0227589D01*
X0070750Y0227589D01*
X0071250Y0227089D01*
X0071250Y0226588D01*
X0070750Y0226088D01*
X0070750Y0234587D02*
X0071250Y0235087D01*
X0070750Y0234587D02*
X0069749Y0234587D01*
X0069248Y0235087D01*
X0069248Y0235587D01*
X0069749Y0236088D01*
X0070750Y0236088D01*
X0071250Y0236588D01*
X0071250Y0237089D01*
X0070750Y0237589D01*
X0069749Y0237589D01*
X0069248Y0237089D01*
X0068027Y0237089D02*
X0068027Y0235087D01*
X0067527Y0234587D01*
X0066526Y0234587D01*
X0066026Y0235087D01*
X0064805Y0234587D02*
X0062803Y0234587D01*
X0064805Y0234587D02*
X0064805Y0237589D01*
X0066026Y0237089D02*
X0066526Y0237589D01*
X0067527Y0237589D01*
X0068027Y0237089D01*
X0068527Y0285487D02*
X0068527Y0288489D01*
X0066526Y0285487D01*
X0066526Y0288489D01*
X0065305Y0288489D02*
X0065305Y0285487D01*
X0063803Y0285487D01*
X0063303Y0285987D01*
X0063303Y0287989D01*
X0063803Y0288489D01*
X0065305Y0288489D01*
X0069748Y0287989D02*
X0070249Y0288489D01*
X0071250Y0288489D01*
X0071750Y0287989D01*
X0071750Y0285987D01*
X0071250Y0285487D01*
X0070249Y0285487D01*
X0069748Y0285987D01*
X0069748Y0286988D01*
X0070749Y0286988D01*
X0071050Y0295387D02*
X0071550Y0295887D01*
X0071050Y0295387D02*
X0070049Y0295387D01*
X0069548Y0295887D01*
X0069548Y0296387D01*
X0070049Y0296888D01*
X0070549Y0296888D01*
X0070049Y0296888D02*
X0069548Y0297388D01*
X0069548Y0297889D01*
X0070049Y0298389D01*
X0071050Y0298389D01*
X0071550Y0297889D01*
X0068327Y0298389D02*
X0068327Y0296387D01*
X0067326Y0295387D01*
X0066326Y0296387D01*
X0066326Y0298389D01*
X0065105Y0297889D02*
X0064604Y0298389D01*
X0063603Y0298389D01*
X0063103Y0297889D01*
X0063103Y0297388D01*
X0063603Y0296888D01*
X0063103Y0296387D01*
X0063103Y0295887D01*
X0063603Y0295387D01*
X0064604Y0295387D01*
X0065105Y0295887D01*
X0064104Y0296888D02*
X0063603Y0296888D01*
X0062803Y0305387D02*
X0062803Y0307388D01*
X0063804Y0308389D01*
X0064805Y0307388D01*
X0064805Y0305387D01*
X0066026Y0305887D02*
X0066026Y0307889D01*
X0066526Y0308389D01*
X0068027Y0308389D01*
X0068027Y0305387D01*
X0066526Y0305387D01*
X0066026Y0305887D01*
X0064805Y0306888D02*
X0062803Y0306888D01*
X0069248Y0306387D02*
X0069248Y0305887D01*
X0069749Y0305387D01*
X0070750Y0305387D01*
X0071250Y0305887D01*
X0070750Y0306888D02*
X0069749Y0306888D01*
X0069248Y0306387D01*
X0069248Y0307889D02*
X0069749Y0308389D01*
X0070750Y0308389D01*
X0071250Y0307889D01*
X0071250Y0307388D01*
X0070750Y0306888D01*
X0070750Y0315387D02*
X0071250Y0315887D01*
X0070750Y0315387D02*
X0069749Y0315387D01*
X0069248Y0315887D01*
X0069248Y0316387D01*
X0069749Y0316888D01*
X0070750Y0316888D01*
X0071250Y0317388D01*
X0071250Y0317889D01*
X0070750Y0318389D01*
X0069749Y0318389D01*
X0069248Y0317889D01*
X0068027Y0317889D02*
X0068027Y0315887D01*
X0067527Y0315387D01*
X0066526Y0315387D01*
X0066026Y0315887D01*
X0064805Y0315387D02*
X0062803Y0315387D01*
X0064805Y0315387D02*
X0064805Y0318389D01*
X0066026Y0317889D02*
X0066526Y0318389D01*
X0067527Y0318389D01*
X0068027Y0317889D01*
X0068527Y0366264D02*
X0068527Y0369266D01*
X0066526Y0366264D01*
X0066526Y0369266D01*
X0065305Y0369266D02*
X0065305Y0366264D01*
X0063803Y0366264D01*
X0063303Y0366764D01*
X0063303Y0368766D01*
X0063803Y0369266D01*
X0065305Y0369266D01*
X0069748Y0368766D02*
X0070249Y0369266D01*
X0071250Y0369266D01*
X0071750Y0368766D01*
X0071750Y0366764D01*
X0071250Y0366264D01*
X0070249Y0366264D01*
X0069748Y0366764D01*
X0069748Y0367765D01*
X0070749Y0367765D01*
X0071050Y0376164D02*
X0071550Y0376664D01*
X0071050Y0376164D02*
X0070049Y0376164D01*
X0069548Y0376664D01*
X0069548Y0377165D01*
X0070049Y0377665D01*
X0070549Y0377665D01*
X0070049Y0377665D02*
X0069548Y0378165D01*
X0069548Y0378666D01*
X0070049Y0379166D01*
X0071050Y0379166D01*
X0071550Y0378666D01*
X0068327Y0379166D02*
X0068327Y0377165D01*
X0067326Y0376164D01*
X0066326Y0377165D01*
X0066326Y0379166D01*
X0065105Y0378666D02*
X0064604Y0379166D01*
X0063603Y0379166D01*
X0063103Y0378666D01*
X0063103Y0378165D01*
X0063603Y0377665D01*
X0063103Y0377165D01*
X0063103Y0376664D01*
X0063603Y0376164D01*
X0064604Y0376164D01*
X0065105Y0376664D01*
X0064104Y0377665D02*
X0063603Y0377665D01*
X0062803Y0386164D02*
X0062803Y0388165D01*
X0063804Y0389166D01*
X0064805Y0388165D01*
X0064805Y0386164D01*
X0066026Y0386664D02*
X0066026Y0388666D01*
X0066526Y0389166D01*
X0068027Y0389166D01*
X0068027Y0386164D01*
X0066526Y0386164D01*
X0066026Y0386664D01*
X0064805Y0387665D02*
X0062803Y0387665D01*
X0069248Y0387165D02*
X0069248Y0386664D01*
X0069749Y0386164D01*
X0070750Y0386164D01*
X0071250Y0386664D01*
X0070750Y0387665D02*
X0069749Y0387665D01*
X0069248Y0387165D01*
X0069248Y0388666D02*
X0069749Y0389166D01*
X0070750Y0389166D01*
X0071250Y0388666D01*
X0071250Y0388165D01*
X0070750Y0387665D01*
X0070750Y0396164D02*
X0071250Y0396664D01*
X0070750Y0396164D02*
X0069749Y0396164D01*
X0069248Y0396664D01*
X0069248Y0397165D01*
X0069749Y0397665D01*
X0070750Y0397665D01*
X0071250Y0398165D01*
X0071250Y0398666D01*
X0070750Y0399166D01*
X0069749Y0399166D01*
X0069248Y0398666D01*
X0068027Y0398666D02*
X0068027Y0396664D01*
X0067527Y0396164D01*
X0066526Y0396164D01*
X0066026Y0396664D01*
X0064805Y0396164D02*
X0062803Y0396164D01*
X0064805Y0396164D02*
X0064805Y0399166D01*
X0066026Y0398666D02*
X0066526Y0399166D01*
X0067527Y0399166D01*
X0068027Y0398666D01*
M02*
