G75*
%MOIN*%
%OFA0B0*%
%FSLAX25Y25*%
%IPPOS*%
%LPD*%
%AMOC8*
5,1,8,0,0,1.08239X$1,22.5*
%
%ADD10R,0.04724X0.03150*%
%ADD11R,0.03937X0.04331*%
%ADD12R,0.07087X0.06299*%
%ADD13R,0.04724X0.07874*%
%ADD14R,0.02362X0.05315*%
%ADD15R,0.13000X0.08800*%
D10*
X0017500Y0109293D03*
X0017500Y0116380D03*
X0069000Y0116380D03*
X0069000Y0109293D03*
X0076500Y0109293D03*
X0076500Y0116380D03*
X0098300Y0116380D03*
X0098300Y0109293D03*
X0149800Y0109293D03*
X0149800Y0116380D03*
X0157300Y0116380D03*
X0157300Y0109293D03*
X0179100Y0109293D03*
X0179100Y0116380D03*
X0230600Y0116380D03*
X0230600Y0109293D03*
X0238100Y0109293D03*
X0238100Y0116380D03*
X0259900Y0116380D03*
X0259900Y0109293D03*
X0311400Y0109293D03*
X0311400Y0116380D03*
X0318900Y0116380D03*
X0318900Y0109293D03*
X0318900Y0190093D03*
X0318900Y0197180D03*
X0311400Y0197180D03*
X0311400Y0190093D03*
X0259900Y0190093D03*
X0259900Y0197180D03*
X0238100Y0197180D03*
X0238100Y0190093D03*
X0230600Y0190093D03*
X0230600Y0197180D03*
X0179100Y0197180D03*
X0179100Y0190093D03*
X0157300Y0190093D03*
X0157300Y0197180D03*
X0149800Y0197180D03*
X0149800Y0190093D03*
X0098300Y0190093D03*
X0098300Y0197180D03*
X0076500Y0197180D03*
X0076500Y0190093D03*
X0069000Y0190093D03*
X0069000Y0197180D03*
X0017500Y0197180D03*
X0017500Y0190093D03*
X0017500Y0270893D03*
X0017500Y0277980D03*
X0069000Y0277980D03*
X0069000Y0270893D03*
X0076500Y0270893D03*
X0076500Y0277980D03*
X0098300Y0277980D03*
X0098300Y0270893D03*
X0149800Y0270893D03*
X0149800Y0277980D03*
X0157300Y0277980D03*
X0157300Y0270893D03*
X0179100Y0270893D03*
X0179100Y0277980D03*
X0230600Y0277980D03*
X0230600Y0270893D03*
X0238100Y0270893D03*
X0238100Y0277980D03*
X0259900Y0277980D03*
X0259900Y0270893D03*
X0311400Y0270893D03*
X0311400Y0277980D03*
X0318900Y0277980D03*
X0318900Y0270893D03*
X0318900Y0351670D03*
X0318900Y0358757D03*
X0311400Y0358757D03*
X0311400Y0351670D03*
X0259900Y0351670D03*
X0259900Y0358757D03*
X0238100Y0358757D03*
X0238100Y0351670D03*
X0230600Y0351670D03*
X0230600Y0358757D03*
X0179100Y0358757D03*
X0179100Y0351670D03*
X0157300Y0351670D03*
X0157300Y0358757D03*
X0149800Y0358757D03*
X0149800Y0351670D03*
X0098300Y0351670D03*
X0098300Y0358757D03*
X0076500Y0358757D03*
X0076500Y0351670D03*
X0069000Y0351670D03*
X0069000Y0358757D03*
X0017500Y0358757D03*
X0017500Y0351670D03*
D11*
X0024000Y0351867D03*
X0024000Y0358560D03*
X0031500Y0358560D03*
X0031500Y0351867D03*
X0039000Y0351867D03*
X0039000Y0358560D03*
X0046500Y0358560D03*
X0046500Y0351867D03*
X0054000Y0351867D03*
X0054000Y0358560D03*
X0061500Y0358560D03*
X0061500Y0351867D03*
X0059000Y0381867D03*
X0059000Y0388560D03*
X0024000Y0388560D03*
X0024000Y0381867D03*
X0024000Y0307783D03*
X0024000Y0301090D03*
X0024000Y0277783D03*
X0024000Y0271090D03*
X0031500Y0271090D03*
X0031500Y0277783D03*
X0039000Y0277783D03*
X0039000Y0271090D03*
X0046500Y0271090D03*
X0046500Y0277783D03*
X0054000Y0277783D03*
X0054000Y0271090D03*
X0061500Y0271090D03*
X0061500Y0277783D03*
X0059000Y0301090D03*
X0059000Y0307783D03*
X0104800Y0307783D03*
X0104800Y0301090D03*
X0104800Y0277783D03*
X0104800Y0271090D03*
X0112300Y0271090D03*
X0112300Y0277783D03*
X0119800Y0277783D03*
X0119800Y0271090D03*
X0127300Y0271090D03*
X0127300Y0277783D03*
X0134800Y0277783D03*
X0134800Y0271090D03*
X0142300Y0271090D03*
X0142300Y0277783D03*
X0139800Y0301090D03*
X0139800Y0307783D03*
X0142300Y0351867D03*
X0142300Y0358560D03*
X0134800Y0358560D03*
X0134800Y0351867D03*
X0127300Y0351867D03*
X0127300Y0358560D03*
X0119800Y0358560D03*
X0119800Y0351867D03*
X0112300Y0351867D03*
X0112300Y0358560D03*
X0104800Y0358560D03*
X0104800Y0351867D03*
X0104800Y0381867D03*
X0104800Y0388560D03*
X0139800Y0388560D03*
X0139800Y0381867D03*
X0185600Y0381867D03*
X0185600Y0388560D03*
X0185600Y0358560D03*
X0185600Y0351867D03*
X0193100Y0351867D03*
X0193100Y0358560D03*
X0200600Y0358560D03*
X0200600Y0351867D03*
X0208100Y0351867D03*
X0208100Y0358560D03*
X0215600Y0358560D03*
X0215600Y0351867D03*
X0223100Y0351867D03*
X0223100Y0358560D03*
X0220600Y0381867D03*
X0220600Y0388560D03*
X0266400Y0388560D03*
X0266400Y0381867D03*
X0266400Y0358560D03*
X0266400Y0351867D03*
X0273900Y0351867D03*
X0273900Y0358560D03*
X0281400Y0358560D03*
X0281400Y0351867D03*
X0288900Y0351867D03*
X0288900Y0358560D03*
X0296400Y0358560D03*
X0296400Y0351867D03*
X0303900Y0351867D03*
X0303900Y0358560D03*
X0301400Y0381867D03*
X0301400Y0388560D03*
X0301400Y0307783D03*
X0301400Y0301090D03*
X0303900Y0277783D03*
X0303900Y0271090D03*
X0296400Y0271090D03*
X0296400Y0277783D03*
X0288900Y0277783D03*
X0288900Y0271090D03*
X0281400Y0271090D03*
X0281400Y0277783D03*
X0273900Y0277783D03*
X0273900Y0271090D03*
X0266400Y0271090D03*
X0266400Y0277783D03*
X0266400Y0301090D03*
X0266400Y0307783D03*
X0223100Y0277783D03*
X0223100Y0271090D03*
X0215600Y0271090D03*
X0215600Y0277783D03*
X0208100Y0277783D03*
X0208100Y0271090D03*
X0200600Y0271090D03*
X0200600Y0277783D03*
X0193100Y0277783D03*
X0193100Y0271090D03*
X0185600Y0271090D03*
X0185600Y0277783D03*
X0185600Y0301090D03*
X0185600Y0307783D03*
X0220600Y0307783D03*
X0220600Y0301090D03*
X0220600Y0226983D03*
X0220600Y0220290D03*
X0223100Y0196983D03*
X0223100Y0190290D03*
X0215600Y0190290D03*
X0215600Y0196983D03*
X0208100Y0196983D03*
X0208100Y0190290D03*
X0200600Y0190290D03*
X0200600Y0196983D03*
X0193100Y0196983D03*
X0193100Y0190290D03*
X0185600Y0190290D03*
X0185600Y0196983D03*
X0185600Y0220290D03*
X0185600Y0226983D03*
X0142300Y0196983D03*
X0142300Y0190290D03*
X0134800Y0190290D03*
X0134800Y0196983D03*
X0127300Y0196983D03*
X0127300Y0190290D03*
X0119800Y0190290D03*
X0119800Y0196983D03*
X0112300Y0196983D03*
X0112300Y0190290D03*
X0104800Y0190290D03*
X0104800Y0196983D03*
X0104800Y0220290D03*
X0104800Y0226983D03*
X0139800Y0226983D03*
X0139800Y0220290D03*
X0139800Y0146183D03*
X0139800Y0139490D03*
X0142300Y0116183D03*
X0142300Y0109490D03*
X0134800Y0109490D03*
X0134800Y0116183D03*
X0127300Y0116183D03*
X0127300Y0109490D03*
X0119800Y0109490D03*
X0119800Y0116183D03*
X0112300Y0116183D03*
X0112300Y0109490D03*
X0104800Y0109490D03*
X0104800Y0116183D03*
X0104800Y0139490D03*
X0104800Y0146183D03*
X0059000Y0146183D03*
X0059000Y0139490D03*
X0061500Y0116183D03*
X0061500Y0109490D03*
X0054000Y0109490D03*
X0054000Y0116183D03*
X0046500Y0116183D03*
X0046500Y0109490D03*
X0039000Y0109490D03*
X0039000Y0116183D03*
X0031500Y0116183D03*
X0031500Y0109490D03*
X0024000Y0109490D03*
X0024000Y0116183D03*
X0024000Y0139490D03*
X0024000Y0146183D03*
X0024000Y0190290D03*
X0024000Y0196983D03*
X0031500Y0196983D03*
X0031500Y0190290D03*
X0039000Y0190290D03*
X0039000Y0196983D03*
X0046500Y0196983D03*
X0046500Y0190290D03*
X0054000Y0190290D03*
X0054000Y0196983D03*
X0061500Y0196983D03*
X0061500Y0190290D03*
X0059000Y0220290D03*
X0059000Y0226983D03*
X0024000Y0226983D03*
X0024000Y0220290D03*
X0185600Y0146183D03*
X0185600Y0139490D03*
X0185600Y0116183D03*
X0185600Y0109490D03*
X0193100Y0109490D03*
X0193100Y0116183D03*
X0200600Y0116183D03*
X0200600Y0109490D03*
X0208100Y0109490D03*
X0208100Y0116183D03*
X0215600Y0116183D03*
X0215600Y0109490D03*
X0223100Y0109490D03*
X0223100Y0116183D03*
X0220600Y0139490D03*
X0220600Y0146183D03*
X0266400Y0146183D03*
X0266400Y0139490D03*
X0266400Y0116183D03*
X0266400Y0109490D03*
X0273900Y0109490D03*
X0273900Y0116183D03*
X0281400Y0116183D03*
X0281400Y0109490D03*
X0288900Y0109490D03*
X0288900Y0116183D03*
X0296400Y0116183D03*
X0296400Y0109490D03*
X0303900Y0109490D03*
X0303900Y0116183D03*
X0301400Y0139490D03*
X0301400Y0146183D03*
X0303900Y0190290D03*
X0303900Y0196983D03*
X0296400Y0196983D03*
X0296400Y0190290D03*
X0288900Y0190290D03*
X0288900Y0196983D03*
X0281400Y0196983D03*
X0281400Y0190290D03*
X0273900Y0190290D03*
X0273900Y0196983D03*
X0266400Y0196983D03*
X0266400Y0190290D03*
X0266400Y0220290D03*
X0266400Y0226983D03*
X0301400Y0226983D03*
X0301400Y0220290D03*
D12*
X0251400Y0199148D03*
X0251400Y0188125D03*
X0251400Y0118348D03*
X0251400Y0107325D03*
X0170600Y0107325D03*
X0170600Y0118348D03*
X0170600Y0188125D03*
X0170600Y0199148D03*
X0170600Y0268925D03*
X0170600Y0279948D03*
X0170600Y0349702D03*
X0170600Y0360726D03*
X0251400Y0360726D03*
X0251400Y0349702D03*
X0251400Y0279948D03*
X0251400Y0268925D03*
X0089800Y0268925D03*
X0089800Y0279948D03*
X0089800Y0349702D03*
X0089800Y0360726D03*
X0009000Y0360726D03*
X0009000Y0349702D03*
X0009000Y0279948D03*
X0009000Y0268925D03*
X0009000Y0199148D03*
X0009000Y0188125D03*
X0009000Y0118348D03*
X0009000Y0107325D03*
X0089800Y0107325D03*
X0089800Y0118348D03*
X0089800Y0188125D03*
X0089800Y0199148D03*
D13*
X0030476Y0085868D03*
X0052524Y0085868D03*
X0111276Y0085868D03*
X0133324Y0085868D03*
X0133324Y0154805D03*
X0133324Y0166668D03*
X0111276Y0166668D03*
X0111276Y0154805D03*
X0052524Y0154805D03*
X0052524Y0166668D03*
X0030476Y0166668D03*
X0030476Y0154805D03*
X0030476Y0235605D03*
X0030476Y0247468D03*
X0052524Y0247468D03*
X0052524Y0235605D03*
X0111276Y0235605D03*
X0111276Y0247468D03*
X0133324Y0247468D03*
X0133324Y0235605D03*
X0192076Y0235605D03*
X0192076Y0247468D03*
X0214124Y0247468D03*
X0214124Y0235605D03*
X0214124Y0166668D03*
X0214124Y0154805D03*
X0192076Y0154805D03*
X0192076Y0166668D03*
X0192076Y0085868D03*
X0214124Y0085868D03*
X0272876Y0085868D03*
X0294924Y0085868D03*
X0294924Y0154805D03*
X0294924Y0166668D03*
X0272876Y0166668D03*
X0272876Y0154805D03*
X0272876Y0235605D03*
X0272876Y0247468D03*
X0294924Y0247468D03*
X0294924Y0235605D03*
X0294924Y0316405D03*
X0294924Y0328245D03*
X0272876Y0328245D03*
X0272876Y0316405D03*
X0214124Y0316405D03*
X0214124Y0328245D03*
X0192076Y0328245D03*
X0192076Y0316405D03*
X0133324Y0316405D03*
X0133324Y0328245D03*
X0111276Y0328245D03*
X0111276Y0316405D03*
X0052524Y0316405D03*
X0052524Y0328245D03*
X0030476Y0328245D03*
X0030476Y0316405D03*
X0030476Y0397182D03*
X0052524Y0397182D03*
X0111276Y0397182D03*
X0133324Y0397182D03*
X0192076Y0397182D03*
X0214124Y0397182D03*
X0272876Y0397182D03*
X0294924Y0397182D03*
D14*
X0289806Y0382714D03*
X0285869Y0382714D03*
X0281931Y0382714D03*
X0277994Y0382714D03*
X0277994Y0342714D03*
X0281931Y0342714D03*
X0285869Y0342714D03*
X0289806Y0342714D03*
X0289806Y0301937D03*
X0285869Y0301937D03*
X0281931Y0301937D03*
X0277994Y0301937D03*
X0277994Y0261937D03*
X0281931Y0261937D03*
X0285869Y0261937D03*
X0289806Y0261937D03*
X0289806Y0221137D03*
X0285869Y0221137D03*
X0281931Y0221137D03*
X0277994Y0221137D03*
X0277994Y0181137D03*
X0281931Y0181137D03*
X0285869Y0181137D03*
X0289806Y0181137D03*
X0289806Y0140337D03*
X0285869Y0140337D03*
X0281931Y0140337D03*
X0277994Y0140337D03*
X0277994Y0100337D03*
X0281931Y0100337D03*
X0285869Y0100337D03*
X0289806Y0100337D03*
X0209006Y0100337D03*
X0205069Y0100337D03*
X0201131Y0100337D03*
X0197194Y0100337D03*
X0197194Y0140337D03*
X0201131Y0140337D03*
X0205069Y0140337D03*
X0209006Y0140337D03*
X0209006Y0181137D03*
X0205069Y0181137D03*
X0201131Y0181137D03*
X0197194Y0181137D03*
X0197194Y0221137D03*
X0201131Y0221137D03*
X0205069Y0221137D03*
X0209006Y0221137D03*
X0209006Y0261937D03*
X0205069Y0261937D03*
X0201131Y0261937D03*
X0197194Y0261937D03*
X0197194Y0301937D03*
X0201131Y0301937D03*
X0205069Y0301937D03*
X0209006Y0301937D03*
X0209006Y0342714D03*
X0205069Y0342714D03*
X0201131Y0342714D03*
X0197194Y0342714D03*
X0197194Y0382714D03*
X0201131Y0382714D03*
X0205069Y0382714D03*
X0209006Y0382714D03*
X0128206Y0382714D03*
X0124269Y0382714D03*
X0120331Y0382714D03*
X0116394Y0382714D03*
X0116394Y0342714D03*
X0120331Y0342714D03*
X0124269Y0342714D03*
X0128206Y0342714D03*
X0128206Y0301937D03*
X0124269Y0301937D03*
X0120331Y0301937D03*
X0116394Y0301937D03*
X0116394Y0261937D03*
X0120331Y0261937D03*
X0124269Y0261937D03*
X0128206Y0261937D03*
X0128206Y0221137D03*
X0124269Y0221137D03*
X0120331Y0221137D03*
X0116394Y0221137D03*
X0116394Y0181137D03*
X0120331Y0181137D03*
X0124269Y0181137D03*
X0128206Y0181137D03*
X0128206Y0140337D03*
X0124269Y0140337D03*
X0120331Y0140337D03*
X0116394Y0140337D03*
X0116394Y0100337D03*
X0120331Y0100337D03*
X0124269Y0100337D03*
X0128206Y0100337D03*
X0047406Y0100337D03*
X0043469Y0100337D03*
X0039531Y0100337D03*
X0035594Y0100337D03*
X0035594Y0140337D03*
X0039531Y0140337D03*
X0043469Y0140337D03*
X0047406Y0140337D03*
X0047406Y0181137D03*
X0043469Y0181137D03*
X0039531Y0181137D03*
X0035594Y0181137D03*
X0035594Y0221137D03*
X0039531Y0221137D03*
X0043469Y0221137D03*
X0047406Y0221137D03*
X0047406Y0261937D03*
X0043469Y0261937D03*
X0039531Y0261937D03*
X0035594Y0261937D03*
X0035594Y0301937D03*
X0039531Y0301937D03*
X0043469Y0301937D03*
X0047406Y0301937D03*
X0047406Y0342714D03*
X0043469Y0342714D03*
X0039531Y0342714D03*
X0035594Y0342714D03*
X0035594Y0382714D03*
X0039531Y0382714D03*
X0043469Y0382714D03*
X0047406Y0382714D03*
D15*
X0029000Y0372714D03*
X0029000Y0291937D03*
X0029000Y0211137D03*
X0029000Y0130337D03*
X0109800Y0130337D03*
X0109800Y0211137D03*
X0109800Y0291937D03*
X0109800Y0372714D03*
X0190600Y0372714D03*
X0190600Y0291937D03*
X0190600Y0211137D03*
X0190600Y0130337D03*
X0271400Y0130337D03*
X0271400Y0211137D03*
X0271400Y0291937D03*
X0271400Y0372714D03*
M02*
