G75*
%MOIN*%
%OFA0B0*%
%FSLAX25Y25*%
%IPPOS*%
%LPD*%
%AMOC8*
5,1,8,0,0,1.08239X$1,22.5*
%
%ADD10R,0.01378X0.07874*%
D10*
X0007406Y0108337D03*
X0009965Y0108337D03*
X0012524Y0108337D03*
X0015083Y0108337D03*
X0017642Y0108337D03*
X0020201Y0108337D03*
X0022760Y0108337D03*
X0025319Y0108337D03*
X0027878Y0108337D03*
X0030437Y0108337D03*
X0032996Y0108337D03*
X0035555Y0108337D03*
X0038114Y0108337D03*
X0040673Y0108337D03*
X0043232Y0108337D03*
X0045791Y0108337D03*
X0048350Y0108337D03*
X0050909Y0108337D03*
X0053469Y0108337D03*
X0056028Y0108337D03*
X0058587Y0108337D03*
X0061146Y0108337D03*
X0063705Y0108337D03*
X0066264Y0108337D03*
X0068823Y0108337D03*
X0071382Y0108337D03*
X0073941Y0108337D03*
X0076500Y0108337D03*
X0088206Y0108337D03*
X0090765Y0108337D03*
X0093324Y0108337D03*
X0095883Y0108337D03*
X0098442Y0108337D03*
X0101001Y0108337D03*
X0103560Y0108337D03*
X0106119Y0108337D03*
X0108678Y0108337D03*
X0111237Y0108337D03*
X0113796Y0108337D03*
X0116355Y0108337D03*
X0118914Y0108337D03*
X0121473Y0108337D03*
X0124032Y0108337D03*
X0126591Y0108337D03*
X0129150Y0108337D03*
X0131709Y0108337D03*
X0134269Y0108337D03*
X0136828Y0108337D03*
X0139387Y0108337D03*
X0141946Y0108337D03*
X0144505Y0108337D03*
X0147064Y0108337D03*
X0149623Y0108337D03*
X0152182Y0108337D03*
X0154741Y0108337D03*
X0157300Y0108337D03*
X0169006Y0108337D03*
X0171565Y0108337D03*
X0174124Y0108337D03*
X0176683Y0108337D03*
X0179242Y0108337D03*
X0181801Y0108337D03*
X0184360Y0108337D03*
X0186919Y0108337D03*
X0189478Y0108337D03*
X0192037Y0108337D03*
X0194596Y0108337D03*
X0197155Y0108337D03*
X0199714Y0108337D03*
X0202273Y0108337D03*
X0204832Y0108337D03*
X0207391Y0108337D03*
X0209950Y0108337D03*
X0212509Y0108337D03*
X0215069Y0108337D03*
X0217628Y0108337D03*
X0220187Y0108337D03*
X0222746Y0108337D03*
X0225305Y0108337D03*
X0227864Y0108337D03*
X0230423Y0108337D03*
X0232982Y0108337D03*
X0235541Y0108337D03*
X0238100Y0108337D03*
X0249806Y0108337D03*
X0252365Y0108337D03*
X0254924Y0108337D03*
X0257483Y0108337D03*
X0260042Y0108337D03*
X0262601Y0108337D03*
X0265160Y0108337D03*
X0267719Y0108337D03*
X0270278Y0108337D03*
X0272837Y0108337D03*
X0275396Y0108337D03*
X0277955Y0108337D03*
X0280514Y0108337D03*
X0283073Y0108337D03*
X0285632Y0108337D03*
X0288191Y0108337D03*
X0290750Y0108337D03*
X0293309Y0108337D03*
X0295869Y0108337D03*
X0298428Y0108337D03*
X0300987Y0108337D03*
X0303546Y0108337D03*
X0306105Y0108337D03*
X0308664Y0108337D03*
X0311223Y0108337D03*
X0313782Y0108337D03*
X0316341Y0108337D03*
X0318900Y0108337D03*
X0318900Y0189137D03*
X0316341Y0189137D03*
X0313782Y0189137D03*
X0311223Y0189137D03*
X0308664Y0189137D03*
X0306105Y0189137D03*
X0303546Y0189137D03*
X0300987Y0189137D03*
X0298428Y0189137D03*
X0295869Y0189137D03*
X0293309Y0189137D03*
X0290750Y0189137D03*
X0288191Y0189137D03*
X0285632Y0189137D03*
X0283073Y0189137D03*
X0280514Y0189137D03*
X0277955Y0189137D03*
X0275396Y0189137D03*
X0272837Y0189137D03*
X0270278Y0189137D03*
X0267719Y0189137D03*
X0265160Y0189137D03*
X0262601Y0189137D03*
X0260042Y0189137D03*
X0257483Y0189137D03*
X0254924Y0189137D03*
X0252365Y0189137D03*
X0249806Y0189137D03*
X0238100Y0189137D03*
X0235541Y0189137D03*
X0232982Y0189137D03*
X0230423Y0189137D03*
X0227864Y0189137D03*
X0225305Y0189137D03*
X0222746Y0189137D03*
X0220187Y0189137D03*
X0217628Y0189137D03*
X0215069Y0189137D03*
X0212509Y0189137D03*
X0209950Y0189137D03*
X0207391Y0189137D03*
X0204832Y0189137D03*
X0202273Y0189137D03*
X0199714Y0189137D03*
X0197155Y0189137D03*
X0194596Y0189137D03*
X0192037Y0189137D03*
X0189478Y0189137D03*
X0186919Y0189137D03*
X0184360Y0189137D03*
X0181801Y0189137D03*
X0179242Y0189137D03*
X0176683Y0189137D03*
X0174124Y0189137D03*
X0171565Y0189137D03*
X0169006Y0189137D03*
X0157300Y0189137D03*
X0154741Y0189137D03*
X0152182Y0189137D03*
X0149623Y0189137D03*
X0147064Y0189137D03*
X0144505Y0189137D03*
X0141946Y0189137D03*
X0139387Y0189137D03*
X0136828Y0189137D03*
X0134269Y0189137D03*
X0131709Y0189137D03*
X0129150Y0189137D03*
X0126591Y0189137D03*
X0124032Y0189137D03*
X0121473Y0189137D03*
X0118914Y0189137D03*
X0116355Y0189137D03*
X0113796Y0189137D03*
X0111237Y0189137D03*
X0108678Y0189137D03*
X0106119Y0189137D03*
X0103560Y0189137D03*
X0101001Y0189137D03*
X0098442Y0189137D03*
X0095883Y0189137D03*
X0093324Y0189137D03*
X0090765Y0189137D03*
X0088206Y0189137D03*
X0076500Y0189137D03*
X0073941Y0189137D03*
X0071382Y0189137D03*
X0068823Y0189137D03*
X0066264Y0189137D03*
X0063705Y0189137D03*
X0061146Y0189137D03*
X0058587Y0189137D03*
X0056028Y0189137D03*
X0053469Y0189137D03*
X0050909Y0189137D03*
X0048350Y0189137D03*
X0045791Y0189137D03*
X0043232Y0189137D03*
X0040673Y0189137D03*
X0038114Y0189137D03*
X0035555Y0189137D03*
X0032996Y0189137D03*
X0030437Y0189137D03*
X0027878Y0189137D03*
X0025319Y0189137D03*
X0022760Y0189137D03*
X0020201Y0189137D03*
X0017642Y0189137D03*
X0015083Y0189137D03*
X0012524Y0189137D03*
X0009965Y0189137D03*
X0007406Y0189137D03*
X0007406Y0269937D03*
X0009965Y0269937D03*
X0012524Y0269937D03*
X0015083Y0269937D03*
X0017642Y0269937D03*
X0020201Y0269937D03*
X0022760Y0269937D03*
X0025319Y0269937D03*
X0027878Y0269937D03*
X0030437Y0269937D03*
X0032996Y0269937D03*
X0035555Y0269937D03*
X0038114Y0269937D03*
X0040673Y0269937D03*
X0043232Y0269937D03*
X0045791Y0269937D03*
X0048350Y0269937D03*
X0050909Y0269937D03*
X0053469Y0269937D03*
X0056028Y0269937D03*
X0058587Y0269937D03*
X0061146Y0269937D03*
X0063705Y0269937D03*
X0066264Y0269937D03*
X0068823Y0269937D03*
X0071382Y0269937D03*
X0073941Y0269937D03*
X0076500Y0269937D03*
X0088206Y0269937D03*
X0090765Y0269937D03*
X0093324Y0269937D03*
X0095883Y0269937D03*
X0098442Y0269937D03*
X0101001Y0269937D03*
X0103560Y0269937D03*
X0106119Y0269937D03*
X0108678Y0269937D03*
X0111237Y0269937D03*
X0113796Y0269937D03*
X0116355Y0269937D03*
X0118914Y0269937D03*
X0121473Y0269937D03*
X0124032Y0269937D03*
X0126591Y0269937D03*
X0129150Y0269937D03*
X0131709Y0269937D03*
X0134269Y0269937D03*
X0136828Y0269937D03*
X0139387Y0269937D03*
X0141946Y0269937D03*
X0144505Y0269937D03*
X0147064Y0269937D03*
X0149623Y0269937D03*
X0152182Y0269937D03*
X0154741Y0269937D03*
X0157300Y0269937D03*
X0169006Y0269937D03*
X0171565Y0269937D03*
X0174124Y0269937D03*
X0176683Y0269937D03*
X0179242Y0269937D03*
X0181801Y0269937D03*
X0184360Y0269937D03*
X0186919Y0269937D03*
X0189478Y0269937D03*
X0192037Y0269937D03*
X0194596Y0269937D03*
X0197155Y0269937D03*
X0199714Y0269937D03*
X0202273Y0269937D03*
X0204832Y0269937D03*
X0207391Y0269937D03*
X0209950Y0269937D03*
X0212509Y0269937D03*
X0215069Y0269937D03*
X0217628Y0269937D03*
X0220187Y0269937D03*
X0222746Y0269937D03*
X0225305Y0269937D03*
X0227864Y0269937D03*
X0230423Y0269937D03*
X0232982Y0269937D03*
X0235541Y0269937D03*
X0238100Y0269937D03*
X0249806Y0269937D03*
X0252365Y0269937D03*
X0254924Y0269937D03*
X0257483Y0269937D03*
X0260042Y0269937D03*
X0262601Y0269937D03*
X0265160Y0269937D03*
X0267719Y0269937D03*
X0270278Y0269937D03*
X0272837Y0269937D03*
X0275396Y0269937D03*
X0277955Y0269937D03*
X0280514Y0269937D03*
X0283073Y0269937D03*
X0285632Y0269937D03*
X0288191Y0269937D03*
X0290750Y0269937D03*
X0293309Y0269937D03*
X0295869Y0269937D03*
X0298428Y0269937D03*
X0300987Y0269937D03*
X0303546Y0269937D03*
X0306105Y0269937D03*
X0308664Y0269937D03*
X0311223Y0269937D03*
X0313782Y0269937D03*
X0316341Y0269937D03*
X0318900Y0269937D03*
X0318900Y0350714D03*
X0316341Y0350714D03*
X0313782Y0350714D03*
X0311223Y0350714D03*
X0308664Y0350714D03*
X0306105Y0350714D03*
X0303546Y0350714D03*
X0300987Y0350714D03*
X0298428Y0350714D03*
X0295869Y0350714D03*
X0293309Y0350714D03*
X0290750Y0350714D03*
X0288191Y0350714D03*
X0285632Y0350714D03*
X0283073Y0350714D03*
X0280514Y0350714D03*
X0277955Y0350714D03*
X0275396Y0350714D03*
X0272837Y0350714D03*
X0270278Y0350714D03*
X0267719Y0350714D03*
X0265160Y0350714D03*
X0262601Y0350714D03*
X0260042Y0350714D03*
X0257483Y0350714D03*
X0254924Y0350714D03*
X0252365Y0350714D03*
X0249806Y0350714D03*
X0238100Y0350714D03*
X0235541Y0350714D03*
X0232982Y0350714D03*
X0230423Y0350714D03*
X0227864Y0350714D03*
X0225305Y0350714D03*
X0222746Y0350714D03*
X0220187Y0350714D03*
X0217628Y0350714D03*
X0215069Y0350714D03*
X0212509Y0350714D03*
X0209950Y0350714D03*
X0207391Y0350714D03*
X0204832Y0350714D03*
X0202273Y0350714D03*
X0199714Y0350714D03*
X0197155Y0350714D03*
X0194596Y0350714D03*
X0192037Y0350714D03*
X0189478Y0350714D03*
X0186919Y0350714D03*
X0184360Y0350714D03*
X0181801Y0350714D03*
X0179242Y0350714D03*
X0176683Y0350714D03*
X0174124Y0350714D03*
X0171565Y0350714D03*
X0169006Y0350714D03*
X0157300Y0350714D03*
X0154741Y0350714D03*
X0152182Y0350714D03*
X0149623Y0350714D03*
X0147064Y0350714D03*
X0144505Y0350714D03*
X0141946Y0350714D03*
X0139387Y0350714D03*
X0136828Y0350714D03*
X0134269Y0350714D03*
X0131709Y0350714D03*
X0129150Y0350714D03*
X0126591Y0350714D03*
X0124032Y0350714D03*
X0121473Y0350714D03*
X0118914Y0350714D03*
X0116355Y0350714D03*
X0113796Y0350714D03*
X0111237Y0350714D03*
X0108678Y0350714D03*
X0106119Y0350714D03*
X0103560Y0350714D03*
X0101001Y0350714D03*
X0098442Y0350714D03*
X0095883Y0350714D03*
X0093324Y0350714D03*
X0090765Y0350714D03*
X0088206Y0350714D03*
X0076500Y0350714D03*
X0073941Y0350714D03*
X0071382Y0350714D03*
X0068823Y0350714D03*
X0066264Y0350714D03*
X0063705Y0350714D03*
X0061146Y0350714D03*
X0058587Y0350714D03*
X0056028Y0350714D03*
X0053469Y0350714D03*
X0050909Y0350714D03*
X0048350Y0350714D03*
X0045791Y0350714D03*
X0043232Y0350714D03*
X0040673Y0350714D03*
X0038114Y0350714D03*
X0035555Y0350714D03*
X0032996Y0350714D03*
X0030437Y0350714D03*
X0027878Y0350714D03*
X0025319Y0350714D03*
X0022760Y0350714D03*
X0020201Y0350714D03*
X0017642Y0350714D03*
X0015083Y0350714D03*
X0012524Y0350714D03*
X0009965Y0350714D03*
X0007406Y0350714D03*
M02*
