%
M48
M72
T01C0.0150
T02C0.0200
T03C0.0315
T04C0.0400
%
T01
X4150Y9034
X4650Y9384
X6150Y9534
X6900Y10184
X7400Y10184
X7300Y12034
X6650Y12034
X5400Y12284
X5000Y12034
X4550Y12834
X4150Y12884
X3850Y13234
X4150Y12284
X2900Y13784
X3556Y14618
X4150Y15034
X4650Y15534
X4150Y17114
X4650Y17464
X6150Y17614
X6900Y18264
X7400Y18264
X7300Y20114
X6650Y20114
X5400Y20364
X5000Y20114
X4550Y20914
X4150Y20964
X3850Y21314
X4150Y20364
X2900Y21864
X3556Y22698
X4150Y23114
X4650Y23614
X4150Y25194
X4650Y25544
X6150Y25694
X6900Y26344
X7400Y26344
X7300Y28194
X6650Y28194
X5400Y28444
X5000Y28194
X4550Y28994
X4150Y29044
X3850Y29394
X4150Y28444
X2900Y29944
X3556Y30778
X4150Y31194
X4650Y31694
X4150Y33271
X4650Y33621
X6150Y33771
X6900Y34421
X7400Y34421
X7300Y36271
X6650Y36271
X5400Y36521
X5000Y36271
X4550Y37071
X4150Y37121
X3850Y37471
X4150Y36521
X2900Y38021
X3556Y38856
X4150Y39271
X4650Y39771
X5450Y38021
X6650Y38271
X6650Y39271
X9230Y36771
X10230Y36521
X10980Y38021
X11636Y38856
X12230Y39271
X12730Y39771
X13530Y38021
X14730Y38271
X14730Y39271
X12630Y37071
X12230Y37121
X11930Y37471
X12230Y36521
X13080Y36271
X13480Y36521
X14730Y36271
X15380Y36271
X15480Y34421
X14980Y34421
X14230Y33771
X12730Y33621
X12230Y33271
X12730Y31694
X12230Y31194
X11636Y30778
X10980Y29944
X11930Y29394
X12230Y29044
X12630Y28994
X12230Y28444
X13080Y28194
X13480Y28444
X14730Y28194
X15380Y28194
X15480Y26344
X14980Y26344
X14230Y25694
X12730Y25544
X12230Y25194
X12730Y23614
X12230Y23114
X11636Y22698
X10980Y21864
X11930Y21314
X12230Y20964
X12630Y20914
X12230Y20364
X13080Y20114
X13480Y20364
X14730Y20114
X15380Y20114
X15480Y18264
X14980Y18264
X14230Y17614
X12730Y17464
X12230Y17114
X12730Y15534
X12230Y15034
X11636Y14618
X10980Y13784
X11930Y13234
X12230Y12884
X12630Y12834
X12230Y12284
X13080Y12034
X13480Y12284
X14730Y12034
X15380Y12034
X15480Y10184
X14980Y10184
X14230Y9534
X12730Y9384
X12230Y9034
X10230Y9534
X9480Y10034
X10230Y12284
X9230Y12534
X9730Y14034
X6650Y14034
X6650Y15034
X5450Y13784
X2150Y12284
X1150Y12534
X1650Y14034
X2150Y17614
X1400Y18114
X2150Y20364
X1150Y20614
X1650Y22114
X2150Y25694
X1400Y26194
X2150Y28444
X1150Y28694
X1650Y30194
X2150Y33771
X1400Y34271
X2150Y36521
X1150Y36771
X1650Y38271
X6650Y31194
X6650Y30194
X5450Y29944
X9230Y28694
X10230Y28444
X9730Y30194
X10230Y33771
X9480Y34271
X9730Y38271
X14730Y31194
X14730Y30194
X13530Y29944
X17310Y28694
X18310Y28444
X19060Y29944
X19716Y30778
X20310Y31194
X20810Y31694
X20310Y33271
X20810Y33621
X22310Y33771
X23060Y34421
X23560Y34421
X23460Y36271
X22810Y36271
X21560Y36521
X21160Y36271
X20310Y36521
X20310Y37121
X20710Y37071
X20010Y37471
X19060Y38021
X19716Y38856
X20310Y39271
X20810Y39771
X21610Y38021
X22810Y38271
X22810Y39271
X25390Y36771
X26390Y36521
X27140Y38021
X27796Y38856
X28390Y39271
X28890Y39771
X29690Y38021
X28790Y37071
X28390Y37121
X28090Y37471
X28390Y36521
X29240Y36271
X29640Y36521
X30890Y36271
X31540Y36271
X31640Y34421
X31140Y34421
X30390Y33771
X28890Y33621
X28390Y33271
X28890Y31694
X28390Y31194
X27796Y30778
X27140Y29944
X28090Y29394
X28390Y29044
X28790Y28994
X28390Y28444
X29240Y28194
X29640Y28444
X30890Y28194
X31540Y28194
X31640Y26344
X31140Y26344
X30390Y25694
X28890Y25544
X28390Y25194
X28890Y23614
X28390Y23114
X27796Y22698
X27140Y21864
X28090Y21314
X28390Y20964
X28790Y20914
X28390Y20364
X29240Y20114
X29640Y20364
X30890Y20114
X31540Y20114
X31640Y18264
X31140Y18264
X30390Y17614
X28890Y17464
X28390Y17114
X28890Y15534
X28390Y15034
X27796Y14618
X27140Y13784
X28090Y13234
X28390Y12884
X28790Y12834
X28390Y12284
X29240Y12034
X29640Y12284
X30890Y12034
X31540Y12034
X31640Y10184
X31140Y10184
X30390Y9534
X28890Y9384
X28390Y9034
X26390Y9534
X25640Y10034
X26390Y12284
X25390Y12534
X25890Y14034
X23460Y12034
X22810Y12034
X21560Y12284
X21160Y12034
X20310Y12284
X20310Y12884
X20710Y12834
X20010Y13234
X19060Y13784
X19716Y14618
X20310Y15034
X20810Y15534
X20310Y17114
X20810Y17464
X22310Y17614
X23060Y18264
X23560Y18264
X23460Y20114
X22810Y20114
X21560Y20364
X21160Y20114
X20310Y20364
X20310Y20964
X20710Y20914
X20010Y21314
X19060Y21864
X19716Y22698
X20310Y23114
X20810Y23614
X20310Y25194
X20810Y25544
X22310Y25694
X23060Y26344
X23560Y26344
X23460Y28194
X22810Y28194
X21560Y28444
X21160Y28194
X20310Y28444
X20310Y29044
X20710Y28994
X20010Y29394
X21610Y29944
X22810Y30194
X22810Y31194
X25390Y28694
X26390Y28444
X25890Y30194
X26390Y33771
X25640Y34271
X25890Y38271
X30890Y38271
X30890Y39271
X30890Y31194
X30890Y30194
X29690Y29944
X26390Y25694
X25640Y26194
X22810Y23114
X22810Y22114
X21610Y21864
X18310Y20364
X17310Y20614
X17810Y22114
X18310Y25694
X17560Y26194
X14730Y23114
X14730Y22114
X13530Y21864
X10230Y20364
X9230Y20614
X9730Y22114
X6650Y22114
X6650Y23114
X5450Y21864
X9480Y18114
X10230Y17614
X13530Y13784
X14730Y14034
X14730Y15034
X17310Y12534
X18310Y12284
X17810Y14034
X18310Y17614
X17560Y18114
X21610Y13784
X22810Y14034
X22810Y15034
X25640Y18114
X26390Y17614
X26390Y20364
X25390Y20614
X25890Y22114
X29690Y21864
X30890Y22114
X30890Y23114
X30890Y15034
X30890Y14034
X29690Y13784
X23560Y10184
X23060Y10184
X22310Y9534
X20810Y9384
X20310Y9034
X18310Y9534
X17560Y10034
X10230Y25694
X9480Y26194
X17560Y34271
X18310Y33771
X18310Y36521
X17310Y36771
X17810Y38271
X17810Y30194
X1400Y10034
X2150Y9534
T02
X5400Y9834
X5400Y17914
X5400Y25994
X5400Y34071
X13480Y34071
X13480Y25994
X13480Y17914
X13480Y9834
X21560Y9834
X21560Y17914
X21560Y25994
X21560Y34071
X29640Y34071
X29640Y25994
X29640Y17914
X29640Y9834
T03
X31733Y9495
X25138Y9495
X23653Y9495
X17058Y9495
X15573Y9495
X8978Y9495
X7493Y9495
X898Y9495
X898Y17575
X7493Y17575
X8978Y17575
X15573Y17575
X17058Y17575
X23653Y17575
X25138Y17575
X31733Y17575
X31733Y25655
X25138Y25655
X23653Y25655
X17058Y25655
X15573Y25655
X8978Y25655
X7493Y25655
X898Y25655
X898Y33733
X7493Y33733
X8978Y33733
X15573Y33733
X17058Y33733
X23653Y33733
X25138Y33733
X31733Y33733
T04
X31890Y31694
X31890Y30694
X31890Y29694
X31890Y28694
X31890Y23614
X31890Y22614
X31890Y21614
X31890Y20614
X31890Y15534
X31890Y14534
X31890Y13534
X31890Y12534
X23810Y12534
X23810Y13534
X23810Y14534
X23810Y15534
X23810Y20614
X23810Y21614
X23810Y22614
X23810Y23614
X23810Y28694
X23810Y29694
X23810Y30694
X23810Y31694
X23810Y36771
X23810Y37771
X23810Y38771
X23810Y39771
X15730Y39771
X15730Y38771
X15730Y37771
X15730Y36771
X15730Y31694
X15730Y30694
X15730Y29694
X15730Y28694
X15730Y23614
X15730Y22614
X15730Y21614
X15730Y20614
X15730Y15534
X15730Y14534
X15730Y13534
X15730Y12534
X7650Y12534
X7650Y13534
X7650Y14534
X7650Y15534
X7650Y20614
X7650Y21614
X7650Y22614
X7650Y23614
X7650Y28694
X7650Y29694
X7650Y30694
X7650Y31694
X7650Y36771
X7650Y37771
X7650Y38771
X7650Y39771
X31890Y39771
X31890Y38771
X31890Y37771
X31890Y36771
M30
